<svg width="1440" height="2998" viewBox="0 0 1440 2998" fill="none" xmlns="http://www.w3.org/2000/svg">
<path opacity="0.3" d="M211.046 2677.5H214.421V2745H211.046V2677.5ZM143.499 2677.5H146.874V2745H143.499V2677.5ZM204.296 2677.5H207.671V2745H204.296V2677.5ZM197.546 2677.5H200.921V2745H197.546V2677.5ZM190.796 2677.5H194.171V2745H190.796V2718H167.124V2745H163.749V2677.5H167.124V2701.12H190.796V2677.5ZM156.999 2677.5H160.374V2745H156.999V2677.5ZM150.249 2677.5H153.624V2745H150.249V2677.5ZM190.796 2714.62V2711.25H167.124V2714.62H190.796ZM190.796 2707.88V2704.5H167.124V2707.88H190.796ZM273.106 2711.72C273.106 2707.72 271.872 2704.62 269.403 2702.44C266.934 2700.25 263.669 2699.16 259.606 2699.16C256.169 2699.16 253.216 2700.34 250.747 2702.72C248.278 2705.09 247.044 2707.94 247.044 2711.25C247.044 2713.12 247.294 2714.81 247.794 2716.31C248.294 2717.78 248.966 2719.02 249.809 2720.02C250.684 2720.98 251.716 2721.8 252.903 2722.45C254.091 2723.08 255.325 2723.53 256.606 2723.81C257.919 2724.09 259.309 2724.23 260.778 2724.23C264.341 2724.23 267.591 2723.36 270.528 2721.61V2724.98C267.497 2726.58 264.231 2727.38 260.731 2727.38C258.481 2727.38 256.356 2727.08 254.356 2726.48C252.387 2725.86 250.591 2724.94 248.966 2723.72C247.341 2722.47 246.044 2720.78 245.075 2718.66C244.137 2716.5 243.669 2714.03 243.669 2711.25C243.669 2706.94 245.184 2703.28 248.216 2700.28C251.247 2697.28 255.044 2695.78 259.606 2695.78C264.637 2695.78 268.7 2697.2 271.794 2700.05C274.919 2702.86 276.481 2706.75 276.481 2711.72V2745H273.106V2711.72ZM283.231 2711.72V2745H279.856V2711.72C279.856 2705.81 277.966 2701.12 274.184 2697.66C270.403 2694.16 265.544 2692.41 259.606 2692.41C254.106 2692.41 249.512 2694.23 245.825 2697.89C242.137 2701.55 240.294 2706 240.294 2711.25C240.294 2714.44 240.841 2717.3 241.934 2719.83C243.059 2722.36 244.575 2724.39 246.481 2725.92C248.387 2727.45 250.512 2728.62 252.856 2729.44C255.231 2730.22 257.731 2730.61 260.356 2730.61C263.919 2730.61 267.309 2729.78 270.528 2728.12V2731.69C267.153 2733.09 263.747 2733.8 260.309 2733.8C257.216 2733.8 254.278 2733.33 251.497 2732.39C248.716 2731.42 246.231 2730.03 244.044 2728.22C241.856 2726.38 240.122 2724 238.841 2721.09C237.559 2718.16 236.919 2714.88 236.919 2711.25C236.919 2705.09 239.091 2699.86 243.434 2695.55C247.809 2691.2 253.2 2689.03 259.606 2689.03C264.106 2689.03 268.137 2689.95 271.7 2691.8C275.262 2693.61 278.075 2696.25 280.137 2699.72C282.2 2703.19 283.231 2707.19 283.231 2711.72ZM289.981 2711.72V2745H286.606V2711.72C286.606 2706.56 285.419 2702 283.044 2698.03C280.7 2694.03 277.481 2690.97 273.387 2688.84C269.294 2686.72 264.7 2685.66 259.606 2685.66C254.762 2685.66 250.341 2686.81 246.341 2689.12C242.341 2691.41 239.2 2694.5 236.919 2698.41C234.669 2702.31 233.544 2706.59 233.544 2711.25C233.544 2715.25 234.278 2718.91 235.747 2722.22C237.216 2725.5 239.184 2728.2 241.653 2730.33C244.153 2732.45 246.981 2734.11 250.137 2735.3C253.325 2736.45 256.653 2737.03 260.122 2737.03C263.653 2737.03 267.122 2736.3 270.528 2734.83V2738.25C266.966 2739.59 263.466 2740.27 260.028 2740.27C254.622 2740.27 249.653 2739.05 245.122 2736.61C240.591 2734.17 236.966 2730.72 234.247 2726.25C231.528 2721.78 230.169 2716.78 230.169 2711.25C230.169 2707.31 230.919 2703.56 232.419 2700C233.95 2696.44 236.012 2693.36 238.606 2690.77C241.2 2688.17 244.325 2686.11 247.981 2684.58C251.637 2683.05 255.512 2682.28 259.606 2682.28C265.325 2682.28 270.481 2683.5 275.075 2685.94C279.7 2688.38 283.341 2691.84 285.997 2696.34C288.653 2700.84 289.981 2705.97 289.981 2711.72ZM296.731 2711.72V2745H293.356V2711.72C293.356 2705.34 291.872 2699.66 288.903 2694.66C285.934 2689.62 281.887 2685.75 276.762 2683.03C271.637 2680.28 265.919 2678.91 259.606 2678.91C253.544 2678.91 247.997 2680.36 242.966 2683.27C237.934 2686.17 233.981 2690.11 231.106 2695.08C228.231 2700.02 226.794 2705.41 226.794 2711.25C226.794 2715.09 227.403 2718.75 228.622 2722.22C229.872 2725.66 231.559 2728.67 233.684 2731.27C235.841 2733.83 238.309 2736.05 241.091 2737.92C243.903 2739.8 246.919 2741.22 250.137 2742.19C253.387 2743.16 256.684 2743.64 260.028 2743.64C263.716 2743.64 267.216 2742.94 270.528 2741.53V2745C267.059 2746.22 263.497 2746.83 259.841 2746.83C256.059 2746.83 252.372 2746.3 248.778 2745.23C245.216 2744.17 241.903 2742.61 238.841 2740.55C235.809 2738.45 233.137 2736 230.825 2733.19C228.512 2730.34 226.7 2727.03 225.387 2723.25C224.075 2719.47 223.419 2715.47 223.419 2711.25C223.419 2706.41 224.325 2701.8 226.137 2697.42C227.981 2693.02 230.481 2689.22 233.637 2686.03C236.825 2682.81 240.669 2680.27 245.169 2678.39C249.7 2676.48 254.512 2675.53 259.606 2675.53C264.794 2675.53 269.669 2676.41 274.231 2678.16C278.794 2679.91 282.731 2682.34 286.044 2685.47C289.356 2688.56 291.966 2692.38 293.872 2696.91C295.778 2701.44 296.731 2706.38 296.731 2711.72ZM304.323 2677.5H307.979L332.87 2740.45L357.761 2677.5H361.37L334.698 2745H331.042L304.323 2677.5ZM311.589 2677.5H315.198L335.214 2728.12L333.292 2732.44L311.589 2677.5ZM318.854 2677.5H322.511L338.823 2718.89L337.042 2723.53L318.854 2677.5ZM326.12 2677.5H329.729L342.386 2709.52L340.604 2714.25L326.12 2677.5ZM379.511 2677.5H383.167L356.448 2745H352.839L379.511 2677.5ZM372.292 2677.5H375.901L349.182 2745H345.573L372.292 2677.5ZM364.979 2677.5H368.636L341.917 2745H338.307L364.979 2677.5ZM407.915 2745H404.54V2677.5H407.915V2745ZM401.165 2745H397.79V2677.5H401.165V2745ZM394.415 2745H391.04V2677.5H394.415V2745ZM414.665 2728.12H446.962V2731.5H414.665V2734.88H446.962V2738.25H414.665V2741.62H446.962V2745H411.29V2677.5H446.962V2680.88H414.665V2684.25H446.962V2687.62H414.665V2691H446.962V2694.38H414.665V2702.77H445.087V2706.14H414.665V2709.52H445.087V2712.89H414.665V2716.27H445.087V2719.64H414.665V2728.12ZM492.943 2745H489.568V2677.5H521.771V2680.88H492.943V2684.25H521.771V2687.62H492.943V2691H521.771V2694.38H492.943V2704.69H519.521V2708.06H492.943V2711.44H519.521V2714.81H492.943V2718.19H519.521V2721.56H492.943V2745ZM486.193 2745H482.818V2677.5H486.193V2745ZM479.443 2745H476.068V2677.5H479.443V2745ZM472.693 2745H469.318V2677.5H472.693V2745ZM575.628 2715.09V2677.5H579.003V2715.09C579.003 2718.66 577.628 2721.72 574.878 2724.28C572.159 2726.84 568.878 2728.12 565.034 2728.12C561.191 2728.12 557.894 2726.84 555.144 2724.28C552.425 2721.72 551.066 2718.66 551.066 2715.09V2677.5H554.441V2715.09C554.441 2717.75 555.472 2720.03 557.534 2721.94C559.628 2723.81 562.128 2724.75 565.034 2724.75C567.941 2724.75 570.425 2723.81 572.487 2721.94C574.581 2720.03 575.628 2717.75 575.628 2715.09ZM582.378 2715.09V2677.5H585.753V2715.09C585.753 2720.56 583.722 2725.23 579.659 2729.11C575.597 2732.95 570.722 2734.88 565.034 2734.88C559.347 2734.88 554.472 2732.95 550.409 2729.11C546.347 2725.23 544.316 2720.56 544.316 2715.09V2677.5H547.691V2715.09C547.691 2719.62 549.378 2723.5 552.753 2726.72C556.159 2729.91 560.253 2731.5 565.034 2731.5C569.784 2731.5 573.862 2729.91 577.269 2726.72C580.675 2723.5 582.378 2719.62 582.378 2715.09ZM589.128 2715.09V2677.5H592.503V2715.09C592.503 2719.88 591.269 2724.31 588.8 2728.41C586.331 2732.47 582.987 2735.69 578.769 2738.06C574.55 2740.44 569.972 2741.62 565.034 2741.62C560.097 2741.62 555.519 2740.44 551.3 2738.06C547.081 2735.69 543.737 2732.47 541.269 2728.41C538.8 2724.31 537.566 2719.88 537.566 2715.09V2677.5H540.941V2715.09C540.941 2719.25 542.019 2723.11 544.175 2726.67C546.331 2730.23 549.253 2733.06 552.941 2735.16C556.659 2737.22 560.691 2738.25 565.034 2738.25C569.378 2738.25 573.394 2737.22 577.081 2735.16C580.8 2733.06 583.737 2730.23 585.894 2726.67C588.05 2723.11 589.128 2719.25 589.128 2715.09ZM595.878 2715.09V2677.5H599.253V2715.09C599.253 2719.59 598.347 2723.91 596.534 2728.03C594.722 2732.12 592.284 2735.66 589.222 2738.62C586.159 2741.59 582.519 2743.95 578.3 2745.7C574.081 2747.48 569.659 2748.38 565.034 2748.38C560.409 2748.38 555.987 2747.48 551.769 2745.7C547.55 2743.95 543.909 2741.59 540.847 2738.62C537.784 2735.66 535.347 2732.12 533.534 2728.03C531.722 2723.91 530.816 2719.59 530.816 2715.09V2677.5H534.191V2715.09C534.191 2720.47 535.566 2725.45 538.316 2730.05C541.097 2734.64 544.847 2738.28 549.566 2740.97C554.316 2743.66 559.472 2745 565.034 2745C570.597 2745 575.737 2743.66 580.456 2740.97C585.206 2738.28 588.956 2734.64 591.706 2730.05C594.487 2725.45 595.878 2720.47 595.878 2715.09ZM662.908 2717.77L659.533 2711.62V2677.5H662.908V2717.77ZM669.658 2729.44L666.283 2723.72V2677.5H669.658V2729.44ZM623.158 2704.73L626.533 2710.88V2745H623.158V2704.73ZM616.408 2692.59L619.783 2698.78V2745H616.408V2692.59ZM617.579 2677.5H621.517L660.611 2745H656.673L617.579 2677.5ZM625.548 2677.5H629.533L668.579 2745H664.548L625.548 2677.5ZM633.47 2677.5H637.408L673.033 2739.14V2677.5H676.408V2745H672.423L633.47 2677.5ZM613.033 2683.31V2745H609.658V2677.5H613.689L652.642 2745H648.751L613.033 2683.31Z" fill="#70D6FF"/>
<path opacity="0.3" d="M887.809 1937.2H891.184V1986H887.809V1937.2ZM874.309 1921.88V1918.5H924.934V1921.88H874.309ZM874.309 1928.62V1925.25H924.934V1928.62H874.309ZM874.309 1935.38V1932H924.934V1935.38H874.309ZM908.059 1937.2H911.434V1986H908.059V1937.2ZM901.309 1937.2H904.684V1986H901.309V1937.2ZM894.559 1937.2H897.934V1986H894.559V1937.2ZM959.807 1953.75H980.151C982.839 1953.75 985.12 1952.91 986.995 1951.22C988.87 1949.53 989.807 1947.16 989.807 1944.09C989.807 1941.84 988.823 1939.83 986.854 1938.05C984.917 1936.27 982.682 1935.38 980.151 1935.38H951.182V1986H947.807V1932H980.151C983.62 1932 986.651 1933.22 989.245 1935.66C991.87 1938.09 993.182 1940.91 993.182 1944.09C993.182 1948.06 991.917 1951.23 989.386 1953.61C986.854 1955.95 983.776 1957.12 980.151 1957.12H959.807V1953.75ZM959.807 1960.5H980.151C984.651 1960.5 988.511 1958.97 991.729 1955.91C994.948 1952.84 996.557 1948.91 996.557 1944.09C996.557 1940 994.917 1936.41 991.636 1933.31C988.354 1930.19 984.526 1928.62 980.151 1928.62H944.432V1986H941.057V1925.25H980.151C985.464 1925.25 990.089 1927.14 994.026 1930.92C997.964 1934.67 999.932 1939.06 999.932 1944.09C999.932 1949.72 997.979 1954.42 994.073 1958.2C990.198 1961.98 985.557 1963.88 980.151 1963.88H959.807V1960.5ZM959.807 1967.25H980.151C984.307 1967.25 988.151 1966.25 991.682 1964.25C995.214 1962.25 998.026 1959.47 1000.12 1955.91C1002.24 1952.34 1003.31 1948.41 1003.31 1944.09C1003.31 1940.19 1002.26 1936.53 1000.17 1933.12C998.073 1929.69 995.229 1926.95 991.636 1924.92C988.073 1922.89 984.245 1921.88 980.151 1921.88H937.682V1986H934.307V1918.5H980.151C983.682 1918.5 987.073 1919.2 990.323 1920.61C993.604 1921.98 996.432 1923.83 998.807 1926.14C1001.18 1928.42 1003.09 1931.14 1004.53 1934.3C1005.96 1937.45 1006.68 1940.72 1006.68 1944.09C1006.68 1949.56 1005.43 1954.34 1002.93 1958.44C1000.43 1962.5 997.073 1965.59 992.854 1967.72L999.932 1986H996.323L989.62 1969.08C988.776 1969.36 987.792 1969.64 986.667 1969.92L992.995 1986H989.386L983.198 1970.48C982.229 1970.58 981.214 1970.62 980.151 1970.62L986.104 1986H982.542L976.636 1970.62H973.589L979.261 1986H975.698L969.979 1970.62H959.807V1967.25ZM957.932 1986H954.557V1938.75H980.151C981.901 1938.75 983.386 1939.28 984.604 1940.34C985.823 1941.38 986.432 1942.62 986.432 1944.09C986.432 1948.28 984.339 1950.38 980.151 1950.38H959.807V1947H980.151C982.089 1947 983.057 1946.03 983.057 1944.09C983.057 1943.56 982.761 1943.11 982.167 1942.73C981.604 1942.33 980.932 1942.12 980.151 1942.12H957.932V1986ZM1064.01 1952.72C1064.01 1948.72 1062.77 1945.62 1060.31 1943.44C1057.84 1941.25 1054.57 1940.16 1050.51 1940.16C1047.07 1940.16 1044.12 1941.34 1041.65 1943.72C1039.18 1946.09 1037.95 1948.94 1037.95 1952.25C1037.95 1954.12 1038.2 1955.81 1038.7 1957.31C1039.2 1958.78 1039.87 1960.02 1040.71 1961.02C1041.59 1961.98 1042.62 1962.8 1043.81 1963.45C1044.99 1964.08 1046.23 1964.53 1047.51 1964.81C1048.82 1965.09 1050.21 1965.23 1051.68 1965.23C1055.24 1965.23 1058.49 1964.36 1061.43 1962.61V1965.98C1058.4 1967.58 1055.13 1968.38 1051.63 1968.38C1049.38 1968.38 1047.26 1968.08 1045.26 1967.48C1043.29 1966.86 1041.49 1965.94 1039.87 1964.72C1038.24 1963.47 1036.95 1961.78 1035.98 1959.66C1035.04 1957.5 1034.57 1955.03 1034.57 1952.25C1034.57 1947.94 1036.09 1944.28 1039.12 1941.28C1042.15 1938.28 1045.95 1936.78 1050.51 1936.78C1055.54 1936.78 1059.6 1938.2 1062.7 1941.05C1065.82 1943.86 1067.38 1947.75 1067.38 1952.72V1986H1064.01V1952.72ZM1074.13 1952.72V1986H1070.76V1952.72C1070.76 1946.81 1068.87 1942.12 1065.09 1938.66C1061.31 1935.16 1056.45 1933.41 1050.51 1933.41C1045.01 1933.41 1040.41 1935.23 1036.73 1938.89C1033.04 1942.55 1031.2 1947 1031.2 1952.25C1031.2 1955.44 1031.74 1958.3 1032.84 1960.83C1033.96 1963.36 1035.48 1965.39 1037.38 1966.92C1039.29 1968.45 1041.41 1969.62 1043.76 1970.44C1046.13 1971.22 1048.63 1971.61 1051.26 1971.61C1054.82 1971.61 1058.21 1970.78 1061.43 1969.12V1972.69C1058.06 1974.09 1054.65 1974.8 1051.21 1974.8C1048.12 1974.8 1045.18 1974.33 1042.4 1973.39C1039.62 1972.42 1037.13 1971.03 1034.95 1969.22C1032.76 1967.38 1031.02 1965 1029.74 1962.09C1028.46 1959.16 1027.82 1955.88 1027.82 1952.25C1027.82 1946.09 1029.99 1940.86 1034.34 1936.55C1038.71 1932.2 1044.1 1930.03 1050.51 1930.03C1055.01 1930.03 1059.04 1930.95 1062.6 1932.8C1066.16 1934.61 1068.98 1937.25 1071.04 1940.72C1073.1 1944.19 1074.13 1948.19 1074.13 1952.72ZM1080.88 1952.72V1986H1077.51V1952.72C1077.51 1947.56 1076.32 1943 1073.95 1939.03C1071.6 1935.03 1068.38 1931.97 1064.29 1929.84C1060.2 1927.72 1055.6 1926.66 1050.51 1926.66C1045.66 1926.66 1041.24 1927.81 1037.24 1930.12C1033.24 1932.41 1030.1 1935.5 1027.82 1939.41C1025.57 1943.31 1024.45 1947.59 1024.45 1952.25C1024.45 1956.25 1025.18 1959.91 1026.65 1963.22C1028.12 1966.5 1030.09 1969.2 1032.56 1971.33C1035.06 1973.45 1037.88 1975.11 1041.04 1976.3C1044.23 1977.45 1047.56 1978.03 1051.02 1978.03C1054.56 1978.03 1058.02 1977.3 1061.43 1975.83V1979.25C1057.87 1980.59 1054.37 1981.27 1050.93 1981.27C1045.52 1981.27 1040.56 1980.05 1036.02 1977.61C1031.49 1975.17 1027.87 1971.72 1025.15 1967.25C1022.43 1962.78 1021.07 1957.78 1021.07 1952.25C1021.07 1948.31 1021.82 1944.56 1023.32 1941C1024.85 1937.44 1026.91 1934.36 1029.51 1931.77C1032.1 1929.17 1035.23 1927.11 1038.88 1925.58C1042.54 1924.05 1046.41 1923.28 1050.51 1923.28C1056.23 1923.28 1061.38 1924.5 1065.98 1926.94C1070.6 1929.38 1074.24 1932.84 1076.9 1937.34C1079.56 1941.84 1080.88 1946.97 1080.88 1952.72ZM1087.63 1952.72V1986H1084.26V1952.72C1084.26 1946.34 1082.77 1940.66 1079.81 1935.66C1076.84 1930.62 1072.79 1926.75 1067.66 1924.03C1062.54 1921.28 1056.82 1919.91 1050.51 1919.91C1044.45 1919.91 1038.9 1921.36 1033.87 1924.27C1028.84 1927.17 1024.88 1931.11 1022.01 1936.08C1019.13 1941.02 1017.7 1946.41 1017.7 1952.25C1017.7 1956.09 1018.31 1959.75 1019.52 1963.22C1020.77 1966.66 1022.46 1969.67 1024.59 1972.27C1026.74 1974.83 1029.21 1977.05 1031.99 1978.92C1034.81 1980.8 1037.82 1982.22 1041.04 1983.19C1044.29 1984.16 1047.59 1984.64 1050.93 1984.64C1054.62 1984.64 1058.12 1983.94 1061.43 1982.53V1986C1057.96 1987.22 1054.4 1987.83 1050.74 1987.83C1046.96 1987.83 1043.27 1987.3 1039.68 1986.23C1036.12 1985.17 1032.81 1983.61 1029.74 1981.55C1026.71 1979.45 1024.04 1977 1021.73 1974.19C1019.41 1971.34 1017.6 1968.03 1016.29 1964.25C1014.98 1960.47 1014.32 1956.47 1014.32 1952.25C1014.32 1947.41 1015.23 1942.8 1017.04 1938.42C1018.88 1934.02 1021.38 1930.22 1024.54 1927.03C1027.73 1923.81 1031.57 1921.27 1036.07 1919.39C1040.6 1917.48 1045.41 1916.53 1050.51 1916.53C1055.7 1916.53 1060.57 1917.41 1065.13 1919.16C1069.7 1920.91 1073.63 1923.34 1076.95 1926.47C1080.26 1929.56 1082.87 1933.38 1084.77 1937.91C1086.68 1942.44 1087.63 1947.38 1087.63 1952.72ZM1095.23 1918.5H1098.88L1123.77 1981.45L1148.66 1918.5H1152.27L1125.6 1986H1121.94L1095.23 1918.5ZM1102.49 1918.5H1106.1L1126.12 1969.12L1124.19 1973.44L1102.49 1918.5ZM1109.76 1918.5H1113.41L1129.73 1959.89L1127.94 1964.53L1109.76 1918.5ZM1117.02 1918.5H1120.63L1133.29 1950.52L1131.51 1955.25L1117.02 1918.5ZM1170.41 1918.5H1174.07L1147.35 1986H1143.74L1170.41 1918.5ZM1163.19 1918.5H1166.8L1140.08 1986H1136.48L1163.19 1918.5ZM1155.88 1918.5H1159.54L1132.82 1986H1129.21L1155.88 1918.5ZM1198.82 1986H1195.44V1918.5H1198.82V1986ZM1192.07 1986H1188.69V1918.5H1192.07V1986ZM1185.32 1986H1181.94V1918.5H1185.32V1986ZM1205.57 1969.12H1237.86V1972.5H1205.57V1975.88H1237.86V1979.25H1205.57V1982.62H1237.86V1986H1202.19V1918.5H1237.86V1921.88H1205.57V1925.25H1237.86V1928.62H1205.57V1932H1237.86V1935.38H1205.57V1943.77H1235.99V1947.14H1205.57V1950.52H1235.99V1953.89H1205.57V1957.27H1235.99V1960.64H1205.57V1969.12ZM1247.89 1918.5H1251.27V1986H1247.89V1918.5ZM1268.14 1918.5H1271.52V1969.12H1296.41V1972.5H1271.52V1975.88H1296.41V1979.25H1271.52V1982.62H1296.41V1986H1268.14V1918.5ZM1261.39 1918.5H1264.77V1986H1261.39V1918.5ZM1254.64 1918.5H1258.02V1986H1254.64V1918.5Z" fill="#70D6FF"/>
<path opacity="0.3" d="M1001.35 2342.3C1002.01 2342.33 1002.81 2342.34 1003.74 2342.34C1004.68 2342.34 1005.46 2342.33 1006.09 2342.3C1006.74 2342.23 1007.42 2342.11 1008.1 2341.92C1008.79 2341.7 1009.34 2341.42 1009.74 2341.08C1010.15 2340.73 1010.48 2340.25 1010.73 2339.62C1011.01 2338.97 1011.15 2338.19 1011.15 2337.28V2296.5H1014.53V2337.28C1014.53 2342.91 1010.93 2345.72 1003.74 2345.72C1000.12 2345.72 997.432 2345.03 995.682 2343.66C995.432 2344.88 995.136 2345.95 994.792 2346.89C997.167 2348.36 1000.15 2349.09 1003.74 2349.09C1007.93 2349.09 1011.34 2348.12 1013.96 2346.19C1016.59 2344.22 1017.9 2341.25 1017.9 2337.28V2296.5H1021.28V2337.28C1021.28 2342.19 1019.62 2345.95 1016.31 2348.58C1013.03 2351.17 1008.84 2352.47 1003.74 2352.47C999.776 2352.47 996.37 2351.66 993.526 2350.03C993.057 2351.03 992.511 2351.98 991.886 2352.89C995.292 2354.86 999.245 2355.84 1003.74 2355.84C1006.65 2355.84 1009.35 2355.44 1011.85 2354.62C1014.39 2353.81 1016.6 2352.64 1018.51 2351.11C1020.42 2349.58 1021.92 2347.62 1023.01 2345.25C1024.1 2342.88 1024.65 2340.22 1024.65 2337.28V2296.5H1028.03V2337.28C1028.03 2341.78 1026.92 2345.72 1024.7 2349.09C1022.51 2352.47 1019.59 2355 1015.93 2356.69C1012.31 2358.38 1008.24 2359.22 1003.74 2359.22C998.495 2359.22 993.87 2358.02 989.87 2355.61C988.995 2356.61 988.198 2357.42 987.479 2358.05C992.136 2361.08 997.557 2362.59 1003.74 2362.59C1008.84 2362.59 1013.46 2361.59 1017.62 2359.59C1021.78 2357.59 1025.1 2354.66 1027.6 2350.78C1030.14 2346.88 1031.4 2342.38 1031.4 2337.28V2296.5H1034.78V2337.28C1034.78 2341.59 1033.95 2345.56 1032.29 2349.19C1030.67 2352.81 1028.45 2355.84 1025.64 2358.28C1022.85 2360.72 1019.57 2362.61 1015.79 2363.95C1012.01 2365.3 1007.99 2365.97 1003.74 2365.97C996.307 2365.97 989.948 2364.06 984.667 2360.25C979.198 2364.06 972.745 2365.97 965.307 2365.97C961.057 2365.97 957.042 2365.3 953.261 2363.95C949.479 2362.61 946.182 2360.72 943.37 2358.28C940.589 2355.84 938.37 2352.81 936.714 2349.19C935.089 2345.56 934.276 2341.59 934.276 2337.28V2296.5H937.651V2337.28C937.651 2341.12 938.37 2344.66 939.807 2347.88C941.276 2351.09 943.261 2353.77 945.761 2355.89C948.261 2358.02 951.182 2359.67 954.526 2360.86C957.901 2362.02 961.495 2362.59 965.307 2362.59C970.276 2362.59 974.886 2361.47 979.136 2359.22C983.386 2356.94 986.745 2353.86 989.214 2349.98C991.714 2346.08 992.964 2341.84 992.964 2337.28V2296.5H996.339V2337.28C996.339 2338.19 996.464 2338.97 996.714 2339.62C996.995 2340.25 997.339 2340.73 997.745 2341.08C998.151 2341.42 998.698 2341.7 999.386 2341.92C1000.07 2342.11 1000.73 2342.23 1001.35 2342.3ZM976.089 2296.5V2337.28C976.089 2342.91 972.495 2345.72 965.307 2345.72C958.12 2345.72 954.526 2342.91 954.526 2337.28V2296.5H957.901V2337.28C957.901 2338.19 958.026 2338.97 958.276 2339.62C958.557 2340.25 958.901 2340.73 959.307 2341.08C959.714 2341.42 960.261 2341.7 960.948 2341.92C961.636 2342.11 962.292 2342.23 962.917 2342.3C963.573 2342.33 964.37 2342.34 965.307 2342.34C966.245 2342.34 967.026 2342.33 967.651 2342.3C968.307 2342.23 968.979 2342.11 969.667 2341.92C970.354 2341.7 970.901 2341.42 971.307 2341.08C971.714 2340.73 972.042 2340.25 972.292 2339.62C972.573 2338.97 972.714 2338.19 972.714 2337.28V2296.5H976.089ZM982.839 2296.5V2337.28C982.839 2342.19 981.182 2345.95 977.87 2348.58C974.589 2351.17 970.401 2352.47 965.307 2352.47C960.214 2352.47 956.011 2351.17 952.698 2348.58C949.417 2345.95 947.776 2342.19 947.776 2337.28V2296.5H951.151V2337.28C951.151 2341.25 952.464 2344.22 955.089 2346.19C957.714 2348.12 961.12 2349.09 965.307 2349.09C969.495 2349.09 972.901 2348.12 975.526 2346.19C978.151 2344.22 979.464 2341.25 979.464 2337.28V2296.5H982.839ZM989.589 2296.5V2337.28C989.589 2341.78 988.479 2345.72 986.261 2349.09C984.073 2352.47 981.151 2355 977.495 2356.69C973.87 2358.38 969.807 2359.22 965.307 2359.22C960.807 2359.22 956.729 2358.38 953.073 2356.69C949.448 2355 946.526 2352.47 944.307 2349.09C942.12 2345.72 941.026 2341.78 941.026 2337.28V2296.5H944.401V2337.28C944.401 2340.22 944.948 2342.88 946.042 2345.25C947.136 2347.62 948.636 2349.58 950.542 2351.11C952.448 2352.64 954.651 2353.81 957.151 2354.62C959.682 2355.44 962.401 2355.84 965.307 2355.84C968.214 2355.84 970.917 2355.44 973.417 2354.62C975.948 2353.81 978.167 2352.64 980.073 2351.11C981.979 2349.58 983.479 2347.62 984.573 2345.25C985.667 2342.88 986.214 2340.22 986.214 2337.28V2296.5H989.589ZM1070.96 2320.73C1068.34 2323.36 1067.02 2326.53 1067.02 2330.25C1067.02 2333.97 1068.34 2337.16 1070.96 2339.81C1073.62 2342.44 1076.81 2343.75 1080.52 2343.75C1084.24 2343.75 1087.41 2342.44 1090.04 2339.81C1092.7 2337.16 1094.02 2333.97 1094.02 2330.25C1094.02 2326.53 1092.7 2323.36 1090.04 2320.73C1087.41 2318.08 1084.24 2316.75 1080.52 2316.75C1076.81 2316.75 1073.62 2318.08 1070.96 2320.73ZM1068.57 2342.2C1065.29 2338.89 1063.65 2334.91 1063.65 2330.25C1063.65 2325.59 1065.29 2321.62 1068.57 2318.34C1071.88 2315.03 1075.87 2313.38 1080.52 2313.38C1085.18 2313.38 1089.15 2315.03 1092.43 2318.34C1095.74 2321.62 1097.4 2325.59 1097.4 2330.25C1097.4 2334.91 1095.74 2338.89 1092.43 2342.2C1089.15 2345.48 1085.18 2347.12 1080.52 2347.12C1075.87 2347.12 1071.88 2345.48 1068.57 2342.2ZM1066.18 2315.95C1062.24 2319.92 1060.27 2324.69 1060.27 2330.25C1060.27 2335.81 1062.24 2340.58 1066.18 2344.55C1070.15 2348.52 1074.93 2350.5 1080.52 2350.5C1086.12 2350.5 1090.88 2348.52 1094.82 2344.55C1098.79 2340.58 1100.77 2335.81 1100.77 2330.25C1100.77 2324.69 1098.79 2319.92 1094.82 2315.95C1090.88 2311.98 1086.12 2310 1080.52 2310C1074.93 2310 1070.15 2311.98 1066.18 2315.95ZM1060.04 2342.11C1057.95 2338.48 1056.9 2334.53 1056.9 2330.25C1056.9 2325.97 1057.95 2322.02 1060.04 2318.39C1062.16 2314.77 1065.04 2311.91 1068.66 2309.81C1072.29 2307.69 1076.24 2306.62 1080.52 2306.62C1084.81 2306.62 1088.76 2307.69 1092.38 2309.81C1096.01 2311.91 1098.87 2314.77 1100.96 2318.39C1103.09 2322.02 1104.15 2325.97 1104.15 2330.25C1104.15 2334.53 1103.09 2338.48 1100.96 2342.11C1098.87 2345.73 1096.01 2348.61 1092.38 2350.73C1088.76 2352.83 1084.81 2353.88 1080.52 2353.88C1076.24 2353.88 1072.29 2352.83 1068.66 2350.73C1065.04 2348.61 1062.16 2345.73 1060.04 2342.11ZM1055.63 2319.8C1054.23 2323.11 1053.52 2326.59 1053.52 2330.25C1053.52 2333.91 1054.23 2337.41 1055.63 2340.75C1057.07 2344.06 1058.99 2346.94 1061.4 2349.38C1063.84 2351.78 1066.71 2353.7 1070.02 2355.14C1073.37 2356.55 1076.87 2357.25 1080.52 2357.25C1084.18 2357.25 1087.66 2356.55 1090.98 2355.14C1094.32 2353.7 1097.2 2351.78 1099.6 2349.38C1102.04 2346.94 1103.96 2344.06 1105.37 2340.75C1106.81 2337.41 1107.52 2333.91 1107.52 2330.25C1107.52 2326.59 1106.81 2323.11 1105.37 2319.8C1103.96 2316.45 1102.04 2313.58 1099.6 2311.17C1097.2 2308.73 1094.32 2306.81 1090.98 2305.41C1087.66 2303.97 1084.18 2303.25 1080.52 2303.25C1076.87 2303.25 1073.37 2303.97 1070.02 2305.41C1066.71 2306.81 1063.84 2308.73 1061.4 2311.17C1058.99 2313.58 1057.07 2316.45 1055.63 2319.8ZM1052.54 2342.06C1050.95 2338.31 1050.15 2334.38 1050.15 2330.25C1050.15 2326.12 1050.95 2322.19 1052.54 2318.44C1054.16 2314.69 1056.32 2311.47 1059.01 2308.78C1061.73 2306.06 1064.96 2303.91 1068.71 2302.31C1072.46 2300.69 1076.4 2299.88 1080.52 2299.88C1084.65 2299.88 1088.59 2300.69 1092.34 2302.31C1096.09 2303.91 1099.31 2306.06 1101.99 2308.78C1104.71 2311.47 1106.87 2314.69 1108.46 2318.44C1110.09 2322.19 1110.9 2326.12 1110.9 2330.25C1110.9 2334.38 1110.09 2338.31 1108.46 2342.06C1106.87 2345.81 1104.71 2349.05 1101.99 2351.77C1099.31 2354.45 1096.09 2356.61 1092.34 2358.23C1088.59 2359.83 1084.65 2360.62 1080.52 2360.62C1076.4 2360.62 1072.46 2359.83 1068.71 2358.23C1064.96 2356.61 1061.73 2354.45 1059.01 2351.77C1056.32 2349.05 1054.16 2345.81 1052.54 2342.06ZM1049.45 2317.17C1047.66 2321.33 1046.77 2325.69 1046.77 2330.25C1046.77 2334.81 1047.66 2339.19 1049.45 2343.38C1051.23 2347.53 1053.62 2351.12 1056.62 2354.16C1059.65 2357.16 1063.24 2359.55 1067.4 2361.33C1071.59 2363.11 1075.96 2364 1080.52 2364C1085.09 2364 1089.45 2363.11 1093.6 2361.33C1097.79 2359.55 1101.38 2357.16 1104.38 2354.16C1107.41 2351.12 1109.82 2347.53 1111.6 2343.38C1113.38 2339.19 1114.27 2334.81 1114.27 2330.25C1114.27 2325.69 1113.38 2321.33 1111.6 2317.17C1109.82 2312.98 1107.41 2309.39 1104.38 2306.39C1101.38 2303.36 1097.79 2300.95 1093.6 2299.17C1089.45 2297.39 1085.09 2296.5 1080.52 2296.5C1075.96 2296.5 1071.59 2297.39 1067.4 2299.17C1063.24 2300.95 1059.65 2303.36 1056.62 2306.39C1053.62 2309.39 1051.23 2312.98 1049.45 2317.17ZM1046.35 2344.69C1044.38 2340.09 1043.4 2335.28 1043.4 2330.25C1043.4 2325.22 1044.38 2320.42 1046.35 2315.86C1048.32 2311.27 1050.96 2307.31 1054.27 2304C1057.59 2300.69 1061.52 2298.05 1066.09 2296.08C1070.68 2294.11 1075.49 2293.12 1080.52 2293.12C1085.56 2293.12 1090.35 2294.11 1094.91 2296.08C1099.51 2298.05 1103.46 2300.69 1106.77 2304C1110.09 2307.31 1112.73 2311.27 1114.7 2315.86C1116.66 2320.42 1117.65 2325.22 1117.65 2330.25C1117.65 2335.28 1116.66 2340.09 1114.7 2344.69C1112.73 2349.25 1110.09 2353.19 1106.77 2356.5C1103.46 2359.81 1099.51 2362.45 1094.91 2364.42C1090.35 2366.39 1085.56 2367.38 1080.52 2367.38C1075.49 2367.38 1070.68 2366.39 1066.09 2364.42C1061.52 2362.45 1057.59 2359.81 1054.27 2356.5C1050.96 2353.19 1048.32 2349.25 1046.35 2344.69ZM1152.66 2331.75H1173.01C1175.69 2331.75 1177.98 2330.91 1179.85 2329.22C1181.73 2327.53 1182.66 2325.16 1182.66 2322.09C1182.66 2319.84 1181.68 2317.83 1179.71 2316.05C1177.77 2314.27 1175.54 2313.38 1173.01 2313.38H1144.04V2364H1140.66V2310H1173.01C1176.48 2310 1179.51 2311.22 1182.1 2313.66C1184.73 2316.09 1186.04 2318.91 1186.04 2322.09C1186.04 2326.06 1184.77 2329.23 1182.24 2331.61C1179.71 2333.95 1176.63 2335.12 1173.01 2335.12H1152.66V2331.75ZM1152.66 2338.5H1173.01C1177.51 2338.5 1181.37 2336.97 1184.58 2333.91C1187.8 2330.84 1189.41 2326.91 1189.41 2322.09C1189.41 2318 1187.77 2314.41 1184.49 2311.31C1181.21 2308.19 1177.38 2306.62 1173.01 2306.62H1137.29V2364H1133.91V2303.25H1173.01C1178.32 2303.25 1182.94 2305.14 1186.88 2308.92C1190.82 2312.67 1192.79 2317.06 1192.79 2322.09C1192.79 2327.72 1190.83 2332.42 1186.93 2336.2C1183.05 2339.98 1178.41 2341.88 1173.01 2341.88H1152.66V2338.5ZM1152.66 2345.25H1173.01C1177.16 2345.25 1181.01 2344.25 1184.54 2342.25C1188.07 2340.25 1190.88 2337.47 1192.98 2333.91C1195.1 2330.34 1196.16 2326.41 1196.16 2322.09C1196.16 2318.19 1195.12 2314.53 1193.02 2311.12C1190.93 2307.69 1188.08 2304.95 1184.49 2302.92C1180.93 2300.89 1177.1 2299.88 1173.01 2299.88H1130.54V2364H1127.16V2296.5H1173.01C1176.54 2296.5 1179.93 2297.2 1183.18 2298.61C1186.46 2299.98 1189.29 2301.83 1191.66 2304.14C1194.04 2306.42 1195.94 2309.14 1197.38 2312.3C1198.82 2315.45 1199.54 2318.72 1199.54 2322.09C1199.54 2327.56 1198.29 2332.34 1195.79 2336.44C1193.29 2340.5 1189.93 2343.59 1185.71 2345.72L1192.79 2364H1189.18L1182.48 2347.08C1181.63 2347.36 1180.65 2347.64 1179.52 2347.92L1185.85 2364H1182.24L1176.05 2348.48C1175.08 2348.58 1174.07 2348.62 1173.01 2348.62L1178.96 2364H1175.4L1169.49 2348.62H1166.44L1172.12 2364H1168.55L1162.83 2348.62H1152.66V2345.25ZM1150.79 2364H1147.41V2316.75H1173.01C1174.76 2316.75 1176.24 2317.28 1177.46 2318.34C1178.68 2319.38 1179.29 2320.62 1179.29 2322.09C1179.29 2326.28 1177.19 2328.38 1173.01 2328.38H1152.66V2325H1173.01C1174.94 2325 1175.91 2324.03 1175.91 2322.09C1175.91 2321.56 1175.62 2321.11 1175.02 2320.73C1174.46 2320.33 1173.79 2320.12 1173.01 2320.12H1150.79V2364ZM1279.88 2296.5H1276.13L1257.33 2330.53L1275.85 2364H1279.6L1261.08 2330.53L1279.88 2296.5ZM1272.33 2296.5H1268.58L1249.79 2330.53L1268.3 2364H1272.05L1253.54 2330.53L1272.33 2296.5ZM1264.79 2296.5H1261.04L1242.24 2330.53L1260.76 2364H1264.51L1245.99 2330.53L1264.79 2296.5ZM1257.24 2296.5H1253.49L1234.65 2330.53L1253.21 2364H1256.96L1238.4 2330.53L1257.24 2296.5ZM1229.21 2296.5H1232.58V2364H1229.21V2296.5ZM1222.46 2296.5H1225.83V2364H1222.46V2296.5ZM1215.71 2296.5H1219.08V2364H1215.71V2296.5ZM1208.96 2296.5H1212.33V2364H1208.96V2296.5Z" fill="#70D6FF"/>
<path opacity="0.3" d="M160.568 668H157.193V600.5H160.568V668ZM153.818 668H150.443V600.5H153.818V668ZM147.068 668H143.693V600.5H147.068V668ZM167.318 651.125H199.615V654.5H167.318V657.875H199.615V661.25H167.318V664.625H199.615V668H163.943V600.5H199.615V603.875H167.318V607.25H199.615V610.625H167.318V614H199.615V617.375H167.318V625.766H197.74V629.141H167.318V632.516H197.74V635.891H167.318V639.266H197.74V642.641H167.318V651.125ZM262.894 640.766L259.519 634.625V600.5H262.894V640.766ZM269.644 652.438L266.269 646.719V600.5H269.644V652.438ZM223.144 627.734L226.519 633.875V668H223.144V627.734ZM216.394 615.594L219.769 621.781V668H216.394V615.594ZM217.566 600.5H221.504L260.598 668H256.66L217.566 600.5ZM225.535 600.5H229.519L268.566 668H264.535L225.535 600.5ZM233.457 600.5H237.394L273.019 662.141V600.5H276.394V668H272.41L233.457 600.5ZM213.019 606.312V668H209.644V600.5H213.676L252.629 668H248.738L213.019 606.312ZM334.611 633.781H337.986V668C332.986 670.25 327.814 671.375 322.471 671.375C317.439 671.375 312.627 670.391 308.033 668.422C303.471 666.453 299.533 663.812 296.221 660.5C292.908 657.188 290.268 653.25 288.299 648.688C286.33 644.094 285.346 639.281 285.346 634.25C285.346 629.219 286.33 624.422 288.299 619.859C290.268 615.266 292.908 611.312 296.221 608C299.533 604.688 303.471 602.047 308.033 600.078C312.627 598.109 317.439 597.125 322.471 597.125C328.221 597.125 333.627 598.375 338.689 600.875C343.752 603.344 348.018 606.75 351.486 611.094L348.768 613.109C345.611 609.203 341.736 606.125 337.143 603.875C332.58 601.625 327.689 600.5 322.471 600.5C317.908 600.5 313.533 601.391 309.346 603.172C305.189 604.953 301.596 607.359 298.564 610.391C295.564 613.391 293.174 616.984 291.393 621.172C289.611 625.328 288.721 629.688 288.721 634.25C288.721 638.812 289.611 643.188 291.393 647.375C293.174 651.531 295.564 655.125 298.564 658.156C301.596 661.156 305.189 663.547 309.346 665.328C313.533 667.109 317.908 668 322.471 668C326.689 668 330.736 667.25 334.611 665.75V662.281C330.705 663.844 326.658 664.625 322.471 664.625C318.346 664.625 314.408 663.828 310.658 662.234C306.908 660.609 303.674 658.453 300.955 655.766C298.268 653.047 296.111 649.812 294.486 646.062C292.893 642.312 292.096 638.375 292.096 634.25C292.096 630.125 292.893 626.188 294.486 622.438C296.111 618.688 298.268 615.469 300.955 612.781C303.674 610.062 306.908 607.906 310.658 606.312C314.408 604.688 318.346 603.875 322.471 603.875C327.189 603.875 331.611 604.891 335.736 606.922C339.893 608.953 343.393 611.75 346.236 615.312L343.611 617.422C341.08 614.266 337.971 611.781 334.283 609.969C330.596 608.156 326.658 607.25 322.471 607.25C318.814 607.25 315.314 607.969 311.971 609.406C308.658 610.812 305.783 612.734 303.346 615.172C300.939 617.578 299.018 620.453 297.58 623.797C296.174 627.109 295.471 630.594 295.471 634.25C295.471 637.906 296.174 641.406 297.58 644.75C299.018 648.062 300.939 650.938 303.346 653.375C305.783 655.781 308.658 657.703 311.971 659.141C315.314 660.547 318.814 661.25 322.471 661.25C326.783 661.25 330.83 660.375 334.611 658.625V655.156C330.83 656.969 326.783 657.875 322.471 657.875C318.189 657.875 314.236 656.828 310.611 654.734C306.986 652.609 304.111 649.734 301.986 646.109C299.893 642.484 298.846 638.531 298.846 634.25C298.846 629.969 299.893 626.016 301.986 622.391C304.111 618.766 306.986 615.906 310.611 613.812C314.236 611.688 318.189 610.625 322.471 610.625C326.127 610.625 329.564 611.422 332.783 613.016C336.033 614.578 338.752 616.75 340.939 619.531L338.268 621.594C336.393 619.219 334.064 617.359 331.283 616.016C328.533 614.672 325.596 614 322.471 614C316.877 614 312.096 615.984 308.127 619.953C304.189 623.922 302.221 628.688 302.221 634.25C302.221 639.812 304.189 644.578 308.127 648.547C312.096 652.516 316.877 654.5 322.471 654.5C326.846 654.5 330.893 653.438 334.611 651.312V647.891C330.955 650.047 326.908 651.125 322.471 651.125C317.814 651.125 313.83 649.484 310.518 646.203C307.236 642.891 305.596 638.906 305.596 634.25C305.596 629.594 307.236 625.625 310.518 622.344C313.83 619.031 317.814 617.375 322.471 617.375C325.096 617.375 327.564 617.953 329.877 619.109C332.189 620.234 334.127 621.781 335.689 623.75L332.971 625.812C330.252 622.438 326.752 620.75 322.471 620.75C318.752 620.75 315.564 622.078 312.908 624.734C310.283 627.359 308.971 630.531 308.971 634.25C308.971 637.969 310.283 641.156 312.908 643.812C315.564 646.438 318.752 647.75 322.471 647.75C327.252 647.75 331.299 646.422 334.611 643.766V633.781ZM354.861 633.781H358.236V668H354.861V633.781ZM348.111 633.781H351.486V668H348.111V633.781ZM341.361 633.781H344.736V668H341.361V633.781ZM368.453 600.5H371.828V668H368.453V600.5ZM388.703 600.5H392.078V651.125H416.969V654.5H392.078V657.875H416.969V661.25H392.078V664.625H416.969V668H388.703V600.5ZM381.953 600.5H385.328V668H381.953V600.5ZM375.203 600.5H378.578V668H375.203V600.5ZM446.592 600.5H449.967V668H446.592V600.5ZM439.842 600.5H443.217V668H439.842V600.5ZM433.092 600.5H436.467V668H433.092V600.5ZM426.342 600.5H429.717V668H426.342V600.5ZM491.731 635.891H486.387C479.824 635.891 474.778 634.562 471.246 631.906C467.715 629.219 465.949 625.531 465.949 620.844C465.949 616.469 468.028 612.828 472.184 609.922C476.34 606.984 482.168 605.516 489.668 605.516C494.668 605.516 499.324 606.203 503.637 607.578C507.981 608.953 511.59 610.891 514.465 613.391L511.84 615.5C509.278 613.406 506.059 611.781 502.184 610.625C498.309 609.469 494.137 608.891 489.668 608.891C483.074 608.891 478.028 610.016 474.528 612.266C471.059 614.516 469.324 617.375 469.324 620.844C469.324 624.594 470.746 627.484 473.59 629.516C476.465 631.516 480.731 632.516 486.387 632.516H491.543C498.199 632.516 503.293 633.859 506.824 636.547C510.387 639.203 512.168 642.875 512.168 647.562C512.168 651.938 510.09 655.594 505.934 658.531C501.778 661.438 495.949 662.891 488.449 662.891C483.449 662.891 478.778 662.203 474.434 660.828C470.121 659.453 466.528 657.516 463.653 655.016L466.278 652.906C468.84 655 472.059 656.625 475.934 657.781C479.809 658.938 483.981 659.516 488.449 659.516C495.043 659.516 500.074 658.391 503.543 656.141C507.043 653.891 508.793 651.031 508.793 647.562C508.793 643.812 507.356 640.938 504.481 638.938C501.637 636.906 497.387 635.891 491.731 635.891ZM491.731 642.641H486.387C477.699 642.641 470.996 640.672 466.278 636.734C461.559 632.766 459.199 627.469 459.199 620.844C459.199 617.812 459.871 614.969 461.215 612.312C462.559 609.656 464.481 607.328 466.981 605.328C469.512 603.297 472.731 601.703 476.637 600.547C480.543 599.359 484.887 598.766 489.668 598.766C495.699 598.766 501.34 599.688 506.59 601.531C511.84 603.344 516.215 605.891 519.715 609.172L516.996 611.188C513.809 608.312 509.824 606.094 505.043 604.531C500.262 602.938 495.137 602.141 489.668 602.141C481.231 602.141 474.606 603.922 469.793 607.484C464.981 611.047 462.574 615.5 462.574 620.844C462.574 626.5 464.637 630.984 468.762 634.297C472.887 637.609 478.762 639.266 486.387 639.266H491.543C500.793 639.266 505.418 642.031 505.418 647.562C505.418 650.062 503.996 652.125 501.153 653.75C498.34 655.344 494.106 656.141 488.449 656.141C484.481 656.141 480.793 655.688 477.387 654.781C473.981 653.844 471.168 652.516 468.949 650.797L471.621 648.734C475.528 651.422 481.137 652.766 488.449 652.766C493.137 652.766 496.574 652.281 498.762 651.312C500.949 650.344 502.043 649.094 502.043 647.562C502.043 645.781 501.278 644.516 499.746 643.766C498.215 643.016 495.543 642.641 491.731 642.641ZM491.731 629.141H486.387C477.262 629.141 472.699 626.375 472.699 620.844C472.699 618.344 474.106 616.297 476.918 614.703C479.762 613.078 484.012 612.266 489.668 612.266C493.637 612.266 497.324 612.734 500.731 613.672C504.137 614.578 506.949 615.891 509.168 617.609L506.496 619.672C502.59 616.984 496.981 615.641 489.668 615.641C484.981 615.641 481.543 616.125 479.356 617.094C477.168 618.062 476.074 619.312 476.074 620.844C476.074 622.625 476.84 623.891 478.371 624.641C479.903 625.391 482.574 625.766 486.387 625.766H491.731C500.418 625.766 507.121 627.75 511.84 631.719C516.559 635.656 518.918 640.938 518.918 647.562C518.918 650.594 518.246 653.438 516.903 656.094C515.559 658.75 513.621 661.094 511.09 663.125C508.59 665.125 505.387 666.719 501.481 667.906C497.574 669.062 493.231 669.641 488.449 669.641C482.418 669.641 476.778 668.734 471.528 666.922C466.278 665.078 461.903 662.516 458.403 659.234L461.121 657.219C464.309 660.094 468.293 662.328 473.074 663.922C477.856 665.484 482.981 666.266 488.449 666.266C496.887 666.266 503.512 664.484 508.324 660.922C513.137 657.359 515.543 652.906 515.543 647.562C515.543 641.906 513.481 637.422 509.356 634.109C505.231 630.797 499.356 629.141 491.731 629.141ZM595.791 600.5H599.166V668H595.791V600.5ZM528.244 600.5H531.619V668H528.244V600.5ZM589.041 600.5H592.416V668H589.041V600.5ZM582.291 600.5H585.666V668H582.291V600.5ZM575.541 600.5H578.916V668H575.541V641H551.869V668H548.494V600.5H551.869V624.125H575.541V600.5ZM541.744 600.5H545.119V668H541.744V600.5ZM534.994 600.5H538.369V668H534.994V600.5ZM575.541 637.625V634.25H551.869V637.625H575.541ZM575.541 630.875V627.5H551.869V630.875H575.541Z" fill="#70D6FF"/>
<path opacity="0.3" d="M191.962 1694.75L189.244 1696.81C186.525 1693.44 183.025 1691.75 178.744 1691.75C175.025 1691.75 171.837 1693.08 169.181 1695.73C166.556 1698.36 165.244 1701.53 165.244 1705.25C165.244 1708.97 166.556 1712.16 169.181 1714.81C171.837 1717.44 175.025 1718.75 178.744 1718.75C180.837 1718.75 182.791 1718.3 184.603 1717.39C186.447 1716.48 188.009 1715.23 189.291 1713.64L191.916 1715.84C190.353 1717.81 188.416 1719.36 186.103 1720.48C183.791 1721.58 181.337 1722.12 178.744 1722.12C174.087 1722.12 170.103 1720.48 166.791 1717.2C163.509 1713.89 161.869 1709.91 161.869 1705.25C161.869 1700.59 163.509 1696.62 166.791 1693.34C170.103 1690.03 174.087 1688.38 178.744 1688.38C181.369 1688.38 183.837 1688.95 186.15 1690.11C188.462 1691.23 190.4 1692.78 191.962 1694.75ZM197.212 1690.53L194.541 1692.59C192.666 1690.22 190.337 1688.36 187.556 1687.02C184.806 1685.67 181.869 1685 178.744 1685C173.15 1685 168.369 1686.98 164.4 1690.95C160.462 1694.92 158.494 1699.69 158.494 1705.25C158.494 1710.81 160.462 1715.58 164.4 1719.55C168.369 1723.52 173.15 1725.5 178.744 1725.5C181.869 1725.5 184.822 1724.83 187.603 1723.48C190.384 1722.11 192.712 1720.23 194.587 1717.86L197.166 1720.02C194.978 1722.77 192.275 1724.94 189.056 1726.53C185.837 1728.09 182.4 1728.88 178.744 1728.88C174.462 1728.88 170.509 1727.83 166.884 1725.73C163.259 1723.61 160.384 1720.73 158.259 1717.11C156.166 1713.48 155.119 1709.53 155.119 1705.25C155.119 1700.97 156.166 1697.02 158.259 1693.39C160.384 1689.77 163.259 1686.91 166.884 1684.81C170.509 1682.69 174.462 1681.62 178.744 1681.62C182.4 1681.62 185.837 1682.42 189.056 1684.02C192.306 1685.58 195.025 1687.75 197.212 1690.53ZM202.509 1686.31L199.884 1688.42C197.353 1685.27 194.244 1682.78 190.556 1680.97C186.869 1679.16 182.931 1678.25 178.744 1678.25C175.087 1678.25 171.587 1678.97 168.244 1680.41C164.931 1681.81 162.056 1683.73 159.619 1686.17C157.212 1688.58 155.291 1691.45 153.853 1694.8C152.447 1698.11 151.744 1701.59 151.744 1705.25C151.744 1708.91 152.447 1712.41 153.853 1715.75C155.291 1719.06 157.212 1721.94 159.619 1724.38C162.056 1726.78 164.931 1728.7 168.244 1730.14C171.587 1731.55 175.087 1732.25 178.744 1732.25C182.931 1732.25 186.869 1731.34 190.556 1729.53C194.244 1727.72 197.353 1725.23 199.884 1722.08L202.416 1724.28C199.572 1727.81 196.087 1730.59 191.962 1732.62C187.837 1734.62 183.431 1735.62 178.744 1735.62C174.619 1735.62 170.681 1734.83 166.931 1733.23C163.181 1731.61 159.947 1729.45 157.228 1726.77C154.541 1724.05 152.384 1720.81 150.759 1717.06C149.166 1713.31 148.369 1709.38 148.369 1705.25C148.369 1701.12 149.166 1697.19 150.759 1693.44C152.384 1689.69 154.541 1686.47 157.228 1683.78C159.947 1681.06 163.181 1678.91 166.931 1677.31C170.681 1675.69 174.619 1674.88 178.744 1674.88C183.462 1674.88 187.884 1675.89 192.009 1677.92C196.166 1679.95 199.666 1682.75 202.509 1686.31ZM207.759 1682.09L205.041 1684.11C201.884 1680.2 198.009 1677.12 193.416 1674.88C188.853 1672.62 183.962 1671.5 178.744 1671.5C174.181 1671.5 169.806 1672.39 165.619 1674.17C161.462 1675.95 157.869 1678.36 154.837 1681.39C151.837 1684.39 149.447 1687.98 147.666 1692.17C145.884 1696.33 144.994 1700.69 144.994 1705.25C144.994 1709.81 145.884 1714.19 147.666 1718.38C149.447 1722.53 151.837 1726.12 154.837 1729.16C157.869 1732.16 161.462 1734.55 165.619 1736.33C169.806 1738.11 174.181 1739 178.744 1739C183.962 1739 188.853 1737.88 193.416 1735.62C198.009 1733.38 201.884 1730.3 205.041 1726.39L207.712 1728.45C204.244 1732.77 199.978 1736.17 194.916 1738.67C189.884 1741.14 184.494 1742.38 178.744 1742.38C173.712 1742.38 168.9 1741.39 164.306 1739.42C159.744 1737.45 155.806 1734.81 152.494 1731.5C149.181 1728.19 146.541 1724.25 144.572 1719.69C142.603 1715.09 141.619 1710.28 141.619 1705.25C141.619 1700.22 142.603 1695.42 144.572 1690.86C146.541 1686.27 149.181 1682.31 152.494 1679C155.806 1675.69 159.744 1673.05 164.306 1671.08C168.9 1669.11 173.712 1668.12 178.744 1668.12C184.494 1668.12 189.9 1669.38 194.962 1671.88C200.025 1674.34 204.291 1677.75 207.759 1682.09ZM241.882 1695.73C239.257 1698.36 237.945 1701.53 237.945 1705.25C237.945 1708.97 239.257 1712.16 241.882 1714.81C244.539 1717.44 247.726 1718.75 251.445 1718.75C255.164 1718.75 258.336 1717.44 260.961 1714.81C263.617 1712.16 264.945 1708.97 264.945 1705.25C264.945 1701.53 263.617 1698.36 260.961 1695.73C258.336 1693.08 255.164 1691.75 251.445 1691.75C247.726 1691.75 244.539 1693.08 241.882 1695.73ZM239.492 1717.2C236.211 1713.89 234.57 1709.91 234.57 1705.25C234.57 1700.59 236.211 1696.62 239.492 1693.34C242.804 1690.03 246.789 1688.38 251.445 1688.38C256.101 1688.38 260.07 1690.03 263.351 1693.34C266.664 1696.62 268.32 1700.59 268.32 1705.25C268.32 1709.91 266.664 1713.89 263.351 1717.2C260.07 1720.48 256.101 1722.12 251.445 1722.12C246.789 1722.12 242.804 1720.48 239.492 1717.2ZM237.101 1690.95C233.164 1694.92 231.195 1699.69 231.195 1705.25C231.195 1710.81 233.164 1715.58 237.101 1719.55C241.07 1723.52 245.851 1725.5 251.445 1725.5C257.039 1725.5 261.804 1723.52 265.742 1719.55C269.711 1715.58 271.695 1710.81 271.695 1705.25C271.695 1699.69 269.711 1694.92 265.742 1690.95C261.804 1686.98 257.039 1685 251.445 1685C245.851 1685 241.07 1686.98 237.101 1690.95ZM230.961 1717.11C228.867 1713.48 227.82 1709.53 227.82 1705.25C227.82 1700.97 228.867 1697.02 230.961 1693.39C233.086 1689.77 235.961 1686.91 239.586 1684.81C243.211 1682.69 247.164 1681.62 251.445 1681.62C255.726 1681.62 259.679 1682.69 263.304 1684.81C266.929 1686.91 269.789 1689.77 271.882 1693.39C274.007 1697.02 275.07 1700.97 275.07 1705.25C275.07 1709.53 274.007 1713.48 271.882 1717.11C269.789 1720.73 266.929 1723.61 263.304 1725.73C259.679 1727.83 255.726 1728.88 251.445 1728.88C247.164 1728.88 243.211 1727.83 239.586 1725.73C235.961 1723.61 233.086 1720.73 230.961 1717.11ZM226.554 1694.8C225.148 1698.11 224.445 1701.59 224.445 1705.25C224.445 1708.91 225.148 1712.41 226.554 1715.75C227.992 1719.06 229.914 1721.94 232.32 1724.38C234.757 1726.78 237.632 1728.7 240.945 1730.14C244.289 1731.55 247.789 1732.25 251.445 1732.25C255.101 1732.25 258.586 1731.55 261.898 1730.14C265.242 1728.7 268.117 1726.78 270.523 1724.38C272.961 1721.94 274.882 1719.06 276.289 1715.75C277.726 1712.41 278.445 1708.91 278.445 1705.25C278.445 1701.59 277.726 1698.11 276.289 1694.8C274.882 1691.45 272.961 1688.58 270.523 1686.17C268.117 1683.73 265.242 1681.81 261.898 1680.41C258.586 1678.97 255.101 1678.25 251.445 1678.25C247.789 1678.25 244.289 1678.97 240.945 1680.41C237.632 1681.81 234.757 1683.73 232.32 1686.17C229.914 1688.58 227.992 1691.45 226.554 1694.8ZM223.461 1717.06C221.867 1713.31 221.07 1709.38 221.07 1705.25C221.07 1701.12 221.867 1697.19 223.461 1693.44C225.086 1689.69 227.242 1686.47 229.929 1683.78C232.648 1681.06 235.882 1678.91 239.632 1677.31C243.382 1675.69 247.32 1674.88 251.445 1674.88C255.57 1674.88 259.507 1675.69 263.257 1677.31C267.007 1678.91 270.226 1681.06 272.914 1683.78C275.632 1686.47 277.789 1689.69 279.382 1693.44C281.007 1697.19 281.82 1701.12 281.82 1705.25C281.82 1709.38 281.007 1713.31 279.382 1717.06C277.789 1720.81 275.632 1724.05 272.914 1726.77C270.226 1729.45 267.007 1731.61 263.257 1733.23C259.507 1734.83 255.57 1735.62 251.445 1735.62C247.32 1735.62 243.382 1734.83 239.632 1733.23C235.882 1731.61 232.648 1729.45 229.929 1726.77C227.242 1724.05 225.086 1720.81 223.461 1717.06ZM220.367 1692.17C218.586 1696.33 217.695 1700.69 217.695 1705.25C217.695 1709.81 218.586 1714.19 220.367 1718.38C222.148 1722.53 224.539 1726.12 227.539 1729.16C230.57 1732.16 234.164 1734.55 238.32 1736.33C242.507 1738.11 246.882 1739 251.445 1739C256.007 1739 260.367 1738.11 264.523 1736.33C268.711 1734.55 272.304 1732.16 275.304 1729.16C278.336 1726.12 280.742 1722.53 282.523 1718.38C284.304 1714.19 285.195 1709.81 285.195 1705.25C285.195 1700.69 284.304 1696.33 282.523 1692.17C280.742 1687.98 278.336 1684.39 275.304 1681.39C272.304 1678.36 268.711 1675.95 264.523 1674.17C260.367 1672.39 256.007 1671.5 251.445 1671.5C246.882 1671.5 242.507 1672.39 238.32 1674.17C234.164 1675.95 230.57 1678.36 227.539 1681.39C224.539 1684.39 222.148 1687.98 220.367 1692.17ZM217.273 1719.69C215.304 1715.09 214.32 1710.28 214.32 1705.25C214.32 1700.22 215.304 1695.42 217.273 1690.86C219.242 1686.27 221.882 1682.31 225.195 1679C228.507 1675.69 232.445 1673.05 237.007 1671.08C241.601 1669.11 246.414 1668.12 251.445 1668.12C256.476 1668.12 261.273 1669.11 265.836 1671.08C270.429 1673.05 274.382 1675.69 277.695 1679C281.007 1682.31 283.648 1686.27 285.617 1690.86C287.586 1695.42 288.57 1700.22 288.57 1705.25C288.57 1710.28 287.586 1715.09 285.617 1719.69C283.648 1724.25 281.007 1728.19 277.695 1731.5C274.382 1734.81 270.429 1737.45 265.836 1739.42C261.273 1741.39 256.476 1742.38 251.445 1742.38C246.414 1742.38 241.601 1741.39 237.007 1739.42C232.445 1737.45 228.507 1734.81 225.195 1731.5C221.882 1728.19 219.242 1724.25 217.273 1719.69ZM341.209 1696.81V1739H337.834V1696.81C337.834 1695.91 337.677 1695.14 337.365 1694.52C337.084 1693.86 336.709 1693.36 336.24 1693.02C335.771 1692.67 335.146 1692.41 334.365 1692.22C333.615 1692 332.881 1691.88 332.162 1691.84C331.443 1691.78 330.552 1691.75 329.49 1691.75C328.427 1691.75 327.537 1691.78 326.818 1691.84C326.099 1691.88 325.349 1692 324.568 1692.22C323.818 1692.41 323.209 1692.67 322.74 1693.02C322.271 1693.36 321.881 1693.86 321.568 1694.52C321.287 1695.14 321.146 1695.91 321.146 1696.81V1739H317.771V1696.81C317.771 1691.19 321.677 1688.38 329.49 1688.38C337.302 1688.38 341.209 1691.19 341.209 1696.81ZM347.959 1696.81V1739H344.584V1696.81C344.584 1692.84 343.177 1689.89 340.365 1687.95C337.584 1685.98 333.959 1685 329.49 1685C325.021 1685 321.381 1685.98 318.568 1687.95C315.787 1689.89 314.396 1692.84 314.396 1696.81V1739H311.021V1696.81C311.021 1693.53 311.865 1690.72 313.552 1688.38C315.24 1686.03 317.443 1684.33 320.162 1683.27C322.912 1682.17 326.021 1681.62 329.49 1681.62C332.959 1681.62 336.052 1682.17 338.771 1683.27C341.521 1684.33 343.74 1686.03 345.427 1688.38C347.115 1690.72 347.959 1693.53 347.959 1696.81ZM354.709 1696.81V1739H351.334V1696.81C351.334 1693.88 350.756 1691.22 349.599 1688.84C348.474 1686.47 346.912 1684.52 344.912 1682.98C342.912 1681.45 340.599 1680.28 337.974 1679.47C335.349 1678.66 332.521 1678.25 329.49 1678.25C326.459 1678.25 323.631 1678.66 321.006 1679.47C318.381 1680.28 316.068 1681.45 314.068 1682.98C312.068 1684.52 310.49 1686.47 309.334 1688.84C308.209 1691.22 307.646 1693.88 307.646 1696.81V1739H304.271V1696.81C304.271 1693.41 304.927 1690.31 306.24 1687.53C307.584 1684.75 309.396 1682.45 311.677 1680.64C313.959 1678.8 316.631 1677.38 319.693 1676.38C322.756 1675.38 326.021 1674.88 329.49 1674.88C332.959 1674.88 336.224 1675.38 339.287 1676.38C342.349 1677.38 345.021 1678.8 347.302 1680.64C349.584 1682.45 351.381 1684.75 352.693 1687.53C354.037 1690.31 354.709 1693.41 354.709 1696.81ZM361.459 1739H358.084V1696.81C358.084 1693.41 357.318 1690.14 355.787 1687.02C354.287 1683.89 352.256 1681.2 349.693 1678.95C347.131 1676.67 344.084 1674.86 340.552 1673.52C337.021 1672.17 333.334 1671.5 329.49 1671.5C324.209 1671.5 319.412 1672.5 315.099 1674.5C310.818 1676.47 307.381 1679.41 304.787 1683.31C302.193 1687.19 300.896 1691.69 300.896 1696.81V1739H297.521V1696.81C297.521 1692.5 298.365 1688.53 300.052 1684.91C301.74 1681.28 304.021 1678.25 306.896 1675.81C309.802 1673.38 313.193 1671.48 317.068 1670.14C320.974 1668.8 325.115 1668.12 329.49 1668.12C337.24 1668.12 343.959 1670.08 349.646 1673.98C355.334 1670.08 362.052 1668.12 369.802 1668.12C374.177 1668.12 378.302 1668.8 382.177 1670.14C386.084 1671.48 389.474 1673.38 392.349 1675.81C395.256 1678.25 397.552 1681.28 399.24 1684.91C400.927 1688.53 401.771 1692.5 401.771 1696.81V1739H398.396V1696.81C398.396 1691.72 397.099 1687.23 394.506 1683.36C391.912 1679.45 388.459 1676.5 384.146 1674.5C379.865 1672.5 375.084 1671.5 369.802 1671.5C363.177 1671.5 357.396 1673.06 352.459 1676.19C353.177 1676.81 353.974 1677.62 354.849 1678.62C359.131 1676.12 364.115 1674.88 369.802 1674.88C373.271 1674.88 376.537 1675.38 379.599 1676.38C382.662 1677.38 385.334 1678.8 387.615 1680.64C389.896 1682.45 391.693 1684.75 393.006 1687.53C394.349 1690.31 395.021 1693.41 395.021 1696.81V1739H391.646V1696.81C391.646 1693.88 391.068 1691.22 389.912 1688.84C388.787 1686.47 387.224 1684.52 385.224 1682.98C383.224 1681.45 380.912 1680.28 378.287 1679.47C375.662 1678.66 372.834 1678.25 369.802 1678.25C364.834 1678.25 360.537 1679.27 356.912 1681.3C357.474 1682.17 358.037 1683.14 358.599 1684.2C361.662 1682.48 365.396 1681.62 369.802 1681.62C373.271 1681.62 376.365 1682.17 379.084 1683.27C381.834 1684.33 384.052 1686.03 385.74 1688.38C387.427 1690.72 388.271 1693.53 388.271 1696.81V1739H384.896V1696.81C384.896 1692.84 383.49 1689.89 380.677 1687.95C377.896 1685.98 374.271 1685 369.802 1685C365.74 1685 362.443 1685.75 359.912 1687.25C360.318 1688.44 360.631 1689.56 360.849 1690.62C362.818 1689.12 365.802 1688.38 369.802 1688.38C377.615 1688.38 381.521 1691.19 381.521 1696.81V1739H378.146V1696.81C378.146 1695.91 377.99 1695.14 377.677 1694.52C377.396 1693.86 377.021 1693.36 376.552 1693.02C376.084 1692.67 375.459 1692.41 374.677 1692.22C373.927 1692 373.193 1691.88 372.474 1691.84C371.756 1691.78 370.865 1691.75 369.802 1691.75C368.74 1691.75 367.849 1691.78 367.131 1691.84C366.412 1691.88 365.662 1692 364.881 1692.22C364.131 1692.41 363.521 1692.67 363.052 1693.02C362.584 1693.36 362.193 1693.86 361.881 1694.52C361.599 1695.14 361.459 1695.91 361.459 1696.81V1739ZM455.254 1696.81V1739H451.879V1696.81C451.879 1695.91 451.723 1695.14 451.41 1694.52C451.129 1693.86 450.754 1693.36 450.285 1693.02C449.816 1692.67 449.191 1692.41 448.41 1692.22C447.66 1692 446.926 1691.88 446.207 1691.84C445.488 1691.78 444.598 1691.75 443.535 1691.75C442.473 1691.75 441.582 1691.78 440.863 1691.84C440.144 1691.88 439.394 1692 438.613 1692.22C437.863 1692.41 437.254 1692.67 436.785 1693.02C436.316 1693.36 435.926 1693.86 435.613 1694.52C435.332 1695.14 435.191 1695.91 435.191 1696.81V1739H431.816V1696.81C431.816 1691.19 435.723 1688.38 443.535 1688.38C451.348 1688.38 455.254 1691.19 455.254 1696.81ZM462.004 1696.81V1739H458.629V1696.81C458.629 1692.84 457.223 1689.89 454.41 1687.95C451.629 1685.98 448.004 1685 443.535 1685C439.066 1685 435.426 1685.98 432.613 1687.95C429.832 1689.89 428.441 1692.84 428.441 1696.81V1739H425.066V1696.81C425.066 1693.53 425.91 1690.72 427.598 1688.38C429.285 1686.03 431.488 1684.33 434.207 1683.27C436.957 1682.17 440.066 1681.62 443.535 1681.62C447.004 1681.62 450.098 1682.17 452.816 1683.27C455.566 1684.33 457.785 1686.03 459.473 1688.38C461.16 1690.72 462.004 1693.53 462.004 1696.81ZM468.754 1696.81V1739H465.379V1696.81C465.379 1693.88 464.801 1691.22 463.644 1688.84C462.519 1686.47 460.957 1684.52 458.957 1682.98C456.957 1681.45 454.644 1680.28 452.019 1679.47C449.394 1678.66 446.566 1678.25 443.535 1678.25C440.504 1678.25 437.676 1678.66 435.051 1679.47C432.426 1680.28 430.113 1681.45 428.113 1682.98C426.113 1684.52 424.535 1686.47 423.379 1688.84C422.254 1691.22 421.691 1693.88 421.691 1696.81V1739H418.316V1696.81C418.316 1693.41 418.973 1690.31 420.285 1687.53C421.629 1684.75 423.441 1682.45 425.723 1680.64C428.004 1678.8 430.676 1677.38 433.738 1676.38C436.801 1675.38 440.066 1674.88 443.535 1674.88C447.004 1674.88 450.269 1675.38 453.332 1676.38C456.394 1677.38 459.066 1678.8 461.348 1680.64C463.629 1682.45 465.426 1684.75 466.738 1687.53C468.082 1690.31 468.754 1693.41 468.754 1696.81ZM475.504 1739H472.129V1696.81C472.129 1693.41 471.363 1690.14 469.832 1687.02C468.332 1683.89 466.301 1681.2 463.738 1678.95C461.176 1676.67 458.129 1674.86 454.598 1673.52C451.066 1672.17 447.379 1671.5 443.535 1671.5C438.254 1671.5 433.457 1672.5 429.144 1674.5C424.863 1676.47 421.426 1679.41 418.832 1683.31C416.238 1687.19 414.941 1691.69 414.941 1696.81V1739H411.566V1696.81C411.566 1692.5 412.41 1688.53 414.098 1684.91C415.785 1681.28 418.066 1678.25 420.941 1675.81C423.848 1673.38 427.238 1671.48 431.113 1670.14C435.019 1668.8 439.16 1668.12 443.535 1668.12C451.285 1668.12 458.004 1670.08 463.691 1673.98C469.379 1670.08 476.098 1668.12 483.848 1668.12C488.223 1668.12 492.348 1668.8 496.223 1670.14C500.129 1671.48 503.519 1673.38 506.394 1675.81C509.301 1678.25 511.598 1681.28 513.285 1684.91C514.973 1688.53 515.816 1692.5 515.816 1696.81V1739H512.441V1696.81C512.441 1691.72 511.144 1687.23 508.551 1683.36C505.957 1679.45 502.504 1676.5 498.191 1674.5C493.91 1672.5 489.129 1671.5 483.848 1671.5C477.223 1671.5 471.441 1673.06 466.504 1676.19C467.223 1676.81 468.019 1677.62 468.894 1678.62C473.176 1676.12 478.16 1674.88 483.848 1674.88C487.316 1674.88 490.582 1675.38 493.644 1676.38C496.707 1677.38 499.379 1678.8 501.66 1680.64C503.941 1682.45 505.738 1684.75 507.051 1687.53C508.394 1690.31 509.066 1693.41 509.066 1696.81V1739H505.691V1696.81C505.691 1693.88 505.113 1691.22 503.957 1688.84C502.832 1686.47 501.269 1684.52 499.269 1682.98C497.269 1681.45 494.957 1680.28 492.332 1679.47C489.707 1678.66 486.879 1678.25 483.848 1678.25C478.879 1678.25 474.582 1679.27 470.957 1681.3C471.519 1682.17 472.082 1683.14 472.644 1684.2C475.707 1682.48 479.441 1681.62 483.848 1681.62C487.316 1681.62 490.41 1682.17 493.129 1683.27C495.879 1684.33 498.098 1686.03 499.785 1688.38C501.473 1690.72 502.316 1693.53 502.316 1696.81V1739H498.941V1696.81C498.941 1692.84 497.535 1689.89 494.723 1687.95C491.941 1685.98 488.316 1685 483.848 1685C479.785 1685 476.488 1685.75 473.957 1687.25C474.363 1688.44 474.676 1689.56 474.894 1690.62C476.863 1689.12 479.848 1688.38 483.848 1688.38C491.66 1688.38 495.566 1691.19 495.566 1696.81V1739H492.191V1696.81C492.191 1695.91 492.035 1695.14 491.723 1694.52C491.441 1693.86 491.066 1693.36 490.598 1693.02C490.129 1692.67 489.504 1692.41 488.723 1692.22C487.973 1692 487.238 1691.88 486.519 1691.84C485.801 1691.78 484.91 1691.75 483.848 1691.75C482.785 1691.75 481.894 1691.78 481.176 1691.84C480.457 1691.88 479.707 1692 478.926 1692.22C478.176 1692.41 477.566 1692.67 477.098 1693.02C476.629 1693.36 476.238 1693.86 475.926 1694.52C475.644 1695.14 475.504 1695.91 475.504 1696.81V1739ZM570.471 1709.09V1671.5H573.846V1709.09C573.846 1712.66 572.471 1715.72 569.721 1718.28C567.002 1720.84 563.721 1722.12 559.877 1722.12C556.033 1722.12 552.736 1720.84 549.986 1718.28C547.267 1715.72 545.908 1712.66 545.908 1709.09V1671.5H549.283V1709.09C549.283 1711.75 550.314 1714.03 552.377 1715.94C554.471 1717.81 556.971 1718.75 559.877 1718.75C562.783 1718.75 565.267 1717.81 567.33 1715.94C569.424 1714.03 570.471 1711.75 570.471 1709.09ZM577.221 1709.09V1671.5H580.596V1709.09C580.596 1714.56 578.564 1719.23 574.502 1723.11C570.439 1726.95 565.564 1728.88 559.877 1728.88C554.189 1728.88 549.314 1726.95 545.252 1723.11C541.189 1719.23 539.158 1714.56 539.158 1709.09V1671.5H542.533V1709.09C542.533 1713.62 544.221 1717.5 547.596 1720.72C551.002 1723.91 555.096 1725.5 559.877 1725.5C564.627 1725.5 568.705 1723.91 572.111 1720.72C575.517 1717.5 577.221 1713.62 577.221 1709.09ZM583.971 1709.09V1671.5H587.346V1709.09C587.346 1713.88 586.111 1718.31 583.642 1722.41C581.174 1726.47 577.83 1729.69 573.611 1732.06C569.392 1734.44 564.814 1735.62 559.877 1735.62C554.939 1735.62 550.361 1734.44 546.142 1732.06C541.924 1729.69 538.58 1726.47 536.111 1722.41C533.642 1718.31 532.408 1713.88 532.408 1709.09V1671.5H535.783V1709.09C535.783 1713.25 536.861 1717.11 539.017 1720.67C541.174 1724.23 544.096 1727.06 547.783 1729.16C551.502 1731.22 555.533 1732.25 559.877 1732.25C564.221 1732.25 568.236 1731.22 571.924 1729.16C575.642 1727.06 578.58 1724.23 580.736 1720.67C582.892 1717.11 583.971 1713.25 583.971 1709.09ZM590.721 1709.09V1671.5H594.096V1709.09C594.096 1713.59 593.189 1717.91 591.377 1722.03C589.564 1726.12 587.127 1729.66 584.064 1732.62C581.002 1735.59 577.361 1737.95 573.142 1739.7C568.924 1741.48 564.502 1742.38 559.877 1742.38C555.252 1742.38 550.83 1741.48 546.611 1739.7C542.392 1737.95 538.752 1735.59 535.689 1732.62C532.627 1729.66 530.189 1726.12 528.377 1722.03C526.564 1717.91 525.658 1713.59 525.658 1709.09V1671.5H529.033V1709.09C529.033 1714.47 530.408 1719.45 533.158 1724.05C535.939 1728.64 539.689 1732.28 544.408 1734.97C549.158 1737.66 554.314 1739 559.877 1739C565.439 1739 570.58 1737.66 575.299 1734.97C580.049 1732.28 583.799 1728.64 586.549 1724.05C589.33 1719.45 590.721 1714.47 590.721 1709.09ZM657.75 1711.77L654.375 1705.62V1671.5H657.75V1711.77ZM664.5 1723.44L661.125 1717.72V1671.5H664.5V1723.44ZM618 1698.73L621.375 1704.88V1739H618V1698.73ZM611.25 1686.59L614.625 1692.78V1739H611.25V1686.59ZM612.422 1671.5H616.359L655.453 1739H651.516L612.422 1671.5ZM620.391 1671.5H624.375L663.422 1739H659.391L620.391 1671.5ZM628.312 1671.5H632.25L667.875 1733.14V1671.5H671.25V1739H667.266L628.312 1671.5ZM607.875 1677.31V1739H604.5V1671.5H608.531L647.484 1739H643.594L607.875 1677.31ZM702.233 1671.5H705.608V1739H702.233V1671.5ZM695.483 1671.5H698.858V1739H695.483V1671.5ZM688.733 1671.5H692.108V1739H688.733V1671.5ZM681.983 1671.5H685.358V1739H681.983V1671.5ZM764.902 1694.75L762.184 1696.81C759.465 1693.44 755.965 1691.75 751.684 1691.75C747.965 1691.75 744.777 1693.08 742.121 1695.73C739.496 1698.36 738.184 1701.53 738.184 1705.25C738.184 1708.97 739.496 1712.16 742.121 1714.81C744.777 1717.44 747.965 1718.75 751.684 1718.75C753.777 1718.75 755.731 1718.3 757.543 1717.39C759.387 1716.48 760.949 1715.23 762.231 1713.64L764.856 1715.84C763.293 1717.81 761.356 1719.36 759.043 1720.48C756.731 1721.58 754.277 1722.12 751.684 1722.12C747.027 1722.12 743.043 1720.48 739.731 1717.2C736.449 1713.89 734.809 1709.91 734.809 1705.25C734.809 1700.59 736.449 1696.62 739.731 1693.34C743.043 1690.03 747.027 1688.38 751.684 1688.38C754.309 1688.38 756.777 1688.95 759.09 1690.11C761.402 1691.23 763.34 1692.78 764.902 1694.75ZM770.152 1690.53L767.481 1692.59C765.606 1690.22 763.277 1688.36 760.496 1687.02C757.746 1685.67 754.809 1685 751.684 1685C746.09 1685 741.309 1686.98 737.34 1690.95C733.402 1694.92 731.434 1699.69 731.434 1705.25C731.434 1710.81 733.402 1715.58 737.34 1719.55C741.309 1723.52 746.09 1725.5 751.684 1725.5C754.809 1725.5 757.762 1724.83 760.543 1723.48C763.324 1722.11 765.652 1720.23 767.527 1717.86L770.106 1720.02C767.918 1722.77 765.215 1724.94 761.996 1726.53C758.777 1728.09 755.34 1728.88 751.684 1728.88C747.402 1728.88 743.449 1727.83 739.824 1725.73C736.199 1723.61 733.324 1720.73 731.199 1717.11C729.106 1713.48 728.059 1709.53 728.059 1705.25C728.059 1700.97 729.106 1697.02 731.199 1693.39C733.324 1689.77 736.199 1686.91 739.824 1684.81C743.449 1682.69 747.402 1681.62 751.684 1681.62C755.34 1681.62 758.777 1682.42 761.996 1684.02C765.246 1685.58 767.965 1687.75 770.152 1690.53ZM775.449 1686.31L772.824 1688.42C770.293 1685.27 767.184 1682.78 763.496 1680.97C759.809 1679.16 755.871 1678.25 751.684 1678.25C748.027 1678.25 744.527 1678.97 741.184 1680.41C737.871 1681.81 734.996 1683.73 732.559 1686.17C730.152 1688.58 728.231 1691.45 726.793 1694.8C725.387 1698.11 724.684 1701.59 724.684 1705.25C724.684 1708.91 725.387 1712.41 726.793 1715.75C728.231 1719.06 730.152 1721.94 732.559 1724.38C734.996 1726.78 737.871 1728.7 741.184 1730.14C744.527 1731.55 748.027 1732.25 751.684 1732.25C755.871 1732.25 759.809 1731.34 763.496 1729.53C767.184 1727.72 770.293 1725.23 772.824 1722.08L775.356 1724.28C772.512 1727.81 769.027 1730.59 764.902 1732.62C760.777 1734.62 756.371 1735.62 751.684 1735.62C747.559 1735.62 743.621 1734.83 739.871 1733.23C736.121 1731.61 732.887 1729.45 730.168 1726.77C727.481 1724.05 725.324 1720.81 723.699 1717.06C722.106 1713.31 721.309 1709.38 721.309 1705.25C721.309 1701.12 722.106 1697.19 723.699 1693.44C725.324 1689.69 727.481 1686.47 730.168 1683.78C732.887 1681.06 736.121 1678.91 739.871 1677.31C743.621 1675.69 747.559 1674.88 751.684 1674.88C756.402 1674.88 760.824 1675.89 764.949 1677.92C769.106 1679.95 772.606 1682.75 775.449 1686.31ZM780.699 1682.09L777.981 1684.11C774.824 1680.2 770.949 1677.12 766.356 1674.88C761.793 1672.62 756.902 1671.5 751.684 1671.5C747.121 1671.5 742.746 1672.39 738.559 1674.17C734.402 1675.95 730.809 1678.36 727.777 1681.39C724.777 1684.39 722.387 1687.98 720.606 1692.17C718.824 1696.33 717.934 1700.69 717.934 1705.25C717.934 1709.81 718.824 1714.19 720.606 1718.38C722.387 1722.53 724.777 1726.12 727.777 1729.16C730.809 1732.16 734.402 1734.55 738.559 1736.33C742.746 1738.11 747.121 1739 751.684 1739C756.902 1739 761.793 1737.88 766.356 1735.62C770.949 1733.38 774.824 1730.3 777.981 1726.39L780.652 1728.45C777.184 1732.77 772.918 1736.17 767.856 1738.67C762.824 1741.14 757.434 1742.38 751.684 1742.38C746.652 1742.38 741.84 1741.39 737.246 1739.42C732.684 1737.45 728.746 1734.81 725.434 1731.5C722.121 1728.19 719.481 1724.25 717.512 1719.69C715.543 1715.09 714.559 1710.28 714.559 1705.25C714.559 1700.22 715.543 1695.42 717.512 1690.86C719.481 1686.27 722.121 1682.31 725.434 1679C728.746 1675.69 732.684 1673.05 737.246 1671.08C741.84 1669.11 746.652 1668.12 751.684 1668.12C757.434 1668.12 762.84 1669.38 767.902 1671.88C772.965 1674.34 777.231 1677.75 780.699 1682.09ZM836.948 1705.72C836.948 1701.72 835.713 1698.62 833.244 1696.44C830.776 1694.25 827.51 1693.16 823.448 1693.16C820.01 1693.16 817.057 1694.34 814.588 1696.72C812.119 1699.09 810.885 1701.94 810.885 1705.25C810.885 1707.12 811.135 1708.81 811.635 1710.31C812.135 1711.78 812.807 1713.02 813.651 1714.02C814.526 1714.98 815.557 1715.8 816.744 1716.45C817.932 1717.08 819.166 1717.53 820.448 1717.81C821.76 1718.09 823.151 1718.23 824.619 1718.23C828.182 1718.23 831.432 1717.36 834.369 1715.61V1718.98C831.338 1720.58 828.073 1721.38 824.573 1721.38C822.323 1721.38 820.198 1721.08 818.198 1720.48C816.229 1719.86 814.432 1718.94 812.807 1717.72C811.182 1716.47 809.885 1714.78 808.916 1712.66C807.979 1710.5 807.51 1708.03 807.51 1705.25C807.51 1700.94 809.026 1697.28 812.057 1694.28C815.088 1691.28 818.885 1689.78 823.448 1689.78C828.479 1689.78 832.541 1691.2 835.635 1694.05C838.76 1696.86 840.323 1700.75 840.323 1705.72V1739H836.948V1705.72ZM847.073 1705.72V1739H843.698V1705.72C843.698 1699.81 841.807 1695.12 838.026 1691.66C834.244 1688.16 829.385 1686.41 823.448 1686.41C817.948 1686.41 813.354 1688.23 809.666 1691.89C805.979 1695.55 804.135 1700 804.135 1705.25C804.135 1708.44 804.682 1711.3 805.776 1713.83C806.901 1716.36 808.416 1718.39 810.323 1719.92C812.229 1721.45 814.354 1722.62 816.698 1723.44C819.073 1724.22 821.573 1724.61 824.198 1724.61C827.76 1724.61 831.151 1723.78 834.369 1722.12V1725.69C830.994 1727.09 827.588 1727.8 824.151 1727.8C821.057 1727.8 818.119 1727.33 815.338 1726.39C812.557 1725.42 810.073 1724.03 807.885 1722.22C805.698 1720.38 803.963 1718 802.682 1715.09C801.401 1712.16 800.76 1708.88 800.76 1705.25C800.76 1699.09 802.932 1693.86 807.276 1689.55C811.651 1685.2 817.041 1683.03 823.448 1683.03C827.948 1683.03 831.979 1683.95 835.541 1685.8C839.104 1687.61 841.916 1690.25 843.979 1693.72C846.041 1697.19 847.073 1701.19 847.073 1705.72ZM853.823 1705.72V1739H850.448V1705.72C850.448 1700.56 849.26 1696 846.885 1692.03C844.541 1688.03 841.323 1684.97 837.229 1682.84C833.135 1680.72 828.541 1679.66 823.448 1679.66C818.604 1679.66 814.182 1680.81 810.182 1683.12C806.182 1685.41 803.041 1688.5 800.76 1692.41C798.51 1696.31 797.385 1700.59 797.385 1705.25C797.385 1709.25 798.119 1712.91 799.588 1716.22C801.057 1719.5 803.026 1722.2 805.494 1724.33C807.994 1726.45 810.823 1728.11 813.979 1729.3C817.166 1730.45 820.494 1731.03 823.963 1731.03C827.494 1731.03 830.963 1730.3 834.369 1728.83V1732.25C830.807 1733.59 827.307 1734.27 823.869 1734.27C818.463 1734.27 813.494 1733.05 808.963 1730.61C804.432 1728.17 800.807 1724.72 798.088 1720.25C795.369 1715.78 794.01 1710.78 794.01 1705.25C794.01 1701.31 794.76 1697.56 796.26 1694C797.791 1690.44 799.854 1687.36 802.448 1684.77C805.041 1682.17 808.166 1680.11 811.823 1678.58C815.479 1677.05 819.354 1676.28 823.448 1676.28C829.166 1676.28 834.323 1677.5 838.916 1679.94C843.541 1682.38 847.182 1685.84 849.838 1690.34C852.494 1694.84 853.823 1699.97 853.823 1705.72ZM860.573 1705.72V1739H857.198V1705.72C857.198 1699.34 855.713 1693.66 852.744 1688.66C849.776 1683.62 845.729 1679.75 840.604 1677.03C835.479 1674.28 829.76 1672.91 823.448 1672.91C817.385 1672.91 811.838 1674.36 806.807 1677.27C801.776 1680.17 797.823 1684.11 794.948 1689.08C792.073 1694.02 790.635 1699.41 790.635 1705.25C790.635 1709.09 791.244 1712.75 792.463 1716.22C793.713 1719.66 795.401 1722.67 797.526 1725.27C799.682 1727.83 802.151 1730.05 804.932 1731.92C807.744 1733.8 810.76 1735.22 813.979 1736.19C817.229 1737.16 820.526 1737.64 823.869 1737.64C827.557 1737.64 831.057 1736.94 834.369 1735.53V1739C830.901 1740.22 827.338 1740.83 823.682 1740.83C819.901 1740.83 816.213 1740.3 812.619 1739.23C809.057 1738.17 805.744 1736.61 802.682 1734.55C799.651 1732.45 796.979 1730 794.666 1727.19C792.354 1724.34 790.541 1721.03 789.229 1717.25C787.916 1713.47 787.26 1709.47 787.26 1705.25C787.26 1700.41 788.166 1695.8 789.979 1691.42C791.823 1687.02 794.323 1683.22 797.479 1680.03C800.666 1676.81 804.51 1674.27 809.01 1672.39C813.541 1670.48 818.354 1669.53 823.448 1669.53C828.635 1669.53 833.51 1670.41 838.073 1672.16C842.635 1673.91 846.573 1676.34 849.885 1679.47C853.198 1682.56 855.807 1686.38 857.713 1690.91C859.619 1695.44 860.573 1700.38 860.573 1705.72ZM882.789 1690.2H886.164V1739H882.789V1690.2ZM869.289 1674.88V1671.5H919.914V1674.88H869.289ZM869.289 1681.62V1678.25H919.914V1681.62H869.289ZM869.289 1688.38V1685H919.914V1688.38H869.289ZM903.039 1690.2H906.414V1739H903.039V1690.2ZM896.289 1690.2H899.664V1739H896.289V1690.2ZM889.539 1690.2H892.914V1739H889.539V1690.2ZM946.162 1739H942.787V1671.5H946.162V1739ZM939.412 1739H936.037V1671.5H939.412V1739ZM932.662 1739H929.287V1671.5H932.662V1739ZM952.912 1722.12H985.209V1725.5H952.912V1728.88H985.209V1732.25H952.912V1735.62H985.209V1739H949.537V1671.5H985.209V1674.88H952.912V1678.25H985.209V1681.62H952.912V1685H985.209V1688.38H952.912V1696.77H983.334V1700.14H952.912V1703.52H983.334V1706.89H952.912V1710.27H983.334V1713.64H952.912V1722.12Z" fill="#70D6FF"/>
<path opacity="0.3" d="M978.582 836.891H973.238C966.676 836.891 961.629 835.562 958.098 832.906C954.566 830.219 952.801 826.531 952.801 821.844C952.801 817.469 954.879 813.828 959.035 810.922C963.191 807.984 969.019 806.516 976.519 806.516C981.519 806.516 986.176 807.203 990.488 808.578C994.832 809.953 998.441 811.891 1001.32 814.391L998.691 816.5C996.129 814.406 992.91 812.781 989.035 811.625C985.16 810.469 980.988 809.891 976.519 809.891C969.926 809.891 964.879 811.016 961.379 813.266C957.91 815.516 956.176 818.375 956.176 821.844C956.176 825.594 957.598 828.484 960.441 830.516C963.316 832.516 967.582 833.516 973.238 833.516H978.394C985.051 833.516 990.144 834.859 993.676 837.547C997.238 840.203 999.019 843.875 999.019 848.562C999.019 852.938 996.941 856.594 992.785 859.531C988.629 862.438 982.801 863.891 975.301 863.891C970.301 863.891 965.629 863.203 961.285 861.828C956.973 860.453 953.379 858.516 950.504 856.016L953.129 853.906C955.691 856 958.91 857.625 962.785 858.781C966.66 859.938 970.832 860.516 975.301 860.516C981.894 860.516 986.926 859.391 990.394 857.141C993.894 854.891 995.644 852.031 995.644 848.562C995.644 844.812 994.207 841.938 991.332 839.938C988.488 837.906 984.238 836.891 978.582 836.891ZM978.582 843.641H973.238C964.551 843.641 957.848 841.672 953.129 837.734C948.41 833.766 946.051 828.469 946.051 821.844C946.051 818.812 946.723 815.969 948.066 813.312C949.41 810.656 951.332 808.328 953.832 806.328C956.363 804.297 959.582 802.703 963.488 801.547C967.394 800.359 971.738 799.766 976.519 799.766C982.551 799.766 988.191 800.688 993.441 802.531C998.691 804.344 1003.07 806.891 1006.57 810.172L1003.85 812.188C1000.66 809.312 996.676 807.094 991.894 805.531C987.113 803.938 981.988 803.141 976.519 803.141C968.082 803.141 961.457 804.922 956.644 808.484C951.832 812.047 949.426 816.5 949.426 821.844C949.426 827.5 951.488 831.984 955.613 835.297C959.738 838.609 965.613 840.266 973.238 840.266H978.394C987.644 840.266 992.269 843.031 992.269 848.562C992.269 851.062 990.848 853.125 988.004 854.75C985.191 856.344 980.957 857.141 975.301 857.141C971.332 857.141 967.644 856.688 964.238 855.781C960.832 854.844 958.019 853.516 955.801 851.797L958.473 849.734C962.379 852.422 967.988 853.766 975.301 853.766C979.988 853.766 983.426 853.281 985.613 852.312C987.801 851.344 988.894 850.094 988.894 848.562C988.894 846.781 988.129 845.516 986.598 844.766C985.066 844.016 982.394 843.641 978.582 843.641ZM978.582 830.141H973.238C964.113 830.141 959.551 827.375 959.551 821.844C959.551 819.344 960.957 817.297 963.769 815.703C966.613 814.078 970.863 813.266 976.519 813.266C980.488 813.266 984.176 813.734 987.582 814.672C990.988 815.578 993.801 816.891 996.019 818.609L993.348 820.672C989.441 817.984 983.832 816.641 976.519 816.641C971.832 816.641 968.394 817.125 966.207 818.094C964.019 819.062 962.926 820.312 962.926 821.844C962.926 823.625 963.691 824.891 965.223 825.641C966.754 826.391 969.426 826.766 973.238 826.766H978.582C987.269 826.766 993.973 828.75 998.691 832.719C1003.41 836.656 1005.77 841.938 1005.77 848.562C1005.77 851.594 1005.1 854.438 1003.75 857.094C1002.41 859.75 1000.47 862.094 997.941 864.125C995.441 866.125 992.238 867.719 988.332 868.906C984.426 870.062 980.082 870.641 975.301 870.641C969.269 870.641 963.629 869.734 958.379 867.922C953.129 866.078 948.754 863.516 945.254 860.234L947.973 858.219C951.16 861.094 955.144 863.328 959.926 864.922C964.707 866.484 969.832 867.266 975.301 867.266C983.738 867.266 990.363 865.484 995.176 861.922C999.988 858.359 1002.39 853.906 1002.39 848.562C1002.39 842.906 1000.33 838.422 996.207 835.109C992.082 831.797 986.207 830.141 978.582 830.141ZM1027.05 820.203H1030.42V869H1027.05V820.203ZM1013.55 804.875V801.5H1064.17V804.875H1013.55ZM1013.55 811.625V808.25H1064.17V811.625H1013.55ZM1013.55 818.375V815H1064.17V818.375H1013.55ZM1047.3 820.203H1050.67V869H1047.3V820.203ZM1040.55 820.203H1043.92V869H1040.55V820.203ZM1033.8 820.203H1037.17V869H1033.8V820.203ZM1117.84 839.094V801.5H1121.22V839.094C1121.22 842.656 1119.84 845.719 1117.09 848.281C1114.38 850.844 1111.09 852.125 1107.25 852.125C1103.41 852.125 1100.11 850.844 1097.36 848.281C1094.64 845.719 1093.28 842.656 1093.28 839.094V801.5H1096.66V839.094C1096.66 841.75 1097.69 844.031 1099.75 845.938C1101.84 847.812 1104.34 848.75 1107.25 848.75C1110.16 848.75 1112.64 847.812 1114.7 845.938C1116.8 844.031 1117.84 841.75 1117.84 839.094ZM1124.59 839.094V801.5H1127.97V839.094C1127.97 844.562 1125.94 849.234 1121.88 853.109C1117.81 856.953 1112.94 858.875 1107.25 858.875C1101.56 858.875 1096.69 856.953 1092.62 853.109C1088.56 849.234 1086.53 844.562 1086.53 839.094V801.5H1089.91V839.094C1089.91 843.625 1091.59 847.5 1094.97 850.719C1098.38 853.906 1102.47 855.5 1107.25 855.5C1112 855.5 1116.08 853.906 1119.48 850.719C1122.89 847.5 1124.59 843.625 1124.59 839.094ZM1131.34 839.094V801.5H1134.72V839.094C1134.72 843.875 1133.48 848.312 1131.02 852.406C1128.55 856.469 1125.2 859.688 1120.98 862.062C1116.77 864.438 1112.19 865.625 1107.25 865.625C1102.31 865.625 1097.73 864.438 1093.52 862.062C1089.3 859.688 1085.95 856.469 1083.48 852.406C1081.02 848.312 1079.78 843.875 1079.78 839.094V801.5H1083.16V839.094C1083.16 843.25 1084.23 847.109 1086.39 850.672C1088.55 854.234 1091.47 857.062 1095.16 859.156C1098.88 861.219 1102.91 862.25 1107.25 862.25C1111.59 862.25 1115.61 861.219 1119.3 859.156C1123.02 857.062 1125.95 854.234 1128.11 850.672C1130.27 847.109 1131.34 843.25 1131.34 839.094ZM1138.09 839.094V801.5H1141.47V839.094C1141.47 843.594 1140.56 847.906 1138.75 852.031C1136.94 856.125 1134.5 859.656 1131.44 862.625C1128.38 865.594 1124.73 867.953 1120.52 869.703C1116.3 871.484 1111.88 872.375 1107.25 872.375C1102.62 872.375 1098.2 871.484 1093.98 869.703C1089.77 867.953 1086.12 865.594 1083.06 862.625C1080 859.656 1077.56 856.125 1075.75 852.031C1073.94 847.906 1073.03 843.594 1073.03 839.094V801.5H1076.41V839.094C1076.41 844.469 1077.78 849.453 1080.53 854.047C1083.31 858.641 1087.06 862.281 1091.78 864.969C1096.53 867.656 1101.69 869 1107.25 869C1112.81 869 1117.95 867.656 1122.67 864.969C1127.42 862.281 1131.17 858.641 1133.92 854.047C1136.7 849.453 1138.09 844.469 1138.09 839.094ZM1172.12 848.75V821.75C1172.12 821.75 1178.36 821.75 1190.83 821.75C1194.29 821.75 1197.26 823.062 1199.73 825.688C1202.23 828.312 1203.48 831.469 1203.48 835.156C1203.48 838.969 1202.25 842.188 1199.78 844.812C1197.31 847.438 1194.33 848.75 1190.83 848.75H1172.12ZM1175.5 845.375H1190.83C1193.36 845.375 1195.51 844.391 1197.29 842.422C1199.11 840.453 1200.01 838.031 1200.01 835.156C1200.01 832.406 1199.11 830.047 1197.29 828.078C1195.51 826.109 1193.36 825.125 1190.83 825.125H1175.5V845.375ZM1168.75 852.125H1190.83C1195.26 852.125 1199.06 850.484 1202.22 847.203C1205.37 843.891 1206.95 839.875 1206.95 835.156C1206.95 830.531 1205.36 826.578 1202.17 823.297C1199.01 820.016 1195.23 818.375 1190.83 818.375H1168.75V852.125ZM1165.37 855.5V815H1190.83C1196.17 815 1200.76 816.984 1204.61 820.953C1208.48 824.891 1210.42 829.625 1210.42 835.156C1210.42 840.812 1208.5 845.625 1204.65 849.594C1200.81 853.531 1196.2 855.5 1190.83 855.5H1165.37ZM1162 858.875H1190.83C1194.95 858.875 1198.78 857.828 1202.31 855.734C1205.84 853.641 1208.65 850.766 1210.75 847.109C1212.84 843.453 1213.89 839.469 1213.89 835.156C1213.89 830.938 1212.84 827.016 1210.75 823.391C1208.65 819.766 1205.83 816.906 1202.26 814.812C1198.73 812.688 1194.92 811.625 1190.83 811.625H1162V858.875ZM1158.62 862.25V808.25H1190.83C1195.54 808.25 1199.94 809.453 1204 811.859C1208.09 814.266 1211.34 817.547 1213.75 821.703C1216.15 825.828 1217.36 830.312 1217.36 835.156C1217.36 840.062 1216.15 844.609 1213.75 848.797C1211.34 852.953 1208.09 856.234 1204 858.641C1199.94 861.047 1195.54 862.25 1190.83 862.25H1158.62ZM1155.25 865.625H1190.83C1196.17 865.625 1201.14 864.281 1205.73 861.594C1210.33 858.875 1213.98 855.172 1216.7 850.484C1219.45 845.797 1220.83 840.688 1220.83 835.156C1220.83 829.719 1219.45 824.672 1216.7 820.016C1213.98 815.328 1210.31 811.641 1205.69 808.953C1201.09 806.234 1196.14 804.875 1190.83 804.875H1155.25V865.625ZM1190.83 869H1151.87V801.5H1190.83C1196.76 801.5 1202.29 803.016 1207.42 806.047C1212.58 809.047 1216.67 813.141 1219.7 818.328C1222.76 823.484 1224.29 829.094 1224.29 835.156C1224.29 839.75 1223.39 844.141 1221.58 848.328C1219.79 852.516 1217.39 856.125 1214.36 859.156C1211.36 862.156 1207.79 864.547 1203.67 866.328C1199.54 868.109 1195.26 869 1190.83 869ZM1295.03 801.5H1298.4L1277.17 846.219V869H1273.79V846.219L1295.03 801.5ZM1288.28 801.5H1291.65L1270.42 846.219V869H1267.04V846.219L1288.28 801.5ZM1281.53 801.5H1284.9L1263.67 846.219V869H1260.29V846.219L1281.53 801.5ZM1274.78 801.5H1278.15L1256.92 846.219V869H1253.54V846.219L1230.9 801.5H1234.28L1255.18 842.797L1274.78 801.5ZM1237.7 801.5H1241.07L1257.81 833.328L1256.12 837.031L1237.7 801.5ZM1244.45 801.5H1247.87L1261.18 825.922L1259.45 829.625L1244.45 801.5ZM1251.29 801.5H1254.67L1264.56 818.562L1262.87 822.266L1251.29 801.5Z" fill="#70D6FF"/>
</svg>
