<?xml version="1.0" encoding="utf-8"?>
<!-- Generator: Adobe Illustrator 21.0.2, SVG Export Plug-In . SVG Version: 6.00 Build 0)  -->
<svg version="1.1" id="Illustration" xmlns="http://www.w3.org/2000/svg" xmlns:xlink="http://www.w3.org/1999/xlink" x="0px"
	 y="0px" viewBox="0 0 3710 3710" style="enable-background:new 0 0 3710 3710;" xml:space="preserve">
<style type="text/css">
	.st0{opacity:0.3;fill:url(#SVGID_1_);}
	.st1{fill:url(#SVGID_2_);}
	.st2{fill:url(#SVGID_3_);}
	.st3{opacity:0.76;fill:#FFFFFF;}
	.st4{fill:url(#SVGID_4_);}
	.st5{fill:url(#SVGID_5_);}
	.st6{fill:url(#SVGID_6_);}
	.st7{fill:url(#SVGID_7_);}
	.st8{fill:#FFFFFF;}
	.st9{fill:url(#SVGID_8_);}
	.st10{fill:url(#SVGID_9_);}
	.st11{fill:url(#SVGID_10_);}
	.st12{fill:url(#SVGID_11_);}
	.st13{fill:url(#SVGID_12_);}
	.st14{fill:url(#SVGID_13_);}
	.st15{fill:url(#SVGID_14_);}
	.st16{fill:url(#SVGID_15_);}
	.st17{fill:url(#SVGID_16_);}
	.st18{fill:url(#SVGID_17_);}
	.st19{fill:url(#SVGID_18_);}
	.st20{fill:url(#SVGID_19_);}
	.st21{fill:url(#SVGID_20_);}
	.st22{fill:url(#SVGID_21_);}
	.st23{fill:url(#SVGID_22_);}
	.st24{fill:url(#SVGID_23_);}
	.st25{fill:url(#SVGID_24_);}
	.st26{fill:url(#SVGID_25_);}
	.st27{fill:url(#SVGID_26_);}
	.st28{fill:url(#SVGID_27_);}
	.st29{fill:url(#SVGID_28_);}
	.st30{fill:url(#SVGID_29_);}
	.st31{fill:url(#SVGID_30_);}
	.st32{fill:url(#SVGID_31_);}
	.st33{fill:url(#SVGID_32_);}
	.st34{fill:url(#SVGID_33_);}
	.st35{fill:url(#SVGID_34_);}
	.st36{fill:url(#SVGID_35_);}
	.st37{fill:url(#SVGID_36_);}
	.st38{fill:url(#SVGID_37_);}
	.st39{fill:url(#SVGID_38_);}
	.st40{fill:url(#SVGID_39_);}
	.st41{fill:url(#SVGID_40_);}
	.st42{opacity:0.3;}
	.st43{fill:url(#SVGID_41_);}
	.st44{fill:url(#SVGID_42_);}
	.st45{fill:url(#SVGID_43_);}
	.st46{fill:url(#SVGID_44_);}
	.st47{fill:url(#SVGID_45_);}
	.st48{fill:url(#SVGID_46_);}
	.st49{opacity:0.56;fill:#FFFFFF;}
	.st50{fill:url(#SVGID_47_);}
	.st51{fill:url(#SVGID_48_);}
	.st52{fill:url(#SVGID_49_);}
	.st53{fill:url(#SVGID_50_);}
	.st54{fill:url(#SVGID_51_);}
</style>
<g>
	<linearGradient id="SVGID_1_" gradientUnits="userSpaceOnUse" x1="3488.8594" y1="3292.8938" x2="1406.5215" y2="1470.8495">
		<stop  offset="0" style="stop-color:#B37CFF"/>
		<stop  offset="1" style="stop-color:#F895E7"/>
	</linearGradient>
	<path class="st0" d="M3135,2346.6c-269.1,633.7-986,988.7-1607.7,892.9c-101.2-15.6-378.5-62-624-281
		C430.6,2537,329.5,1702.3,710.8,1114.1c277.5-428.1,775-670.8,1247.7-658.7c101.8,2.6,492,18.7,835,301.5
		c50.4,41.5,161.5,140.2,261.6,296.8C3290.2,1421.4,3310.4,1933.7,3135,2346.6z"/>
	<g>
		<g>
			<g>
				<linearGradient id="SVGID_2_" gradientUnits="userSpaceOnUse" x1="2658.47" y1="2350.9307" x2="2519.5737" y2="4302.2432">
					<stop  offset="0" style="stop-color:#53D8FF"/>
					<stop  offset="1" style="stop-color:#3840F7"/>
				</linearGradient>
				<path class="st1" d="M2068.6,3042.2l1097,0v-219.6l-1097,0C2092.1,2822.6,2092.1,3042.2,2068.6,3042.2z"/>
				<linearGradient id="SVGID_3_" gradientUnits="userSpaceOnUse" x1="3492.4871" y1="881.1097" x2="1754.4321" y2="5028.0513">
					<stop  offset="0" style="stop-color:#233894"/>
					<stop  offset="0.9964" style="stop-color:#DD397A"/>
				</linearGradient>
				<path class="st2" d="M3165.6,2987.2v-100.5c0-35.4-21.7-64.1-48.4-64.1h-1044c-21,0-38.1-17-38.1-38.1v0
					c0-6.4,5.2-11.6,11.6-11.6h1141c26.2,0,67.7,41.1,67.7,91.9v140.3c0,47.8-40.3,86.6-65,86.6H2052.7c-9.7,0-17.6-7.9-17.6-17.6
					c0-17.7,14.4-32.1,32.1-32.1h1056.9C3147,3042.2,3165.6,3017.6,3165.6,2987.2z"/>
			</g>
			<path class="st3" d="M3135.2,2871.1H2106.6c-1.9,0-3.4-1.5-3.4-3.4c0-1.9,1.5-3.4,3.4-3.4h1028.6c1.9,0,3.4,1.5,3.4,3.4
				C3138.5,2869.5,3137,2871.1,3135.2,2871.1z"/>
			<path class="st3" d="M3135.2,2903.6H2106.6c-1.9,0-3.4-1.5-3.4-3.4s1.5-3.4,3.4-3.4h1028.6c1.9,0,3.4,1.5,3.4,3.4
				S3137,2903.6,3135.2,2903.6z"/>
			<path class="st3" d="M3135.2,2936.2H2106.6c-1.9,0-3.4-1.5-3.4-3.4c0-1.9,1.5-3.4,3.4-3.4h1028.6c1.9,0,3.4,1.5,3.4,3.4
				C3138.5,2934.7,3137,2936.2,3135.2,2936.2z"/>
			<path class="st3" d="M3135.2,2968.8H2106.6c-1.9,0-3.4-1.5-3.4-3.4c0-1.9,1.5-3.4,3.4-3.4h1028.6c1.9,0,3.4,1.5,3.4,3.4
				C3138.5,2967.3,3137,2968.8,3135.2,2968.8z"/>
			<path class="st3" d="M3135.2,3001.4H2106.6c-1.9,0-3.4-1.5-3.4-3.4s1.5-3.4,3.4-3.4h1028.6c1.9,0,3.4,1.5,3.4,3.4
				S3137,3001.4,3135.2,3001.4z"/>
		</g>
		<g>
			<linearGradient id="SVGID_4_" gradientUnits="userSpaceOnUse" x1="3459.1909" y1="1263.7126" x2="2137.9373" y2="3392.113">
				<stop  offset="0" style="stop-color:#53D8FF"/>
				<stop  offset="1" style="stop-color:#3840F7"/>
			</linearGradient>
			<path class="st4" d="M2123.4,2772h946.9c11.1,0,20.1-9,20.1-20.1v-198.1c0-11.1-9-20.1-20.1-20.1h-946.9
				c-11.1,0-20.1,9-20.1,20.1v198.1C2103.3,2763,2112.3,2772,2123.4,2772z"/>
			<linearGradient id="SVGID_5_" gradientUnits="userSpaceOnUse" x1="3489.5283" y1="1855.0192" x2="2761.552" y2="2876.3582">
				<stop  offset="0" style="stop-color:#53D8FF"/>
				<stop  offset="1" style="stop-color:#3840F7"/>
			</linearGradient>
			<path class="st5" d="M2870.1,2744.6h101.5c4,0,7.2-3.2,7.2-7.2v-169c0-4-3.2-7.2-7.2-7.2h-101.5c-4,0-7.2,3.2-7.2,7.2v169
				C2862.9,2741.3,2866.1,2744.6,2870.1,2744.6z"/>
			<linearGradient id="SVGID_6_" gradientUnits="userSpaceOnUse" x1="3412.2427" y1="1827.6523" x2="2702.7898" y2="2823.0029">
				<stop  offset="0" style="stop-color:#53D8FF"/>
				<stop  offset="1" style="stop-color:#3840F7"/>
			</linearGradient>
			<path class="st6" d="M2806,2744.6h36.2c2,0,3.7-1.6,3.7-3.7v-176.2c0-2-1.6-3.7-3.7-3.7H2806c-2,0-3.7,1.6-3.7,3.7v176.2
				C2802.3,2742.9,2804,2744.6,2806,2744.6z"/>
		</g>
	</g>
	
		<linearGradient id="SVGID_7_" gradientUnits="userSpaceOnUse" x1="-3650.0771" y1="1980.0081" x2="-1961.5656" y2="5456.3564" gradientTransform="matrix(-1 0 0 1 -1380.1644 0)">
		<stop  offset="0" style="stop-color:#CE1567"/>
		<stop  offset="1" style="stop-color:#7A1DBC"/>
	</linearGradient>
	<path class="st7" d="M1526,3116.3h768c6.2,0,11.3-5.1,11.3-11.3v-768c0-6.2-5.1-11.3-11.3-11.3h-768c-6.2,0-11.3,5.1-11.3,11.3v768
		C1514.7,3111.2,1519.8,3116.3,1526,3116.3z"/>
	<g>
		<path class="st8" d="M1803.1,2540.1c30.2-4.6,66.1-8,105.4-8c71.2,0,121.9,16.5,155.5,47.8c34.2,31.3,54.1,75.7,54.1,137.8
			c0,62.6-19.4,113.9-55.2,149.2c-35.9,35.9-95.1,55.2-169.7,55.2c-35.3,0-64.9-1.7-90-4.6V2540.1z M1852.7,2879.5
			c12.5,2.3,30.8,2.8,50.1,2.8c105.9,0,163.4-59.2,163.4-162.9c0.6-90.6-50.7-148.1-155.5-148.1c-25.6,0-45,2.3-58.1,5.1V2879.5z"/>
	</g>
	<linearGradient id="SVGID_8_" gradientUnits="userSpaceOnUse" x1="2969.1008" y1="162.6294" x2="1463.7841" y2="2685.3284">
		<stop  offset="0" style="stop-color:#53D8FF"/>
		<stop  offset="1" style="stop-color:#3840F7"/>
	</linearGradient>
	<path class="st9" d="M1530.3,2328h765.2c7,0,12.7-5.7,12.7-12.7v-765.2c0-7-5.7-12.7-12.7-12.7h-765.2c-7,0-12.7,5.7-12.7,12.7
		v765.2C1517.6,2322.3,1523.3,2328,1530.3,2328z"/>
	<g>
		<path class="st8" d="M1951.5,1762.4c-23.9,0-42.7,14-56.5,41.9c-13.8,28-20.7,66.8-20.7,116.6c0,103.6,27,155.5,81.1,155.5
			c23.7,0,48.5-7.5,74.4-22.6v74.1c-21.8,14.5-49.8,21.7-83.8,21.7c-50.4,0-89.1-20-116.1-60.1c-27-40.1-40.5-96.4-40.5-169.1
			c0-72.6,13.9-129.2,41.8-169.8c27.8-40.6,66.6-60.9,116.1-60.9c16.3,0,32,2.2,47,6.7c15,4.5,31.1,12.3,48.2,23.6l-27.5,67.6
			c-9.2-6.3-19-12.1-29.4-17.3C1975.1,1765,1963.8,1762.4,1951.5,1762.4z"/>
	</g>
	<g>
		<g>
			
				<linearGradient id="SVGID_9_" gradientUnits="userSpaceOnUse" x1="-3863.5027" y1="851.8804" x2="-3723.0332" y2="1204.2454" gradientTransform="matrix(1 0 0 1 6418.3208 0)">
				<stop  offset="0" style="stop-color:#CB236D"/>
				<stop  offset="1" style="stop-color:#4C246D"/>
			</linearGradient>
			<path class="st10" d="M2638.1,1041.4c0,0,47.4,23,56.1,49.5c7,21.2,59.3,24,64.5,65.7c2.7,21.6,18.6,38.8,40.1,42.1
				c53.5,8.2,135.9,36,149.1,128.8c10.1,70.9-26.1,97.7-64,107.1c-27.8,6.8-46.4,33.9-40.7,62c5.4,27-2.7,58.1-49.4,82.8
				c-104.7,55.2-209.3-130.9-209.3-130.9l-21.4-325L2638.1,1041.4z"/>
			
				<linearGradient id="SVGID_10_" gradientUnits="userSpaceOnUse" x1="-4153.3125" y1="1055.4562" x2="-3893.8003" y2="1645.9054" gradientTransform="matrix(1 0 0 1 6418.3208 0)">
				<stop  offset="0" style="stop-color:#F9B776"/>
				<stop  offset="1" style="stop-color:#F47960"/>
			</linearGradient>
			<path class="st11" d="M2145.3,870c0,0,134.7,367.3,364.3,482c0,0-76.4,124.7-116.3,132.2c0,0-245.2-313.9-270.2-571L2145.3,870z"
				/>
			
				<linearGradient id="SVGID_11_" gradientUnits="userSpaceOnUse" x1="-3350.0063" y1="3107.7583" x2="-3230.8928" y2="3107.7583" gradientTransform="matrix(1 0 0 1 6418.3208 0)">
				<stop  offset="0" style="stop-color:#2B3582"/>
				<stop  offset="1" style="stop-color:#150E42"/>
			</linearGradient>
			<path class="st12" d="M3068.5,3079.2l6.8,55.7c1.3,10.6,9.6,18.9,20.2,20.1c17.9,2,46.5,4.1,74.5,1.2
				c12.3-1.3,20.3-13.8,16.5-25.6c-6.8-21.5-19.3-53.8-37.4-72.8h-61.8C3075.9,3057.9,3067.1,3067.9,3068.5,3079.2z"/>
			
				<linearGradient id="SVGID_12_" gradientUnits="userSpaceOnUse" x1="-3853.3198" y1="3577.4746" x2="-3681.9077" y2="1574.0961" gradientTransform="matrix(1 0 0 1 6418.3208 0)">
				<stop  offset="0" style="stop-color:#F9B776"/>
				<stop  offset="1" style="stop-color:#F47960"/>
			</linearGradient>
			<path class="st13" d="M2584.5,2426.7l-10.4,61.3c0,0,34.9,353.7,41.1,495.2c1,22.2-4.8,44.1-16.4,63l-60.7,98.6l154.3-91.1
				l3.1-18.8l-25.3-34.7l33.1-396.3c1.9-23.3-2.9-46.6-13.8-67.2l-31.9-60L2584.5,2426.7z"/>
			
				<linearGradient id="SVGID_13_" gradientUnits="userSpaceOnUse" x1="-3903.395" y1="3086.0125" x2="-3710.6609" y2="3086.0125" gradientTransform="matrix(1 0 0 1 6418.3208 0)">
				<stop  offset="0" style="stop-color:#2B3582"/>
				<stop  offset="1" style="stop-color:#150E42"/>
			</linearGradient>
			<path class="st14" d="M2527.9,3159.2h49.3c9.2,0,17.9-4.2,23.5-11.5c15.4-20,47.2-58.9,62.4-59.9c20.5-1.4,17.9,71.4,17.9,71.4
				h11.5l14.5-90.5c3.7-22.8-7.7-45.3-28.1-56c0,0-4.7,34.6-30.1,49.9c-25.4,15.3-103.3,70.1-103.3,70.1s-9.5-1.4-20,0.5
				C2510,3136.2,2512.2,3159.2,2527.9,3159.2z"/>
			
				<linearGradient id="SVGID_14_" gradientUnits="userSpaceOnUse" x1="-3508.5137" y1="3607.2844" x2="-3337.0564" y2="1603.3774" gradientTransform="matrix(1 0 0 1 6418.3208 0)">
				<stop  offset="0" style="stop-color:#F9B776"/>
				<stop  offset="1" style="stop-color:#F47960"/>
			</linearGradient>
			<path class="st15" d="M2795.9,2455.9c0,0,204.6,388.1,237.1,476.7c32.5,88.6,43.9,162.5,44.4,169.5c0.7,10.9,14.3,21.4,51.8,21.4
				c19.4,0,28.8-7.8,33.5-15.3c4-6.4,4.2-14.4,0.8-21.2c-11.8-23.9-49.4-100.5-63.3-135.2c-16.6-41.4-52.3-229.3-71.9-294.6
				c-19.6-65.3-41.7-136.1-127-201.4C2901.2,2455.9,2842.6,2398.5,2795.9,2455.9z"/>
			<linearGradient id="SVGID_15_" gradientUnits="userSpaceOnUse" x1="2823.4841" y1="1061.8038" x2="2200.1484" y2="2308.4724">
				<stop  offset="0" style="stop-color:#CE1567"/>
				<stop  offset="1" style="stop-color:#7A1DBC"/>
			</linearGradient>
			<path class="st16" d="M2666.7,1820c-52.8-223.6,80.9-350.1,80.9-350.1c-84.4-81-238.1-117.8-238.1-117.8
				s-146.7,107.2-129.3,191.1c10.2,49.2,103.1,294.6,103.1,294.6S2569.3,1878.5,2666.7,1820z"/>
			<linearGradient id="SVGID_16_" gradientUnits="userSpaceOnUse" x1="3156.2251" y1="1228.1782" x2="2532.8906" y2="2474.8445">
				<stop  offset="0" style="stop-color:#CE1567"/>
				<stop  offset="1" style="stop-color:#7A1DBC"/>
			</linearGradient>
			<path class="st17" d="M2783.7,1930.7c-21.5-64.7-117-110.7-117-110.7c-97.4,58.5-183.3,17.9-183.3,17.9s-19.3,73.6-6,142.1
				c13.3,68.4,96.7,508.2,96.7,508.2c131.4,26.6,333.6-26.8,333.6-26.8C2824,2312.7,2805.2,1995.4,2783.7,1930.7z"/>
			
				<linearGradient id="SVGID_17_" gradientUnits="userSpaceOnUse" x1="-3872.1179" y1="1602.7422" x2="-3839.9187" y2="1367.1808" gradientTransform="matrix(1 0 0 1 6418.3208 0)">
				<stop  offset="0" style="stop-color:#F9B776"/>
				<stop  offset="1" style="stop-color:#F47960"/>
			</linearGradient>
			<path class="st18" d="M2605.4,1204.3l42.9,192.7c4.1,17-11.4,14.2-28.5,11c-28.1-5.3-64.3-16.2-76.4-38.1
				c-1.2-2.2-1.8-4.7-2.2-7.3l-18.4-133.6c-1.5-10.6,4.3-20.9,14.1-25.2l35.6-15.8C2586,1181.9,2601.9,1189.7,2605.4,1204.3z"/>
			<g>
				
					<linearGradient id="SVGID_18_" gradientUnits="userSpaceOnUse" x1="-3953.3892" y1="1299.0315" x2="-3672.4504" y2="799.055" gradientTransform="matrix(1 0 0 1 6418.3208 0)">
					<stop  offset="0" style="stop-color:#F9B776"/>
					<stop  offset="1" style="stop-color:#F47960"/>
				</linearGradient>
				<path class="st19" d="M2555.1,1020.8c0,0-50.8,21.5-85.4,94.9c-34.6,73.4-8.7,107.3,23.7,112c32.4,4.7,80.9,3.9,132.1-43.5
					C2676.8,1136.7,2621.1,995.4,2555.1,1020.8z"/>
				
					<linearGradient id="SVGID_19_" gradientUnits="userSpaceOnUse" x1="-3892.9741" y1="863.6289" x2="-3752.5049" y2="1215.9934" gradientTransform="matrix(1 0 0 1 6418.3208 0)">
					<stop  offset="0" style="stop-color:#CB236D"/>
					<stop  offset="1" style="stop-color:#4C246D"/>
				</linearGradient>
				<path class="st20" d="M2591.1,1145c0,0,38.3-107.4-56.9-108.7l-22.4,15.7c0,0-34.9-59.6,22.4-88c57.4-28.4,124.5-4.9,148.9,72.3
					c24.4,77.3,28.6,129-12,166c-40.6,37-57.3-5-57.3-5s22.1-34.6,13.1-53.1c-9-18.5-29.8,3.8-29.8,3.8L2591.1,1145z"/>
				
					<linearGradient id="SVGID_20_" gradientUnits="userSpaceOnUse" x1="-3893.5884" y1="1332.6349" x2="-3612.6489" y2="832.6572" gradientTransform="matrix(1 0 0 1 6418.3208 0)">
					<stop  offset="0" style="stop-color:#F9B776"/>
					<stop  offset="1" style="stop-color:#F47960"/>
				</linearGradient>
				<path class="st21" d="M2601.7,1156.9c0,0,19.4-55.3,45.2-33.3s-21,51.1-39.4,60.5L2601.7,1156.9z"/>
			</g>
			<g>
				
					<linearGradient id="SVGID_21_" gradientUnits="userSpaceOnUse" x1="-4223.1011" y1="1035.8878" x2="-4043.8621" y2="1443.6971" gradientTransform="matrix(1 0 0 1 6418.3208 0)">
					<stop  offset="0" style="stop-color:#F9B776"/>
					<stop  offset="1" style="stop-color:#F47960"/>
				</linearGradient>
				<path class="st22" d="M2132.3,936.9c-2.1,6.5,21.7,16.5,35.8-10.2c0.5-12.8,8.3-67.7,0.6-78.1c-40.8-55.6-83.8-59.2-83.8-59.2
					c-8,14.5-17.8,26.7-22.4,44.2c-3.5,13.3-1.3,27.5,5.4,39.5c6.7,12.1,15.9,27.9,24.6,40.2
					C2108.9,936.7,2132.3,936.9,2132.3,936.9z"/>
			</g>
		</g>
		<linearGradient id="SVGID_22_" gradientUnits="userSpaceOnUse" x1="2367.8525" y1="612.8441" x2="1200.5631" y2="1994.2522">
			<stop  offset="0" style="stop-color:#FDF53F"/>
			<stop  offset="1" style="stop-color:#D93C65"/>
		</linearGradient>
		<path class="st23" d="M1611,1446h805.5c6.2,0,11.3-5.1,11.3-11.3V629.1c0-6.2-5.1-11.3-11.3-11.3H1611c-6.2,0-11.3,5.1-11.3,11.3
			v805.5C1599.7,1440.9,1604.7,1446,1611,1446z"/>
		<g>
			<path class="st8" d="M2088.6,1268.7l-25.7-113.1h-116.7l-25.7,113.1H1837l110.9-449.8H2061l111.2,449.8H2088.6z M2047.2,1081.8
				l-23.9-104.2c-1.4-6.3-4.6-22.2-9.7-47.6c-5-25.4-8-42.4-9-51c-2.7,17.6-6,36.9-10.1,58.1c-4.1,21.1-14.7,69.4-31.9,144.8H2047.2
				z"/>
		</g>
		
			<linearGradient id="SVGID_23_" gradientUnits="userSpaceOnUse" x1="8079.1431" y1="8064.5034" x2="8487.0889" y2="8064.5034" gradientTransform="matrix(-0.447 0.8946 -0.8946 -0.447 13306.0332 -2292.5178)">
			<stop  offset="0" style="stop-color:#F9B776"/>
			<stop  offset="1" style="stop-color:#F47960"/>
		</linearGradient>
		<path class="st24" d="M2771.3,1529.4c0,0-392.5,479.2-685.7-66.4c0,0-5.6-13.9-2.1-34.1c1.8-10.2-4.9-46.2-8.6-64.7
			c-1.2-5.9,3-11.5,9-12.1c4.7-0.5,9.3,1.5,12.3,5.2l53.6,68.2c4,13.5-2.4,27.9-15.2,33.9c-8.1,3.9-10.7,14.2-5.2,21.3
			c223,292.3,596-28.4,602.8-24.7C2756.3,1469.5,2784.3,1484.3,2771.3,1529.4z"/>
	</g>
	<g>
		
			<linearGradient id="SVGID_24_" gradientUnits="userSpaceOnUse" x1="-1575.9843" y1="3189.6516" x2="-1284.1956" y2="3189.6516" gradientTransform="matrix(-1 0 0 1 -36.393 0)">
			<stop  offset="0" style="stop-color:#CB236D"/>
			<stop  offset="1" style="stop-color:#4C246D"/>
		</linearGradient>
		<path class="st25" d="M1256.6,3168c12.8-25.5,35.8-39.2,63.4-42.5c3.2-0.4,6.1,0,8.8,0.8c16.6,19.9,39,34.3,65.9,39.5
			c45.9,8.9,93.6-0.1,139.5,9.8c0.6,0.1,1.2,0.1,1.8,0.2c4.4,12.7,5.2,26.4,1,39.6c-9.2,28.8-37,38.8-64.8,38.7
			c-36.7-0.1-73.5-2.1-110.2-3.2c-17.9-0.5-35.7-1.4-53.6-2.5c-15.1-0.9-31.8-0.5-44.4-10.2C1241.9,3221.3,1245.5,3190,1256.6,3168z
			"/>
		<g>
			
				<linearGradient id="SVGID_25_" gradientUnits="userSpaceOnUse" x1="-1003.8438" y1="596.1777" x2="-995.4973" y2="525.0881" gradientTransform="matrix(-6.230000e-02 0.9981 1.437 8.970000e-02 488.7997 3349.7002)">
				<stop  offset="0" style="stop-color:#F9B776"/>
				<stop  offset="1" style="stop-color:#F47960"/>
			</linearGradient>
			<path class="st26" d="M1305.5,2403.7c1.2-16.9,44-24.9,76.5-21.6c11.2,1.1,22.4,4.9,24.8,10.5c2.3,5.5-2.5,10.7-12.9,13
				c-1.6,0.4-5.9,2-1.5,0.2c-1.3,0.5-2.8,1-4.1,1.5c-0.6,0.2-0.9,0.4-1.2,0.5c-1.4,0.8-4.2,0.7-5.8,1.5c0.7-0.5,3,2.7-2.2-0.6
				c-0.1,0-0.1,0.1-0.2,0.1c-0.1,0.1,0.4,1.3,0.3,1.3c0.1,0,0.7,0.5,0.8,0.5c-1,0.6-1.7,1.6-2.6,2.2c-4.8,3.8-10.1,6.3-18.6,8.6
				C1335.6,2427.6,1304.7,2415.5,1305.5,2403.7z"/>
			
				<linearGradient id="SVGID_26_" gradientUnits="userSpaceOnUse" x1="-992.6785" y1="578.6619" x2="-992.5326" y2="577.4194" gradientTransform="matrix(-6.230000e-02 0.9981 1.437 8.970000e-02 488.7997 3349.7002)">
				<stop  offset="0" style="stop-color:#F9B776"/>
				<stop  offset="1" style="stop-color:#F47960"/>
			</linearGradient>
			<path class="st27" d="M1382.1,2410.5c-0.4,0.3-1,0.6-1.7,0.7c0,0,0.1,0,0.1-0.1C1380.9,2411,1381.5,2410.8,1382.1,2410.5z"/>
		</g>
		<g>
			
				<linearGradient id="SVGID_27_" gradientUnits="userSpaceOnUse" x1="-1192.2148" y1="1971.8805" x2="-1036.547" y2="1416.8925" gradientTransform="matrix(-1 0 0 1 -36.393 0)">
				<stop  offset="0" style="stop-color:#2B3582"/>
				<stop  offset="1" style="stop-color:#150E42"/>
			</linearGradient>
			<path class="st28" d="M939.2,1628.1c18.5-35.2,51.1-34.3,81.2-34.9c69.2-1.4,153.5-8.6,210.3,51c14.6,15.3,22.4,32.7,24.2,51.2
				c1.8,18.5-120.8,93.3-130,113.1c-23,49.5-127.3,133.4-144.4,108.6c-36.5-52.9-58.5-121.2-58.8-191.5
				C921.7,1693.5,924.7,1655.5,939.2,1628.1z"/>
			
				<linearGradient id="SVGID_28_" gradientUnits="userSpaceOnUse" x1="-568.4359" y1="3125.6174" x2="-563.1931" y2="2864.3047" gradientTransform="matrix(-1 0 0 1 -36.393 0)">
				<stop  offset="0" style="stop-color:#CB236D"/>
				<stop  offset="1" style="stop-color:#4C246D"/>
			</linearGradient>
			<path class="st29" d="M454.7,2913.4c0.5-11.9-0.1-25,7.3-35.1c12.9-17.5,37.6-15.2,55.1-6.8c20.3,9.7,31.5,27.6,34.5,49.2
				c0.4,2.5,0.1,4.8-0.5,6.9c-7.5,6.5-13.9,14.1-18.9,22.5c0.4,4.5,0.1,9.1-0.1,13.6c-0.6,13.5-0.3,26.8,1,40.3
				c1.2,11.9,64.1,57.1,67.9,65.9c13.2,30.1-12.9,50.2-40.6,54.6c-73.2,9.8-95.1-64.5-99.4-94.5
				C457.1,3002.7,454.4,2920.5,454.7,2913.4z"/>
			
				<linearGradient id="SVGID_29_" gradientUnits="userSpaceOnUse" x1="-1417.0883" y1="2453.3865" x2="-1386.4625" y2="2192.5405" gradientTransform="matrix(-1 0 0 1 -36.393 0)">
				<stop  offset="0" style="stop-color:#F9B776"/>
				<stop  offset="1" style="stop-color:#F47960"/>
			</linearGradient>
			<path class="st30" d="M1157.6,2220.7c8.2-8.2,22.1-11,34.1-1.2c25.3,20.9,43.7,44.7,75.5,55.6c31.5,10.8,114,56.3,199.2,60.3
				c26-13.4,53.7-2.4,81.9,1.2c17.5,2.2,9.4,17.8-9,18.9c-13.5,0.8-12.1-0.7-23.7,3.3c0.4,0.3,1.1,0.8,1.1,0.8
				c15,29.9,24.1,25.5,63.8,43.9c39.7,18.4-0.1,28.1-18.4,28.1c-123.6-9.8-83-25.6-158.7-46.5c-31.1-10.3-62.8-16.6-94.8-23.6
				c-68.7-15-128.9-45.3-169.1-105.2C1128.4,2240,1141.8,2223.1,1157.6,2220.7z"/>
			
				<linearGradient id="SVGID_30_" gradientUnits="userSpaceOnUse" x1="-970.8214" y1="2552.6584" x2="-954.2338" y2="1806.2018" gradientTransform="matrix(-0.9776 0.2102 0.2102 0.9776 -212.7262 503.4828)">
				<stop  offset="0" style="stop-color:#FDF53F"/>
				<stop  offset="1" style="stop-color:#D93C65"/>
			</linearGradient>
			<path class="st31" d="M1034.2,2111.8c-2.5-16.1-4.1-32.3-5.1-48.5c-0.9-15.1-3.6-33.3,2.2-47.7c6.4-15.7,20.1-21.9,33.3-19.5
				c38.1,2.8,58.8,40.3,75.6,71.2c12.1,22.2,24.2,44.4,36.3,66.6c10.5,19.5,25.6,41.2,31.2,62.7c1.8,6.8-33.2,34.6-46.4,41.4
				c-15.9,8.1-31.6,17.4-47.9,24.5c-33.3,14.3-33.3,14.3-53-51.2C1048.4,2178.9,1039.5,2145.7,1034.2,2111.8z"/>
			
				<linearGradient id="SVGID_31_" gradientUnits="userSpaceOnUse" x1="-759.2701" y1="3102.2522" x2="-887.8806" y2="2659.8315" gradientTransform="matrix(-1 0 0 1 -36.393 0)">
				<stop  offset="0" style="stop-color:#2B3582"/>
				<stop  offset="1" style="stop-color:#150E42"/>
			</linearGradient>
			<path class="st32" d="M543,3018.8c27.1,25.3,66.7,37.5,101.4,48c70.4,21.3,145.2,34.3,218.5,39.8c27.4,2.1,56.3,0.1,81.1-12.8
				c28.6-14.9,44.2-42.7,53.2-72.7c21.1-70.8,33.2-145.8,44.2-218.7c5.9-38.9,10.9-77.8,15-116.7c10-42.7,26.8-95.5,6-134.9
				c-21.8-41.3-70.4-54.5-113.9-53.2c-21.2,0.6-44.9,1-62.9,13.4c-21.9,15-24.5,40.1-27,64.3c-5.7,53.8-11.1,107.6-16.7,161.4
				c-2.8,26.9-5.5,53.8-8.4,80.7c-2.4,22-4.7,45.5-13.8,65.9c-18.5,41.6-64.1,51.7-105.7,50c-51.5-2-103.9-14.4-154.4-24.2
				c-12.9-2.5-24.7,1.9-32,13.1C507.2,2953.3,516.8,2994.3,543,3018.8z"/>
			<g>
				
					<linearGradient id="SVGID_32_" gradientUnits="userSpaceOnUse" x1="-968.6765" y1="2837.062" x2="-952.3408" y2="2101.9368" gradientTransform="matrix(-1 0 0 1 -36.393 0)">
					<stop  offset="0" style="stop-color:#233894"/>
					<stop  offset="0.9964" style="stop-color:#DD397A"/>
				</linearGradient>
				<path class="st33" d="M720.6,2417.7c5.3-182.1,124.7-409.5,124.7-409.5c42.6-50.7,91.4-74.6,138.5-63.6c1,0.5,2,1,3,1.5
					c33.3,6.5,65.7,32.5,93.7,52.7c0,0,23.3,25.1,37.5,60.3s13.6,76.9,14.1,107.3c0.9,51-68.4,343.5-64.6,396.6
					c0.5,6.9-74.8,69.7-356,1.9C711.5,2564.9,713.9,2463.3,720.6,2417.7z"/>
			</g>
			
				<linearGradient id="SVGID_33_" gradientUnits="userSpaceOnUse" x1="-1057.4341" y1="2000.8407" x2="-1086.9867" y2="1854.8153" gradientTransform="matrix(-1 0 0 1 -36.393 0)">
				<stop  offset="0" style="stop-color:#F9B776"/>
				<stop  offset="1" style="stop-color:#F47960"/>
			</linearGradient>
			<path class="st34" d="M1007.1,1871.3c5.5-9.7,10.6-18.2,22.1-19c12.9-0.9,26,3.9,37.4,9.7c3.9,2,6.8,8.6,5,13.1
				c-0.5,1.3-0.9,2.5-1.4,3.8c-0.4,14-1.2,28-2.1,42.1c-0.2,3.9,0,8.8-0.4,13.7c1.2,1.7,2.2,3.4,3,5.2c0.6,1.2,1,2.5,1.4,3.7
				c6.4,11.1,10.1,23.6,5.3,35.3c-8.4,20.5-32.1,28.2-51.6,22.9c-18.6-5-35.8-21-44.7-38.7
				C971.5,1943.4,1001.5,1881.1,1007.1,1871.3z"/>
			
				<linearGradient id="SVGID_34_" gradientUnits="userSpaceOnUse" x1="-975.4101" y1="2007.178" x2="-1048.8651" y2="1644.2225" gradientTransform="matrix(-1 0 0 1 -36.393 0)">
				<stop  offset="0" style="stop-color:#F9B776"/>
				<stop  offset="1" style="stop-color:#F47960"/>
			</linearGradient>
			<path class="st35" d="M953.6,1799c1-19.2,9.2-36.1,27.4-43.7c6.6-2.8,13.8,1,18.8,5c0.6,0.5,1.2,1,1.8,1.5
				c6.6,5.3,3.1,45.4,3.1,56.7c0,19.2-11.1,36.2-30.6,25.9C958.7,1836.3,952.7,1815.2,953.6,1799z"/>
			
				<linearGradient id="SVGID_35_" gradientUnits="userSpaceOnUse" x1="-1128.119" y1="1953.0273" x2="-1137.2174" y2="1343.438" gradientTransform="matrix(-1 0 0 1 -36.393 0)">
				<stop  offset="0" style="stop-color:#F9B776"/>
				<stop  offset="1" style="stop-color:#F47960"/>
			</linearGradient>
			<path class="st36" d="M1010.9,1745.1c9.1-16.5,24.1-30.5,42.4-38.9c9.1-4.2,2.1-8.2,12.7-10.7c12-5.5,42.4-9.2,55.7-9.2
				c22.6-0.1,41,11.7,54.1,27.4c25.7,30.9,27.3,55.7,21.8,92.5c-5.8,39.2-22,133.8-57.2,157.1c-35.3,23.3-64.6,14.1-81.4,1.4
				c-11.3-8.6-78.3-65.6-70.8-120.5C993.4,1805.7,991.5,1780.3,1010.9,1745.1z"/>
			
				<linearGradient id="SVGID_36_" gradientUnits="userSpaceOnUse" x1="-1143.2083" y1="1985.6259" x2="-987.5401" y2="1430.6367" gradientTransform="matrix(-1 0 0 1 -36.393 0)">
				<stop  offset="0" style="stop-color:#2B3582"/>
				<stop  offset="1" style="stop-color:#150E42"/>
			</linearGradient>
			<path class="st37" d="M995.1,1715.9c3.4-10.4,19.8-12.7,23.7-1.9c3.5-6.8,7.6-13.1,12.2-18.5c8.6-10,46.2-20.7,44.5-16.9
				c-13.8,31.2-36.6,59.4-40.1,87c-3.5,27.6,2.3,60.9,0.4,74.7c-1.9,13.8-24.8-5.4-27.8-12.9c-5.3-13.3-6.3-33.2-8.5-42
				C994.2,1764.8,988.3,1736.6,995.1,1715.9z"/>
			<linearGradient id="SVGID_37_" gradientUnits="userSpaceOnUse" x1="836.7059" y1="3137.9255" x2="1823.5282" y2="1512.1536">
				<stop  offset="0" style="stop-color:#2B3582"/>
				<stop  offset="1" style="stop-color:#150E42"/>
			</linearGradient>
			<path class="st38" d="M710.5,2486.9c12.8-48.8,324.3,65.8,453,100.6c35.4,9.5,70.4,20.8,104.3,35.5
				c32.6,14.2,61.9,33.2,78.8,69.3c15.9,33.8,19.9,72,23.7,109.5c4.3,43.1,5.6,86.5,5.2,129.9c-0.4,43.5-2.5,86.9-4.9,130.3
				c-2.2,40.3-3.4,83-37.9,105.8c-22,14.6-53.5,18.6-79.7,14.2c-0.6-55.2-1.7-110.5-6.9-165.1c-5.2-55.1-15.5-119.5-44.5-167.4
				c-5.3-12.5-12-24.2-20.5-34.7c-39.8-49.4-108.1-55-163.3-56.8c-50-1.6-103,3-155.8,4.6c-41.3-7.7-81.9-19.4-114.3-46.4
				C682.5,2661.8,689.7,2566.6,710.5,2486.9z"/>
		</g>
		
			<linearGradient id="SVGID_38_" gradientUnits="userSpaceOnUse" x1="-1784.4662" y1="2669.5439" x2="-1763.7229" y2="2492.8691" gradientTransform="matrix(-1.4136 -0.378 -0.2583 0.9661 -662.8207 -811.4615)">
			<stop  offset="0" style="stop-color:#F9B776"/>
			<stop  offset="1" style="stop-color:#F47960"/>
		</linearGradient>
		<path class="st39" d="M1009.8,2231.8c0,0,17.8,74.6,126.6,106.8c57.2,16.9,116.2,41.8,176.1,51.5c27.7,4.5,40.1,4.9,65.2,19.1
			c5.8,3.3,37.1,25.2,46.4,29.4c29.2,13.1,64.9,11.9,41.4,29.1c-31,22.8-79.3,18.8-111.4,4.1c-28.3-12.9-23.2-18-47-20.5
			c-58.1-6.2-129.1-19-186.4-37.1c-61-19.3-79.2-15.2-128.3-45.6c-49.2-30.5-76.6-119.2-105.6-153.5
			C877.8,2204.4,1009.8,2231.8,1009.8,2231.8z"/>
		
			<linearGradient id="SVGID_39_" gradientUnits="userSpaceOnUse" x1="-1333.9661" y1="3123.7922" x2="-1317.4962" y2="2382.6348" gradientTransform="matrix(-0.9586 -0.2849 -0.2849 0.9586 361.4439 -591.8)">
			<stop  offset="0" style="stop-color:#233894"/>
			<stop  offset="0.9964" style="stop-color:#DD397A"/>
		</linearGradient>
		<path class="st40" d="M849.3,2011.9c29.6-28.1,77.9-28.4,99.9,8.7c0.7,1.2,1.2,2.3,1.5,3.5c14.6,21.1,19.2,52,26.5,75.1
			c5.7,18.2,12.9,36.8,19.1,55.6c10.7,23.6,21.3,47.1,31.9,70.7c7.4,16.4-65.3,52.5-90.5,56c-22.2,3.1-51,11.3-69.8-4.7
			c-17.1-14.6-26.3-41.5-34.5-61.9c-9.2-22.9-16.3-46.2-19.4-70.7C808.6,2100,815.2,2044.4,849.3,2011.9z"/>
		<linearGradient id="SVGID_40_" gradientUnits="userSpaceOnUse" x1="1925.1902" y1="1648.6666" x2="930.0208" y2="2989.3818">
			<stop  offset="0" style="stop-color:#FDF53F"/>
			<stop  offset="1" style="stop-color:#D93C65"/>
		</linearGradient>
		<path class="st41" d="M1266.2,2414.4h768c6.2,0,11.3-5.1,11.3-11.3v-768c0-6.2-5.1-11.3-11.3-11.3h-768c-6.2,0-11.3,5.1-11.3,11.3
			v768C1254.9,2409.4,1260,2414.4,1266.2,2414.4z"/>
		<g>
			<path class="st8" d="M1522.3,1805.9h109.1c44.5,0,76.8,8.6,97.1,25.9c20.3,17.3,30.4,44.7,30.4,82.4c0,24.8-5.4,45.5-16.1,62.2
				c-10.7,16.7-25.4,26.8-43.9,30.3v2.9c24.2,6,41.6,17.4,52.4,33.9c10.7,16.6,16.1,38.6,16.1,66.1c0,38.8-10.4,69.2-31.2,91.1
				c-20.8,21.9-49.2,32.9-85.3,32.9h-128.7V1805.9z M1597.2,1977.9h36.6c16.8,0,28.6-4.5,35.4-13.5c6.8-9,10.2-22.3,10.2-40.1
				c0-17.7-3.9-30.5-11.7-38.2c-7.8-7.7-20.1-11.6-36.9-11.6h-33.6V1977.9z M1597.2,2044.3V2164h40.1c16.6,0,28.9-5.1,37-15.2
				c8.1-10.1,12.1-25.8,12.1-47.1c0-38.2-16.8-57.3-50.3-57.3H1597.2z"/>
		</g>
	</g>
	<g>
		<g>
			<g class="st42">
				
					<linearGradient id="SVGID_41_" gradientUnits="userSpaceOnUse" x1="1524.464" y1="958.163" x2="2023.83" y2="958.163" gradientTransform="matrix(0.9507 -0.3103 0.3103 0.9507 -624.7889 371.0899)">
					<stop  offset="0" style="stop-color:#B37CFF"/>
					<stop  offset="1" style="stop-color:#F895E7"/>
				</linearGradient>
				<path class="st43" d="M1193,993.1c-4.2,1.4-8.9-0.6-10.7-4.8c-4-9-7.7-18.4-11-27.8c-1.6-4.6,0.8-9.6,5.4-11.1
					c0.1,0,0.1,0,0.2-0.1c4.5-1.5,9.4,0.9,11,5.4c3.1,8.9,6.6,17.8,10.4,26.4c2,4.4,0,9.6-4.4,11.6
					C1193.6,992.9,1193.3,993,1193,993.1z M1169.9,920.4c-0.3,0.1-0.7,0.2-1,0.3c-4.7,1-9.4-2.1-10.3-6.9
					c-1.9-9.7-3.5-19.7-4.6-29.5c-0.5-4.8,2.9-9.1,7.7-9.7c4.8-0.5,9.1,2.9,9.7,7.7c1.1,9.3,2.5,18.8,4.4,28
					C1176.6,914.8,1174.1,919.1,1169.9,920.4z M1163.4,844.5c-0.9,0.3-1.9,0.5-3,0.4c-4.8-0.1-8.6-4.2-8.5-9
					c0.3-9.9,1-19.9,2.1-29.8c0.5-4.8,4.9-8.3,9.7-7.7c4.8,0.5,8.3,4.9,7.7,9.7c-1.1,9.4-1.7,18.9-2,28.3
					C1169.3,840.2,1166.8,843.4,1163.4,844.5z M1174,768.9c-1.5,0.5-3.2,0.6-4.9,0.2c-4.7-1.2-7.5-6-6.3-10.7
					c2.5-9.6,5.4-19.2,8.7-28.6c1.6-4.6,6.6-7,11.2-5.4c4.6,1.6,7,6.6,5.4,11.2c-3.1,8.9-5.9,18-8.2,27.1
					C1178.9,765.8,1176.7,768,1174,768.9z M1201.1,697.7c-2.1,0.7-4.6,0.6-6.7-0.5c-4.3-2.2-6-7.5-3.8-11.8
					c4.5-8.8,9.5-17.5,14.8-25.9c2.6-4.1,8-5.3,12.1-2.8c4.1,2.6,5.3,8,2.8,12.1c-5,8-9.7,16.3-14.1,24.6
					C1205.1,695.5,1203.3,697,1201.1,697.7z M1243.4,634.2c-2.8,0.9-6,0.4-8.4-1.6c-3.7-3.1-4.2-8.6-1.1-12.3
					c6.4-7.6,13.2-15,20.2-22c3.4-3.4,9-3.4,12.4,0c3.4,3.4,3.4,9,0,12.4c-6.7,6.7-13.1,13.7-19.2,20.9
					C1246.3,632.8,1244.9,633.7,1243.4,634.2z M1541.9,514.8c-1.2,0.4-2.4,0.5-3.7,0.4c-9.3-1-18.9-1.7-28.3-1.9
					c-4.8-0.1-8.7-4.1-8.5-9c0.1-4.8,4.1-8.7,9-8.5c9.9,0.2,20,0.9,29.8,2c4.8,0.5,8.3,4.9,7.7,9.7
					C1547.5,511,1545.1,513.8,1541.9,514.8z M1298.7,581.7c-3.5,1.1-7.4,0-9.7-3c-2.9-3.9-2.2-9.3,1.7-12.3c7.9-6,16.2-11.7,24.6-17
					c4.1-2.6,9.5-1.3,12.1,2.7c2.6,4.1,1.3,9.5-2.7,12.1c-8,5-15.8,10.4-23.3,16.1C1300.4,580.9,1299.6,581.4,1298.7,581.7z
					 M1465.7,515c-0.5,0.2-1.1,0.3-1.7,0.4c-9.4,1.1-18.8,2.6-28,4.4c-4.7,1-9.4-2.1-10.3-6.8c-1-4.7,2.1-9.4,6.8-10.3
					c9.7-2,19.6-3.5,29.5-4.7c4.8-0.6,9.1,2.9,9.7,7.7C1472.1,509.9,1469.5,513.7,1465.7,515z M1364.3,542.8
					c-4.2,1.4-8.8-0.6-10.7-4.7c-2-4.4,0-9.6,4.4-11.6c9-4.1,18.4-7.8,27.7-11c0.1,0,0.1,0,0.2-0.1c4.5-1.5,9.4,0.9,11,5.4
					c1.6,4.6-0.8,9.6-5.4,11.2c-8.9,3.1-17.8,6.6-26.3,10.5C1364.8,542.6,1364.6,542.7,1364.3,542.8z"/>
				
					<linearGradient id="SVGID_42_" gradientUnits="userSpaceOnUse" x1="2048.1042" y1="826.6448" x2="2077.2681" y2="826.6448" gradientTransform="matrix(0.9507 -0.3103 0.3103 0.9507 -624.7889 371.0899)">
					<stop  offset="0" style="stop-color:#B37CFF"/>
					<stop  offset="1" style="stop-color:#F895E7"/>
				</linearGradient>
				<path class="st44" d="M1602.2,527.1c-1.6,0.5-3.5,0.6-5.2,0.1c-4.3-1.3-8.7-2.5-13.1-3.7c-4.7-1.2-7.5-6-6.3-10.7
					c1.2-4.7,6-7.5,10.7-6.3c4.6,1.2,9.3,2.5,13.8,3.9c4.6,1.4,7.3,6.3,5.9,10.9C1607,524.2,1604.8,526.3,1602.2,527.1z"/>
			</g>
			<g class="st42">
				
					<linearGradient id="SVGID_43_" gradientUnits="userSpaceOnUse" x1="2199.4756" y1="1049.4994" x2="2219.488" y2="1049.4994" gradientTransform="matrix(0.9507 -0.3103 0.3103 0.9507 -624.7889 371.0899)">
					<stop  offset="0" style="stop-color:#B37CFF"/>
					<stop  offset="1" style="stop-color:#F895E7"/>
				</linearGradient>
				<path class="st45" d="M1807.5,697.7c-4,1.3-8.5-0.4-10.5-4.3c-2.1-4-4.2-8.1-6.5-12c-2.4-4.2-0.9-9.6,3.3-11.9
					c4.2-2.4,9.6-0.9,11.9,3.3c2.4,4.2,4.7,8.4,6.8,12.6c2.2,4.3,0.5,9.6-3.8,11.8C1808.3,697.4,1807.9,697.6,1807.5,697.7z"/>
				
					<linearGradient id="SVGID_44_" gradientUnits="userSpaceOnUse" x1="1709.4058" y1="1277.1344" x2="2223.7642" y2="1277.1344" gradientTransform="matrix(0.9507 -0.3103 0.3103 0.9507 -624.7889 371.0899)">
					<stop  offset="0" style="stop-color:#B37CFF"/>
					<stop  offset="1" style="stop-color:#F895E7"/>
				</linearGradient>
				<path class="st46" d="M1610.4,1177.8c-3.8,1.2-7.7,2.4-11.6,3.6c-4.6,1.3-9.5-1.3-10.8-6c-1.3-4.6,1.3-9.5,6-10.8
					c9-2.6,17.9-5.6,26.5-8.9c4.5-1.7,9.6,0.5,11.3,5.1c1.7,4.5-0.5,9.6-5.1,11.3C1621.3,1174.1,1615.8,1176,1610.4,1177.8z
					 M1553.6,1191.1c-0.5,0.2-1,0.3-1.5,0.3c-9.7,1.4-19.5,2.5-29.2,3.1c-4.8,0.3-9-3.4-9.3-8.2c-0.3-4.8,3.4-9,8.2-9.3
					c9.2-0.6,18.6-1.6,27.8-2.9c4.8-0.7,9.2,2.6,9.9,7.4C1560.1,1185.8,1557.6,1189.8,1553.6,1191.1z M1668.4,1152.7
					c-3.9,1.3-8.3-0.4-10.4-4.1c-2.3-4.2-0.8-9.6,3.5-11.9c8.1-4.4,16.1-9.3,23.9-14.4c4-2.7,9.5-1.6,12.1,2.4
					c2.7,4,1.6,9.5-2.5,12.1c-8.1,5.4-16.6,10.5-25.1,15.2C1669.4,1152.3,1668.9,1152.5,1668.4,1152.7z M1478.6,1193.8
					c-1.1,0.3-2.2,0.5-3.4,0.4c-9.7-0.7-19.5-1.9-29.2-3.4c-4.8-0.8-8-5.3-7.2-10c0.8-4.8,5.3-8,10-7.3c9.1,1.5,18.5,2.6,27.7,3.3
					c4.8,0.4,8.4,4.6,8.1,9.4C1484.3,1189.8,1481.8,1192.7,1478.6,1193.8z M1729.8,1109.5c-3.2,1.1-6.9,0.2-9.3-2.5
					c-3.2-3.6-2.9-9.2,0.8-12.4c6.9-6.1,13.7-12.6,20.1-19.3c3.3-3.5,8.9-3.6,12.4-0.3c3.5,3.3,3.6,8.9,0.3,12.4
					c-6.8,7.1-13.9,13.9-21.2,20.4C1731.9,1108.6,1730.9,1109.2,1729.8,1109.5z M1780.2,1054c-2.6,0.8-5.5,0.5-7.9-1.2
					c-3.9-2.8-4.8-8.3-2-12.2c5.4-7.5,10.6-15.3,15.4-23.3c2.5-4.1,7.9-5.5,12-3c4.1,2.5,5.5,7.9,3,12c-5,8.3-10.5,16.6-16.2,24.5
					C1783.5,1052.3,1781.9,1053.4,1780.2,1054z M1817.3,988.8c-2,0.6-4.1,0.6-6.2-0.3c-4.4-1.9-6.5-7.1-4.6-11.5
					c3.7-8.5,7-17.3,10-26.1c1.5-4.6,6.5-7.1,11.1-5.5c4.6,1.5,7.1,6.5,5.5,11.1c-3.1,9.2-6.6,18.5-10.5,27.4
					C1821.6,986.3,1819.6,988,1817.3,988.8z M1839.3,917c-1.4,0.4-2.8,0.6-4.3,0.3c-4.8-0.9-7.9-5.5-7-10.2c1.7-9.1,3.1-18.4,4-27.6
					c0.5-4.8,4.8-8.3,9.6-7.8c4.8,0.5,8.3,4.8,7.8,9.6c-1,9.7-2.4,19.5-4.2,29.1C1844.6,913.5,1842.3,916,1839.3,917z M1845.1,842.1
					c-0.8,0.2-1.6,0.4-2.4,0.4c-4.8,0.2-8.9-3.6-9.1-8.4c-0.3-9.2-1-18.6-2.2-27.8c-0.6-4.8,2.9-9.2,7.6-9.7
					c4.8-0.6,9.2,2.8,9.7,7.7c1.2,9.7,1.9,19.5,2.3,29.3C1851.2,837.5,1848.7,840.9,1845.1,842.1z M1834.2,767.9
					c-0.2,0.1-0.3,0.1-0.5,0.2c-4.7,1.2-9.5-1.6-10.7-6.3c-1.7-6.6-3.7-13.2-5.8-19.7c-0.8-2.3-1.6-4.7-2.4-7
					c-1.6-4.6,0.8-9.6,5.4-11.2c4.6-1.7,9.6,0.8,11.2,5.4c0.9,2.4,1.7,4.9,2.5,7.4c2.2,6.8,4.3,13.8,6.1,20.7
					C1841.1,761.9,1838.6,766.4,1834.2,767.9z"/>
				
					<linearGradient id="SVGID_45_" gradientUnits="userSpaceOnUse" x1="1658.1367" y1="1385.5405" x2="1686.9286" y2="1385.5405" gradientTransform="matrix(0.9507 -0.3103 0.3103 0.9507 -624.7889 371.0899)">
					<stop  offset="0" style="stop-color:#B37CFF"/>
					<stop  offset="1" style="stop-color:#F895E7"/>
				</linearGradient>
				<path class="st47" d="M1404.6,1179.8c-1.7,0.5-3.5,0.6-5.3,0c-4.5-1.4-9.1-2.9-13.6-4.5c-4.6-1.6-7-6.6-5.4-11.2
					c1.6-4.6,6.6-7,11.2-5.4c4.3,1.5,8.7,2.9,13,4.3c4.6,1.4,7.2,6.3,5.8,10.9C1409.4,1176.9,1407.2,1179,1404.6,1179.8z"/>
			</g>
			<g>
				
					<linearGradient id="SVGID_46_" gradientUnits="userSpaceOnUse" x1="3059.8284" y1="1628.4038" x2="1225.1312" y2="822.9286" gradientTransform="matrix(0.9507 -0.3103 0.3103 0.9507 -624.7889 371.0899)">
					<stop  offset="0" style="stop-color:#A737D5"/>
					<stop  offset="1" style="stop-color:#EF497A"/>
				</linearGradient>
				<path class="st48" d="M1384.3,1079.6c1.5,0.9,3.4,0.9,4.7-0.2l39.1-30.8c21.9,7.8,45.2,12.1,69.2,12.5l25.9,42.5
					c0.9,1.5,2.7,2.2,4.4,1.9l58.4-12.7c1.7-0.4,3-1.8,3.2-3.5l5.8-49.4c21.6-10.3,41-23.9,57.7-40.1l48.4,11.8
					c1.7,0.4,3.5-0.3,4.4-1.8l32.3-50.3c0.9-1.5,0.9-3.4-0.2-4.7l-30.8-39.1c7.8-21.9,12.1-45.2,12.5-69.2l42.5-25.9
					c1.5-0.9,2.2-2.7,1.9-4.4l-12.7-58.4c-0.4-1.7-1.8-3-3.5-3.2l-49.4-5.8c-10.3-21.6-23.9-41-40.1-57.7l11.8-48.4
					c0.4-1.7-0.3-3.5-1.8-4.4l-50.3-32.3c-1.5-0.9-3.4-0.9-4.7,0.2l-39.1,30.8c-21.9-7.8-45.2-12.1-69.2-12.5l-25.9-42.5
					c-0.9-1.5-2.7-2.2-4.4-1.9l-58.4,12.7c-1.7,0.4-3,1.8-3.2,3.5l-5.8,49.4c-21.6,10.3-41,23.9-57.7,40.1l-48.4-11.8
					c-1.7-0.4-3.5,0.3-4.4,1.8l-32.3,50.3c-0.9,1.5-0.9,3.4,0.2,4.7l30.8,39.1c-7.8,21.9-12.1,45.2-12.5,69.2l-42.5,25.9
					c-1.5,0.9-2.2,2.7-1.9,4.4l12.7,58.4c0.4,1.7,1.8,3,3.5,3.2l49.4,5.8c10.3,21.6,23.9,41,40.1,57.7l-11.8,48.4
					c-0.4,1.7,0.3,3.5,1.8,4.4L1384.3,1079.6z"/>
				<path class="st49" d="M1519.5,899.9c-27.8,9.1-58.9-3.4-72.4-30.3c-14.8-29.6-2.6-65.8,27-80.5c14.4-7.2,30.6-8.3,45.8-3.2
					c15.2,5.1,27.5,15.8,34.7,30.2c14.8,29.6,2.6,65.8-27,80.5C1525,897.9,1522.3,899,1519.5,899.9z M1486.7,799
					c-2.1,0.7-4.3,1.6-6.3,2.6c-22.7,11.3-32,39-20.7,61.7c11.3,22.7,39,32,61.7,20.7c22.7-11.3,32-39,20.7-61.7
					c-5.5-11-14.9-19.2-26.6-23.1C1506.1,796,1496,796,1486.7,799z"/>
				<path class="st49" d="M1547.6,982c-4.8,1.6-9.7,2.9-14.6,4l0,0c-1.6,0.3-3.1,0.7-4.7,0.9c-7.8,1.4-15.7,2.2-23.5,2.4
					c-0.1,0-0.2,0-0.3,0c-0.3,0-0.6,0-0.9,0c-0.6,0-1.2,0-1.8,0c-1.6,0-2.9-1-3.3-2.4c-0.1-0.3-0.2-0.7-0.2-1.1
					c0-1.9,1.6-3.5,3.5-3.5c10,0,20-1.1,29.8-3.3c48.7-10.6,86-45.4,102.1-89c8.9-24.3,11.3-51.3,5.4-78.3c-1-4.7-2.3-9.4-3.8-14
					c-10-30.7-30.1-56.8-57.6-74.4c-31.6-20.3-69.2-27.1-105.9-19.1c-75.8,16.5-124,91.6-107.5,167.4c1,4.7,2.3,9.3,3.7,13.8
					c6.4,19.6,17,37.5,31.1,52.5c0.4,0.4,0.6,0.8,0.8,1.3c0.4,1.2,0.1,2.7-0.9,3.6c-1.4,1.3-3.6,1.3-5-0.2
					c-14.8-15.8-25.9-34.6-32.7-55.2c-1.5-4.7-2.9-9.6-3.9-14.5c-17.3-79.6,33.3-158.4,112.8-175.7c38.5-8.4,78-1.3,111.2,20
					c28.9,18.6,50,45.9,60.5,78.1c1.6,4.8,2.9,9.7,4,14.7c8.4,38.5,1.3,78-20,111.2C1607.2,950.4,1579.8,971.5,1547.6,982z"/>
			</g>
		</g>
		<g>
			<g class="st42">
				
					<linearGradient id="SVGID_47_" gradientUnits="userSpaceOnUse" x1="1227.4165" y1="1374.057" x2="1241.6497" y2="1374.057" gradientTransform="matrix(0.9507 -0.3103 0.3103 0.9507 -624.7889 371.0899)">
					<stop  offset="0" style="stop-color:#B37CFF"/>
					<stop  offset="1" style="stop-color:#F895E7"/>
				</linearGradient>
				<path class="st50" d="M980.6,1305.2c-2.2,0.7-4.7-0.1-6.1-2.1c-2.6-3.8-5.1-7.7-7.5-11.6c-1.5-2.6-0.7-5.9,1.9-7.4
					c2.6-1.6,5.9-0.7,7.4,1.9c2.3,3.8,4.7,7.5,7.1,11.1c1.7,2.5,1.1,5.8-1.4,7.5C981.5,1304.8,981.1,1305,980.6,1305.2z"/>
				
					<linearGradient id="SVGID_48_" gradientUnits="userSpaceOnUse" x1="1221.6554" y1="1214.1577" x2="1500.6246" y2="1214.1577" gradientTransform="matrix(0.9507 -0.3103 0.3103 0.9507 -624.7889 371.0899)">
					<stop  offset="0" style="stop-color:#B37CFF"/>
					<stop  offset="1" style="stop-color:#F895E7"/>
				</linearGradient>
				<path class="st51" d="M960.3,1268.8c-2.6,0.9-5.5-0.4-6.6-3c-3.2-7.2-6.1-14.7-8.5-22.2c-0.5-1.6-1-3.2-1.5-4.8
					c-0.9-2.9,0.9-5.8,3.6-6.7c2.9-0.9,5.9,0.7,6.7,3.6c0.5,1.5,0.9,3.1,1.4,4.6c2.3,7.2,5.1,14.3,8.1,21.2c1.2,2.7,0,5.9-2.8,7.1
					C960.7,1268.7,960.5,1268.8,960.3,1268.8z M944,1215.1c-0.2,0.1-0.5,0.1-0.8,0.2c-2.9,0.5-5.7-1.5-6.3-4.4
					c-1.6-9.4-2.7-19.1-3.2-28.6c-0.1-3,2.2-5.5,5.1-5.7c3-0.1,5.5,2.1,5.7,5.1c0.5,9.1,1.5,18.3,3,27.3
					C948.1,1211.7,946.5,1214.3,944,1215.1z M941.3,1159c-0.7,0.2-1.4,0.3-2.1,0.3c-3-0.2-5.2-2.8-5-5.8c0.7-9.5,2-19.1,3.9-28.5
					c0.6-2.9,3.4-4.8,6.4-4.2c2.9,0.6,4.8,3.4,4.2,6.4c-1.8,9-3.1,18.1-3.8,27.2C944.8,1156.5,943.3,1158.4,941.3,1159z M952.4,1104
					c-1.1,0.3-2.2,0.4-3.4,0c-2.8-0.9-4.4-4-3.4-6.8c3-9.1,6.7-18.1,10.8-26.7c1.3-2.7,4.5-3.8,7.2-2.5c2.7,1.3,3.8,4.5,2.5,7.2
					c-3.9,8.2-7.4,16.8-10.3,25.5C955.2,1102.2,953.9,1103.5,952.4,1104z M976.6,1053.3c-1.5,0.5-3.2,0.3-4.6-0.6
					c-2.5-1.6-3.3-4.9-1.6-7.5c5.2-8.1,10.9-15.9,16.9-23.3c1.9-2.3,5.3-2.6,7.6-0.7c2.3,1.9,2.6,5.3,0.7,7.6
					c-5.8,7-11.2,14.5-16.2,22.2C978.7,1052.2,977.7,1052.9,976.6,1053.3z M1012.3,1010.1c-1.9,0.6-4.1,0.1-5.6-1.4
					c-2-2.2-1.9-5.6,0.2-7.6c7-6.6,14.4-12.8,22.1-18.4c2.4-1.8,5.8-1.2,7.6,1.2c1.8,2.4,1.2,5.8-1.2,7.6
					c-7.3,5.4-14.4,11.3-21.1,17.6C1013.8,1009.4,1013.1,1009.8,1012.3,1010.1z M1057.6,976.9c-2.4,0.8-5.1-0.2-6.4-2.5
					c-1.5-2.6-0.5-5.9,2.1-7.4c8.3-4.6,17.1-8.8,26-12.4c2.8-1.1,5.9,0.2,7,3c1.1,2.8-0.2,5.9-3,7c-8.5,3.4-16.8,7.4-24.8,11.9
					C1058.2,976.6,1057.9,976.8,1057.6,976.9z M1137.2,950.2c-0.3,0.1-0.6,0.2-0.9,0.2c-7.8,1.1-15.7,2.6-23.4,4.6
					c-1.2,0.3-2.3,0.6-3.5,0.9c-2.9,0.8-5.9-0.9-6.6-3.8c-0.8-2.9,0.9-5.9,3.8-6.6c1.2-0.3,2.4-0.6,3.7-0.9c8.1-2,16.4-3.7,24.5-4.8
					c3-0.4,5.7,1.6,6.1,4.6C1141.2,946.9,1139.6,949.4,1137.2,950.2z"/>
			</g>
			<g class="st42">
				
					<linearGradient id="SVGID_49_" gradientUnits="userSpaceOnUse" x1="1346.1479" y1="1481.5892" x2="1664.5446" y2="1481.5892" gradientTransform="matrix(0.9507 -0.3103 0.3103 0.9507 -624.7889 371.0899)">
					<stop  offset="0" style="stop-color:#B37CFF"/>
					<stop  offset="1" style="stop-color:#F895E7"/>
				</linearGradient>
				<path class="st52" d="M1242.6,1392c-2.8,0.9-5.8-0.6-6.8-3.4c-1-2.8,0.5-5.9,3.4-6.9c8.5-2.9,16.9-6.3,25-10.2
					c2.7-1.3,5.9-0.2,7.2,2.5c1.3,2.7,0.2,5.9-2.5,7.2C1260.4,1385.4,1251.6,1389,1242.6,1392C1242.7,1392,1242.6,1392,1242.6,1392z
					 M1215.9,1399.4c-0.2,0.1-0.4,0.1-0.6,0.2c-9.2,2-18.6,3.4-28,4.2c-3,0.3-5.6-1.9-5.9-4.9c-0.3-3,2-5.6,4.9-5.9
					c8.9-0.8,17.9-2.1,26.7-4c2.9-0.6,5.8,1.2,6.4,4.2C1220.1,1395.8,1218.5,1398.5,1215.9,1399.4z M1292.3,1368
					c-2.3,0.7-4.9-0.1-6.2-2.2c-1.6-2.5-0.9-5.9,1.6-7.5c7.6-4.9,14.9-10.3,21.8-16c2.3-1.9,5.7-1.6,7.6,0.7
					c1.9,2.3,1.6,5.7-0.7,7.6c-7.2,6-14.9,11.6-22.8,16.7C1293.2,1367.7,1292.8,1367.9,1292.3,1368z M1160.9,1404.2
					c-0.6,0.2-1.2,0.3-1.9,0.3c-9.4-0.3-18.9-1.2-28.2-2.7c-3-0.5-5-3.2-4.5-6.2c0.5-2.9,3.2-5,6.2-4.5c8.9,1.4,17.9,2.3,26.9,2.6
					c3,0.1,5.3,2.6,5.2,5.6C1164.5,1401.6,1163,1403.5,1160.9,1404.2z M1334.8,1332.7c-1.8,0.6-3.9,0.2-5.4-1.2
					c-2.2-2-2.3-5.5-0.2-7.6c6.2-6.5,12-13.5,17.3-20.7c1.8-2.4,5.2-2.9,7.6-1.2c2.4,1.8,2.9,5.2,1.2,7.6
					c-5.6,7.6-11.7,14.9-18.1,21.7C1336.4,1332,1335.6,1332.4,1334.8,1332.7z M1367.5,1288.3c-1.4,0.5-3,0.3-4.3-0.4
					c-2.6-1.5-3.5-4.8-2.1-7.4c4.4-7.8,8.4-16,11.8-24.3c1.1-2.8,4.3-4.1,7.1-2.9c2.8,1.1,4.1,4.3,2.9,7.1
					c-3.6,8.7-7.8,17.2-12.4,25.5C1369.8,1287,1368.7,1287.8,1367.5,1288.3z M1388.7,1237.2c-1,0.3-2.1,0.4-3.1,0.1
					c-2.9-0.8-4.6-3.8-3.8-6.7c2.4-8.7,4.3-17.5,5.7-26.4c0.4-2.9,3.2-5,6.2-4.5c3,0.4,5,3.2,4.5,6.2c-1.4,9.3-3.4,18.6-5.9,27.7
					C1391.7,1235.3,1390.3,1236.7,1388.7,1237.2z"/>
				
					<linearGradient id="SVGID_50_" gradientUnits="userSpaceOnUse" x1="1311.1476" y1="1501.4995" x2="1332.9225" y2="1501.4995" gradientTransform="matrix(0.9507 -0.3103 0.3103 0.9507 -624.7889 371.0899)">
					<stop  offset="0" style="stop-color:#B37CFF"/>
					<stop  offset="1" style="stop-color:#F895E7"/>
				</linearGradient>
				<path class="st53" d="M1106.1,1395.5c-1,0.3-2.1,0.4-3.2,0.1c-4.4-1.3-8.9-2.7-13.2-4.2c-2.8-1-4.3-4.1-3.3-6.9
					c1-2.8,4.1-4.3,6.9-3.3c4.1,1.4,8.3,2.8,12.6,4c2.9,0.8,4.5,3.8,3.7,6.7C1109.1,1393.7,1107.7,1395,1106.1,1395.5z"/>
			</g>
			<g>
				
					<linearGradient id="SVGID_51_" gradientUnits="userSpaceOnUse" x1="2915.884" y1="1955.7651" x2="1081.1885" y2="1150.2905" gradientTransform="matrix(0.9507 -0.3103 0.3103 0.9507 -624.7889 371.0899)">
					<stop  offset="0" style="stop-color:#A737D5"/>
					<stop  offset="1" style="stop-color:#EF497A"/>
				</linearGradient>
				<path class="st54" d="M1088.7,1327.7c1,0.6,2.3,0.6,3.2-0.2l26.2-20.6c14.7,5.2,30.3,8.1,46.3,8.4l17.3,28.5
					c0.6,1,1.8,1.5,2.9,1.3l39.1-8.5c1.1-0.2,2-1.2,2.1-2.4l3.9-33.1c14.5-6.9,27.4-16,38.6-26.8l32.4,7.9c1.1,0.3,2.3-0.2,3-1.2
					l21.6-33.6c0.6-1,0.6-2.3-0.2-3.2l-20.6-26.2c5.2-14.7,8.1-30.3,8.4-46.3l28.5-17.3c1-0.6,1.5-1.8,1.3-2.9l-8.5-39.1
					c-0.2-1.1-1.2-2-2.4-2.1l-33.1-3.9c-6.9-14.5-16-27.4-26.8-38.6l7.9-32.4c0.3-1.1-0.2-2.3-1.2-3l-33.6-21.6
					c-1-0.6-2.3-0.6-3.2,0.2l-26.2,20.6c-14.7-5.2-30.3-8.1-46.3-8.4l-17.3-28.5c-0.6-1-1.8-1.5-2.9-1.3l-39.1,8.5
					c-1.1,0.2-2,1.2-2.1,2.4l-3.9,33.1c-14.5,6.9-27.4,16-38.6,26.8l-32.4-7.9c-1.1-0.3-2.3,0.2-3,1.2l-21.6,33.6
					c-0.6,1-0.6,2.3,0.2,3.2l20.6,26.2c-5.2,14.7-8.1,30.3-8.4,46.3l-28.5,17.3c-1,0.6-1.5,1.8-1.3,2.9l8.5,39.1
					c0.2,1.1,1.2,2,2.4,2.1l33.1,3.9c6.9,14.5,16,27.4,26.8,38.6l-7.9,32.4c-0.3,1.1,0.2,2.3,1.2,3L1088.7,1327.7z"/>
				<path class="st49" d="M1179.3,1208.2c-8.3,2.7-17.2,2.7-25.6-0.1c-10.4-3.5-18.7-10.8-23.6-20.6c-10-20.2-1.8-44.8,18.4-54.8
					c20.2-10,44.8-1.8,54.8,18.4c4.9,9.8,5.6,20.9,2.2,31.2c-3.5,10.4-10.8,18.7-20.6,23.6
					C1183.1,1206.8,1181.2,1207.5,1179.3,1208.2z M1157.4,1140.6c-1.4,0.5-2.7,1-4.1,1.7c-14.9,7.4-20.9,25.5-13.5,40.3
					c3.6,7.2,9.7,12.6,17.4,15.1c7.6,2.6,15.8,2,23-1.6l0,0c7.2-3.6,12.6-9.8,15.1-17.4c2.6-7.6,2-15.8-1.6-23
					C1186.9,1142.3,1171.3,1136.1,1157.4,1140.6z"/>
				<path class="st49" d="M1198.8,1265.3c-3.3,1.1-6.6,2-10,2.7c-6.8,1.5-13.7,2.3-20.6,2.3c-0.3,0-0.6,0-0.9,0
					c-2.4,0-4.4-1.6-5.2-3.7c-0.2-0.5-0.3-1.1-0.3-1.7c0-3,2.4-5.4,5.4-5.4c6.5,0,12.9-0.7,19.3-2.1l0,0c0.3-0.1,0.7-0.2,1-0.2
					c15-3.4,28.5-10.4,39.7-20.3c6.1-5.4,11.5-11.6,16-18.5c0-0.1,0.1-0.1,0.1-0.2c0.1-0.2,0.2-0.3,0.3-0.5
					c13.1-20.5,17.5-44.8,12.4-68.6c-0.7-3.1-1.5-6.1-2.5-9c-6.5-19.9-19.5-36.7-37.3-48.2c-20.5-13.1-44.8-17.5-68.6-12.3
					c-23.7,5.2-44.1,19.3-57.2,39.8c-13.1,20.5-17.5,44.8-12.4,68.6c0.7,3,1.5,6,2.4,8.9c4.1,12.7,11,24.3,20.1,34
					c0.6,0.6,1,1.3,1.2,2c0.6,1.9,0.1,4.1-1.4,5.6c-2.2,2-5.6,1.9-7.6-0.2c-10.2-10.9-17.9-23.9-22.5-38c-1.1-3.3-2-6.6-2.7-10
					c-5.8-26.6-0.9-53.8,13.8-76.7c14.7-22.9,37.4-38.7,64-44.5c26.6-5.8,53.8-0.9,76.7,13.8c19.9,12.8,34.5,31.7,41.7,53.9
					c1.1,3.3,2,6.7,2.7,10.1C1277.9,1198.3,1247.8,1249.3,1198.8,1265.3z"/>
			</g>
		</g>
	</g>
</g>
</svg>
