<?xml version="1.0" encoding="utf-8"?>
<!-- Generator: Adobe Illustrator 21.0.2, SVG Export Plug-In . SVG Version: 6.00 Build 0)  -->
<svg version="1.1" id="Illustration" xmlns="http://www.w3.org/2000/svg" xmlns:xlink="http://www.w3.org/1999/xlink" x="0px"
	 y="0px" viewBox="0 0 3710 3710" style="enable-background:new 0 0 3710 3710;" xml:space="preserve">
<style type="text/css">
	.st0{fill:#F4F7FA;}
	.st1{opacity:0.8;clip-path:url(#SVGID_2_);}
	.st2{fill:#FFFFFF;}
	.st3{opacity:0.8;clip-path:url(#SVGID_4_);}
	.st4{fill:url(#SVGID_5_);}
	.st5{fill:url(#SVGID_6_);}
	.st6{fill:url(#SVGID_7_);}
	.st7{fill:#E7EBF2;}
	.st8{fill:url(#SVGID_8_);}
	.st9{opacity:0.3;}
	.st10{fill:url(#SVGID_9_);}
	.st11{fill:url(#SVGID_10_);}
	.st12{fill:url(#SVGID_11_);}
	.st13{fill:url(#SVGID_12_);}
	.st14{opacity:0.2;fill:url(#SVGID_13_);}
	.st15{fill:url(#SVGID_14_);}
	.st16{fill:url(#SVGID_15_);}
	.st17{fill:url(#SVGID_16_);}
	.st18{fill:url(#SVGID_17_);}
	.st19{fill:url(#SVGID_18_);}
	.st20{fill:url(#SVGID_19_);}
	.st21{opacity:0.3;fill:url(#SVGID_20_);}
	.st22{fill:url(#SVGID_21_);}
	.st23{fill:url(#SVGID_22_);}
	.st24{fill:url(#SVGID_23_);}
	.st25{fill:url(#SVGID_24_);}
	.st26{opacity:0.3;fill:url(#SVGID_25_);}
	.st27{fill:url(#SVGID_26_);}
	.st28{fill:url(#SVGID_27_);}
	.st29{fill:url(#SVGID_28_);}
	.st30{fill:url(#SVGID_29_);}
	.st31{fill:url(#SVGID_30_);}
	.st32{fill:url(#SVGID_31_);}
	.st33{fill:url(#SVGID_32_);}
	.st34{fill:url(#SVGID_33_);}
	.st35{fill:url(#SVGID_34_);}
	.st36{fill:url(#SVGID_35_);}
	.st37{fill:url(#SVGID_36_);}
	.st38{fill:url(#SVGID_37_);}
	.st39{fill:url(#SVGID_38_);}
	.st40{fill:url(#SVGID_39_);}
	.st41{opacity:0.2;fill:url(#SVGID_40_);}
	.st42{fill:url(#SVGID_41_);}
	.st43{fill:url(#SVGID_42_);}
	.st44{opacity:0.2;fill:url(#SVGID_43_);}
</style>
<g>
	<path class="st0" d="M1642.7,430C1263.1,436.7,675.7,581,506.6,952c-59.1,129.6-55.1,320-47.1,701c2.4,112,6.2,275.2,33.6,477.7
		c56.8,420.6,95.5,707,242,873.7c367,417.8,1692.7,405.7,2258.8-346.4c308.8-410.3,356.3-994,73.9-1476.4
		C2757.1,650.4,2151,421,1642.7,430z"/>
	<g>
		<g>
			<g>
				<defs>
					<path id="SVGID_1_" d="M1990.7,522.5c-41.6-29-102.1-41.7-152.3-41.1c-355.9,4-346.8,747.9-279,908.8
						c67.8,160.8,37.1,218-234.5,327.4c-271.6,109.4-124.2,264.9-82.2,359.5c42,94.6,116,171.3-79.2,284.8
						c-195.2,113.5-119.7,167.6-119.7,167.6s406.2,352.5,375.4,231.5c-30.8-121-8.5-309.4,326.3-351
						c144.2-17.9,360.1-105.2,396.4-264.1c8.5-37,11.9-92.8,0.1-129.4c-16.3-50.8-53.7-88.8-76.5-136
						c-53.3-110,50.2-202.3,107.4-283.4c29.9-42.4,59.7-85.7,81.4-133c45-98.2,17-197.2-47.5-279c-30.9-39.2-72.8-80.1-88.9-128.6
						c-17.3-52.1-12-125.6-13.4-180.6c-1.1-43.1-0.5-86.1-6.5-128.9C2086.9,667.2,2060.2,571,1990.7,522.5z"/>
				</defs>
				<use xlink:href="#SVGID_1_"  style="overflow:visible;fill:#D8DEE8;"/>
				<clipPath id="SVGID_2_">
					<use xlink:href="#SVGID_1_"  style="overflow:visible;"/>
				</clipPath>
				<g class="st1">
					<g>
						<path class="st2" d="M1032,2747c-2.4,1.1-5.2,0.3-6.6-2c-1.5-2.5-0.8-5.7,1.6-7.2c1.5-1,152.4-96.9,317.2-248
							c151.8-139.2,346.7-355.1,413.3-592.9c55.6-198.6,94.6-522.6,106.9-889c11.1-328.5-2.7-569.6-22.5-613c-1.2-2.6,0-5.8,2.6-7
							c2.6-1.2,5.8,0,7,2.6c23.1,50.7,33.4,322,23.4,617.7c-12.4,367.1-51.5,692-107.3,891.4c-67.2,240.3-263.6,457.8-416.4,598
							c-165.4,151.7-317,248-318.5,249C1032.4,2746.7,1032.2,2746.9,1032,2747z"/>
					</g>
					<g>
						<path class="st2" d="M1868.9,1071c-2.6,1.2-5.4,0.7-6.7-2c-1.6-3.5-162.7-347.5-339.4-413.7c-2.7-1-4-3.9-3-6.6
							c1-2.7,4.1-4,6.8-3c180.7,67.7,338.5,404.5,345.1,418.9C1873,1067.2,1871.6,1069.8,1868.9,1071
							C1869,1071,1868.9,1071,1868.9,1071z"/>
					</g>
					<g>
						<path class="st2" d="M1838.4,1487.8c-2,0.9-4.4,0.5-5.9-1.1c-2-2.1-2-5.4,0.1-7.4c0.9-0.9,91.5-88.5,205.8-165.2
							c154.5-103.6,276.5-139,362.7-105.2c2.7,1.1,4,4.1,3,6.8c-1.1,2.7-4.1,4-6.8,3c-198.2-77.8-553.8,264.8-557.3,268.2
							C1839.5,1487.3,1838.9,1487.6,1838.4,1487.8z"/>
					</g>
					<g>
						<path class="st2" d="M1484.7,2363.9c-0.5,0.2-1.1,0.4-1.7,0.4c-2.9,0.3-5.5-1.8-5.7-4.7c-0.1-1.5-15.3-153.6-60.4-311.4
							c-41.3-144.7-116.8-324-241.8-356.5c-2.8-0.7-4.5-3.6-3.8-6.4c0.7-2.8,3.6-4.5,6.4-3.8c104.2,27.1,188.1,149.5,249.3,363.9
							c45.3,158.7,60.6,311.6,60.7,313.1C1487.9,2360.9,1486.7,2363,1484.7,2363.9z"/>
					</g>
					<g>
						<path class="st2" d="M1680.7,2100.1c-2.1,0.9-4.6,0.5-6.1-1.3c-1.9-2.2-1.7-5.5,0.5-7.4c15.8-13.8,389.3-338.7,546.6-323.5
							c2.9,0.3,5,2.8,4.7,5.7c-0.3,2.9-2.8,5-5.7,4.7c-152.8-14.7-534.8,317.6-538.7,321C1681.6,2099.6,1681.1,2099.9,1680.7,2100.1
							z"/>
					</g>
				</g>
			</g>
		</g>
		<g>
			<g>
				<defs>
					<path id="SVGID_3_" d="M2694.3,1033.6c-25.8-43.6-75.6-80.2-121.6-100.5c-325.6-143.8-625.5,537-630.4,711.5
						c-4.9,174.5-56.5,213.8-349,200.8c-292.5-13-222.8,189.7-223.8,293.1c-1,103.5,34.6,204-190.1,226.4
						c-224.7,22.4-178.4,103-178.4,103s223.6,489.1,245.8,366.2c22.1-122.9,120.4-285.1,442.4-184.3
						c138.7,43.4,371.3,53.5,470.2-76.2c23-30.2,49.2-79.5,53.7-117.7c6.2-53-12-103.1-13.3-155.5c-3-122.2,129.5-163.3,215.2-213.4
						c44.8-26.2,89.8-53.3,129.2-87.4c81.6-70.7,97.2-172.4,72.3-273.6c-11.9-48.5-33.1-103.1-27.6-153.8
						c5.9-54.6,41.1-119.3,62.6-169.9c16.8-39.7,35.2-78.6,47.5-120C2722,1205.1,2737.5,1106.5,2694.3,1033.6z"/>
				</defs>
				<use xlink:href="#SVGID_3_"  style="overflow:visible;fill:#BFC8D6;"/>
				<clipPath id="SVGID_4_">
					<use xlink:href="#SVGID_3_"  style="overflow:visible;"/>
				</clipPath>
				<g class="st3">
					<g>
						<path class="st2" d="M900.3,2661c-2.6,0-4.8-1.9-5.2-4.5c-0.4-2.9,1.6-5.5,4.5-5.9c1.8-0.2,178.9-25,391.4-94.3
							c195.8-63.8,462.7-179.6,621.8-368.5c132.9-157.8,302.6-436.5,465.6-764.8c146.2-294.4,233.5-519.6,233.5-567.2
							c0-2.9,2.4-5.3,5.3-5.3c2.9,0,5.3,2.3,5.3,5.3c0,55.7-103,306.9-234.6,571.9c-163.4,329-333.5,608.5-466.9,766.9
							C1760,2385.3,1491.2,2502,1294,2566.3c-213.4,69.5-391.3,94.4-393,94.7C900.7,2661,900.5,2661,900.3,2661z"/>
					</g>
					<g>
						<path class="st2" d="M2356.3,1482.3c-2.9,0-5.2-1.6-5.3-4.5c0-3.8-4.1-383.7-137.5-517.1c-2.1-2-2.1-5.2,0-7.3
							c2.1-2.1,5.4-2,7.4,0.1c136.5,136.5,140.5,508.4,140.6,524.2C2361.6,1480.6,2359.3,1482.3,2356.3,1482.3
							C2356.4,1482.3,2356.3,1482.3,2356.3,1482.3z"/>
					</g>
					<g>
						<path class="st2" d="M2155.9,1849.1c-2.2,0-4.2-1.3-4.9-3.5c-1-2.7,0.4-5.7,3.2-6.7c1.2-0.4,119.9-42.7,255.8-65.1
							c183.6-30.3,309.3-12,373.7,54.5c2,2.1,2,5.4-0.1,7.4c-2.1,2-5.4,2-7.4-0.1c-148.2-152.9-613.7,11.6-618.4,13.2
							C2157,1849,2156.4,1849.1,2155.9,1849.1z"/>
					</g>
					<g>
						<path class="st2" d="M1471,2499.8c-0.6,0-1.1-0.1-1.7-0.3c-2.7-0.9-4.2-3.9-3.3-6.7c0.5-1.4,49.7-146.1,74-308.4
							c22.4-148.8,27.9-343.3-72.4-424.6c-2.3-1.8-2.6-5.1-0.8-7.4c1.8-2.3,5.1-2.6,7.4-0.8c83.6,67.8,109.3,214,76.1,434.5
							c-24.5,163.2-74,308.7-74.5,310.1C1475.2,2498.5,1473.2,2499.8,1471,2499.8z"/>
					</g>
					<g>
						<path class="st2" d="M1758.6,2341c-2.3,0-4.3-1.5-5-3.7c-0.8-2.8,0.7-5.7,3.5-6.5c20.1-6,494.6-147,631.5-68
							c2.5,1.4,3.4,4.7,1.9,7.2c-1.4,2.5-4.7,3.4-7.2,1.9c-133-76.7-618.4,67.5-623.3,69C1759.7,2340.9,1759.1,2341,1758.6,2341z"/>
					</g>
				</g>
			</g>
		</g>
	</g>
	<g>
		<g>
			<g>
				
					<linearGradient id="SVGID_5_" gradientUnits="userSpaceOnUse" x1="2404.2952" y1="4324.981" x2="929.0087" y2="5663.7871" gradientTransform="matrix(0 -1 1 0 -3755.802 3738.6064)">
					<stop  offset="3.597000e-03" style="stop-color:#26264F"/>
					<stop  offset="1" style="stop-color:#444B8C"/>
				</linearGradient>
				<path class="st4" d="M2001.9,2955.5c0,40.9-29,75.9-64.8,78l-1381,80.6c-41,2.4-74.5-31.5-74.5-75.5v-1981
					c0-44,33.5-78.5,74.5-76.8l1381,56c35.8,1.5,64.8,35.9,64.8,76.8V2955.5z"/>
				<linearGradient id="SVGID_6_" gradientUnits="userSpaceOnUse" x1="551.7647" y1="2048.6135" x2="2234.2734" y2="2001.7327">
					<stop  offset="0" style="stop-color:#444B8C"/>
					<stop  offset="0.9964" style="stop-color:#26264F"/>
				</linearGradient>
				<path class="st5" d="M2042.5,2955.5c0,40.9-29,75.9-64.8,78l-1381,80.6c-41,2.4-74.5-31.5-74.5-75.5v-1981
					c0-44,33.5-78.5,74.5-76.8l1381,56c35.8,1.5,64.8,35.9,64.8,76.8V2955.5z"/>
				
					<linearGradient id="SVGID_7_" gradientUnits="userSpaceOnUse" x1="1289.8036" y1="5498.3052" x2="2123.2549" y2="4479.6421" gradientTransform="matrix(0 -1 1 0 -3755.802 3738.6064)">
					<stop  offset="0" style="stop-color:#444B8C"/>
					<stop  offset="0.9964" style="stop-color:#26264F"/>
				</linearGradient>
				<path class="st6" d="M556.9,1058.9v1977.8c0,23.5,17.8,41.6,39.8,40.3l1092.2-61.9l288.8-16.4c19.2-1.1,34.7-19.8,34.7-41.7
					V1112.5c0-21.9-15.5-40.3-34.7-41.1l-299.2-11.6l-1081.8-42C574.7,1017,556.9,1035.4,556.9,1058.9z"/>
				<path class="st7" d="M1993.2,2871.8c0,8.2-6.5,15.1-14.6,15.5l-1383.1,70.7c-9.2,0.5-16.7-6.3-16.7-15V1058.9
					c0-8.7,7.5-15.6,16.7-15.2l1383.1,52c8,0.3,14.6,7.2,14.6,15.3V2871.8z"/>
				<linearGradient id="SVGID_8_" gradientUnits="userSpaceOnUse" x1="1322.2869" y1="2873.2427" x2="1294.4658" y2="3085.1101">
					<stop  offset="0" style="stop-color:#444B8C"/>
					<stop  offset="0.9964" style="stop-color:#26264F"/>
				</linearGradient>
				<path class="st8" d="M1449.5,2994.4l-280.8,15.4c-15,0.8-27.2-9.6-27.2-23.3v-1c0-13.7,12.2-25.4,27.2-26.2l280.8-14.8
					c14.6-0.8,26.4,9.5,26.4,23v1C1475.9,2982.1,1464.1,2993.6,1449.5,2994.4z"/>
				<path class="st2" d="M1324.4,1046.1c0,7.3-6.4,12.9-14.4,12.6c-7.9-0.3-14.4-6.5-14.4-13.7c0-7.3,6.4-12.9,14.4-12.6
					C1317.9,1032.7,1324.4,1038.8,1324.4,1046.1z"/>
			</g>
			<g class="st9">
				<path class="st2" d="M1676.9,2825.8c-5.6-120.7,128.6-191.5,115.7-361.8c-1.2-15.4-13.2-147.1-119.2-236.5
					c-95.2-80.2-175.3-50-351.6-114c-123.5-44.8-262.4-95.2-318.6-196.4c-111.6-200.8,207.2-401.5,142-661.5
					c-18.7-74.5-71.5-165.8-210.9-261.2l-337.7-13.7c-41-1.7-74.5,32.8-74.5,76.8v1981c0,44,33.5,77.9,74.5,75.5l1258.2-73.4
					C1720.9,2963.1,1679.9,2888.7,1676.9,2825.8z"/>
			</g>
		</g>
	</g>
	<g>
		<g>
			
				<linearGradient id="SVGID_9_" gradientUnits="userSpaceOnUse" x1="1852.8826" y1="2152.9321" x2="1570.7347" y2="1857.476" gradientTransform="matrix(-1 0 0 1 4266.1675 0)">
				<stop  offset="0" style="stop-color:#FFC444"/>
				<stop  offset="0.9964" style="stop-color:#F36F56"/>
			</linearGradient>
			<path class="st10" d="M2552.7,2039.2c2.9-3.7,6.7-9.8,7.6-17.8c1.9-17.2-10.4-35.2-17.9-34.2c-6.7,0.8-9.7,17.2-10.3,24.1
				c-1.4,15.1,4.2,27.2,7.7,33.4L2552.7,2039.2z"/>
			<g>
				
					<linearGradient id="SVGID_10_" gradientUnits="userSpaceOnUse" x1="1974.0281" y1="2832.0481" x2="1484.0229" y2="1758.6127" gradientTransform="matrix(-1 0 0 1 4266.1675 0)">
					<stop  offset="0" style="stop-color:#FFC444"/>
					<stop  offset="0.9964" style="stop-color:#F36F56"/>
				</linearGradient>
				<path class="st11" d="M2564.6,2039.7c-4,18.9-8.3,45.6-9.3,77.9c-0.9,30.3-2.1,90.6,23.4,159.5c23.5,63.2,48.9,78.1,42,114.3
					c-6.1,31.8-32.2,54.3-54.1,68.7c-12.7-24.5-27.8-56.8-41.7-95.7c-6.4-17.9-16.9-47.9-25.4-88c-8.5-40.3-15.4-73.1-12.4-113.7
					c1.9-26.4,9-70.3,37.4-121.3C2536.3,2039.5,2551.8,2039.4,2564.6,2039.7z"/>
			</g>
		</g>
		<g>
			<g>
				<g>
					<g>
						
							<linearGradient id="SVGID_11_" gradientUnits="userSpaceOnUse" x1="1661.1451" y1="653.2138" x2="1457.9072" y2="1522.2329" gradientTransform="matrix(0.9179 0.3969 -0.3969 0.9179 1991.9431 -257.7332)">
							<stop  offset="0" style="stop-color:#311944"/>
							<stop  offset="1" style="stop-color:#A03976"/>
						</linearGradient>
						<path class="st12" d="M3067.5,1679.3L2892,2085.3c-19.1,44.2-70.7,63.1-115,44l-405.9-175.5c-44.3-19.1-66.9-70.1-47.8-114.3
							l175.5-405.9c19.1-44.2,72.4-64.1,116.7-44.9l405.9,175.5C3065.7,1583.2,3086.7,1635.1,3067.5,1679.3z"/>
					</g>
				</g>
			</g>
			<g>
				<g>
					<g>
						
							<linearGradient id="SVGID_12_" gradientUnits="userSpaceOnUse" x1="1443.807" y1="1112.5627" x2="2078.6396" y2="2741.4126" gradientTransform="matrix(0.9179 0.3969 -0.3969 0.9179 1991.9431 -257.7332)">
							<stop  offset="0" style="stop-color:#FF9085"/>
							<stop  offset="1" style="stop-color:#FB6FBB"/>
						</linearGradient>
						<path class="st13" d="M3229.6,1750.9l-175.5,405.9c-19.1,44.2-70.7,63.1-115,44l-405.9-175.5c-44.3-19.1-66.9-70.1-47.8-114.3
							l175.5-405.9c19.1-44.2,72.4-64.1,116.7-44.9l405.9,175.5C3227.7,1654.8,3248.7,1706.7,3229.6,1750.9z"/>
					</g>
					<g>
						<path class="st2" d="M2982.2,1672.8l-94.3-40.8l-8.3,8.3l-277,299l83.1,35.9l65.6-79.3l132.7,57.4l-12.9,102.1l83.1,35.9
							L2982.2,1672.8z M2796.3,1845.1c31.2-36.2,57.4-68,76.6-90.9c18.9-22.5,32.2-39,39.5-48.4c-1.3,6.6-3.1,16.7-4.4,28.3
							c-1.4,11.7-6.5,61.3-16.8,152L2796.3,1845.1z"/>
					</g>
				</g>
				
					<linearGradient id="SVGID_13_" gradientUnits="userSpaceOnUse" x1="1313.5927" y1="1572.8035" x2="1619.3177" y2="1572.8035" gradientTransform="matrix(0.9179 0.3969 -0.3969 0.9179 1991.9431 -257.7332)">
					<stop  offset="0" style="stop-color:#FF9085"/>
					<stop  offset="1" style="stop-color:#FB6FBB"/>
				</linearGradient>
				<path class="st14" d="M2485.4,1911l175.5-405.9c19.1-44.2,72.4-64.1,116.7-44.9l76.4,33c14.6,43.6,24.2,93.4,26.9,144.3
					c2,37.2,0,75.9-7.2,115.2c-6.5,35.5-17.3,71.7-33.4,108c-9.2,20.8-20.1,41.7-32.9,62.6c-11.9,19.4-25.2,38.3-40.6,57.7
					c-28.6,36-57.2,70.9-85.9,108.2l-147.5-63.8C2488.9,2006.2,2466.3,1955.2,2485.4,1911z"/>
			</g>
		</g>
		
			<linearGradient id="SVGID_14_" gradientUnits="userSpaceOnUse" x1="1685.3069" y1="2330.219" x2="1388.2599" y2="2019.1608" gradientTransform="matrix(-1 0 0 1 4266.1675 0)">
			<stop  offset="0" style="stop-color:#311944"/>
			<stop  offset="1" style="stop-color:#A03976"/>
		</linearGradient>
		<path class="st15" d="M2853.2,2065.4c-3.7-4-8.8-10.8-10.8-20.2c-4.4-20.2,7-43.2,15.5-43c7.7,0.2,13.1,19.2,14.8,27.4
			c3.6,17.8-1.1,32.9-4.2,40.7L2853.2,2065.4z"/>
		
			<linearGradient id="SVGID_15_" gradientUnits="userSpaceOnUse" x1="1455.1812" y1="2796.8472" x2="1277.3269" y2="2887.2688" gradientTransform="matrix(-1 0 0 1 4266.1675 0)">
			<stop  offset="3.597120e-03" style="stop-color:#E38DDD"/>
			<stop  offset="1" style="stop-color:#9571F6"/>
		</linearGradient>
		<path class="st16" d="M2846.4,2822.6c0,0,5.3-11.3,11.4-10.8c6.1,0.5,12.5,1.1,26.8,10.4c14.3,9.4,21.1,10.8,20.4,16.9
			C2904.4,2845.1,2859.3,2843.9,2846.4,2822.6z"/>
		
			<linearGradient id="SVGID_16_" gradientUnits="userSpaceOnUse" x1="-9214.1807" y1="2236.9128" x2="-9210.1465" y2="2289.3604" gradientTransform="matrix(0.3082 -0.9513 0.9513 0.3082 3525.967 -6628.4365)">
			<stop  offset="0" style="stop-color:#311944"/>
			<stop  offset="1" style="stop-color:#A03976"/>
		</linearGradient>
		<path class="st17" d="M2829.6,2830c1.1-0.4,13.3-7.6,20.2-11.7c2.8-1.7,6.4-1.3,8.8,0.9l0,0c3.5,3.3,3.9,8.7,0.8,12.4
			c-5.2,6.2-13,15.3-18.6,20.2L2829.6,2830z"/>
		
			<linearGradient id="SVGID_17_" gradientUnits="userSpaceOnUse" x1="1493.6096" y1="3045.9148" x2="1666.9802" y2="3272.343" gradientTransform="matrix(-1 0 0 1 4266.1675 0)">
			<stop  offset="3.597120e-03" style="stop-color:#E38DDD"/>
			<stop  offset="1" style="stop-color:#9571F6"/>
		</linearGradient>
		<path class="st18" d="M2730.9,3127.7c0,0.3,0,0.8,0.1,1.6c0.3,3.5,0.9,11.6-5.6,17.9c-8,7.6-28.2,9.4-52.4,10.6
			c-24.3,1.2-5-14.4-1.5-16.2c3.4-1.8,50.9-22.7,50.9-22.7L2730.9,3127.7z"/>
		
			<linearGradient id="SVGID_18_" gradientUnits="userSpaceOnUse" x1="-4502.9619" y1="3274.887" x2="-4523.8442" y2="3371.4683" gradientTransform="matrix(0.4133 0.9106 -0.9106 0.4133 7691.0093 5838.626)">
			<stop  offset="0" style="stop-color:#311944"/>
			<stop  offset="1" style="stop-color:#A03976"/>
		</linearGradient>
		<path class="st19" d="M2712.6,3105.8l4,28.1c0,0,5.7,3.4,10-4.5l10.7-19.8L2712.6,3105.8z"/>
		<g>
			
				<linearGradient id="SVGID_19_" gradientUnits="userSpaceOnUse" x1="1652.7966" y1="2540.4814" x2="1574.3317" y2="2946.2583" gradientTransform="matrix(-1 0 0 1 4266.1675 0)">
				<stop  offset="0" style="stop-color:#444B8C"/>
				<stop  offset="0.9964" style="stop-color:#26264F"/>
			</linearGradient>
			<path class="st20" d="M2617.2,2558.1c-33.2-2.1-47,35.2-65.8,67.8c-36.9,64.2-91.5,201.6-39.3,271.5
				c44,58.8,172.2,30.5,209.9,18.2c79-25.7,75.8-33.7,130.9-68.9c-9.7-7.7-12.7-17.2-20.7-25.5c-19.7-1.9-56.9-2.5-73.9-2.8
				c-25.2-0.5-70.2,1.5-83.8,2.6c-21.6,1.7-62.9,12.5-70.1,2.9c-15.9-21.3,29.5-129.3,30.3-164.6
				C2634.9,2644.4,2647.6,2560,2617.2,2558.1z"/>
			
				<linearGradient id="SVGID_20_" gradientUnits="userSpaceOnUse" x1="-7368.0801" y1="4558.1167" x2="-7118.7207" y2="4755.4126" gradientTransform="matrix(0.9513 0.3082 -0.3082 0.9513 10869.9746 419.9144)">
				<stop  offset="0" style="stop-color:#444B8C"/>
				<stop  offset="0.9964" style="stop-color:#26264F"/>
			</linearGradient>
			<path class="st21" d="M2552.1,2624.3c-8.7,13.4-17.3,36-24.3,51.4c6.9,4.7,16.6,10.2,19.1,18c11.4,35.9-13.1,68.3-10.7,113.5
				c0.6,11.5,5.3,53.1,27.5,63.3c26.4,12.2,77.5-5.8,112.4-1.4c18.1,2.3,35.3,15.1,53.9,13c29.3-3.3,48-24.6,77.6-28.8
				c7.8-1.1,21.6,1.7,29.8,5c5-3.5,9.5-7.3,14.2-11c-6.6-8.7-12.1-17.3-19.3-26c-19.8-1.9-56.9-2.5-73.9-2.8
				c-25.2-0.5-70.2,1.6-83.8,2.6c-21.6,1.6-63,12.7-70.1,2.9c-15.7-21.6,29.3-128.6,30.4-164.9c0.5-15.2,11.8-96.6-17.2-101.5
				C2585.7,2552,2566.8,2601.5,2552.1,2624.3z"/>
		</g>
		<g>
			
				<linearGradient id="SVGID_21_" gradientUnits="userSpaceOnUse" x1="1497.0426" y1="2565.1777" x2="1657.3361" y2="3083.05" gradientTransform="matrix(-1 0 0 1 4266.1675 0)">
				<stop  offset="0" style="stop-color:#444B8C"/>
				<stop  offset="0.9964" style="stop-color:#26264F"/>
			</linearGradient>
			<path class="st22" d="M2599.7,2648c-3.5,59.2,33.1,141.1,28.6,209.4c-0.5,7.8,2.3,40.5,5.4,49.8c10,29.9,69.6,206.7,71.1,208.4
				c11.1-2.3,22.6-3.7,33.8-6.1c14.7-26.8,26.6-64.2,33.4-92.7c9.1-38.4-9.4-83.3-13.7-108.9c-5-29.4-4.6-77.4-7.6-87.4
				c-22.2-74.6,5.4-102.9-5.1-163.9c-5.5-31.6-25.6-47-48.6-66C2664.4,2623.5,2627.5,2611.6,2599.7,2648z"/>
		</g>
		<g>
			
				<linearGradient id="SVGID_22_" gradientUnits="userSpaceOnUse" x1="1741.5087" y1="2909.2708" x2="1262.6033" y2="1860.151" gradientTransform="matrix(-1 0 0 1 4266.1675 0)">
				<stop  offset="0" style="stop-color:#FFC444"/>
				<stop  offset="0.9964" style="stop-color:#F36F56"/>
			</linearGradient>
			<path class="st23" d="M2835.4,2050.7c-2.2,18.6-5.9,45.4-12.4,77.5c-16.1,79.6-24.1,119.4-49.4,155.2
				c-40.9,58-86.6,56.8-88.9,93.3c-2.2,33.6,37,72.8,81.8,79.6c23.8,3.6,43.6-2.8,53.9-7.1c6.6-22.6,14.9-53.3,23.1-90
				c7.8-35.1,22.8-94.2,27-172c2.7-50.6,3.3-93.4,3.2-125.1C2862.8,2057.3,2847.9,2053.4,2835.4,2050.7z"/>
		</g>
		
			<linearGradient id="SVGID_23_" gradientUnits="userSpaceOnUse" x1="1787.8639" y1="2898.2332" x2="1304.3561" y2="1839.0314" gradientTransform="matrix(-1 0 0 1 4266.1675 0)">
			<stop  offset="0" style="stop-color:#FFC444"/>
			<stop  offset="0.9964" style="stop-color:#F36F56"/>
		</linearGradient>
		<path class="st24" d="M2559.7,2513.4c-11.3,46.4-24.3,67.4-16.2,99.7c6.7,26.7,40.8,39.6,75.9,52.9c23.5,8.9,96.1,36.4,138.3,5.5
			c17.8-13,19.7-28.7,32.4-86.5c32.2-146.8,44.7-159.5,31.1-191.2c-21-49.2-73.6-72.4-91.4-79.3c-1.9-0.7-3.4-1.3-4.5-1.7
			c-45.3-16.2-129.3-24.5-163.1,8.7C2525.6,2357.5,2586.1,2405.3,2559.7,2513.4z"/>
		
			<linearGradient id="SVGID_24_" gradientUnits="userSpaceOnUse" x1="-9868.6074" y1="1221.606" x2="-9986.0615" y2="923.2926" gradientTransform="matrix(0.9435 0.3313 -0.3313 0.9435 12427.3154 4575.6245)">
			<stop  offset="0" style="stop-color:#311944"/>
			<stop  offset="1" style="stop-color:#6B3976"/>
		</linearGradient>
		<path class="st25" d="M2608.5,2187.1c-0.4-13.5-10-15.4-10.1-27.8c-0.1-15.6,14.7-31.9,30.8-37.3c15.7-5.3,20.9,3.7,52.5,8.5
			c33.9,5.1,40.7-3.3,67.6,5.1c7,2.2,20.1,6.4,33.7,17.1c10.8,8.5,32.2,25.4,31.3,50.2c-1,27.1-27.9,43.1-30.5,44.6
			c4,32.3-1.9,44.8-9.4,49.5c0,0-8,5-43.5-1.2l0,0c0,0-12.1,10.9-18.6,14.1c-7.4,3.7-20.7,3.9-46.5-13.8c0.5-6.1,0.9-14.8,0.3-25.2
			c-1.1-19.6-1.6-29.4-6.6-32c-12.5-6.6-37.6,36.7-54.9,30.5c-11.1-4-16.5-27.7-12.1-45.3C2596.8,2206.2,2609,2202.5,2608.5,2187.1z
			"/>
		
			<linearGradient id="SVGID_25_" gradientUnits="userSpaceOnUse" x1="1831.5731" y1="3099.3906" x2="985.5706" y2="1246.0852" gradientTransform="matrix(-1 0 0 1 4266.1675 0)">
			<stop  offset="0" style="stop-color:#FFC444"/>
			<stop  offset="0.9964" style="stop-color:#F36F56"/>
		</linearGradient>
		<path class="st26" d="M2598,2582.5c53.4,5.6,91-42.3,93.8-46c27.6-36.4,7.4-57.6,30.8-105.3c22.8-46.6,46.6-35.3,78.1-83.3
			c43.9-66.9,42-156.4,41.8-160.6c-0.4-13.5-2.4-40.7,10.1-72.9c6.5-16.8,15-29.6,21.1-37.8c-0.1,29.8-0.9,67.3-3.2,110.5
			c-4.2,77.9-19.2,136.9-27,172c-6.1,27.6-12.3,51.7-17.8,71.6c-3.4,24.5-15.8,64-35.5,154.2c-12.7,57.8-14.6,73.5-32.4,86.5
			c-42.2,30.9-114.8,3.4-138.3-5.5c-35.1-13.3-69.3-26.2-75.9-52.9c-4.9-19.3-2.1-34.6,3.2-53.8
			C2555.5,2566.9,2573.2,2579.9,2598,2582.5z"/>
		<linearGradient id="SVGID_26_" gradientUnits="userSpaceOnUse" x1="2676.5703" y1="2209.9438" x2="2657.5515" y2="2372.105">
			<stop  offset="0" style="stop-color:#311944"/>
			<stop  offset="1" style="stop-color:#A03976"/>
		</linearGradient>
		<path class="st27" d="M2679.9,2290.2c-12.9,7.4-37.6,1.2-37.6,1.2s8,32-2.2,32s-48.1,7.1-35.4,20c12.6,12.9,100.8,16,114-2.3
			C2732,2322.9,2685.8,2329.1,2679.9,2290.2z"/>
		
			<linearGradient id="SVGID_27_" gradientUnits="userSpaceOnUse" x1="-8050.083" y1="5712.5894" x2="-8096.9692" y2="5829.8047" gradientTransform="matrix(0.6713 0.7413 -0.7413 0.6713 12472.0313 4312.2568)">
			<stop  offset="0" style="stop-color:#311944"/>
			<stop  offset="1" style="stop-color:#A03976"/>
		</linearGradient>
		<path class="st28" d="M2689.7,2293.1c0,0-33.7,27.8-75.5,10.2c-37.4-15.8-13.3-103.6,17.5-113.4c10.3-3.2,27.5-0.1,39.5,8.2
			c7.1,4.9,8.6,9.1,20.4,16.9c10.8,7.2,14.6,7.1,17.2,11.3c3.2,5.3,3.3,15.8-13,38.3c9.9-4.9,19.6-4.7,24.8,0.4
			c0.8,0.8,2.8,3.5,3.4,6.7C2726,2283.5,2712.7,2292.9,2689.7,2293.1z"/>
	</g>
	<g>
		<g>
			<g>
				<linearGradient id="SVGID_28_" gradientUnits="userSpaceOnUse" x1="1181.0292" y1="843.8685" x2="1408.4264" y2="2579.8538">
					<stop  offset="3.597120e-03" style="stop-color:#E38DDD"/>
					<stop  offset="1" style="stop-color:#9571F6"/>
				</linearGradient>
				<path class="st29" d="M1432.6,1835.4l-0.8,0l-310.4-2.4c-58.3-0.5-105.5-47.4-105.3-104.6l1.3-316.3
					c0.2-57.4,48.8-103.8,107.4-102.1l312.1,9.2c56.4,1.7,101.7,49.2,101,105.9l-3.7,309.4
					C1533.5,1791.1,1488.9,1835.4,1432.6,1835.4z M1121.6,1321c-51.1,0-92.9,40.9-93.1,91.1l-1.3,316.3
					c-0.2,51.2,42.1,93.1,94.3,93.5l311.2,2.4c50.2,0,90-39.5,90.6-89.9l3.7-309.4c0.6-50.7-39.9-93.2-90.2-94.6l-312.1-9.2
					C1123.5,1321,1122.5,1321,1121.6,1321z"/>
			</g>
			<linearGradient id="SVGID_29_" gradientUnits="userSpaceOnUse" x1="1184.9299" y1="843.36" x2="1412.3269" y2="2579.3442">
				<stop  offset="3.597120e-03" style="stop-color:#E38DDD"/>
				<stop  offset="1" style="stop-color:#9571F6"/>
			</linearGradient>
			<path class="st30" d="M1497.6,1423c0.4-32.1-24.4-58.8-56.4-59.7l-314.9-8.8c-33-0.9-60.4,24.8-60.6,57.5l-1.5,317.9
				c-0.2,32.3,27.3,58.8,60.1,59.1l312,3c31.9,0.3,57.4-25.2,57.8-56.9L1497.6,1423z M1355.7,1711.4l-20.6-65.8l-107.3-1.7
				l-21.9,65.5l-67.8-0.9l106.8-291.9l76.6,1.9l100.8,293.6L1355.7,1711.4z"/>
			<linearGradient id="SVGID_30_" gradientUnits="userSpaceOnUse" x1="1184.5334" y1="843.4089" x2="1411.9309" y2="2579.3965">
				<stop  offset="3.597120e-03" style="stop-color:#E38DDD"/>
				<stop  offset="1" style="stop-color:#9571F6"/>
			</linearGradient>
			<path class="st31" d="M1283.1,1464c-4.6,17-17.6,59.8-39.2,125.3l76.8,1.4c-19.2-62.5-30-99-32.4-107.4
				C1285.9,1475,1284.2,1468.9,1283.1,1464z"/>
		</g>
		<g>
			<linearGradient id="SVGID_31_" gradientUnits="userSpaceOnUse" x1="835.9891" y1="889.065" x2="1063.3864" y2="2625.051">
				<stop  offset="3.597120e-03" style="stop-color:#E38DDD"/>
				<stop  offset="1" style="stop-color:#9571F6"/>
			</linearGradient>
			<path class="st32" d="M998.8,2142.7l-36.2,0.2l-0.2,72.8l38.2-0.3c17.4-0.2,30.4-2.3,38.7-8.9c8.3-6.5,12.4-15.6,12.5-28.9
				C1051.9,2153.5,1034.2,2142.5,998.8,2142.7z"/>
			<linearGradient id="SVGID_32_" gradientUnits="userSpaceOnUse" x1="848.5408" y1="887.4213" x2="1075.9379" y2="2623.4058">
				<stop  offset="3.597120e-03" style="stop-color:#E38DDD"/>
				<stop  offset="1" style="stop-color:#9571F6"/>
			</linearGradient>
			<path class="st33" d="M1034.1,2086.3c7.7-5.2,11.6-14.4,11.7-26.3c0.1-11.2-4.1-20.5-12.4-25.3c-8.4-4.8-21.9-8.6-40-8.6l-30.3,0
				l-0.2,69.4l33.8-0.1C1013.7,2095.3,1026.4,2091.5,1034.1,2086.3z"/>
			<g>
				<linearGradient id="SVGID_33_" gradientUnits="userSpaceOnUse" x1="841.9263" y1="888.2905" x2="1069.3235" y2="2624.2756">
					<stop  offset="3.597120e-03" style="stop-color:#E38DDD"/>
					<stop  offset="1" style="stop-color:#9571F6"/>
				</linearGradient>
				<path class="st34" d="M845.3,2388c-58.2,0-105.5-45.6-105.5-101.7v-314.6c0-57.3,48-104,107.1-104l318.2,1.8
					c28.3,0.2,54.8,11.3,74.5,31.2c19.1,19.4,29.5,44.9,29.3,71.8l-2.4,307.8c-0.4,55.7-47.3,101.8-104.5,102.7L845.3,2388z
					 M847,1878.9c-52.9,0-96,41.7-96,92.9v314.6c0,50,42.3,90.6,94.4,90.6l1.6,0l315-4.9c51.2-0.8,93.2-41.9,93.6-91.7l2.4-307.8
					c0.2-23.9-9.1-46.6-26.1-63.9c-17.6-17.9-41.3-27.8-66.6-27.9L847,1878.9z"/>
			</g>
			<linearGradient id="SVGID_34_" gradientUnits="userSpaceOnUse" x1="842.1937" y1="888.2538" x2="1069.5906" y2="2624.2366">
				<stop  offset="3.597120e-03" style="stop-color:#E38DDD"/>
				<stop  offset="1" style="stop-color:#9571F6"/>
			</linearGradient>
			<path class="st35" d="M1225,1971.4c0.2-31.9-26.3-57.9-58.9-58l-319.9-1.3c-33.5-0.1-61.5,26.1-61.5,58.6l-0.2,316.3
				c0,32.2,27.5,57.8,60.8,57.4l317.9-4.5c32.3-0.5,59.3-26.4,59.6-58L1225,1971.4z M1087.7,2244.3c-19.6,15-45.9,21.4-79.6,21.8
				l-116.1,1.3l0.7-292.6l97.7,0.2c42.5,0.1,73.1,7.2,92.1,19c19,11.8,28.3,31,28.2,56.6c-0.1,17.3-5.4,31.9-13.8,43.1
				c-8.4,11.2-19.7,18.2-34.5,20.5l0,2c18.4,4,33.4,11.6,41.7,22.8c8.2,11.2,12.9,25.5,12.7,44.1
				C1116.6,2209.3,1107.3,2229.3,1087.7,2244.3z"/>
		</g>
		<g>
			<linearGradient id="SVGID_35_" gradientUnits="userSpaceOnUse" x1="1383.9834" y1="813.6948" x2="1611.8855" y2="2553.5347">
				<stop  offset="3.597120e-03" style="stop-color:#E38DDD"/>
				<stop  offset="1" style="stop-color:#9571F6"/>
			</linearGradient>
			<path class="st36" d="M1402.3,2379.3c-27.1,0-52.3-10.4-71-29.3c-18.5-18.7-28.6-43.7-28.4-70.3l2.7-307.2
				c0.5-56,46.6-101.7,102.8-101.7h0.6l302.3,1.8c26.5,0.2,51.2,10.7,69.6,29.5c18.6,19.1,28.7,44.4,28.2,71.4l-4.9,300.7
				c-0.9,54.5-45.9,99.6-100.4,100.4L1402.3,2379.3z M1408.2,1882.1c-50.1,0-91.2,40.6-91.7,90.6l-2.7,307.2
				c-0.2,23.6,8.7,45.8,25.2,62.4c16.6,16.8,39.1,26,63.1,26l1.5,0l299.9-4.7c48.5-0.8,88.7-40.9,89.5-89.5l4.9-300.7
				c0.4-24-8.5-46.5-25.1-63.4c-16.3-16.7-38.3-26-61.8-26.1L1408.2,1882.1z"/>
		</g>
		<linearGradient id="SVGID_36_" gradientUnits="userSpaceOnUse" x1="1388.2534" y1="816.7256" x2="1615.6506" y2="2552.7112">
			<stop  offset="3.597120e-03" style="stop-color:#E38DDD"/>
			<stop  offset="1" style="stop-color:#9571F6"/>
		</linearGradient>
		<path class="st37" d="M1769.4,1972.4c0.5-31.2-23.8-56.6-54.8-56.7l-303.7-1.3c-32-0.1-57.5,25.5-57.8,57.2l-2.9,308.8
			c-0.3,31.4,24.8,56.5,56.6,56.1l301.9-4.2c30.8-0.4,55.6-25.8,56-56.6L1769.4,1972.4z M1585.5,2216.1c19.9-0.2,40.2-5.3,72.7-15.5
			l-0.7,50.2c-21.7,9.9-49.6,15-78.3,15.3c-41.4,0.5-73.1-11.7-94.9-36.6c-21.8-24.9-32.6-60.9-32.1-108c0.3-29.7,6-55.8,17.2-78.2
			c11.1-22.4,27-39.6,47.5-51.5c20.5-11.9,44.3-17.8,71.5-17.8c27.7,0,55.3,6.8,82.9,20.2l-20.1,49c-10.5-5-21.1-9.4-31.8-13.2
			c-10.7-3.8-21.3-5.6-31.7-5.6c-22.8,0-40.5,8.6-53.3,25.7c-12.7,17.1-19.2,41-19.5,71.5
			C1514.2,2185.1,1537.8,2216.6,1585.5,2216.1z"/>
	</g>
	<linearGradient id="SVGID_37_" gradientUnits="userSpaceOnUse" x1="1059.8104" y1="859.7477" x2="1287.2074" y2="2595.7307">
		<stop  offset="3.597120e-03" style="stop-color:#E38DDD"/>
		<stop  offset="1" style="stop-color:#9571F6"/>
	</linearGradient>
	<path class="st38" d="M1568,2504.5c0.4-29.8-23.4-53.6-53.6-53l-469.7,9c-31.5,0.6-57.5,25.9-57.6,56.5l-0.1,22.4
		c-0.1,30.5,26.2,54.6,57.7,53.8l468.6-11.6c30.2-0.7,54.1-25.5,54.4-55.3L1568,2504.5z"/>
	<g>
		<linearGradient id="SVGID_38_" gradientUnits="userSpaceOnUse" x1="2514.8335" y1="1453.0178" x2="1880.989" y2="2848.3259">
			<stop  offset="0" style="stop-color:#FFC444"/>
			<stop  offset="0.9964" style="stop-color:#F36F56"/>
		</linearGradient>
		<path class="st39" d="M2311.3,2664.6l-165.6-97.3c-1.7-1.1-3.9-2.1-5.7-3l-0.3,0l-0.1,0.7c-12.2-6.6-26.4-9.6-41.6-9.3l-248.4,5.3
			l-174.1,3.8c-47.3,1-85.2,36.6-85.2,80.8v405.1c0,28.6,14.8,53.2,39.4,66.5l0,0l178,98.4l89.8-99.5l43.4-2.1l158.6-7.4
			c45.3-2.1,84.6-38.8,84.6-81.8v-218.2L2311.3,2664.6z"/>
		<g>
			<g>
				<linearGradient id="SVGID_39_" gradientUnits="userSpaceOnUse" x1="1967.9955" y1="2767.4521" x2="2707.0422" y2="4239.9482">
					<stop  offset="0" style="stop-color:#FFC444"/>
					<stop  offset="0.9964" style="stop-color:#F36F56"/>
				</linearGradient>
				<path class="st40" d="M2347.8,2729.9V3121c0,42.7-35.3,79.9-79.9,82.3l-420.2,21.7c-46.5,2.4-87.3-32-87.3-75.9v-401.8
					c0-43.8,40.5-81.9,87-83.1l419.3-11C2311.2,2652.1,2347.8,2687.2,2347.8,2729.9z"/>
				<g>
					<path class="st2" d="M2093.5,3055.1c-62.6,2.8-94.1-35.5-94.1-115c0-38.2,8.2-68.3,24.7-90.2c14.6-19.4,34.4-30.6,59.5-33.6
						c3.2-0.4,6.5-0.6,9.9-0.7c13.6-0.5,27.4,1.4,41.5,5.6c14.1,4.2,28,9.2,41.9,15l25.3-61.7c-36.3-15.4-72.5-22.6-108.7-21.5
						c-11.5,0.4-22.5,1.5-33,3.3c-22.2,3.9-42.4,11.2-60.4,21.8c-26.7,15.7-47.3,37.8-61.6,66.2c-14.3,28.4-21.5,61.3-21.5,98.5
						c0,59,14.6,103.7,43.7,133.9c29.1,30.1,70.9,43.9,125.3,41.3c17.1-0.8,36.2-2.9,51.8-6.2c18.8-3.9,30.1-9.2,55.8-17v-62.8
						c-25.7,7.2-38,12.4-53.7,16.2C2124,3052.2,2106.7,3054.5,2093.5,3055.1z"/>
				</g>
			</g>
			<linearGradient id="SVGID_40_" gradientUnits="userSpaceOnUse" x1="1760.3822" y1="2942.3513" x2="2137.4888" y2="2942.3513">
				<stop  offset="0" style="stop-color:#FFC444"/>
				<stop  offset="0.9964" style="stop-color:#F36F56"/>
			</linearGradient>
			<path class="st41" d="M1760.4,3149.1v-401.8c0-43.8,40.5-81.9,87-83.1l174.2-4.5c12.2,33.8,25.7,64.2,38.2,95.9
				c7.9,20,16,40.4,23.4,60.4c28.2,76.4,51,153.5,53.9,232.2c0.8,21.1,0.3,42.3-2,63.7c-3.1,29.2-9.3,59.2-19.3,89.2
				c-1.1,3.2-2.2,4.6-3.4,10.2l-265.1,13.7C1800.9,3227.3,1760.4,3192.9,1760.4,3149.1z"/>
		</g>
	</g>
	<g>
		<linearGradient id="SVGID_41_" gradientUnits="userSpaceOnUse" x1="2127.6201" y1="2092.8489" x2="934.1819" y2="3404.3882">
			<stop  offset="0" style="stop-color:#444B8C"/>
			<stop  offset="0.9964" style="stop-color:#26264F"/>
		</linearGradient>
		<path class="st42" d="M2321.1,2052.7l-150.3-24.4c-6.8-1.6-14.9-1.8-22.2-1.8h-280.5h-159.3c-49,0-85.2,33.9-85.2,79.8v420.6
			c0,40.1,26.6,77.1,67.2,80.4h-0.1l0-0.3c1.8,0.3,3.7,0.4,5.6,0.6l166,22.8l20.9-26.1l4.4-0.2l262.3-6.7
			c46.9-1.2,87.8-39.4,87.8-84v-352.6L2321.1,2052.7z"/>
		<g>
			<g>
				<linearGradient id="SVGID_42_" gradientUnits="userSpaceOnUse" x1="1835.2867" y1="1676.8853" x2="2924.7754" y2="4634.062">
					<stop  offset="0" style="stop-color:#AA80F9"/>
					<stop  offset="0.9964" style="stop-color:#6165D7"/>
				</linearGradient>
				<path class="st43" d="M2300.4,2049.9l-435.4,0.5c-48.4,0.1-91.2,36-91.2,81.5v417.7c0,45.6,42.9,81.4,91.3,80.1l434.4-11.6
					c46.3-1.2,85.1-38.2,85.1-82.5v-406.5C2384.6,2084.7,2346.7,2049.8,2300.4,2049.9z"/>
				<g>
					<path class="st2" d="M2213.3,2355.1c-10.8-14.1-25.6-23.6-52.3-28.4v-2.5c23.4-3.2,31.8-11.8,42.6-26
						c10.8-14.2,15.9-32.3,15.9-54.2c0-32.3-12.5-55.3-37.1-69.9c-24.7-14.7-62.8-21.4-118-21.1l-120.4,0.7v374.2l144.7-3.3
						c43.9-1,77.6-12.9,103-32.2c25.4-19.3,37.8-46.5,37.8-80C2229.6,2388.8,2224.1,2369.1,2213.3,2355.1z M2024.1,2213.5l43.6-0.4
						c23.6-0.2,40.6,4.2,51.5,10.3c10.9,6,16.2,16.8,16.2,30.9c0,15.1-5,26.4-15,33c-10,6.7-25.9,10.5-48.2,10.8l-48.1,0.6V2213.5z
						 M2128,2442c-10.7,8.4-27.2,11.6-49.8,12l-54,1v-95.9l51.3-0.8c46-0.7,68.8,14.6,68.8,45.2
						C2144.3,2420.5,2138.7,2433.5,2128,2442z"/>
				</g>
			</g>
			<linearGradient id="SVGID_43_" gradientUnits="userSpaceOnUse" x1="1773.7859" y1="2339.9299" x2="2043.0491" y2="2339.9299">
				<stop  offset="0" style="stop-color:#AA80F9"/>
				<stop  offset="0.9964" style="stop-color:#6165D7"/>
			</linearGradient>
			<path class="st44" d="M1773.8,2549.6v-417.7c0-45.6,42.9-81.5,91.3-81.5l157.9-0.2c-9.2,28.4-17.3,68-24.4,102.6
				c-16.7,80.9-25.4,162.5-16.7,245.2c4.4,42,13.8,83.5,26,124.9c10.1,34.2,22.2,66.8,35.1,102l-178,4.7
				C1816.7,2630.9,1773.8,2595.1,1773.8,2549.6z"/>
		</g>
	</g>
</g>
</svg>
