<?xml version="1.0" encoding="utf-8"?>
<!-- Generator: Adobe Illustrator 21.0.2, SVG Export Plug-In . SVG Version: 6.00 Build 0)  -->
<svg version="1.1" id="Illustration" xmlns="http://www.w3.org/2000/svg" xmlns:xlink="http://www.w3.org/1999/xlink" x="0px"
	 y="0px" viewBox="0 0 3710 3710" style="enable-background:new 0 0 3710 3710;" xml:space="preserve">
<style type="text/css">
	.st0{opacity:0.3;fill:url(#SVGID_1_);}
	.st1{fill:url(#SVGID_2_);}
	.st2{fill:url(#SVGID_3_);}
	.st3{opacity:0.5;fill:#3F67F9;}
	.st4{fill:url(#SVGID_4_);}
	.st5{opacity:0.57;fill:#FFFFFF;}
	.st6{fill:url(#SVGID_5_);}
	.st7{opacity:0.43;fill:#FFFFFF;}
	.st8{fill:url(#SVGID_6_);}
	.st9{opacity:0.51;fill:#FFFFFF;}
	.st10{fill:url(#SVGID_7_);}
	.st11{fill:url(#SVGID_8_);}
	.st12{fill:url(#SVGID_9_);}
	.st13{fill:url(#SVGID_10_);}
	.st14{fill:url(#SVGID_11_);}
	.st15{fill:url(#SVGID_12_);}
	.st16{fill:url(#SVGID_13_);}
	.st17{fill:url(#SVGID_14_);}
	.st18{fill:url(#SVGID_15_);}
	.st19{fill:url(#SVGID_16_);}
	.st20{opacity:0.37;fill:#FFFFFF;}
	.st21{fill:url(#SVGID_17_);}
	.st22{fill:url(#SVGID_18_);}
	.st23{fill:url(#SVGID_19_);}
	.st24{fill:url(#SVGID_20_);}
	.st25{fill:url(#SVGID_21_);}
	.st26{fill:url(#SVGID_22_);}
	.st27{fill:url(#SVGID_23_);}
	.st28{fill:url(#SVGID_24_);}
	.st29{fill:url(#SVGID_25_);}
	.st30{fill:url(#SVGID_26_);}
	.st31{fill:url(#SVGID_27_);}
	.st32{fill:url(#SVGID_28_);}
	.st33{fill:url(#SVGID_29_);}
	.st34{fill:url(#SVGID_30_);}
	.st35{fill:url(#SVGID_31_);}
	.st36{fill:url(#SVGID_32_);}
	.st37{fill:url(#SVGID_33_);}
	.st38{fill-rule:evenodd;clip-rule:evenodd;fill:url(#SVGID_34_);}
	.st39{fill-rule:evenodd;clip-rule:evenodd;fill:url(#SVGID_35_);}
	.st40{fill-rule:evenodd;clip-rule:evenodd;fill:url(#SVGID_36_);}
	.st41{fill-rule:evenodd;clip-rule:evenodd;fill:url(#SVGID_37_);}
	.st42{fill-rule:evenodd;clip-rule:evenodd;fill:url(#SVGID_38_);}
	.st43{fill:url(#SVGID_39_);}
</style>
<g>
	<linearGradient id="SVGID_1_" gradientUnits="userSpaceOnUse" x1="3578.6099" y1="4047.0623" x2="1122.3549" y2="996.5476">
		<stop  offset="0" style="stop-color:#B37CFF"/>
		<stop  offset="1" style="stop-color:#F895E7"/>
	</linearGradient>
	<path class="st0" d="M2910.7,2838.6c-56.8,59.1-110.6,97.2-153.1,127.3c-499.6,354-1090.7,250.8-1216.3,225.6
		c-185.5-37.2-544.1-109.1-803.4-410.2C345.7,2325.8,406.8,1608.2,711,1134.5c55.7-86.6,349.6-567.6,947.1-644.7
		c361.6-46.7,783.1,47.5,1088.3,300C3387.1,1319.9,3341.5,2390.7,2910.7,2838.6z"/>
	<g>
		<g>
			<linearGradient id="SVGID_2_" gradientUnits="userSpaceOnUse" x1="1007.347" y1="1834.4882" x2="2843.1736" y2="1834.4882">
				<stop  offset="0" style="stop-color:#2B3582"/>
				<stop  offset="1" style="stop-color:#150E42"/>
			</linearGradient>
			<path class="st1" d="M1041,622.1c-10.8,430.2-45.9,1914.1-29.2,2440c1.8,55.7,47.1,100.4,103.7,102.2
				c279.7,9,1084.5,31.9,1542,13c95.3-3.9,171.1-80,173.1-173.9c9.5-451.6,30.5-1721.6-19.4-2303.4c-6-69.7-61.5-125.2-132.2-132.2
				c-304.7-30-1113.8-103.4-1509.1-78.1C1098.6,494.2,1042.8,551.7,1041,622.1z"/>
			<linearGradient id="SVGID_3_" gradientUnits="userSpaceOnUse" x1="2914.5222" y1="112.6992" x2="-265.8968" y2="5309.4688">
				<stop  offset="0" style="stop-color:#FDF53F"/>
				<stop  offset="0.6645" style="stop-color:#E57A58"/>
				<stop  offset="1" style="stop-color:#D93C65"/>
			</linearGradient>
			<path class="st2" d="M1154.7,755.7c-15.3,352.3-63.5,1524.5-48.2,1957.9c2.2,63.4,52.9,114.6,117.2,118.3
				c264.5,15.2,943,48.9,1331,18.3c69.9-5.5,124.7-61.2,128.5-130.1c19.7-359.5,76.1-1450.9,61.5-1879.4
				c-2.3-68.4-56.1-124.2-125.3-130.3c-286.2-25.3-1021.2-85.5-1350.9-67.8C1206.5,645.8,1157.3,694.7,1154.7,755.7z"/>
			<path class="st3" d="M1732.3,564.8L1732.3,564.8c0,13.2,10.4,24.1,23.8,24.8c66.1,3.4,252.2,13.1,335.4,17.8
				c16.4,0.9,29.3-13.6,26.2-29.5l-0.5-2.7c-2.1-10.8-11.3-19-22.4-20c-56.2-5.1-225.9-19.1-338.3-15.2
				C1743,540.5,1732.3,551.5,1732.3,564.8z"/>
		</g>
	</g>
	<g>
		<linearGradient id="SVGID_4_" gradientUnits="userSpaceOnUse" x1="922.1834" y1="3035.5657" x2="97.3881" y2="1310.5397">
			<stop  offset="0" style="stop-color:#CB236D"/>
			<stop  offset="1" style="stop-color:#4C246D"/>
		</linearGradient>
		<path class="st4" d="M482.9,1996.2c-24,159.8-133,1090.2,552,1216c0,0,198.8-618.1-534-1227.6
			C494.5,1979.2,484.5,1985.7,482.9,1996.2z"/>
		<path class="st5" d="M544.8,2124.3c0,0,2.5,17.8,8,49c5.5,31.1,13.9,75.5,25.6,128.4c11.7,52.9,26.6,114.4,45,179.5
			c18.4,65.1,40.2,134.1,65.4,201.7c25.1,67.7,53.6,134.1,84.3,194.2c30.6,60.2,63.5,114.1,95.3,157.6
			c15.9,21.8,31.3,41.1,45.7,57.5c3.6,4.1,7.2,8,10.6,11.8c1.7,1.9,3.4,3.7,5,5.6c1.7,1.8,3.4,3.5,5,5.2c3.3,3.4,6.4,6.7,9.4,9.8
			c3.1,3,6.1,5.9,8.9,8.6c5.5,5.5,10.8,10.2,15.3,14.2c2.3,2,4.3,3.9,6.3,5.6c2,1.7,3.8,3.2,5.4,4.5c6.4,5.4,9.8,8.3,9.8,8.3
			l0.2,0.2c2.8,2.4,3.2,6.6,0.8,9.4c-2.4,2.8-6.6,3.2-9.4,0.8l0,0c0,0-3.5-3-10-8.5c-1.6-1.4-3.5-2.9-5.5-4.7
			c-1.9-1.8-4.1-3.7-6.4-5.8c-4.6-4.2-9.9-9-15.5-14.7c-2.8-2.8-5.8-5.8-9-8.9c-3-3.2-6.2-6.5-9.6-10c-1.7-1.7-3.4-3.5-5.1-5.3
			c-1.7-1.9-3.4-3.8-5.1-5.7c-3.4-3.9-7.1-7.8-10.7-12.1c-14.5-16.8-30.1-36.5-46-58.7c-31.9-44.3-64.8-99-95.2-159.8
			c-30.5-60.8-58.7-127.8-83.5-195.9c-24.9-68.1-46.2-137.4-64.3-202.8c-18-65.5-32.6-127.2-43.9-180.3
			c-22.7-106.2-32.5-178.1-32.5-178.1c-0.2-1.6,0.9-3,2.4-3.2C543.1,2121.7,544.6,2122.8,544.8,2124.3z"/>
	</g>
	<g>
		<linearGradient id="SVGID_5_" gradientUnits="userSpaceOnUse" x1="984.0859" y1="1123.6202" x2="984.0859" y2="2883.8528">
			<stop  offset="0" style="stop-color:#A737D5"/>
			<stop  offset="1" style="stop-color:#EF497A"/>
		</linearGradient>
		<path class="st6" d="M771.3,1254.2c4.5-14.1,17.6-9.1,27.7,1.8c549.3,599.9,645.8,1574.7,439.4,1816.8
			C1238.4,3072.8,275.9,2795.3,771.3,1254.2z"/>
		<path class="st7" d="M783.2,1453.7c0,3.6,0.4,7.7,0.6,11.6l0.9,11.8l2.1,23.7c1.5,15.8,3.1,31.6,4.8,47.3
			c3.5,31.5,7.3,63,11.4,94.4c8.2,62.9,17.5,125.6,28.1,188.1c21.4,125,46.7,249.3,78.3,372.1c16,61.3,32.7,122.5,51.7,182.9
			c19.1,60.4,39.5,120.4,62.4,179.5c2.7,7.4,5.6,14.8,8.6,22.1l8.9,22l8.9,22c3.1,7.3,6.3,14.5,9.4,21.8
			c6.4,14.5,12.5,29.1,19.2,43.5l20.3,42.9c27.8,56.9,58.3,112.5,91.9,166.3l0,0c0.5,0.8,0.3,1.8-0.5,2.3c-0.8,0.5-1.8,0.3-2.3-0.5
			c-35.1-53-66.4-108.4-95.3-165l-20.8-42.9c-6.9-14.3-13.1-28.9-19.7-43.4c-3.2-7.3-6.6-14.5-9.7-21.8l-9.2-22l-9.2-22
			c-3.1-7.3-6.1-14.7-8.9-22.1c-46.3-118.4-84.1-240-115.5-363.2l-11.5-46.2l-10.8-46.4c-3.7-15.4-6.9-31-10.3-46.5l-5.1-23.3
			l-4.8-23.3c-12.8-62.2-24.4-124.7-34.3-187.4c-10-62.7-18.9-125.6-26.3-188.7c-3.6-31.5-6.9-63.1-9.9-94.7
			c-1.4-15.8-2.8-31.6-4-47.5l-1.7-23.8l-0.7-11.9c-0.2-4-0.5-7.8-0.4-12.2c0-0.9,0.8-1.7,1.7-1.6c0.9,0,1.6,0.7,1.6,1.6
			L783.2,1453.7z"/>
	</g>
	<g>
		<g>
			<linearGradient id="SVGID_6_" gradientUnits="userSpaceOnUse" x1="2984.6289" y1="509.1911" x2="2283.3218" y2="1280.3259">
				<stop  offset="0" style="stop-color:#53D8FF"/>
				<stop  offset="1" style="stop-color:#3840F7"/>
			</linearGradient>
			<path class="st8" d="M2993.1,1293.7l-708.8,24.7c-48,1.7-87.2-38-84.9-86l33.3-699.2c2.1-43.8,38.2-78.2,82-78.2h675.5
				c45.3,0,82.1,36.8,82.1,82.1v674.5C3072.4,1255.9,3037.3,1292.1,2993.1,1293.7z"/>
			<path class="st9" d="M2281.4,1272.6c-10,0-19.3-4-26.2-11.2c-6.9-7.2-10.4-16.7-10-26.7l33.3-699.2c0.9-19.4,16.8-34.5,36.2-34.5
				h675.5c20,0,36.3,16.3,36.3,36.3v674.5c0,19.6-15.4,35.6-35,36.2l-708.8,24.7C2282.3,1272.6,2281.8,1272.6,2281.4,1272.6z"/>
			<path class="st9" d="M2320.3,1245.1c-9.1,0-17.6-3.6-23.9-10.3c-6.3-6.6-9.5-15.3-9.1-24.4l30.4-638.3
				c0.8-17.7,15.4-31.5,33.1-31.5h616.7c18.3,0,33.1,14.9,33.1,33.1v615.7c0,17.9-14,32.5-32,33.1l-647.1,22.5
				C2321.1,1245.1,2320.7,1245.1,2320.3,1245.1z"/>
		</g>
		<g>
			<linearGradient id="SVGID_7_" gradientUnits="userSpaceOnUse" x1="2680.2375" y1="-44.6902" x2="2436.613" y2="1460.0422">
				<stop  offset="0" style="stop-color:#53D8FF"/>
				<stop  offset="1" style="stop-color:#3840F7"/>
			</linearGradient>
			<path class="st10" d="M2636.4,939.1c2,0,4,0.4,6,1.1c2,0.7,3.9,2,5.7,3.9l33.5,35.2c-14.7,19.2-33,33.6-55.1,43.3
				c-22.1,9.7-48.2,14.6-78.3,14.6c-27.6,0-52.4-4.7-74.3-14.1c-21.9-9.4-40.5-22.4-55.7-39c-15.2-16.6-26.9-36.2-35.1-58.9
				c-8.2-22.7-12.2-47.4-12.2-74.1c0-27.1,4.7-52.1,14-74.8c9.3-22.7,22.4-42.3,39.1-58.8c16.7-16.5,36.8-29.3,60.1-38.5
				c23.3-9.2,49-13.7,77.2-13.7c13.7,0,26.5,1.2,38.6,3.6c12.1,2.4,23.4,5.7,33.8,10c10.5,4.2,20.1,9.3,29,15.2
				c8.8,5.9,16.6,12.5,23.5,19.6l-28.5,38.2c-1.8,2.3-4,4.5-6.5,6.4c-2.5,1.9-6,2.9-10.5,2.9c-3,0-5.8-0.7-8.5-2
				c-2.7-1.3-5.5-3-8.5-4.9c-3-1.9-6.3-4-9.9-6.2c-3.6-2.2-7.8-4.3-12.7-6.2c-4.9-1.9-10.7-3.5-17.2-4.9c-6.6-1.3-14.3-2-23.1-2
				c-15.3,0-29.3,2.7-42,8.1c-12.7,5.4-23.5,13.2-32.6,23.2c-9.1,10.1-16.2,22.3-21.2,36.6c-5.1,14.3-7.6,30.4-7.6,48.2
				c0,18.7,2.5,35.2,7.6,49.7c5.1,14.5,12,26.7,20.7,36.6c8.7,9.9,18.9,17.4,30.6,22.6c11.7,5.2,24.1,7.7,37.5,7.7
				c7.7,0,14.7-0.4,21-1.1c6.3-0.7,12.2-2,17.6-3.9c5.4-1.8,10.6-4.2,15.5-7.1c4.9-2.9,9.9-6.5,14.9-10.9c2-1.7,4.2-3,6.5-4.1
				C2631.5,939.7,2633.9,939.1,2636.4,939.1z"/>
			<linearGradient id="SVGID_8_" gradientUnits="userSpaceOnUse" x1="3005.9641" y1="38.6926" x2="2705.0181" y2="1392.9509">
				<stop  offset="0" style="stop-color:#53D8FF"/>
				<stop  offset="1" style="stop-color:#3840F7"/>
			</linearGradient>
			<path class="st11" d="M2882.3,967.4c1.4,0,2.8,0.3,4.2,0.8c1.4,0.5,2.7,1.4,4,2.7l23.4,24.7c-10.3,13.4-23.1,23.5-38.6,30.3
				c-15.4,6.8-33.7,10.2-54.8,10.2c-19.4,0-36.7-3.3-52-9.9c-15.3-6.6-28.3-15.7-39-27.3c-10.7-11.6-18.9-25.4-24.6-41.3
				c-5.7-15.9-8.6-33.2-8.6-51.8c0-19,3.3-36.5,9.8-52.4c6.5-15.9,15.6-29.6,27.4-41.2c11.7-11.5,25.7-20.5,42-26.9
				c16.3-6.4,34.3-9.6,54-9.6c9.6,0,18.6,0.8,27,2.5c8.4,1.7,16.3,4,23.7,7c7.3,3,14.1,6.5,20.3,10.7c6.2,4.1,11.7,8.7,16.4,13.7
				l-19.9,26.8c-1.3,1.6-2.8,3.1-4.5,4.5c-1.7,1.3-4.2,2-7.3,2c-2.1,0-4.1-0.5-5.9-1.4c-1.9-0.9-3.8-2.1-5.9-3.4
				c-2.1-1.3-4.4-2.8-6.9-4.4c-2.5-1.6-5.5-3-8.9-4.4c-3.4-1.3-7.5-2.5-12.1-3.4c-4.6-0.9-10-1.4-16.2-1.4
				c-10.7,0-20.5,1.9-29.4,5.7c-8.9,3.8-16.5,9.2-22.8,16.3c-6.4,7.1-11.3,15.6-14.9,25.6c-3.6,10-5.3,21.3-5.3,33.7
				c0,13.1,1.8,24.7,5.3,34.8c3.6,10.1,8.4,18.7,14.5,25.6c6.1,6.9,13.3,12.2,21.4,15.8c8.2,3.6,16.9,5.4,26.2,5.4
				c5.4,0,10.3-0.3,14.7-0.8c4.4-0.5,8.5-1.4,12.3-2.7c3.8-1.3,7.4-2.9,10.8-5c3.4-2,6.9-4.6,10.4-7.6c1.4-1.2,2.9-2.1,4.5-2.9
				C2878.8,967.8,2880.5,967.4,2882.3,967.4z"/>
		</g>
	</g>
	<g>
		<g>
			<linearGradient id="SVGID_9_" gradientUnits="userSpaceOnUse" x1="2443.3472" y1="1135.5132" x2="1742.0398" y2="1906.6481">
				<stop  offset="0" style="stop-color:#A737D5"/>
				<stop  offset="1" style="stop-color:#EF497A"/>
			</linearGradient>
			<path class="st12" d="M2451.9,1920l-708.8,24.7c-48,1.7-87.2-38-84.9-86l33.3-699.2c2.1-43.8,38.2-78.2,82-78.2H2449
				c45.3,0,82.1,36.8,82.1,82.1v674.5C2531.1,1882.2,2496.1,1918.5,2451.9,1920z"/>
			<path class="st9" d="M1740.1,1898.9c-10,0-19.3-4-26.2-11.2c-6.9-7.2-10.4-16.7-10-26.7l33.3-699.2c0.9-19.4,16.8-34.5,36.2-34.5
				H2449c20,0,36.3,16.3,36.3,36.3v674.5c0,19.6-15.4,35.6-35,36.2l-708.8,24.7C1741,1898.9,1740.6,1898.9,1740.1,1898.9z"/>
			<path class="st9" d="M1779.1,1871.4c-9.1,0-17.6-3.6-23.9-10.3c-6.3-6.6-9.5-15.3-9.1-24.4l30.4-638.3
				c0.8-17.7,15.4-31.5,33.1-31.5h616.7c18.3,0,33.1,14.9,33.1,33.1v615.7c0,17.9-14,32.5-32,33.1l-647.1,22.5
				C1779.9,1871.4,1779.5,1871.4,1779.1,1871.4z"/>
		</g>
		<g>
			<linearGradient id="SVGID_10_" gradientUnits="userSpaceOnUse" x1="1982.6101" y1="1754.6095" x2="1961.1135" y2="1002.2417">
				<stop  offset="0" style="stop-color:#A737D5"/>
				<stop  offset="1" style="stop-color:#EF497A"/>
			</linearGradient>
			<path class="st13" d="M1837.5,1335.7h175.9c29.3,0,51.8,7.3,67.5,21.8c15.7,14.5,23.5,32.5,23.5,53.9c0,18-5.6,33.4-16.8,46.3
				c-7.5,8.6-18.4,15.4-32.8,20.3c21.9,5.3,37.9,14.3,48.2,27.1c10.3,12.8,15.5,28.9,15.5,48.2c0,15.8-3.7,29.9-11,42.5
				c-7.3,12.6-17.4,22.5-30.1,29.9c-7.9,4.6-19.8,7.9-35.7,10c-21.2,2.8-35.2,4.1-42.1,4.1h-162.2V1335.7z M1932.3,1455h40.9
				c14.7,0,24.9-2.5,30.6-7.6c5.7-5,8.6-12.3,8.6-21.9c0-8.8-2.9-15.8-8.6-20.7c-5.7-5-15.7-7.5-30-7.5h-41.5V1455z M1932.3,1574.5
				h47.9c16.2,0,27.6-2.9,34.2-8.6c6.6-5.7,10-13.5,10-23.1c0-9-3.3-16.2-9.9-21.7c-6.6-5.5-18.1-8.2-34.5-8.2h-47.7V1574.5z"/>
			<linearGradient id="SVGID_11_" gradientUnits="userSpaceOnUse" x1="2288.5581" y1="1745.8678" x2="2267.0618" y2="993.5002">
				<stop  offset="0" style="stop-color:#A737D5"/>
				<stop  offset="1" style="stop-color:#EF497A"/>
			</linearGradient>
			<path class="st14" d="M2162.6,1335.7h85.3v105.4c8.4-8.8,18-15.5,28.7-19.9c10.7-4.4,22.6-6.6,35.6-6.6c26.8,0,49,9.6,66.6,28.9
				c17.6,19.3,26.3,47,26.3,83.1c0,24.1-4,45.3-12,63.6c-8,18.3-19.1,32-33.3,41.1c-14.2,9.1-29.9,13.6-47.2,13.6
				c-14.8,0-28.4-3.2-40.7-9.5c-9.3-5-19.4-14.3-30.3-28v32.6h-79V1335.7z M2247.2,1529c0,19,3.6,32.7,10.7,41.2
				c7.1,8.5,16.1,12.8,27.1,12.8c10.1,0,18.6-4.2,25.4-12.6c6.8-8.4,10.3-22.4,10.3-42.2c0-17.4-3.4-30.2-10.1-38.4
				c-6.7-8.2-14.8-12.2-24.4-12.2c-11.5,0-20.8,4.3-28.1,12.8C2250.9,1498.9,2247.2,1511.8,2247.2,1529z"/>
		</g>
	</g>
	<g>
		<linearGradient id="SVGID_12_" gradientUnits="userSpaceOnUse" x1="1932.6876" y1="1723.7332" x2="1237.0702" y2="2488.6116">
			<stop  offset="0" style="stop-color:#53D8FF"/>
			<stop  offset="1" style="stop-color:#3840F7"/>
		</linearGradient>
		<path class="st15" d="M1941.1,2501.9l-703.1,24.5c-47.6,1.7-86.5-37.7-84.2-85.3l33-693.5c2.1-43.4,37.9-77.6,81.4-77.6h670
			c45,0,81.4,36.5,81.4,81.4v669C2019.7,2464.3,1985,2500.3,1941.1,2501.9z"/>
		<path class="st9" d="M1235.2,2480.9c-9.9,0-19.1-4-26-11.2c-6.8-7.2-10.4-16.6-9.9-26.5l33-693.5c0.9-19.2,16.7-34.3,35.9-34.3
			h670c19.8,0,36,16.1,36,36v669c0,19.5-15.2,35.3-34.7,35.9l-703.1,24.5C1236,2480.9,1235.6,2480.9,1235.2,2480.9z"/>
		<path class="st9" d="M1273.8,2453.7c-9,0-17.5-3.6-23.7-10.2c-6.3-6.6-9.5-15.2-9-24.2l30.1-633.1c0.8-17.5,15.2-31.3,32.8-31.3
			h611.7c18.1,0,32.8,14.7,32.8,32.8v610.7c0,17.8-13.9,32.2-31.7,32.8l-641.8,22.4C1274.6,2453.6,1274.2,2453.7,1273.8,2453.7z"/>
		<g>
			<linearGradient id="SVGID_13_" gradientUnits="userSpaceOnUse" x1="1490.2086" y1="1208.2921" x2="1447.2156" y2="2677.1973">
				<stop  offset="0" style="stop-color:#53D8FF"/>
				<stop  offset="1" style="stop-color:#3840F7"/>
			</linearGradient>
			<path class="st16" d="M1512.7,2156.2h-106.2l-14.8,50h-95.5l113.8-302.8h102l113.8,302.8h-98L1512.7,2156.2z M1493.3,2090.7
				l-33.4-108.8l-33.1,108.8H1493.3z"/>
			<linearGradient id="SVGID_14_" gradientUnits="userSpaceOnUse" x1="1794.0002" y1="1217.1829" x2="1751.0072" y2="2686.0884">
				<stop  offset="0" style="stop-color:#53D8FF"/>
				<stop  offset="1" style="stop-color:#3840F7"/>
			</linearGradient>
			<path class="st17" d="M1726.6,2057.9l-80.3-8.5c3-14,7.4-25.1,13.1-33.1c5.7-8.1,13.9-15,24.7-21c7.7-4.3,18.3-7.6,31.8-9.9
				c13.5-2.3,28.1-3.5,43.8-3.5c25.2,0,45.4,1.4,60.7,4.2c15.3,2.8,28,8.7,38.2,17.7c7.2,6.2,12.8,15,16.9,26.3
				c4.1,11.4,6.2,22.2,6.2,32.5v96.9c0,10.3,0.7,18.4,2,24.3c1.3,5.9,4.2,13.3,8.6,22.4h-78.9c-3.2-5.6-5.2-9.9-6.2-12.9
				c-1-3-1.9-7.6-2.9-13.9c-11,10.6-22,18.2-32.8,22.7c-14.9,6.1-32.1,9.1-51.8,9.1c-26.2,0-46-6.1-59.6-18.2
				c-13.6-12.1-20.3-27.1-20.3-44.8c0-16.7,4.9-30.4,14.7-41.1c9.8-10.7,27.8-18.7,54.1-24c31.5-6.3,52-10.8,61.3-13.3
				c9.4-2.5,19.3-5.9,29.7-10c0-10.3-2.1-17.6-6.4-21.7c-4.3-4.1-11.8-6.2-22.5-6.2c-13.8,0-24.1,2.2-31,6.6
				C1734.2,2041.9,1729.9,2048.4,1726.6,2057.9z M1799.5,2102.1c-11.6,4.1-23.6,7.8-36.1,10.9c-17.1,4.5-27.9,9-32.4,13.4
				c-4.7,4.5-7,9.7-7,15.5c0,6.6,2.3,12,6.9,16.2c4.6,4.2,11.4,6.3,20.3,6.3c9.4,0,18.1-2.3,26.1-6.8c8.1-4.5,13.8-10.1,17.1-16.6
				c3.4-6.5,5.1-15,5.1-25.5V2102.1z"/>
		</g>
	</g>
	<g>
		<g>
			<linearGradient id="SVGID_15_" gradientUnits="userSpaceOnUse" x1="2499.6978" y1="2433.1189" x2="3780.5396" y2="2017.3485">
				<stop  offset="0" style="stop-color:#B37CFF"/>
				<stop  offset="1" style="stop-color:#F895E7"/>
			</linearGradient>
			<path class="st18" d="M2113.7,2654.7c0,0-165.6,18.9-219.2-38.9c-2.4-2.6,0.3-6,4.7-6h31.5c7.5,0,11.4-6.4,6.2-10.3
				c-16.5-12.4-41.6-34.7-46.8-58.3c-1.4-6.3,7.4-11.2,15.6-8.5c43.5,14.5,165.6,52.4,245.5,50.9L2113.7,2654.7z"/>
			<linearGradient id="SVGID_16_" gradientUnits="userSpaceOnUse" x1="2631.7825" y1="2434.7085" x2="2812.842" y2="3997.197">
				<stop  offset="0" style="stop-color:#CB236D"/>
				<stop  offset="1" style="stop-color:#4C246D"/>
			</linearGradient>
			<path class="st19" d="M2113.7,2716l1059.4,36.1c41,1.4,74.9-31.4,74.9-72.4v-84.4c0-40-32.4-72.4-72.4-72.4H2138
				c-24.3,0-45.9,11-53.7,27.4c-14.8,30.7-33.2,82.8-20.4,134.1C2068.2,2701.8,2088.8,2714.9,2113.7,2716z"/>
			<path class="st20" d="M2878.1,2711.8l242.6,7.9c20.1,0.7,36.9-10.8,36.9-25.1v-117.1c0-13.9-15.8-25.1-35.3-25.1h-242.6
				c-19.5,0-35.3,11.2-35.3,25.1v109.3C2844.4,2700.1,2859.2,2711.1,2878.1,2711.8z"/>
		</g>
		
			<linearGradient id="SVGID_17_" gradientUnits="userSpaceOnUse" x1="92.5364" y1="2976.5503" x2="-302.6037" y2="3669.6643" gradientTransform="matrix(0 -1 1 0 -825.4786 2889.9031)">
			<stop  offset="0" style="stop-color:#CB236D"/>
			<stop  offset="1" style="stop-color:#4C246D"/>
		</linearGradient>
		<path class="st21" d="M2162.8,3246.1l982.5,7c31.1,0.2,56.4-24.9,56.4-56v-217.8c0-31.4-25.9-56.7-57.3-55.9l-960.2,23.4
			c-22.6,0.7-42.2,11.1-49.8,26.2c-20.7,41.2-51.1,130.9-8.4,252.4C2130.2,3237.4,2145.3,3246,2162.8,3246.1z"/>
		<g>
			<linearGradient id="SVGID_18_" gradientUnits="userSpaceOnUse" x1="2654.4858" y1="2569.7402" x2="2643.5391" y2="3292.1934">
				<stop  offset="0" style="stop-color:#A737D5"/>
				<stop  offset="1" style="stop-color:#EF497A"/>
			</linearGradient>
			<path class="st22" d="M2179.8,2949.6l953.9-21.6c35.2-0.8,63.3-29.6,63.3-64.8v-69.2c0-35.4-28.4-64.3-63.8-64.8l-962.1-14
				c-21.7-0.4-41.4,9.5-47.6,24.2c-27,63.9-29.6,127.3,10.7,189.9C2142.3,2942.2,2160.3,2950.2,2179.8,2949.6z"/>
			<path class="st5" d="M2209.1,2931.7l42.5-2.3c12.9-0.7,22.6-8.6,21.8-17.8l-13.1-160.4c-0.7-8.4-10-15.2-21.9-15.8l-29.3-1.6
				c-13.7-0.7-25.5,7-25.5,16.8v164.3C2183.6,2924.7,2195.4,2932.5,2209.1,2931.7z"/>
			<path class="st5" d="M2310.6,2925.1h15.5c12,0,21.5-7.1,21-15.6l-9-153.7c-0.5-8-9.7-14.3-21-14.3h-16.4c-12,0-21.6,7.1-21,15.6
				l10,153.7C2290.1,2918.8,2299.4,2925.1,2310.6,2925.1z"/>
		</g>
		<linearGradient id="SVGID_19_" gradientUnits="userSpaceOnUse" x1="2724.9263" y1="2893.4619" x2="3019.9902" y2="1820.5061">
			<stop  offset="0" style="stop-color:#CB236D"/>
			<stop  offset="1" style="stop-color:#4C246D"/>
		</linearGradient>
		<path class="st23" d="M2555.5,3225.2l217,12c18,1,33-16.4,33-38.2v-178.4c0-21.1-14.1-38.2-31.6-38.2h-217
			c-17.4,0-31.6,17.1-31.6,38.2V3187C2525.4,3207.4,2538.7,3224.2,2555.5,3225.2z"/>
		<linearGradient id="SVGID_20_" gradientUnits="userSpaceOnUse" x1="2906.8806" y1="2943.4998" x2="3201.9441" y2="1870.5449">
			<stop  offset="0" style="stop-color:#CB236D"/>
			<stop  offset="1" style="stop-color:#4C246D"/>
		</linearGradient>
		<rect x="2841.2" y="2935.4" class="st24" width="49.2" height="314.9"/>
	</g>
	<g>
		<g>
			<linearGradient id="SVGID_21_" gradientUnits="userSpaceOnUse" x1="1147.7437" y1="2369.9407" x2="1147.0656" y2="1672.3845">
				<stop  offset="0" style="stop-color:#53D8FF"/>
				<stop  offset="1" style="stop-color:#3840F7"/>
			</linearGradient>
			<path class="st25" d="M1344.1,2542.8c-22.6-15.6-47.7-27.3-74.2-34.5c-10-2.7-63.8,12.9-97,12.2c-45.7-1-92.1-21.8-129.8-12.4
				c-37.4,9.3-68,21.5-85.6,34c-52.9,37.6-83.9,107.7-102.8,177.2c35.8,36.8,80.9,53.1,80.9,53.1l8.3,337.6l199.6,102.1l227.9-114.4
				l-8.2-329.9c0,0,72.4-33.7,77.7-46C1446.3,2709.6,1408,2586.7,1344.1,2542.8z"/>
			
				<linearGradient id="SVGID_22_" gradientUnits="userSpaceOnUse" x1="1144.1716" y1="2648.1157" x2="1523.5521" y2="3564.5415" gradientTransform="matrix(-1 0 0 1 2631.3108 0)">
				<stop  offset="0" style="stop-color:#F9B776"/>
				<stop  offset="1" style="stop-color:#F47960"/>
			</linearGradient>
			<path class="st26" d="M1437.6,2720.4c0,0,97,268.8-124.2,379.3c-45.9-6.1-28.3-82.3-28.3-82.3s96.1-21.3,67.2-245.5
				C1379,2750,1437.6,2720.4,1437.6,2720.4z"/>
			
				<linearGradient id="SVGID_23_" gradientUnits="userSpaceOnUse" x1="-5983.7974" y1="2646.1462" x2="-5604.417" y2="3562.5718" gradientTransform="matrix(1 0 0 1 6798.3853 0)">
				<stop  offset="0" style="stop-color:#F9B776"/>
				<stop  offset="1" style="stop-color:#F47960"/>
			</linearGradient>
			<path class="st27" d="M859.4,2720.4c0,0-66.7,280.6,124.2,379.3c45.9-6.1,28.3-82.3,28.3-82.3s-77.4-38.1-67.2-245.5
				C918,2750,859.4,2720.4,859.4,2720.4z"/>
			
				<linearGradient id="SVGID_24_" gradientUnits="userSpaceOnUse" x1="1481.167" y1="2719.9932" x2="1461.4327" y2="3519.2419" gradientTransform="matrix(-1 0 0 1 2631.3108 0)">
				<stop  offset="0" style="stop-color:#2B3582"/>
				<stop  offset="1" style="stop-color:#150E42"/>
			</linearGradient>
			<path class="st28" d="M944.6,3072.2h421.1c4.6,0,8.3-3.8,8.3-8.3v-279c0-4.6-3.8-8.3-8.3-8.3H944.6c-4.6,0-8.3,3.8-8.3,8.3v279
				C936.3,3068.4,940,3072.2,944.6,3072.2z"/>
			<g>
				<linearGradient id="SVGID_25_" gradientUnits="userSpaceOnUse" x1="960.0861" y1="2726.8862" x2="753.8875" y2="3461.1545">
					<stop  offset="0" style="stop-color:#53D8FF"/>
					<stop  offset="1" style="stop-color:#3840F7"/>
				</linearGradient>
				<path class="st29" d="M744.3,3159.8c50.1-11.5,165.9-5.3,165.9-5.3l4.7,12.8l7.8,63.4c0,0-110.3,19.9-164.6,19.8
					c-5.5,0-10.6-0.8-15.3-2.3c-1.7-1.5-3.3-3-4.8-4.7C714.9,3218.3,721.6,3181.3,744.3,3159.8z"/>
				<linearGradient id="SVGID_26_" gradientUnits="userSpaceOnUse" x1="1210.4296" y1="2417.1492" x2="918.7341" y2="2899.9548">
					<stop  offset="0" style="stop-color:#2B3582"/>
					<stop  offset="1" style="stop-color:#150E42"/>
				</linearGradient>
				<path class="st30" d="M739.3,3161.1c1.6-0.4,3.2-0.9,5-1.3c-22.7,21.5-29.3,58.5-6.3,83.7c1.5,1.7,3.2,3.2,4.8,4.7
					C702,3235.5,697.2,3172.9,739.3,3161.1z"/>
				
					<linearGradient id="SVGID_27_" gradientUnits="userSpaceOnUse" x1="1845.7" y1="2826.9121" x2="1626.8618" y2="3419.6592" gradientTransform="matrix(-1 0 0 1 2631.3108 0)">
					<stop  offset="0" style="stop-color:#F9B776"/>
					<stop  offset="1" style="stop-color:#F47960"/>
				</linearGradient>
				<path class="st31" d="M943.4,3150.9l-19.6,0.8c-10.5,0.4-20.5,5.6-27.5,14.2c-7.1,8.7-10.7,20.1-10.1,31.8
					c0.5,9.3,4.3,18,10.6,24.2c6.3,6.2,14.6,9.3,22.9,8.7l30-2.1L943.4,3150.9z"/>
			</g>
			<g>
				
					<linearGradient id="SVGID_28_" gradientUnits="userSpaceOnUse" x1="-5986.1113" y1="2903.4519" x2="-5982.7588" y2="3299.1047" gradientTransform="matrix(0.9998 -2.000000e-02 2.000000e-02 0.9998 7445.3071 -50.8396)">
					<stop  offset="0" style="stop-color:#53D8FF"/>
					<stop  offset="1" style="stop-color:#3840F7"/>
				</linearGradient>
				<path class="st32" d="M1602.8,3153.7c-50.4-10-166-0.2-166-0.2l-4.4,12.9l-6.2,63.6c0,0,110.7,16.5,165.1,14.8
					c5.5-0.2,10.6-1.2,15.2-2.7c1.6-1.5,3.2-3.1,4.7-4.8C1633.6,3211.3,1626,3174.5,1602.8,3153.7z"/>
				<linearGradient id="SVGID_29_" gradientUnits="userSpaceOnUse" x1="1652.0289" y1="3109.9011" x2="1893.4318" y2="2571.7734">
					<stop  offset="0" style="stop-color:#2B3582"/>
					<stop  offset="1" style="stop-color:#150E42"/>
				</linearGradient>
				<path class="st33" d="M1607.8,3154.8c-1.6-0.4-3.3-0.8-5-1.1c23.2,20.8,30.8,57.6,8.4,83.5c-1.5,1.7-3.1,3.3-4.7,4.8
					C1646.9,3228.1,1650.2,3165.4,1607.8,3154.8z"/>
				
					<linearGradient id="SVGID_30_" gradientUnits="userSpaceOnUse" x1="1407.2535" y1="2648.2871" x2="1188.3002" y2="3241.3462" gradientTransform="matrix(-1 0 0 1 2631.3108 0)">
					<stop  offset="0" style="stop-color:#F9B776"/>
					<stop  offset="1" style="stop-color:#F47960"/>
				</linearGradient>
				<path class="st34" d="M1403.5,3151l19.6,0.2c10.5,0.1,20.6,5,27.9,13.4c7.3,8.4,11.2,19.8,10.9,31.5c-0.3,9.3-3.9,18.1-10,24.5
					c-6.1,6.4-14.3,9.8-22.7,9.4l-30-1.2L1403.5,3151z"/>
			</g>
			
				<linearGradient id="SVGID_31_" gradientUnits="userSpaceOnUse" x1="1938.4559" y1="2815.4705" x2="1369.5565" y2="3242.825" gradientTransform="matrix(-1 0 0 1 2631.3108 0)">
				<stop  offset="0" style="stop-color:#7C27DD"/>
				<stop  offset="1" style="stop-color:#2B41D9"/>
			</linearGradient>
			<path class="st35" d="M730.3,2961.1c22.7-52.3,78.3-60.8,125.6-36.3c0.8,1.1,300.4,154.6,564.5,221.9
				c-7.6,24.2-11.5,50-12.3,75.4c-0.2,5.6-0.1,11.2,0.3,16.7c-202.6-10.4-422.4-78-611.4-137.3
				C738.4,3082.5,705.1,3019,730.3,2961.1z"/>
			
				<linearGradient id="SVGID_32_" gradientUnits="userSpaceOnUse" x1="1423.9971" y1="3198.7659" x2="1274.8964" y2="2818.5596" gradientTransform="matrix(-1 0 0 1 2631.3108 0)">
				<stop  offset="0" style="stop-color:#7C27DD"/>
				<stop  offset="1" style="stop-color:#2B41D9"/>
			</linearGradient>
			<path class="st36" d="M942,3226c0.8-29.2-4.9-56.4-17-81.6c-0.3-1.2-0.8-2.3-1.1-3.4c15.1-4.7,34.6-11,60.2-19.7
				c187.6-64.2,330.7-129,467.3-203.6c53.1-29,113.4-9.6,130.4,53.2c15.2,56-18.1,103.9-68.7,120.7
				c-151.2,50.3-72.5,36.3-121.8,52.2c-132.6,41-297.6,78.4-449.4,88.6C941.8,3230.2,941.9,3228.1,942,3226z"/>
			
				<linearGradient id="SVGID_33_" gradientUnits="userSpaceOnUse" x1="1477.213" y1="2723.7834" x2="1472.1652" y2="2284.5867" gradientTransform="matrix(-1 0 0 1 2631.3108 0)">
				<stop  offset="0" style="stop-color:#F9B776"/>
				<stop  offset="1" style="stop-color:#F47960"/>
			</linearGradient>
			<path class="st37" d="M1270,2508.3c0,0-20.2,87.4-118.1,85.6c-99.8-1.8-108.7-85.9-108.7-85.9l65.2-13.9l5.4-72.6l98,7.3l1.8,69
				L1270,2508.3z"/>
			
				<linearGradient id="SVGID_34_" gradientUnits="userSpaceOnUse" x1="1377.5491" y1="2355.5989" x2="1226.9752" y2="2067.8691" gradientTransform="matrix(-0.9959 9.050000e-02 9.050000e-02 0.9959 2263.0396 -106.3556)">
				<stop  offset="0" style="stop-color:#2B3582"/>
				<stop  offset="1" style="stop-color:#150E42"/>
			</linearGradient>
			<path class="st38" d="M1006.6,2397.1c0,0-50.8-26.9-32.2-67.3c0,0-39.7-26.5-23.5-71.8c0,0-20.2-146.7,139.1-127.9
				c0,0,77.1-81.1,176.4,13.5c0,0,41.5-1.2,53.1,48.9c0,0,99.4,153.2-74.3,182.9L1006.6,2397.1z"/>
			
				<linearGradient id="SVGID_35_" gradientUnits="userSpaceOnUse" x1="1368.8485" y1="2508.9285" x2="1322.0043" y2="2134.1741" gradientTransform="matrix(-0.9959 9.050000e-02 9.050000e-02 0.9959 2263.0396 -106.3556)">
				<stop  offset="0" style="stop-color:#F9B776"/>
				<stop  offset="1" style="stop-color:#F47960"/>
			</linearGradient>
			<path class="st39" d="M995.4,2272.6c0,0-44.3,241.6,109.7,250.3c154,8.7,161.9-153.7,161.9-153.7s28.9-84.4-10.9-120.3
				C1216.3,2213,1015.8,2233.2,995.4,2272.6z"/>
			
				<linearGradient id="SVGID_36_" gradientUnits="userSpaceOnUse" x1="1516.3806" y1="2490.4895" x2="1469.5369" y2="2115.739" gradientTransform="matrix(-0.9959 9.050000e-02 9.050000e-02 0.9959 2263.0396 -106.3556)">
				<stop  offset="0" style="stop-color:#F9B776"/>
				<stop  offset="1" style="stop-color:#F47960"/>
			</linearGradient>
			<path class="st40" d="M998.2,2381c0,0-2.7-27.6-26.1-21.8c-23.4,5.8,26.5,59.1,26.5,59.1L998.2,2381z"/>
			
				<linearGradient id="SVGID_37_" gradientUnits="userSpaceOnUse" x1="1384.4993" y1="2351.9631" x2="1233.9229" y2="2064.2283" gradientTransform="matrix(-0.9959 9.050000e-02 9.050000e-02 0.9959 2263.0396 -106.3556)">
				<stop  offset="0" style="stop-color:#2B3582"/>
				<stop  offset="1" style="stop-color:#150E42"/>
			</linearGradient>
			<path class="st41" d="M1265.2,2332.2c0,0-147,19.4-171.5-61.3c0,0-21.1,12.6-40.2-10.3c0,0-36.3,85.9-71.4,54.2
				c0,0-34.8-103,56.8-107.2c91.6-4.2,176.8-4.8,207.9,8.1C1278,2228.6,1320.7,2275.2,1265.2,2332.2z"/>
			
				<linearGradient id="SVGID_38_" gradientUnits="userSpaceOnUse" x1="1227.995" y1="2526.5322" x2="1181.1506" y2="2151.7769" gradientTransform="matrix(-0.9959 9.050000e-02 9.050000e-02 0.9959 2263.0396 -106.3556)">
				<stop  offset="0" style="stop-color:#F9B776"/>
				<stop  offset="1" style="stop-color:#F47960"/>
			</linearGradient>
			<path class="st42" d="M1258.5,2394.7l-6.5-73.2c0,0,34.5-40.8,44.6-4.1C1306.7,2354.2,1276,2391.5,1258.5,2394.7z"/>
		</g>
		
			<linearGradient id="SVGID_39_" gradientUnits="userSpaceOnUse" x1="1478.9401" y1="2705.4426" x2="1466.1908" y2="3315.5627" gradientTransform="matrix(-1 0 0 1 2631.3108 0)">
			<stop  offset="0" style="stop-color:#53D8FF"/>
			<stop  offset="1" style="stop-color:#3840F7"/>
		</linearGradient>
		<path class="st43" d="M1129.4,2903c-2.3,15.7,6.1,29.9,21.8,32.2c15.7,2.3,30.3-8.5,32.6-24.2c2.3-15.7-4.9-31.3-20.5-33.6
			C1147.5,2875.1,1131.7,2887.3,1129.4,2903z"/>
	</g>
</g>
</svg>
