<svg width="100" height="25" viewBox="0 0 100 25" fill="none" xmlns="http://www.w3.org/2000/svg">
<g clip-path="url(#clip0)">
<path d="M15.7073 15.5265C15.954 15.4607 16.1514 15.4114 16.3323 15.3456L17.7632 18.9476H18.5362L17.0395 15.066C17.9277 14.6219 18.6514 13.9476 19.1777 13.0923C19.704 12.2206 19.9672 11.2173 19.9672 10.0495C19.9672 9.32586 19.8191 8.63507 19.5066 7.96073C19.1941 7.28639 18.7994 6.71073 18.2895 6.21731C17.7797 5.72389 17.1876 5.3456 16.4968 5.04955C15.806 4.7535 15.0823 4.60547 14.3257 4.60547H4.58887V18.9476H5.31255V5.32915H14.3422C15.2139 5.32915 16.0198 5.54297 16.7928 5.9706C17.5494 6.39823 18.1579 6.97389 18.602 7.71402C19.0461 8.43771 19.2764 9.22718 19.2764 10.0495C19.2764 10.9706 19.0461 11.8094 18.602 12.566C18.1579 13.3226 17.5494 13.9147 16.8093 14.3423C16.0527 14.7699 15.2468 14.9838 14.3586 14.9838H10.0001V15.7074H12.1711L13.3882 18.9805H14.1448L12.9441 15.7074H13.5856H14.3257C14.556 15.7074 14.7698 15.691 14.9672 15.6745" fill="#161616"/>
<path d="M14.3258 15.6743L15.5923 18.9473H14.8357L13.5857 15.6743" fill="#70D6FF"/>
<path d="M15.7072 15.5264L17.0559 18.9474H16.2828L14.967 15.6579" fill="#70D6FF"/>
<path d="M10 13.5202H14.3257C15.2796 13.5202 16.102 13.1912 16.7928 12.5498C17.4836 11.8919 17.8125 11.0695 17.8125 10.0333C17.8125 9.16162 17.4671 8.40504 16.7599 7.7307C16.0691 7.07281 15.2467 6.74386 14.3257 6.74386H6.74346V18.9314H6.01978V6.03662H14.3257C15.4606 6.03662 16.431 6.43136 17.2698 7.23728C18.1086 8.0432 18.5198 8.96425 18.5198 10.0333C18.5198 11.234 18.1086 12.2208 17.2862 13.0268C16.4639 13.8327 15.477 14.2274 14.3257 14.2274H10V13.5202Z" fill="#70D6FF"/>
<path d="M10 12.089H14.3257C14.9013 12.089 15.3783 11.9081 15.7731 11.5462C16.1678 11.1844 16.3652 10.691 16.3652 10.0331C16.3652 9.5561 16.1513 9.12847 15.7402 8.75018C15.329 8.37189 14.852 8.17452 14.3092 8.17452H8.17437V18.9311H7.45068V7.46729H14.3257C15.0658 7.46729 15.7073 7.73044 16.2665 8.24031C16.8257 8.75018 17.1053 9.35873 17.1053 10.0331C17.1053 10.8719 16.8421 11.5462 16.2994 12.0561C15.7566 12.5495 15.1152 12.8127 14.3421 12.8127H10V12.089Z" fill="#161616"/>
<path d="M9.60528 18.9475H8.88159V8.91455H14.3257C14.704 8.91455 15.0165 9.02968 15.2796 9.2435C15.5428 9.47376 15.6744 9.73692 15.6744 10.0494C15.6744 10.9376 15.2303 11.3817 14.3421 11.3817H10V10.658H14.3257C14.7369 10.658 14.9507 10.4442 14.9507 10.033C14.9507 9.91784 14.8849 9.81916 14.7697 9.73692C14.6546 9.65468 14.5066 9.60534 14.3421 9.60534H9.60528V18.9475Z" fill="#161616"/>
<path d="M95.5101 11.6777H94.7864V18.9475H95.5101V11.6777Z" fill="black"/>
<path d="M94.0789 11.6777H93.3552V18.9475H94.0789V11.6777Z" fill="#E9FF70"/>
<path d="M92.6316 11.6777H91.908V18.9475H92.6316V11.6777Z" fill="#E9FF70"/>
<path d="M90.4771 16.217C89.6712 16.5953 88.8159 16.7927 87.8949 16.7927C86.9902 16.7927 86.1514 16.5624 85.3784 16.1183C84.6054 15.6742 83.9968 15.0657 83.5528 14.2927C83.1087 13.5196 82.8784 12.6808 82.8784 11.7762C82.8784 10.8716 83.1087 10.0328 83.5528 9.25977C83.9968 8.48674 84.6054 7.87819 85.3784 7.43411C86.1514 6.99003 86.9902 6.75977 87.8949 6.75977C88.6679 6.75977 89.408 6.92424 90.0988 7.26963C90.7896 7.59858 91.3652 8.07556 91.8258 8.65121L91.2501 9.09529C90.8554 8.58542 90.3619 8.19069 89.7698 7.91108C89.1777 7.63148 88.5527 7.48345 87.8949 7.48345C86.7106 7.48345 85.6909 7.91108 84.8521 8.7499C84.0133 9.58871 83.5857 10.6085 83.5857 11.7927C83.5857 12.9769 84.0133 13.9802 84.8521 14.8354C85.6909 15.6742 86.7106 16.1019 87.8949 16.1019C88.8159 16.1019 89.6876 15.8716 90.4771 15.4275" fill="#E9FF70"/>
<path d="M90.4769 17.7301C89.6546 18.0591 88.7829 18.2235 87.8947 18.2235C87.023 18.2235 86.1842 18.0591 85.3783 17.7137C84.5888 17.3683 83.898 16.9077 83.3224 16.3321C82.7467 15.7564 82.2862 15.0656 81.9408 14.2762C81.5954 13.4867 81.4309 12.6479 81.4309 11.7597C81.4309 10.8716 81.5954 10.0492 81.9408 9.24327C82.2862 8.45379 82.7467 7.763 83.3224 7.18735C83.898 6.61169 84.5888 6.15116 85.3783 5.80577C86.1677 5.46037 87.0066 5.2959 87.8947 5.2959C88.898 5.2959 89.8355 5.50971 90.7236 5.93735C91.5954 6.36498 92.3519 6.95708 92.944 7.71366L92.3848 8.15774C91.8421 7.4834 91.1842 6.95708 90.4111 6.57879C89.6217 6.2005 88.7993 6.00314 87.8947 6.00314C87.1217 6.00314 86.3816 6.15116 85.6743 6.46366C84.9671 6.75971 84.3585 7.1709 83.8487 7.68077C83.3388 8.19064 82.9276 8.79919 82.6316 9.50642C82.3355 10.2137 82.171 10.9538 82.171 11.7268C82.171 12.4998 82.3191 13.24 82.6316 13.9472C82.9276 14.6545 83.3388 15.263 83.8487 15.7729C84.3585 16.2827 84.9671 16.6939 85.6743 16.99C86.3816 17.286 87.1217 17.4505 87.8947 17.4505C88.8158 17.4505 89.671 17.2696 90.4605 16.8913" fill="#E9FF70"/>
<path d="M90.477 15.3948V14.6711C89.704 15.1317 88.8323 15.3619 87.8948 15.3619C86.908 15.3619 86.0527 15.0165 85.3619 14.3093C84.6547 13.6021 84.3093 12.7632 84.3093 11.7764C84.3093 10.7896 84.6547 9.93429 85.3619 9.2435C86.0691 8.53626 86.908 8.19087 87.8948 8.19087C88.454 8.19087 88.9803 8.306 89.4737 8.55271C89.9672 8.79942 90.3783 9.12837 90.7073 9.53955L90.1316 9.98363C89.556 9.25995 88.8159 8.91455 87.8948 8.91455C87.1053 8.91455 86.431 9.19416 85.8718 9.75337C85.3126 10.3126 85.033 10.9869 85.033 11.7764C85.033 12.5659 85.3126 13.2402 85.8718 13.7994C86.431 14.3586 87.1053 14.6382 87.8948 14.6382C88.9145 14.6382 89.7698 14.3586 90.477 13.7994V11.6777H91.2007V18.9474C90.1316 19.4244 89.0461 19.6711 87.9112 19.6711C86.8422 19.6711 85.8224 19.4573 84.852 19.0461C83.8816 18.6349 83.0428 18.0593 82.3356 17.3685C81.6284 16.6613 81.0691 15.8224 80.658 14.8521C80.2468 13.8817 80.033 12.8619 80.033 11.7928C80.033 10.7238 80.2468 9.70402 80.658 8.73363C81.0691 7.76324 81.6448 6.92442 82.3356 6.21718C83.0428 5.50995 83.8816 4.95074 84.852 4.53955C85.8224 4.12837 86.8422 3.91455 87.9112 3.91455C89.1283 3.91455 90.2797 4.17771 91.3487 4.70402C92.4178 5.23034 93.3224 5.95402 94.0626 6.87508L93.4869 7.30271C92.8126 6.48034 91.9902 5.82245 91.0198 5.34547C90.0494 4.8685 89.0132 4.62179 87.8948 4.62179C86.9244 4.62179 86.0033 4.81916 85.1152 5.19745C84.227 5.57574 83.4705 6.0856 82.829 6.72705C82.1876 7.3685 81.6777 8.12508 81.2994 9.01324C80.9211 9.90139 80.7237 10.8224 80.7237 11.7928C80.7237 12.7632 80.9211 13.6843 81.2994 14.5724C81.6777 15.4606 82.1876 16.2172 82.829 16.8586C83.4705 17.5001 84.227 18.0099 85.1152 18.3882C86.0033 18.7665 86.9244 18.9639 87.8948 18.9639C88.783 18.9639 89.6547 18.7994 90.477 18.4869V17.7632" fill="black"/>
<path d="M77.0889 15.6417L76.3652 14.4245V4.60547H77.0889V15.6417Z" fill="#70D6FF"/>
<path d="M75.6578 13.1581L74.9341 11.8588V4.60547H75.6578V13.1581Z" fill="black"/>
<path d="M69.3914 4.60547H70.2302L77.796 17.6976V4.60547H78.5197V18.9476H77.6808L69.3914 4.60547Z" fill="black"/>
<path d="M67.7139 4.60547H68.5691L76.8586 18.9476H76.0033L67.7139 4.60547Z" fill="#70D6FF"/>
<path d="M67.2039 10.395L67.9276 11.6944V18.9477H67.2039V10.395Z" fill="black"/>
<path d="M66.0198 4.60547H66.8586L75.1645 18.9476H74.3257L66.0198 4.60547Z" fill="#70D6FF"/>
<path d="M65.7729 7.8125L66.4966 9.12829V18.9474H65.7729V7.8125Z" fill="#70D6FF"/>
<path d="M65.0493 5.83902V18.9476H64.342V4.60547H65.1973L73.4704 18.9476H72.648L65.0493 5.83902Z" fill="black"/>
<path d="M57.5493 11.875C57.5493 11.0197 57.2861 10.3618 56.7598 9.90129C56.2335 9.44076 55.5427 9.2105 54.671 9.2105C53.9473 9.2105 53.3059 9.45721 52.796 9.96708C52.2697 10.4769 52.0066 11.0691 52.0066 11.7763C52.0066 12.171 52.0559 12.5329 52.171 12.8454C52.2697 13.1579 52.4177 13.421 52.5987 13.6348C52.7796 13.8487 52.9934 14.0131 53.2565 14.1447C53.5033 14.2763 53.7664 14.375 54.046 14.4408C54.3256 14.5066 54.6217 14.523 54.9342 14.523C55.6908 14.523 56.3815 14.3421 57.0065 13.9638V14.6875C56.3651 15.0329 55.6743 15.1973 54.9177 15.1973C54.4408 15.1973 53.9967 15.1316 53.569 15C53.1414 14.8684 52.7631 14.671 52.4177 14.4079C52.0723 14.1447 51.7927 13.7829 51.5954 13.3388C51.398 12.8783 51.2993 12.3684 51.2993 11.7763C51.2993 10.8552 51.6283 10.0822 52.2697 9.44076C52.9112 8.79932 53.7171 8.48682 54.6875 8.48682C55.7565 8.48682 56.6282 8.78287 57.2861 9.39142C57.944 9.99997 58.273 10.8223 58.273 11.875V18.9473H57.5493V11.875Z" fill="black"/>
<path d="M59.7039 11.8747V18.9471H58.9802V11.8747C58.9802 10.6247 58.5855 9.62145 57.7796 8.88132C56.9737 8.14119 55.9375 7.7629 54.6875 7.7629C53.5197 7.7629 52.5493 8.15764 51.7599 8.93066C50.9704 9.70369 50.5921 10.6576 50.5921 11.7761C50.5921 12.4504 50.7072 13.059 50.9375 13.6017C51.1677 14.1445 51.4967 14.5721 51.8914 14.9011C52.3026 15.23 52.7467 15.4767 53.2566 15.6412C53.75 15.8057 54.2927 15.8879 54.852 15.8879C55.6085 15.8879 56.3322 15.707 57.0066 15.3616V16.1182C56.2829 16.4142 55.5592 16.5622 54.8355 16.5622C54.1776 16.5622 53.5526 16.4636 52.9605 16.2662C52.3684 16.0688 51.8421 15.7728 51.3816 15.378C50.921 14.9833 50.5428 14.4899 50.2796 13.8649C50 13.2399 49.8684 12.5491 49.8684 11.7761C49.8684 10.4603 50.3289 9.35829 51.25 8.43724C52.171 7.51619 53.3224 7.05566 54.6875 7.05566C55.6414 7.05566 56.4967 7.25303 57.2533 7.63132C58.0099 8.00961 58.602 8.58527 59.046 9.3254C59.4901 10.0655 59.7039 10.9043 59.7039 11.8747Z" fill="#FFD670"/>
<path d="M61.1347 11.8752V18.9475H60.411V11.8752C60.411 10.7732 60.1643 9.80279 59.6545 8.96397C59.161 8.12515 58.4703 7.46726 57.5985 7.02318C56.7268 6.5791 55.7564 6.34884 54.6709 6.34884C53.6347 6.34884 52.6972 6.59555 51.8584 7.08897C51.0031 7.58239 50.3452 8.24029 49.8683 9.06265C49.3913 9.88502 49.1446 10.8061 49.1446 11.7929C49.1446 12.6482 49.2926 13.4212 49.6051 14.112C49.9176 14.8192 50.3452 15.3949 50.8716 15.839C51.3979 16.283 52.0064 16.6449 52.6808 16.8916C53.3551 17.1383 54.0624 17.2699 54.8025 17.2699C55.5591 17.2699 56.2828 17.1219 57.0064 16.8094V17.533C56.2499 17.8127 55.5097 17.9607 54.7696 17.9607C53.6183 17.9607 52.5656 17.6975 51.5952 17.1877C50.6249 16.6778 49.8683 15.9377 49.2926 14.9837C48.717 14.0298 48.4209 12.9771 48.4209 11.7929C48.4209 10.9541 48.5854 10.1646 48.8979 9.40805C49.2268 8.65147 49.6545 7.99358 50.2137 7.45081C50.7564 6.90805 51.4308 6.46397 52.2038 6.13502C52.9768 5.80608 53.7992 5.6416 54.6709 5.6416C55.888 5.6416 56.99 5.90476 57.9604 6.41463C58.9472 6.9245 59.7038 7.66463 60.2795 8.61858C60.8551 9.55608 61.1347 10.658 61.1347 11.8752Z" fill="#FFD670"/>
<path d="M62.5657 11.8749V18.9473H61.8421V11.8749C61.8421 10.5263 61.5296 9.30916 60.8881 8.24008C60.2631 7.171 59.3914 6.34863 58.3059 5.77297C57.2203 5.19732 56.0032 4.90126 54.6546 4.90126C53.3717 4.90126 52.1874 5.21376 51.1184 5.82232C50.0493 6.44732 49.2105 7.26969 48.6019 8.32232C47.9934 9.37495 47.6809 10.5263 47.6809 11.7598C47.6809 12.5822 47.8124 13.3552 48.0756 14.0789C48.3388 14.819 48.7006 15.4605 49.1447 16.0032C49.6052 16.546 50.1315 17.023 50.7236 17.4177C51.3157 17.8125 51.9572 18.125 52.648 18.3223C53.3388 18.5361 54.0296 18.6348 54.7368 18.6348C55.5263 18.6348 56.2664 18.4868 56.9736 18.1907V18.9309C56.2335 19.194 55.4769 19.3256 54.7039 19.3256C53.898 19.3256 53.1249 19.2105 52.3519 18.9802C51.5953 18.75 50.8881 18.421 50.2467 17.9769C49.6052 17.5328 49.0296 17.0065 48.5361 16.4144C48.0427 15.8059 47.6644 15.1151 47.3848 14.3092C47.1052 13.5032 46.9736 12.648 46.9736 11.7598C46.9736 10.7236 47.171 9.75324 47.5493 8.81574C47.944 7.87824 48.4703 7.07232 49.1447 6.39798C49.819 5.72363 50.6414 5.18087 51.5953 4.76969C52.5493 4.37495 53.569 4.16113 54.6546 4.16113C55.7565 4.16113 56.7927 4.34205 57.7631 4.72034C58.7335 5.09863 59.5723 5.6085 60.2796 6.2664C60.9868 6.92429 61.5296 7.74666 61.9407 8.70061C62.3684 9.68745 62.5657 10.7401 62.5657 11.8749Z" fill="black"/>
<path d="M28.1415 12.1215H27.0067C25.6086 12.1215 24.5396 11.8419 23.783 11.2663C23.0264 10.6906 22.6646 9.91758 22.6646 8.91429C22.6646 7.97679 23.1086 7.20377 23.9968 6.59521C24.885 5.97021 26.1185 5.65771 27.7139 5.65771C28.783 5.65771 29.7698 5.80574 30.6909 6.10179C31.6119 6.39785 32.3685 6.80903 32.9935 7.33535L32.4343 7.77943C31.8915 7.33535 31.2007 6.98995 30.3784 6.74324C29.556 6.49653 28.6679 6.3814 27.7139 6.3814C26.3159 6.3814 25.2468 6.62811 24.5067 7.10508C23.7665 7.58206 23.3882 8.19061 23.3882 8.93074C23.3882 9.72022 23.6843 10.3452 24.2929 10.7728C24.9014 11.2005 25.806 11.4143 27.0067 11.4143H28.1086C29.5231 11.4143 30.6086 11.6939 31.3652 12.2696C32.1218 12.8452 32.5001 13.6182 32.5001 14.6215C32.5001 15.559 32.056 16.3321 31.1679 16.9406C30.2797 17.5656 29.0461 17.8781 27.4507 17.8781C26.3817 17.8781 25.3948 17.7301 24.4738 17.434C23.5527 17.138 22.7961 16.7268 22.1711 16.2005L22.7304 15.7564C23.2731 16.2005 23.9639 16.5459 24.7863 16.7926C25.6086 17.0393 26.4968 17.1544 27.4507 17.1544C28.8488 17.1544 29.9179 16.9077 30.658 16.4307C31.3981 15.9538 31.7764 15.3452 31.7764 14.6051C31.7764 13.8156 31.4804 13.1906 30.8718 12.763C30.2632 12.3353 29.3422 12.1215 28.1415 12.1215Z" fill="#FF70A6"/>
<path d="M28.1415 13.5526H27.0067C25.1646 13.5526 23.7336 13.1249 22.7304 12.2861C21.7271 11.4473 21.2336 10.3289 21.2336 8.9144C21.2336 8.27295 21.3817 7.6644 21.6613 7.10519C21.9409 6.54598 22.3521 6.05255 22.8948 5.60848C23.4211 5.18084 24.1119 4.83545 24.9343 4.58874C25.7567 4.34203 26.6942 4.21045 27.6975 4.21045C28.9803 4.21045 30.181 4.40782 31.2994 4.78611C32.4178 5.1644 33.3389 5.72361 34.0955 6.4144L33.5198 6.84203C32.8455 6.23348 31.9902 5.7565 30.9869 5.42755C29.9672 5.09861 28.8817 4.91769 27.7139 4.91769C25.9211 4.91769 24.5067 5.29598 23.4869 6.05255C22.4672 6.80913 21.9573 7.76308 21.9573 8.89795C21.9573 10.0986 22.4014 11.0526 23.2731 11.7598C24.1448 12.467 25.3948 12.8124 27.0231 12.8124H28.1251C30.0823 12.8124 31.0692 13.4045 31.0692 14.5723C31.0692 15.0986 30.7731 15.5427 30.1646 15.8881C29.556 16.2335 28.6678 16.398 27.4672 16.398C26.6284 16.398 25.8389 16.2993 25.1152 16.1019C24.3915 15.9045 23.7994 15.6249 23.3225 15.2631L23.8981 14.819C24.7205 15.3947 25.9211 15.6743 27.4672 15.6743C28.4705 15.6743 29.1942 15.5756 29.6547 15.3618C30.1152 15.148 30.3455 14.8848 30.3455 14.5723C30.3455 14.194 30.181 13.9308 29.8521 13.7664C29.5231 13.6348 28.9475 13.5526 28.1415 13.5526Z" fill="black"/>
<path d="M28.1415 10.6905H27.0066C25.0658 10.6905 24.0954 10.0984 24.0954 8.93064C24.0954 8.40432 24.3915 7.96024 25 7.61485C25.6086 7.26945 26.4967 7.10498 27.6974 7.10498C28.5362 7.10498 29.3257 7.20366 30.0494 7.40103C30.773 7.5984 31.3651 7.87801 31.8421 8.23985L31.2665 8.68393C30.4441 8.10827 29.2434 7.82866 27.6974 7.82866C26.6941 7.82866 25.9704 7.92735 25.5099 8.14116C25.0494 8.35498 24.8191 8.61814 24.8191 8.93064C24.8191 9.30893 24.9836 9.57209 25.3125 9.73656C25.6415 9.90103 26.2007 9.98327 27.023 9.98327H28.1579C30 9.98327 31.4309 10.4109 32.4342 11.2497C33.4375 12.0885 33.9309 13.207 33.9309 14.6214C33.9309 15.2629 33.7829 15.8714 33.5033 16.4306C33.2237 16.9898 32.8125 17.4833 32.2697 17.9273C31.7434 18.355 31.0526 18.7004 30.2303 18.9471C29.4079 19.1938 28.4704 19.3254 27.4671 19.3254C26.1842 19.3254 24.9836 19.128 23.8651 18.7497C22.7467 18.3714 21.8257 17.8122 21.0691 17.1214L21.6447 16.6938C22.3191 17.3023 23.1744 17.7793 24.1776 18.1083C25.1974 18.4372 26.2829 18.6181 27.4507 18.6181C29.2434 18.6181 30.6579 18.2398 31.6776 17.4833C32.6974 16.7267 33.2072 15.7727 33.2072 14.6379C33.2072 13.4372 32.7632 12.4833 31.8915 11.776C31.0033 11.0359 29.7533 10.6905 28.1415 10.6905Z" fill="black"/>
<path d="M40.4936 17.5167V18.2239H45.7897V18.9476H39.7864V4.60547H40.4936V15.362H45.7897V16.0693H40.4936V16.793" fill="black"/>
<path d="M40.4937 16.793H45.7897V17.5167H40.4937" fill="#FF9770"/>
<path d="M39.0792 4.60547H38.3555V18.9476H39.0792V4.60547Z" fill="#FF9770"/>
<path d="M37.6316 4.60547H36.908V18.9476H37.6316V4.60547Z" fill="#FF9770"/>
<path d="M36.2007 4.60547H35.4771V18.9476H36.2007V4.60547Z" fill="black"/>
<path d="M98.1085 23.7336H1.89143C1.11841 23.7336 0.493408 23.1086 0.493408 22.3355V2.02303C0.493408 1.25 1.11841 0.625 1.89143 0.625H98.1085C98.8816 0.625 99.5066 1.25 99.5066 2.02303V22.3355C99.5066 23.0921 98.8816 23.7336 98.1085 23.7336Z" stroke="black" stroke-width="2" stroke-miterlimit="10" stroke-linecap="round" stroke-dasharray="15 15"/>
</g>
<defs>
<clipPath id="clip0">
<rect width="100" height="24.1776" fill="white"/>
</clipPath>
</defs>
</svg>
