<svg width="845" height="75" viewBox="0 0 845 75" fill="none" xmlns="http://www.w3.org/2000/svg">
<path opacity="0.3" d="M50.9625 26.75L48.2437 28.8125C45.525 25.4375 42.025 23.75 37.7437 23.75C34.025 23.75 30.8375 25.0781 28.1812 27.7344C25.5562 30.3594 24.2437 33.5312 24.2437 37.25C24.2437 40.9688 25.5562 44.1562 28.1812 46.8125C30.8375 49.4375 34.025 50.75 37.7437 50.75C39.8375 50.75 41.7906 50.2969 43.6031 49.3906C45.4469 48.4844 47.0094 47.2344 48.2906 45.6406L50.9156 47.8438C49.3531 49.8125 47.4156 51.3594 45.1031 52.4844C42.7906 53.5781 40.3375 54.125 37.7437 54.125C33.0875 54.125 29.1031 52.4844 25.7906 49.2031C22.5094 45.8906 20.8687 41.9062 20.8687 37.25C20.8687 32.5938 22.5094 28.625 25.7906 25.3438C29.1031 22.0312 33.0875 20.375 37.7437 20.375C40.3687 20.375 42.8375 20.9531 45.15 22.1094C47.4625 23.2344 49.4 24.7812 50.9625 26.75ZM56.2125 22.5312L53.5406 24.5938C51.6656 22.2188 49.3375 20.3594 46.5562 19.0156C43.8062 17.6719 40.8687 17 37.7437 17C32.15 17 27.3687 18.9844 23.4 22.9531C19.4625 26.9219 17.4937 31.6875 17.4937 37.25C17.4937 42.8125 19.4625 47.5781 23.4 51.5469C27.3687 55.5156 32.15 57.5 37.7437 57.5C40.8687 57.5 43.8219 56.8281 46.6031 55.4844C49.3844 54.1094 51.7125 52.2344 53.5875 49.8594L56.1656 52.0156C53.9781 54.7656 51.275 56.9375 48.0562 58.5312C44.8375 60.0938 41.4 60.875 37.7437 60.875C33.4625 60.875 29.5094 59.8281 25.8844 57.7344C22.2594 55.6094 19.3844 52.7344 17.2594 49.1094C15.1656 45.4844 14.1187 41.5312 14.1187 37.25C14.1187 32.9688 15.1656 29.0156 17.2594 25.3906C19.3844 21.7656 22.2594 18.9062 25.8844 16.8125C29.5094 14.6875 33.4625 13.625 37.7437 13.625C41.4 13.625 44.8375 14.4219 48.0562 16.0156C51.3062 17.5781 54.025 19.75 56.2125 22.5312ZM61.5094 18.3125L58.8844 20.4219C56.3531 17.2656 53.2437 14.7812 49.5562 12.9688C45.8687 11.1562 41.9312 10.25 37.7437 10.25C34.0875 10.25 30.5875 10.9688 27.2437 12.4062C23.9312 13.8125 21.0562 15.7344 18.6187 18.1719C16.2125 20.5781 14.2906 23.4531 12.8531 26.7969C11.4469 30.1094 10.7437 33.5938 10.7437 37.25C10.7437 40.9062 11.4469 44.4062 12.8531 47.75C14.2906 51.0625 16.2125 53.9375 18.6187 56.375C21.0562 58.7812 23.9312 60.7031 27.2437 62.1406C30.5875 63.5469 34.0875 64.25 37.7437 64.25C41.9312 64.25 45.8687 63.3438 49.5562 61.5312C53.2437 59.7188 56.3531 57.2344 58.8844 54.0781L61.4156 56.2812C58.5719 59.8125 55.0875 62.5938 50.9625 64.625C46.8375 66.625 42.4312 67.625 37.7437 67.625C33.6187 67.625 29.6812 66.8281 25.9312 65.2344C22.1812 63.6094 18.9469 61.4531 16.2281 58.7656C13.5406 56.0469 11.3844 52.8125 9.75937 49.0625C8.16562 45.3125 7.36874 41.375 7.36874 37.25C7.36874 33.125 8.16562 29.1875 9.75937 25.4375C11.3844 21.6875 13.5406 18.4688 16.2281 15.7812C18.9469 13.0625 22.1812 10.9062 25.9312 9.3125C29.6812 7.6875 33.6187 6.875 37.7437 6.875C42.4625 6.875 46.8844 7.89062 51.0094 9.92188C55.1656 11.9531 58.6656 14.75 61.5094 18.3125ZM66.7594 14.0938L64.0406 16.1094C60.8844 12.2031 57.0094 9.125 52.4156 6.875C47.8531 4.625 42.9625 3.5 37.7437 3.5C33.1812 3.5 28.8062 4.39062 24.6187 6.17188C20.4625 7.95312 16.8687 10.3594 13.8375 13.3906C10.8375 16.3906 8.44687 19.9844 6.66562 24.1719C4.88437 28.3281 3.99374 32.6875 3.99374 37.25C3.99374 41.8125 4.88437 46.1875 6.66562 50.375C8.44687 54.5312 10.8375 58.125 13.8375 61.1562C16.8687 64.1562 20.4625 66.5469 24.6187 68.3281C28.8062 70.1094 33.1812 71 37.7437 71C42.9625 71 47.8531 69.875 52.4156 67.625C57.0094 65.375 60.8844 62.2969 64.0406 58.3906L66.7125 60.4531C63.2437 64.7656 58.9781 68.1719 53.9156 70.6719C48.8844 73.1406 43.4937 74.375 37.7437 74.375C32.7125 74.375 27.9 73.3906 23.3062 71.4219C18.7437 69.4531 14.8062 66.8125 11.4937 63.5C8.18124 60.1875 5.54062 56.25 3.57187 51.6875C1.60312 47.0938 0.618744 42.2812 0.618744 37.25C0.618744 32.2188 1.60312 27.4219 3.57187 22.8594C5.54062 18.2656 8.18124 14.3125 11.4937 11C14.8062 7.6875 18.7437 5.04688 23.3062 3.07812C27.9 1.10938 32.7125 0.125 37.7437 0.125C43.4937 0.125 48.9 1.375 53.9625 3.875C59.025 6.34375 63.2906 9.75 66.7594 14.0938ZM100.882 27.7344C98.2575 30.3594 96.945 33.5312 96.945 37.25C96.945 40.9688 98.2575 44.1562 100.882 46.8125C103.539 49.4375 106.726 50.75 110.445 50.75C114.164 50.75 117.336 49.4375 119.961 46.8125C122.617 44.1562 123.945 40.9688 123.945 37.25C123.945 33.5312 122.617 30.3594 119.961 27.7344C117.336 25.0781 114.164 23.75 110.445 23.75C106.726 23.75 103.539 25.0781 100.882 27.7344ZM98.4919 49.2031C95.2106 45.8906 93.57 41.9062 93.57 37.25C93.57 32.5938 95.2106 28.625 98.4919 25.3438C101.804 22.0312 105.789 20.375 110.445 20.375C115.101 20.375 119.07 22.0312 122.351 25.3438C125.664 28.625 127.32 32.5938 127.32 37.25C127.32 41.9062 125.664 45.8906 122.351 49.2031C119.07 52.4844 115.101 54.125 110.445 54.125C105.789 54.125 101.804 52.4844 98.4919 49.2031ZM96.1012 22.9531C92.1637 26.9219 90.195 31.6875 90.195 37.25C90.195 42.8125 92.1637 47.5781 96.1012 51.5469C100.07 55.5156 104.851 57.5 110.445 57.5C116.039 57.5 120.804 55.5156 124.742 51.5469C128.711 47.5781 130.695 42.8125 130.695 37.25C130.695 31.6875 128.711 26.9219 124.742 22.9531C120.804 18.9844 116.039 17 110.445 17C104.851 17 100.07 18.9844 96.1012 22.9531ZM89.9606 49.1094C87.8669 45.4844 86.82 41.5312 86.82 37.25C86.82 32.9688 87.8669 29.0156 89.9606 25.3906C92.0856 21.7656 94.9606 18.9062 98.5856 16.8125C102.211 14.6875 106.164 13.625 110.445 13.625C114.726 13.625 118.679 14.6875 122.304 16.8125C125.929 18.9062 128.789 21.7656 130.882 25.3906C133.007 29.0156 134.07 32.9688 134.07 37.25C134.07 41.5312 133.007 45.4844 130.882 49.1094C128.789 52.7344 125.929 55.6094 122.304 57.7344C118.679 59.8281 114.726 60.875 110.445 60.875C106.164 60.875 102.211 59.8281 98.5856 57.7344C94.9606 55.6094 92.0856 52.7344 89.9606 49.1094ZM85.5544 26.7969C84.1481 30.1094 83.445 33.5938 83.445 37.25C83.445 40.9062 84.1481 44.4062 85.5544 47.75C86.9919 51.0625 88.9137 53.9375 91.32 56.375C93.7575 58.7812 96.6325 60.7031 99.945 62.1406C103.289 63.5469 106.789 64.25 110.445 64.25C114.101 64.25 117.586 63.5469 120.898 62.1406C124.242 60.7031 127.117 58.7812 129.523 56.375C131.961 53.9375 133.882 51.0625 135.289 47.75C136.726 44.4062 137.445 40.9062 137.445 37.25C137.445 33.5938 136.726 30.1094 135.289 26.7969C133.882 23.4531 131.961 20.5781 129.523 18.1719C127.117 15.7344 124.242 13.8125 120.898 12.4062C117.586 10.9688 114.101 10.25 110.445 10.25C106.789 10.25 103.289 10.9688 99.945 12.4062C96.6325 13.8125 93.7575 15.7344 91.32 18.1719C88.9137 20.5781 86.9919 23.4531 85.5544 26.7969ZM82.4606 49.0625C80.8669 45.3125 80.07 41.375 80.07 37.25C80.07 33.125 80.8669 29.1875 82.4606 25.4375C84.0856 21.6875 86.2419 18.4688 88.9294 15.7812C91.6481 13.0625 94.8825 10.9062 98.6325 9.3125C102.382 7.6875 106.32 6.875 110.445 6.875C114.57 6.875 118.507 7.6875 122.257 9.3125C126.007 10.9062 129.226 13.0625 131.914 15.7812C134.632 18.4688 136.789 21.6875 138.382 25.4375C140.007 29.1875 140.82 33.125 140.82 37.25C140.82 41.375 140.007 45.3125 138.382 49.0625C136.789 52.8125 134.632 56.0469 131.914 58.7656C129.226 61.4531 126.007 63.6094 122.257 65.2344C118.507 66.8281 114.57 67.625 110.445 67.625C106.32 67.625 102.382 66.8281 98.6325 65.2344C94.8825 63.6094 91.6481 61.4531 88.9294 58.7656C86.2419 56.0469 84.0856 52.8125 82.4606 49.0625ZM79.3669 24.1719C77.5856 28.3281 76.695 32.6875 76.695 37.25C76.695 41.8125 77.5856 46.1875 79.3669 50.375C81.1481 54.5312 83.5387 58.125 86.5387 61.1562C89.57 64.1562 93.1637 66.5469 97.32 68.3281C101.507 70.1094 105.882 71 110.445 71C115.007 71 119.367 70.1094 123.523 68.3281C127.711 66.5469 131.304 64.1562 134.304 61.1562C137.336 58.125 139.742 54.5312 141.523 50.375C143.304 46.1875 144.195 41.8125 144.195 37.25C144.195 32.6875 143.304 28.3281 141.523 24.1719C139.742 19.9844 137.336 16.3906 134.304 13.3906C131.304 10.3594 127.711 7.95312 123.523 6.17188C119.367 4.39062 115.007 3.5 110.445 3.5C105.882 3.5 101.507 4.39062 97.32 6.17188C93.1637 7.95312 89.57 10.3594 86.5387 13.3906C83.5387 16.3906 81.1481 19.9844 79.3669 24.1719ZM76.2731 51.6875C74.3044 47.0938 73.32 42.2812 73.32 37.25C73.32 32.2188 74.3044 27.4219 76.2731 22.8594C78.2419 18.2656 80.8825 14.3125 84.195 11C87.5075 7.6875 91.445 5.04688 96.0075 3.07812C100.601 1.10938 105.414 0.125 110.445 0.125C115.476 0.125 120.273 1.10938 124.836 3.07812C129.429 5.04688 133.382 7.6875 136.695 11C140.007 14.3125 142.648 18.2656 144.617 22.8594C146.586 27.4219 147.57 32.2188 147.57 37.25C147.57 42.2812 146.586 47.0938 144.617 51.6875C142.648 56.25 140.007 60.1875 136.695 63.5C133.382 66.8125 129.429 69.4531 124.836 71.4219C120.273 73.3906 115.476 74.375 110.445 74.375C105.414 74.375 100.601 73.3906 96.0075 71.4219C91.445 69.4531 87.5075 66.8125 84.195 63.5C80.8825 60.1875 78.2419 56.25 76.2731 51.6875ZM200.209 28.8125V71H196.834V28.8125C196.834 27.9062 196.677 27.1406 196.365 26.5156C196.084 25.8594 195.709 25.3594 195.24 25.0156C194.771 24.6719 194.146 24.4062 193.365 24.2188C192.615 24 191.881 23.875 191.162 23.8438C190.443 23.7812 189.552 23.75 188.49 23.75C187.427 23.75 186.537 23.7812 185.818 23.8438C185.099 23.875 184.349 24 183.568 24.2188C182.818 24.4062 182.209 24.6719 181.74 25.0156C181.271 25.3594 180.881 25.8594 180.568 26.5156C180.287 27.1406 180.146 27.9062 180.146 28.8125V71H176.771V28.8125C176.771 23.1875 180.677 20.375 188.49 20.375C196.302 20.375 200.209 23.1875 200.209 28.8125ZM206.959 28.8125V71H203.584V28.8125C203.584 24.8438 202.177 21.8906 199.365 19.9531C196.584 17.9844 192.959 17 188.49 17C184.021 17 180.381 17.9844 177.568 19.9531C174.787 21.8906 173.396 24.8438 173.396 28.8125V71H170.021V28.8125C170.021 25.5312 170.865 22.7188 172.552 20.375C174.24 18.0312 176.443 16.3281 179.162 15.2656C181.912 14.1719 185.021 13.625 188.49 13.625C191.959 13.625 195.052 14.1719 197.771 15.2656C200.521 16.3281 202.74 18.0312 204.427 20.375C206.115 22.7188 206.959 25.5312 206.959 28.8125ZM213.709 28.8125V71H210.334V28.8125C210.334 25.875 209.756 23.2188 208.599 20.8438C207.474 18.4688 205.912 16.5156 203.912 14.9844C201.912 13.4531 199.599 12.2812 196.974 11.4688C194.349 10.6562 191.521 10.25 188.49 10.25C185.459 10.25 182.631 10.6562 180.006 11.4688C177.381 12.2812 175.068 13.4531 173.068 14.9844C171.068 16.5156 169.49 18.4688 168.334 20.8438C167.209 23.2188 166.646 25.875 166.646 28.8125V71H163.271V28.8125C163.271 25.4062 163.927 22.3125 165.24 19.5312C166.584 16.75 168.396 14.4531 170.677 12.6406C172.959 10.7969 175.631 9.375 178.693 8.375C181.756 7.375 185.021 6.875 188.49 6.875C191.959 6.875 195.224 7.375 198.287 8.375C201.349 9.375 204.021 10.7969 206.302 12.6406C208.584 14.4531 210.381 16.75 211.693 19.5312C213.037 22.3125 213.709 25.4062 213.709 28.8125ZM220.459 71H217.084V28.8125C217.084 25.4062 216.318 22.1406 214.787 19.0156C213.287 15.8906 211.256 13.2031 208.693 10.9531C206.131 8.67188 203.084 6.85938 199.552 5.51562C196.021 4.17188 192.334 3.5 188.49 3.5C183.209 3.5 178.412 4.5 174.099 6.5C169.818 8.46875 166.381 11.4062 163.787 15.3125C161.193 19.1875 159.896 23.6875 159.896 28.8125V71H156.521V28.8125C156.521 24.5 157.365 20.5312 159.052 16.9062C160.74 13.2812 163.021 10.25 165.896 7.8125C168.802 5.375 172.193 3.48438 176.068 2.14062C179.974 0.796875 184.115 0.125 188.49 0.125C196.24 0.125 202.959 2.07812 208.646 5.98438C214.334 2.07812 221.052 0.125 228.802 0.125C233.177 0.125 237.302 0.796875 241.177 2.14062C245.084 3.48438 248.474 5.375 251.349 7.8125C254.256 10.25 256.552 13.2812 258.24 16.9062C259.927 20.5312 260.771 24.5 260.771 28.8125V71H257.396V28.8125C257.396 23.7188 256.099 19.2344 253.506 15.3594C250.912 11.4531 247.459 8.5 243.146 6.5C238.865 4.5 234.084 3.5 228.802 3.5C222.177 3.5 216.396 5.0625 211.459 8.1875C212.177 8.8125 212.974 9.625 213.849 10.625C218.131 8.125 223.115 6.875 228.802 6.875C232.271 6.875 235.537 7.375 238.599 8.375C241.662 9.375 244.334 10.7969 246.615 12.6406C248.896 14.4531 250.693 16.75 252.006 19.5312C253.349 22.3125 254.021 25.4062 254.021 28.8125V71H250.646V28.8125C250.646 25.875 250.068 23.2188 248.912 20.8438C247.787 18.4688 246.224 16.5156 244.224 14.9844C242.224 13.4531 239.912 12.2812 237.287 11.4688C234.662 10.6562 231.834 10.25 228.802 10.25C223.834 10.25 219.537 11.2656 215.912 13.2969C216.474 14.1719 217.037 15.1406 217.599 16.2031C220.662 14.4844 224.396 13.625 228.802 13.625C232.271 13.625 235.365 14.1719 238.084 15.2656C240.834 16.3281 243.052 18.0312 244.74 20.375C246.427 22.7188 247.271 25.5312 247.271 28.8125V71H243.896V28.8125C243.896 24.8438 242.49 21.8906 239.677 19.9531C236.896 17.9844 233.271 17 228.802 17C224.74 17 221.443 17.75 218.912 19.25C219.318 20.4375 219.631 21.5625 219.849 22.625C221.818 21.125 224.802 20.375 228.802 20.375C236.615 20.375 240.521 23.1875 240.521 28.8125V71H237.146V28.8125C237.146 27.9062 236.99 27.1406 236.677 26.5156C236.396 25.8594 236.021 25.3594 235.552 25.0156C235.084 24.6719 234.459 24.4062 233.677 24.2188C232.927 24 232.193 23.875 231.474 23.8438C230.756 23.7812 229.865 23.75 228.802 23.75C227.74 23.75 226.849 23.7812 226.131 23.8438C225.412 23.875 224.662 24 223.881 24.2188C223.131 24.4062 222.521 24.6719 222.052 25.0156C221.584 25.3594 221.193 25.8594 220.881 26.5156C220.599 27.1406 220.459 27.9062 220.459 28.8125V71ZM314.254 28.8125V71H310.879V28.8125C310.879 27.9062 310.723 27.1406 310.41 26.5156C310.129 25.8594 309.754 25.3594 309.285 25.0156C308.816 24.6719 308.191 24.4062 307.41 24.2188C306.66 24 305.926 23.875 305.207 23.8438C304.488 23.7812 303.598 23.75 302.535 23.75C301.473 23.75 300.582 23.7812 299.863 23.8438C299.144 23.875 298.394 24 297.613 24.2188C296.863 24.4062 296.254 24.6719 295.785 25.0156C295.316 25.3594 294.926 25.8594 294.613 26.5156C294.332 27.1406 294.191 27.9062 294.191 28.8125V71H290.816V28.8125C290.816 23.1875 294.723 20.375 302.535 20.375C310.348 20.375 314.254 23.1875 314.254 28.8125ZM321.004 28.8125V71H317.629V28.8125C317.629 24.8438 316.223 21.8906 313.41 19.9531C310.629 17.9844 307.004 17 302.535 17C298.066 17 294.426 17.9844 291.613 19.9531C288.832 21.8906 287.441 24.8438 287.441 28.8125V71H284.066V28.8125C284.066 25.5312 284.91 22.7188 286.598 20.375C288.285 18.0312 290.488 16.3281 293.207 15.2656C295.957 14.1719 299.066 13.625 302.535 13.625C306.004 13.625 309.098 14.1719 311.816 15.2656C314.566 16.3281 316.785 18.0312 318.473 20.375C320.16 22.7188 321.004 25.5312 321.004 28.8125ZM327.754 28.8125V71H324.379V28.8125C324.379 25.875 323.801 23.2188 322.644 20.8438C321.519 18.4688 319.957 16.5156 317.957 14.9844C315.957 13.4531 313.644 12.2812 311.019 11.4688C308.394 10.6562 305.566 10.25 302.535 10.25C299.504 10.25 296.676 10.6562 294.051 11.4688C291.426 12.2812 289.113 13.4531 287.113 14.9844C285.113 16.5156 283.535 18.4688 282.379 20.8438C281.254 23.2188 280.691 25.875 280.691 28.8125V71H277.316V28.8125C277.316 25.4062 277.973 22.3125 279.285 19.5312C280.629 16.75 282.441 14.4531 284.723 12.6406C287.004 10.7969 289.676 9.375 292.738 8.375C295.801 7.375 299.066 6.875 302.535 6.875C306.004 6.875 309.269 7.375 312.332 8.375C315.394 9.375 318.066 10.7969 320.348 12.6406C322.629 14.4531 324.426 16.75 325.738 19.5312C327.082 22.3125 327.754 25.4062 327.754 28.8125ZM334.504 71H331.129V28.8125C331.129 25.4062 330.363 22.1406 328.832 19.0156C327.332 15.8906 325.301 13.2031 322.738 10.9531C320.176 8.67188 317.129 6.85938 313.598 5.51562C310.066 4.17188 306.379 3.5 302.535 3.5C297.254 3.5 292.457 4.5 288.144 6.5C283.863 8.46875 280.426 11.4062 277.832 15.3125C275.238 19.1875 273.941 23.6875 273.941 28.8125V71H270.566V28.8125C270.566 24.5 271.41 20.5312 273.098 16.9062C274.785 13.2812 277.066 10.25 279.941 7.8125C282.848 5.375 286.238 3.48438 290.113 2.14062C294.019 0.796875 298.16 0.125 302.535 0.125C310.285 0.125 317.004 2.07812 322.691 5.98438C328.379 2.07812 335.098 0.125 342.848 0.125C347.223 0.125 351.348 0.796875 355.223 2.14062C359.129 3.48438 362.519 5.375 365.394 7.8125C368.301 10.25 370.598 13.2812 372.285 16.9062C373.973 20.5312 374.816 24.5 374.816 28.8125V71H371.441V28.8125C371.441 23.7188 370.144 19.2344 367.551 15.3594C364.957 11.4531 361.504 8.5 357.191 6.5C352.91 4.5 348.129 3.5 342.848 3.5C336.223 3.5 330.441 5.0625 325.504 8.1875C326.223 8.8125 327.019 9.625 327.894 10.625C332.176 8.125 337.16 6.875 342.848 6.875C346.316 6.875 349.582 7.375 352.644 8.375C355.707 9.375 358.379 10.7969 360.66 12.6406C362.941 14.4531 364.738 16.75 366.051 19.5312C367.394 22.3125 368.066 25.4062 368.066 28.8125V71H364.691V28.8125C364.691 25.875 364.113 23.2188 362.957 20.8438C361.832 18.4688 360.269 16.5156 358.269 14.9844C356.269 13.4531 353.957 12.2812 351.332 11.4688C348.707 10.6562 345.879 10.25 342.848 10.25C337.879 10.25 333.582 11.2656 329.957 13.2969C330.519 14.1719 331.082 15.1406 331.644 16.2031C334.707 14.4844 338.441 13.625 342.848 13.625C346.316 13.625 349.41 14.1719 352.129 15.2656C354.879 16.3281 357.098 18.0312 358.785 20.375C360.473 22.7188 361.316 25.5312 361.316 28.8125V71H357.941V28.8125C357.941 24.8438 356.535 21.8906 353.723 19.9531C350.941 17.9844 347.316 17 342.848 17C338.785 17 335.488 17.75 332.957 19.25C333.363 20.4375 333.676 21.5625 333.894 22.625C335.863 21.125 338.848 20.375 342.848 20.375C350.66 20.375 354.566 23.1875 354.566 28.8125V71H351.191V28.8125C351.191 27.9062 351.035 27.1406 350.723 26.5156C350.441 25.8594 350.066 25.3594 349.598 25.0156C349.129 24.6719 348.504 24.4062 347.723 24.2188C346.973 24 346.238 23.875 345.519 23.8438C344.801 23.7812 343.91 23.75 342.848 23.75C341.785 23.75 340.894 23.7812 340.176 23.8438C339.457 23.875 338.707 24 337.926 24.2188C337.176 24.4062 336.566 24.6719 336.098 25.0156C335.629 25.3594 335.238 25.8594 334.926 26.5156C334.644 27.1406 334.504 27.9062 334.504 28.8125V71ZM429.471 41.0938V3.5H432.846V41.0938C432.846 44.6562 431.471 47.7188 428.721 50.2812C426.002 52.8438 422.721 54.125 418.877 54.125C415.033 54.125 411.736 52.8438 408.986 50.2812C406.267 47.7188 404.908 44.6562 404.908 41.0938V3.5H408.283V41.0938C408.283 43.75 409.314 46.0312 411.377 47.9375C413.471 49.8125 415.971 50.75 418.877 50.75C421.783 50.75 424.267 49.8125 426.33 47.9375C428.424 46.0312 429.471 43.75 429.471 41.0938ZM436.221 41.0938V3.5H439.596V41.0938C439.596 46.5625 437.564 51.2344 433.502 55.1094C429.439 58.9531 424.564 60.875 418.877 60.875C413.189 60.875 408.314 58.9531 404.252 55.1094C400.189 51.2344 398.158 46.5625 398.158 41.0938V3.5H401.533V41.0938C401.533 45.625 403.221 49.5 406.596 52.7188C410.002 55.9062 414.096 57.5 418.877 57.5C423.627 57.5 427.705 55.9062 431.111 52.7188C434.517 49.5 436.221 45.625 436.221 41.0938ZM442.971 41.0938V3.5H446.346V41.0938C446.346 45.875 445.111 50.3125 442.642 54.4062C440.174 58.4688 436.83 61.6875 432.611 64.0625C428.392 66.4375 423.814 67.625 418.877 67.625C413.939 67.625 409.361 66.4375 405.142 64.0625C400.924 61.6875 397.58 58.4688 395.111 54.4062C392.642 50.3125 391.408 45.875 391.408 41.0938V3.5H394.783V41.0938C394.783 45.25 395.861 49.1094 398.017 52.6719C400.174 56.2344 403.096 59.0625 406.783 61.1562C410.502 63.2188 414.533 64.25 418.877 64.25C423.221 64.25 427.236 63.2188 430.924 61.1562C434.642 59.0625 437.58 56.2344 439.736 52.6719C441.892 49.1094 442.971 45.25 442.971 41.0938ZM449.721 41.0938V3.5H453.096V41.0938C453.096 45.5938 452.189 49.9062 450.377 54.0312C448.564 58.125 446.127 61.6562 443.064 64.625C440.002 67.5938 436.361 69.9531 432.142 71.7031C427.924 73.4844 423.502 74.375 418.877 74.375C414.252 74.375 409.83 73.4844 405.611 71.7031C401.392 69.9531 397.752 67.5938 394.689 64.625C391.627 61.6562 389.189 58.125 387.377 54.0312C385.564 49.9062 384.658 45.5938 384.658 41.0938V3.5H388.033V41.0938C388.033 46.4688 389.408 51.4531 392.158 56.0469C394.939 60.6406 398.689 64.2812 403.408 66.9688C408.158 69.6562 413.314 71 418.877 71C424.439 71 429.58 69.6562 434.299 66.9688C439.049 64.2812 442.799 60.6406 445.549 56.0469C448.33 51.4531 449.721 46.4688 449.721 41.0938ZM516.75 43.7656L513.375 37.625V3.5H516.75V43.7656ZM523.5 55.4375L520.125 49.7188V3.5H523.5V55.4375ZM477 30.7344L480.375 36.875V71H477V30.7344ZM470.25 18.5938L473.625 24.7812V71H470.25V18.5938ZM471.422 3.5H475.359L514.453 71H510.516L471.422 3.5ZM479.391 3.5H483.375L522.422 71H518.391L479.391 3.5ZM487.312 3.5H491.25L526.875 65.1406V3.5H530.25V71H526.266L487.312 3.5ZM466.875 9.3125V71H463.5V3.5H467.531L506.484 71H502.594L466.875 9.3125ZM561.233 3.5H564.608V71H561.233V3.5ZM554.483 3.5H557.858V71H554.483V3.5ZM547.733 3.5H551.108V71H547.733V3.5ZM540.983 3.5H544.358V71H540.983V3.5ZM623.902 26.75L621.184 28.8125C618.465 25.4375 614.965 23.75 610.684 23.75C606.965 23.75 603.777 25.0781 601.121 27.7344C598.496 30.3594 597.184 33.5312 597.184 37.25C597.184 40.9688 598.496 44.1562 601.121 46.8125C603.777 49.4375 606.965 50.75 610.684 50.75C612.777 50.75 614.731 50.2969 616.543 49.3906C618.387 48.4844 619.949 47.2344 621.231 45.6406L623.856 47.8438C622.293 49.8125 620.356 51.3594 618.043 52.4844C615.731 53.5781 613.277 54.125 610.684 54.125C606.027 54.125 602.043 52.4844 598.731 49.2031C595.449 45.8906 593.809 41.9062 593.809 37.25C593.809 32.5938 595.449 28.625 598.731 25.3438C602.043 22.0312 606.027 20.375 610.684 20.375C613.309 20.375 615.777 20.9531 618.09 22.1094C620.402 23.2344 622.34 24.7812 623.902 26.75ZM629.152 22.5312L626.481 24.5938C624.606 22.2188 622.277 20.3594 619.496 19.0156C616.746 17.6719 613.809 17 610.684 17C605.09 17 600.309 18.9844 596.34 22.9531C592.402 26.9219 590.434 31.6875 590.434 37.25C590.434 42.8125 592.402 47.5781 596.34 51.5469C600.309 55.5156 605.09 57.5 610.684 57.5C613.809 57.5 616.762 56.8281 619.543 55.4844C622.324 54.1094 624.652 52.2344 626.527 49.8594L629.106 52.0156C626.918 54.7656 624.215 56.9375 620.996 58.5312C617.777 60.0938 614.34 60.875 610.684 60.875C606.402 60.875 602.449 59.8281 598.824 57.7344C595.199 55.6094 592.324 52.7344 590.199 49.1094C588.106 45.4844 587.059 41.5312 587.059 37.25C587.059 32.9688 588.106 29.0156 590.199 25.3906C592.324 21.7656 595.199 18.9062 598.824 16.8125C602.449 14.6875 606.402 13.625 610.684 13.625C614.34 13.625 617.777 14.4219 620.996 16.0156C624.246 17.5781 626.965 19.75 629.152 22.5312ZM634.449 18.3125L631.824 20.4219C629.293 17.2656 626.184 14.7812 622.496 12.9688C618.809 11.1562 614.871 10.25 610.684 10.25C607.027 10.25 603.527 10.9688 600.184 12.4062C596.871 13.8125 593.996 15.7344 591.559 18.1719C589.152 20.5781 587.231 23.4531 585.793 26.7969C584.387 30.1094 583.684 33.5938 583.684 37.25C583.684 40.9062 584.387 44.4062 585.793 47.75C587.231 51.0625 589.152 53.9375 591.559 56.375C593.996 58.7812 596.871 60.7031 600.184 62.1406C603.527 63.5469 607.027 64.25 610.684 64.25C614.871 64.25 618.809 63.3438 622.496 61.5312C626.184 59.7188 629.293 57.2344 631.824 54.0781L634.356 56.2812C631.512 59.8125 628.027 62.5938 623.902 64.625C619.777 66.625 615.371 67.625 610.684 67.625C606.559 67.625 602.621 66.8281 598.871 65.2344C595.121 63.6094 591.887 61.4531 589.168 58.7656C586.481 56.0469 584.324 52.8125 582.699 49.0625C581.106 45.3125 580.309 41.375 580.309 37.25C580.309 33.125 581.106 29.1875 582.699 25.4375C584.324 21.6875 586.481 18.4688 589.168 15.7812C591.887 13.0625 595.121 10.9062 598.871 9.3125C602.621 7.6875 606.559 6.875 610.684 6.875C615.402 6.875 619.824 7.89062 623.949 9.92188C628.106 11.9531 631.606 14.75 634.449 18.3125ZM639.699 14.0938L636.981 16.1094C633.824 12.2031 629.949 9.125 625.356 6.875C620.793 4.625 615.902 3.5 610.684 3.5C606.121 3.5 601.746 4.39062 597.559 6.17188C593.402 7.95312 589.809 10.3594 586.777 13.3906C583.777 16.3906 581.387 19.9844 579.606 24.1719C577.824 28.3281 576.934 32.6875 576.934 37.25C576.934 41.8125 577.824 46.1875 579.606 50.375C581.387 54.5312 583.777 58.125 586.777 61.1562C589.809 64.1562 593.402 66.5469 597.559 68.3281C601.746 70.1094 606.121 71 610.684 71C615.902 71 620.793 69.875 625.356 67.625C629.949 65.375 633.824 62.2969 636.981 58.3906L639.652 60.4531C636.184 64.7656 631.918 68.1719 626.856 70.6719C621.824 73.1406 616.434 74.375 610.684 74.375C605.652 74.375 600.84 73.3906 596.246 71.4219C591.684 69.4531 587.746 66.8125 584.434 63.5C581.121 60.1875 578.481 56.25 576.512 51.6875C574.543 47.0938 573.559 42.2812 573.559 37.25C573.559 32.2188 574.543 27.4219 576.512 22.8594C578.481 18.2656 581.121 14.3125 584.434 11C587.746 7.6875 591.684 5.04688 596.246 3.07812C600.84 1.10938 605.652 0.125 610.684 0.125C616.434 0.125 621.84 1.375 626.902 3.875C631.965 6.34375 636.231 9.75 639.699 14.0938ZM695.948 37.7188C695.948 33.7188 694.713 30.625 692.244 28.4375C689.776 26.25 686.51 25.1562 682.448 25.1562C679.01 25.1562 676.057 26.3438 673.588 28.7188C671.119 31.0938 669.885 33.9375 669.885 37.25C669.885 39.125 670.135 40.8125 670.635 42.3125C671.135 43.7812 671.807 45.0156 672.651 46.0156C673.526 46.9844 674.557 47.7969 675.744 48.4531C676.932 49.0781 678.166 49.5312 679.448 49.8125C680.76 50.0938 682.151 50.2344 683.619 50.2344C687.182 50.2344 690.432 49.3594 693.369 47.6094V50.9844C690.338 52.5781 687.073 53.375 683.573 53.375C681.323 53.375 679.198 53.0781 677.198 52.4844C675.229 51.8594 673.432 50.9375 671.807 49.7188C670.182 48.4688 668.885 46.7812 667.916 44.6562C666.979 42.5 666.51 40.0312 666.51 37.25C666.51 32.9375 668.026 29.2812 671.057 26.2812C674.088 23.2812 677.885 21.7812 682.448 21.7812C687.479 21.7812 691.541 23.2031 694.635 26.0469C697.76 28.8594 699.323 32.75 699.323 37.7188V71H695.948V37.7188ZM706.073 37.7188V71H702.698V37.7188C702.698 31.8125 700.807 27.125 697.026 23.6562C693.244 20.1562 688.385 18.4062 682.448 18.4062C676.948 18.4062 672.354 20.2344 668.666 23.8906C664.979 27.5469 663.135 32 663.135 37.25C663.135 40.4375 663.682 43.2969 664.776 45.8281C665.901 48.3594 667.416 50.3906 669.323 51.9219C671.229 53.4531 673.354 54.625 675.698 55.4375C678.073 56.2188 680.573 56.6094 683.198 56.6094C686.76 56.6094 690.151 55.7812 693.369 54.125V57.6875C689.994 59.0938 686.588 59.7969 683.151 59.7969C680.057 59.7969 677.119 59.3281 674.338 58.3906C671.557 57.4219 669.073 56.0312 666.885 54.2188C664.698 52.375 662.963 50 661.682 47.0938C660.401 44.1562 659.76 40.875 659.76 37.25C659.76 31.0938 661.932 25.8594 666.276 21.5469C670.651 17.2031 676.041 15.0312 682.448 15.0312C686.948 15.0312 690.979 15.9531 694.541 17.7969C698.104 19.6094 700.916 22.25 702.979 25.7188C705.041 29.1875 706.073 33.1875 706.073 37.7188ZM712.823 37.7188V71H709.448V37.7188C709.448 32.5625 708.26 28 705.885 24.0312C703.541 20.0312 700.323 16.9688 696.229 14.8438C692.135 12.7188 687.541 11.6562 682.448 11.6562C677.604 11.6562 673.182 12.8125 669.182 15.125C665.182 17.4062 662.041 20.5 659.76 24.4062C657.51 28.3125 656.385 32.5938 656.385 37.25C656.385 41.25 657.119 44.9062 658.588 48.2188C660.057 51.5 662.026 54.2031 664.494 56.3281C666.994 58.4531 669.823 60.1094 672.979 61.2969C676.166 62.4531 679.494 63.0312 682.963 63.0312C686.494 63.0312 689.963 62.2969 693.369 60.8281V64.25C689.807 65.5938 686.307 66.2656 682.869 66.2656C677.463 66.2656 672.494 65.0469 667.963 62.6094C663.432 60.1719 659.807 56.7188 657.088 52.25C654.369 47.7812 653.01 42.7812 653.01 37.25C653.01 33.3125 653.76 29.5625 655.26 26C656.791 22.4375 658.854 19.3594 661.448 16.7656C664.041 14.1719 667.166 12.1094 670.823 10.5781C674.479 9.04688 678.354 8.28125 682.448 8.28125C688.166 8.28125 693.323 9.5 697.916 11.9375C702.541 14.375 706.182 17.8438 708.838 22.3438C711.494 26.8438 712.823 31.9688 712.823 37.7188ZM719.573 37.7188V71H716.198V37.7188C716.198 31.3438 714.713 25.6562 711.744 20.6562C708.776 15.625 704.729 11.75 699.604 9.03125C694.479 6.28125 688.76 4.90625 682.448 4.90625C676.385 4.90625 670.838 6.35938 665.807 9.26562C660.776 12.1719 656.823 16.1094 653.948 21.0781C651.073 26.0156 649.635 31.4062 649.635 37.25C649.635 41.0938 650.244 44.75 651.463 48.2188C652.713 51.6562 654.401 54.6719 656.526 57.2656C658.682 59.8281 661.151 62.0469 663.932 63.9219C666.744 65.7969 669.76 67.2188 672.979 68.1875C676.229 69.1562 679.526 69.6406 682.869 69.6406C686.557 69.6406 690.057 68.9375 693.369 67.5312V71C689.901 72.2188 686.338 72.8281 682.682 72.8281C678.901 72.8281 675.213 72.2969 671.619 71.2344C668.057 70.1719 664.744 68.6094 661.682 66.5469C658.651 64.4531 655.979 62 653.666 59.1875C651.354 56.3438 649.541 53.0312 648.229 49.25C646.916 45.4688 646.26 41.4688 646.26 37.25C646.26 32.4062 647.166 27.7969 648.979 23.4219C650.823 19.0156 653.323 15.2188 656.479 12.0312C659.666 8.8125 663.51 6.26562 668.01 4.39062C672.541 2.48438 677.354 1.53125 682.448 1.53125C687.635 1.53125 692.51 2.40625 697.073 4.15625C701.635 5.90625 705.573 8.34375 708.885 11.4688C712.198 14.5625 714.807 18.375 716.713 22.9062C718.619 27.4375 719.573 32.375 719.573 37.7188ZM741.789 22.2031H745.164V71H741.789V22.2031ZM728.289 6.875V3.5H778.914V6.875H728.289ZM728.289 13.625V10.25H778.914V13.625H728.289ZM728.289 20.375V17H778.914V20.375H728.289ZM762.039 22.2031H765.414V71H762.039V22.2031ZM755.289 22.2031H758.664V71H755.289V22.2031ZM748.539 22.2031H751.914V71H748.539V22.2031ZM805.162 71H801.787V3.5H805.162V71ZM798.412 71H795.037V3.5H798.412V71ZM791.662 71H788.287V3.5H791.662V71ZM811.912 54.125H844.209V57.5H811.912V60.875H844.209V64.25H811.912V67.625H844.209V71H808.537V3.5H844.209V6.875H811.912V10.25H844.209V13.625H811.912V17H844.209V20.375H811.912V28.7656H842.334V32.1406H811.912V35.5156H842.334V38.8906H811.912V42.2656H842.334V45.6406H811.912V54.125Z" fill="#70D6FF"/>
</svg>
