<svg width="457" height="75" viewBox="0 0 457 75" fill="none" xmlns="http://www.w3.org/2000/svg">
<path opacity="0.3" d="M17.5681 71H14.1931V3.5H17.5681V71ZM10.8181 71H7.44313V3.5H10.8181V71ZM4.06813 71H0.69313V3.5H4.06813V71ZM24.3181 54.125H56.615V57.5H24.3181V60.875H56.615V64.25H24.3181V67.625H56.615V71H20.9431V3.5H56.615V6.875H24.3181V10.25H56.615V13.625H24.3181V17H56.615V20.375H24.3181V28.7656H54.74V32.1406H24.3181V35.5156H54.74V38.8906H24.3181V42.2656H54.74V45.6406H24.3181V54.125ZM119.894 43.7656L116.519 37.625V3.5H119.894V43.7656ZM126.644 55.4375L123.269 49.7188V3.5H126.644V55.4375ZM80.1444 30.7344L83.5194 36.875V71H80.1444V30.7344ZM73.3944 18.5938L76.7694 24.7812V71H73.3944V18.5938ZM74.5663 3.5H78.5038L117.598 71H113.66L74.5663 3.5ZM82.535 3.5H86.5194L125.566 71H121.535L82.535 3.5ZM90.4569 3.5H94.3944L130.019 65.1406V3.5H133.394V71H129.41L90.4569 3.5ZM70.0194 9.3125V71H66.6444V3.5H70.6756L109.629 71H105.738L70.0194 9.3125ZM191.611 36.7812H194.986V71C189.986 73.25 184.814 74.375 179.471 74.375C174.439 74.375 169.627 73.3906 165.033 71.4219C160.471 69.4531 156.533 66.8125 153.221 63.5C149.908 60.1875 147.268 56.25 145.299 51.6875C143.33 47.0938 142.346 42.2812 142.346 37.25C142.346 32.2188 143.33 27.4219 145.299 22.8594C147.268 18.2656 149.908 14.3125 153.221 11C156.533 7.6875 160.471 5.04688 165.033 3.07812C169.627 1.10938 174.439 0.125 179.471 0.125C185.221 0.125 190.627 1.375 195.689 3.875C200.752 6.34375 205.018 9.75 208.486 14.0938L205.768 16.1094C202.611 12.2031 198.736 9.125 194.143 6.875C189.58 4.625 184.689 3.5 179.471 3.5C174.908 3.5 170.533 4.39062 166.346 6.17188C162.189 7.95312 158.596 10.3594 155.564 13.3906C152.564 16.3906 150.174 19.9844 148.393 24.1719C146.611 28.3281 145.721 32.6875 145.721 37.25C145.721 41.8125 146.611 46.1875 148.393 50.375C150.174 54.5312 152.564 58.125 155.564 61.1562C158.596 64.1562 162.189 66.5469 166.346 68.3281C170.533 70.1094 174.908 71 179.471 71C183.689 71 187.736 70.25 191.611 68.75V65.2812C187.705 66.8438 183.658 67.625 179.471 67.625C175.346 67.625 171.408 66.8281 167.658 65.2344C163.908 63.6094 160.674 61.4531 157.955 58.7656C155.268 56.0469 153.111 52.8125 151.486 49.0625C149.893 45.3125 149.096 41.375 149.096 37.25C149.096 33.125 149.893 29.1875 151.486 25.4375C153.111 21.6875 155.268 18.4688 157.955 15.7812C160.674 13.0625 163.908 10.9062 167.658 9.3125C171.408 7.6875 175.346 6.875 179.471 6.875C184.189 6.875 188.611 7.89062 192.736 9.92188C196.893 11.9531 200.393 14.75 203.236 18.3125L200.611 20.4219C198.08 17.2656 194.971 14.7812 191.283 12.9688C187.596 11.1562 183.658 10.25 179.471 10.25C175.814 10.25 172.314 10.9688 168.971 12.4062C165.658 13.8125 162.783 15.7344 160.346 18.1719C157.939 20.5781 156.018 23.4531 154.58 26.7969C153.174 30.1094 152.471 33.5938 152.471 37.25C152.471 40.9062 153.174 44.4062 154.58 47.75C156.018 51.0625 157.939 53.9375 160.346 56.375C162.783 58.7812 165.658 60.7031 168.971 62.1406C172.314 63.5469 175.814 64.25 179.471 64.25C183.783 64.25 187.83 63.375 191.611 61.625V58.1562C187.83 59.9688 183.783 60.875 179.471 60.875C175.189 60.875 171.236 59.8281 167.611 57.7344C163.986 55.6094 161.111 52.7344 158.986 49.1094C156.893 45.4844 155.846 41.5312 155.846 37.25C155.846 32.9688 156.893 29.0156 158.986 25.3906C161.111 21.7656 163.986 18.9062 167.611 16.8125C171.236 14.6875 175.189 13.625 179.471 13.625C183.127 13.625 186.564 14.4219 189.783 16.0156C193.033 17.5781 195.752 19.75 197.939 22.5312L195.268 24.5938C193.393 22.2188 191.064 20.3594 188.283 19.0156C185.533 17.6719 182.596 17 179.471 17C173.877 17 169.096 18.9844 165.127 22.9531C161.189 26.9219 159.221 31.6875 159.221 37.25C159.221 42.8125 161.189 47.5781 165.127 51.5469C169.096 55.5156 173.877 57.5 179.471 57.5C183.846 57.5 187.893 56.4375 191.611 54.3125V50.8906C187.955 53.0469 183.908 54.125 179.471 54.125C174.814 54.125 170.83 52.4844 167.518 49.2031C164.236 45.8906 162.596 41.9062 162.596 37.25C162.596 32.5938 164.236 28.625 167.518 25.3438C170.83 22.0312 174.814 20.375 179.471 20.375C182.096 20.375 184.564 20.9531 186.877 22.1094C189.189 23.2344 191.127 24.7812 192.689 26.75L189.971 28.8125C187.252 25.4375 183.752 23.75 179.471 23.75C175.752 23.75 172.564 25.0781 169.908 27.7344C167.283 30.3594 165.971 33.5312 165.971 37.25C165.971 40.9688 167.283 44.1562 169.908 46.8125C172.564 49.4375 175.752 50.75 179.471 50.75C184.252 50.75 188.299 49.4219 191.611 46.7656V36.7812ZM211.861 36.7812H215.236V71H211.861V36.7812ZM205.111 36.7812H208.486V71H205.111V36.7812ZM198.361 36.7812H201.736V71H198.361V36.7812ZM225.453 3.5H228.828V71H225.453V3.5ZM245.703 3.5H249.078V54.125H273.969V57.5H249.078V60.875H273.969V64.25H249.078V67.625H273.969V71H245.703V3.5ZM238.953 3.5H242.328V71H238.953V3.5ZM232.203 3.5H235.578V71H232.203V3.5ZM303.592 3.5H306.967V71H303.592V3.5ZM296.842 3.5H300.217V71H296.842V3.5ZM290.092 3.5H293.467V71H290.092V3.5ZM283.342 3.5H286.717V71H283.342V3.5ZM348.731 38.8906H343.387C336.824 38.8906 331.778 37.5625 328.246 34.9062C324.715 32.2188 322.949 28.5312 322.949 23.8438C322.949 19.4688 325.028 15.8281 329.184 12.9219C333.34 9.98438 339.168 8.51562 346.668 8.51562C351.668 8.51562 356.324 9.20312 360.637 10.5781C364.981 11.9531 368.59 13.8906 371.465 16.3906L368.84 18.5C366.278 16.4062 363.059 14.7812 359.184 13.625C355.309 12.4688 351.137 11.8906 346.668 11.8906C340.074 11.8906 335.028 13.0156 331.528 15.2656C328.059 17.5156 326.324 20.375 326.324 23.8438C326.324 27.5938 327.746 30.4844 330.59 32.5156C333.465 34.5156 337.731 35.5156 343.387 35.5156H348.543C355.199 35.5156 360.293 36.8594 363.824 39.5469C367.387 42.2031 369.168 45.875 369.168 50.5625C369.168 54.9375 367.09 58.5938 362.934 61.5312C358.778 64.4375 352.949 65.8906 345.449 65.8906C340.449 65.8906 335.778 65.2031 331.434 63.8281C327.121 62.4531 323.528 60.5156 320.653 58.0156L323.278 55.9062C325.84 58 329.059 59.625 332.934 60.7812C336.809 61.9375 340.981 62.5156 345.449 62.5156C352.043 62.5156 357.074 61.3906 360.543 59.1406C364.043 56.8906 365.793 54.0312 365.793 50.5625C365.793 46.8125 364.356 43.9375 361.481 41.9375C358.637 39.9062 354.387 38.8906 348.731 38.8906ZM348.731 45.6406H343.387C334.699 45.6406 327.996 43.6719 323.278 39.7344C318.559 35.7656 316.199 30.4688 316.199 23.8438C316.199 20.8125 316.871 17.9688 318.215 15.3125C319.559 12.6562 321.481 10.3281 323.981 8.32812C326.512 6.29688 329.731 4.70312 333.637 3.54688C337.543 2.35938 341.887 1.76562 346.668 1.76562C352.699 1.76562 358.34 2.6875 363.59 4.53125C368.84 6.34375 373.215 8.89062 376.715 12.1719L373.996 14.1875C370.809 11.3125 366.824 9.09375 362.043 7.53125C357.262 5.9375 352.137 5.14062 346.668 5.14062C338.231 5.14062 331.606 6.92188 326.793 10.4844C321.981 14.0469 319.574 18.5 319.574 23.8438C319.574 29.5 321.637 33.9844 325.762 37.2969C329.887 40.6094 335.762 42.2656 343.387 42.2656H348.543C357.793 42.2656 362.418 45.0312 362.418 50.5625C362.418 53.0625 360.996 55.125 358.153 56.75C355.34 58.3438 351.106 59.1406 345.449 59.1406C341.481 59.1406 337.793 58.6875 334.387 57.7812C330.981 56.8438 328.168 55.5156 325.949 53.7969L328.621 51.7344C332.528 54.4219 338.137 55.7656 345.449 55.7656C350.137 55.7656 353.574 55.2812 355.762 54.3125C357.949 53.3438 359.043 52.0938 359.043 50.5625C359.043 48.7812 358.278 47.5156 356.746 46.7656C355.215 46.0156 352.543 45.6406 348.731 45.6406ZM348.731 32.1406H343.387C334.262 32.1406 329.699 29.375 329.699 23.8438C329.699 21.3438 331.106 19.2969 333.918 17.7031C336.762 16.0781 341.012 15.2656 346.668 15.2656C350.637 15.2656 354.324 15.7344 357.731 16.6719C361.137 17.5781 363.949 18.8906 366.168 20.6094L363.496 22.6719C359.59 19.9844 353.981 18.6406 346.668 18.6406C341.981 18.6406 338.543 19.125 336.356 20.0938C334.168 21.0625 333.074 22.3125 333.074 23.8438C333.074 25.625 333.84 26.8906 335.371 27.6406C336.903 28.3906 339.574 28.7656 343.387 28.7656H348.731C357.418 28.7656 364.121 30.75 368.84 34.7188C373.559 38.6562 375.918 43.9375 375.918 50.5625C375.918 53.5938 375.246 56.4375 373.903 59.0938C372.559 61.75 370.621 64.0938 368.09 66.125C365.59 68.125 362.387 69.7188 358.481 70.9062C354.574 72.0625 350.231 72.6406 345.449 72.6406C339.418 72.6406 333.778 71.7344 328.528 69.9219C323.278 68.0781 318.903 65.5156 315.403 62.2344L318.121 60.2188C321.309 63.0938 325.293 65.3281 330.074 66.9219C334.856 68.4844 339.981 69.2656 345.449 69.2656C353.887 69.2656 360.512 67.4844 365.324 63.9219C370.137 60.3594 372.543 55.9062 372.543 50.5625C372.543 44.9062 370.481 40.4219 366.356 37.1094C362.231 33.7969 356.356 32.1406 348.731 32.1406ZM452.791 3.5H456.166V71H452.791V3.5ZM385.244 3.5H388.619V71H385.244V3.5ZM446.041 3.5H449.416V71H446.041V3.5ZM439.291 3.5H442.666V71H439.291V3.5ZM432.541 3.5H435.916V71H432.541V44H408.869V71H405.494V3.5H408.869V27.125H432.541V3.5ZM398.744 3.5H402.119V71H398.744V3.5ZM391.994 3.5H395.369V71H391.994V3.5ZM432.541 40.625V37.25H408.869V40.625H432.541ZM432.541 33.875V30.5H408.869V33.875H432.541Z" fill="#70D6FF"/>
</svg>
