<svg width="534" height="74" viewBox="0 0 534 74" fill="none" xmlns="http://www.w3.org/2000/svg">
<path opacity="0.3" d="M68.0456 2.5H71.4206V70H68.0456V2.5ZM0.498749 2.5H3.87375V70H0.498749V2.5ZM61.2956 2.5H64.6706V70H61.2956V2.5ZM54.5456 2.5H57.9206V70H54.5456V2.5ZM47.7956 2.5H51.1706V70H47.7956V43H24.1237V70H20.7487V2.5H24.1237V26.125H47.7956V2.5ZM13.9987 2.5H17.3737V70H13.9987V2.5ZM7.24875 2.5H10.6237V70H7.24875V2.5ZM47.7956 39.625V36.25H24.1237V39.625H47.7956ZM47.7956 32.875V29.5H24.1237V32.875H47.7956ZM130.106 36.7188C130.106 32.7188 128.872 29.625 126.403 27.4375C123.934 25.25 120.669 24.1562 116.606 24.1562C113.169 24.1562 110.216 25.3438 107.747 27.7188C105.278 30.0938 104.044 32.9375 104.044 36.25C104.044 38.125 104.294 39.8125 104.794 41.3125C105.294 42.7812 105.966 44.0156 106.809 45.0156C107.684 45.9844 108.716 46.7969 109.903 47.4531C111.091 48.0781 112.325 48.5312 113.606 48.8125C114.919 49.0938 116.309 49.2344 117.778 49.2344C121.341 49.2344 124.591 48.3594 127.528 46.6094V49.9844C124.497 51.5781 121.231 52.375 117.731 52.375C115.481 52.375 113.356 52.0781 111.356 51.4844C109.387 50.8594 107.591 49.9375 105.966 48.7188C104.341 47.4688 103.044 45.7812 102.075 43.6562C101.137 41.5 100.669 39.0312 100.669 36.25C100.669 31.9375 102.184 28.2812 105.216 25.2812C108.247 22.2812 112.044 20.7812 116.606 20.7812C121.637 20.7812 125.7 22.2031 128.794 25.0469C131.919 27.8594 133.481 31.75 133.481 36.7188V70H130.106V36.7188ZM140.231 36.7188V70H136.856V36.7188C136.856 30.8125 134.966 26.125 131.184 22.6562C127.403 19.1562 122.544 17.4062 116.606 17.4062C111.106 17.4062 106.512 19.2344 102.825 22.8906C99.1375 26.5469 97.2937 31 97.2937 36.25C97.2937 39.4375 97.8406 42.2969 98.9344 44.8281C100.059 47.3594 101.575 49.3906 103.481 50.9219C105.387 52.4531 107.512 53.625 109.856 54.4375C112.231 55.2188 114.731 55.6094 117.356 55.6094C120.919 55.6094 124.309 54.7812 127.528 53.125V56.6875C124.153 58.0938 120.747 58.7969 117.309 58.7969C114.216 58.7969 111.278 58.3281 108.497 57.3906C105.716 56.4219 103.231 55.0312 101.044 53.2188C98.8562 51.375 97.1219 49 95.8406 46.0938C94.5594 43.1562 93.9187 39.875 93.9187 36.25C93.9187 30.0938 96.0906 24.8594 100.434 20.5469C104.809 16.2031 110.2 14.0312 116.606 14.0312C121.106 14.0312 125.137 14.9531 128.7 16.7969C132.262 18.6094 135.075 21.25 137.137 24.7188C139.2 28.1875 140.231 32.1875 140.231 36.7188ZM146.981 36.7188V70H143.606V36.7188C143.606 31.5625 142.419 27 140.044 23.0312C137.7 19.0312 134.481 15.9688 130.387 13.8438C126.294 11.7188 121.7 10.6562 116.606 10.6562C111.762 10.6562 107.341 11.8125 103.341 14.125C99.3406 16.4062 96.2 19.5 93.9187 23.4062C91.6687 27.3125 90.5437 31.5938 90.5437 36.25C90.5437 40.25 91.2781 43.9062 92.7469 47.2188C94.2156 50.5 96.1844 53.2031 98.6531 55.3281C101.153 57.4531 103.981 59.1094 107.137 60.2969C110.325 61.4531 113.653 62.0312 117.122 62.0312C120.653 62.0312 124.122 61.2969 127.528 59.8281V63.25C123.966 64.5938 120.466 65.2656 117.028 65.2656C111.622 65.2656 106.653 64.0469 102.122 61.6094C97.5906 59.1719 93.9656 55.7188 91.2469 51.25C88.5281 46.7812 87.1687 41.7812 87.1687 36.25C87.1687 32.3125 87.9187 28.5625 89.4187 25C90.95 21.4375 93.0125 18.3594 95.6062 15.7656C98.2 13.1719 101.325 11.1094 104.981 9.57812C108.637 8.04688 112.512 7.28125 116.606 7.28125C122.325 7.28125 127.481 8.5 132.075 10.9375C136.7 13.375 140.341 16.8438 142.997 21.3438C145.653 25.8438 146.981 30.9688 146.981 36.7188ZM153.731 36.7188V70H150.356V36.7188C150.356 30.3438 148.872 24.6562 145.903 19.6562C142.934 14.625 138.887 10.75 133.762 8.03125C128.637 5.28125 122.919 3.90625 116.606 3.90625C110.544 3.90625 104.997 5.35938 99.9656 8.26562C94.9344 11.1719 90.9812 15.1094 88.1062 20.0781C85.2312 25.0156 83.7937 30.4062 83.7937 36.25C83.7937 40.0938 84.4031 43.75 85.6219 47.2188C86.8719 50.6562 88.5594 53.6719 90.6844 56.2656C92.8406 58.8281 95.3094 61.0469 98.0906 62.9219C100.903 64.7969 103.919 66.2188 107.137 67.1875C110.387 68.1562 113.684 68.6406 117.028 68.6406C120.716 68.6406 124.216 67.9375 127.528 66.5312V70C124.059 71.2188 120.497 71.8281 116.841 71.8281C113.059 71.8281 109.372 71.2969 105.778 70.2344C102.216 69.1719 98.9031 67.6094 95.8406 65.5469C92.8094 63.4531 90.1375 61 87.825 58.1875C85.5125 55.3438 83.7 52.0312 82.3875 48.25C81.075 44.4688 80.4187 40.4688 80.4187 36.25C80.4187 31.4062 81.325 26.7969 83.1375 22.4219C84.9812 18.0156 87.4812 14.2188 90.6375 11.0312C93.825 7.8125 97.6687 5.26562 102.169 3.39062C106.7 1.48438 111.512 0.53125 116.606 0.53125C121.794 0.53125 126.669 1.40625 131.231 3.15625C135.794 4.90625 139.731 7.34375 143.044 10.4688C146.356 13.5625 148.966 17.375 150.872 21.9062C152.778 26.4375 153.731 31.375 153.731 36.7188ZM161.323 2.5H164.979L189.87 65.4531L214.761 2.5H218.37L191.698 70H188.042L161.323 2.5ZM168.589 2.5H172.198L192.214 53.125L190.292 57.4375L168.589 2.5ZM175.854 2.5H179.511L195.823 43.8906L194.042 48.5312L175.854 2.5ZM183.12 2.5H186.729L199.386 34.5156L197.604 39.25L183.12 2.5ZM236.511 2.5H240.167L213.448 70H209.839L236.511 2.5ZM229.292 2.5H232.901L206.182 70H202.573L229.292 2.5ZM221.979 2.5H225.636L198.917 70H195.307L221.979 2.5ZM264.915 70H261.54V2.5H264.915V70ZM258.165 70H254.79V2.5H258.165V70ZM251.415 70H248.04V2.5H251.415V70ZM271.665 53.125H303.962V56.5H271.665V59.875H303.962V63.25H271.665V66.625H303.962V70H268.29V2.5H303.962V5.875H271.665V9.25H303.962V12.625H271.665V16H303.962V19.375H271.665V27.7656H302.087V31.1406H271.665V34.5156H302.087V37.8906H271.665V41.2656H302.087V44.6406H271.665V53.125ZM349.943 70H346.568V2.5H378.771V5.875H349.943V9.25H378.771V12.625H349.943V16H378.771V19.375H349.943V29.6875H376.521V33.0625H349.943V36.4375H376.521V39.8125H349.943V43.1875H376.521V46.5625H349.943V70ZM343.193 70H339.818V2.5H343.193V70ZM336.443 70H333.068V2.5H336.443V70ZM329.693 70H326.318V2.5H329.693V70ZM432.628 40.0938V2.5H436.003V40.0938C436.003 43.6562 434.628 46.7188 431.878 49.2812C429.159 51.8438 425.878 53.125 422.034 53.125C418.191 53.125 414.894 51.8438 412.144 49.2812C409.425 46.7188 408.066 43.6562 408.066 40.0938V2.5H411.441V40.0938C411.441 42.75 412.472 45.0312 414.534 46.9375C416.628 48.8125 419.128 49.75 422.034 49.75C424.941 49.75 427.425 48.8125 429.487 46.9375C431.581 45.0312 432.628 42.75 432.628 40.0938ZM439.378 40.0938V2.5H442.753V40.0938C442.753 45.5625 440.722 50.2344 436.659 54.1094C432.597 57.9531 427.722 59.875 422.034 59.875C416.347 59.875 411.472 57.9531 407.409 54.1094C403.347 50.2344 401.316 45.5625 401.316 40.0938V2.5H404.691V40.0938C404.691 44.625 406.378 48.5 409.753 51.7188C413.159 54.9062 417.253 56.5 422.034 56.5C426.784 56.5 430.862 54.9062 434.269 51.7188C437.675 48.5 439.378 44.625 439.378 40.0938ZM446.128 40.0938V2.5H449.503V40.0938C449.503 44.875 448.269 49.3125 445.8 53.4062C443.331 57.4688 439.987 60.6875 435.769 63.0625C431.55 65.4375 426.972 66.625 422.034 66.625C417.097 66.625 412.519 65.4375 408.3 63.0625C404.081 60.6875 400.737 57.4688 398.269 53.4062C395.8 49.3125 394.566 44.875 394.566 40.0938V2.5H397.941V40.0938C397.941 44.25 399.019 48.1094 401.175 51.6719C403.331 55.2344 406.253 58.0625 409.941 60.1562C413.659 62.2188 417.691 63.25 422.034 63.25C426.378 63.25 430.394 62.2188 434.081 60.1562C437.8 58.0625 440.737 55.2344 442.894 51.6719C445.05 48.1094 446.128 44.25 446.128 40.0938ZM452.878 40.0938V2.5H456.253V40.0938C456.253 44.5938 455.347 48.9062 453.534 53.0312C451.722 57.125 449.284 60.6562 446.222 63.625C443.159 66.5938 439.519 68.9531 435.3 70.7031C431.081 72.4844 426.659 73.375 422.034 73.375C417.409 73.375 412.987 72.4844 408.769 70.7031C404.55 68.9531 400.909 66.5938 397.847 63.625C394.784 60.6562 392.347 57.125 390.534 53.0312C388.722 48.9062 387.816 44.5938 387.816 40.0938V2.5H391.191V40.0938C391.191 45.4688 392.566 50.4531 395.316 55.0469C398.097 59.6406 401.847 63.2812 406.566 65.9688C411.316 68.6562 416.472 70 422.034 70C427.597 70 432.737 68.6562 437.456 65.9688C442.206 63.2812 445.956 59.6406 448.706 55.0469C451.487 50.4531 452.878 45.4688 452.878 40.0938ZM519.908 42.7656L516.533 36.625V2.5H519.908V42.7656ZM526.658 54.4375L523.283 48.7188V2.5H526.658V54.4375ZM480.158 29.7344L483.533 35.875V70H480.158V29.7344ZM473.408 17.5938L476.783 23.7812V70H473.408V17.5938ZM474.579 2.5H478.517L517.611 70H513.673L474.579 2.5ZM482.548 2.5H486.533L525.579 70H521.548L482.548 2.5ZM490.47 2.5H494.408L530.033 64.1406V2.5H533.408V70H529.423L490.47 2.5ZM470.033 8.3125V70H466.658V2.5H470.689L509.642 70H505.751L470.033 8.3125Z" fill="#70D6FF"/>
</svg>
