<svg width="354" height="74" viewBox="0 0 354 74" fill="none" xmlns="http://www.w3.org/2000/svg">
<path opacity="0.3" d="M33.5819 37.8906H28.2381C21.6756 37.8906 16.6288 36.5625 13.0975 33.9062C9.56625 31.2188 7.80063 27.5312 7.80063 22.8438C7.80063 18.4688 9.87875 14.8281 14.035 11.9219C18.1913 8.98438 24.0194 7.51562 31.5194 7.51562C36.5194 7.51562 41.1756 8.20312 45.4881 9.57812C49.8319 10.9531 53.4413 12.8906 56.3163 15.3906L53.6913 17.5C51.1288 15.4062 47.91 13.7812 44.035 12.625C40.16 11.4688 35.9881 10.8906 31.5194 10.8906C24.9256 10.8906 19.8788 12.0156 16.3788 14.2656C12.91 16.5156 11.1756 19.375 11.1756 22.8438C11.1756 26.5938 12.5975 29.4844 15.4413 31.5156C18.3163 33.5156 22.5819 34.5156 28.2381 34.5156H33.3944C40.0506 34.5156 45.1444 35.8594 48.6756 38.5469C52.2381 41.2031 54.0194 44.875 54.0194 49.5625C54.0194 53.9375 51.9413 57.5938 47.785 60.5312C43.6288 63.4375 37.8006 64.8906 30.3006 64.8906C25.3006 64.8906 20.6288 64.2031 16.285 62.8281C11.9725 61.4531 8.37875 59.5156 5.50375 57.0156L8.12875 54.9062C10.6913 57 13.91 58.625 17.785 59.7812C21.66 60.9375 25.8319 61.5156 30.3006 61.5156C36.8944 61.5156 41.9256 60.3906 45.3944 58.1406C48.8944 55.8906 50.6444 53.0312 50.6444 49.5625C50.6444 45.8125 49.2069 42.9375 46.3319 40.9375C43.4881 38.9062 39.2381 37.8906 33.5819 37.8906ZM33.5819 44.6406H28.2381C19.5506 44.6406 12.8475 42.6719 8.12875 38.7344C3.41 34.7656 1.05063 29.4688 1.05063 22.8438C1.05063 19.8125 1.7225 16.9688 3.06625 14.3125C4.41 11.6562 6.33188 9.32812 8.83188 7.32812C11.3631 5.29688 14.5819 3.70312 18.4881 2.54688C22.3944 1.35938 26.7381 0.765625 31.5194 0.765625C37.5506 0.765625 43.1913 1.6875 48.4413 3.53125C53.6913 5.34375 58.0663 7.89062 61.5663 11.1719L58.8475 13.1875C55.66 10.3125 51.6756 8.09375 46.8944 6.53125C42.1131 4.9375 36.9881 4.14062 31.5194 4.14062C23.0819 4.14062 16.4569 5.92188 11.6444 9.48438C6.83188 13.0469 4.42563 17.5 4.42563 22.8438C4.42563 28.5 6.48813 32.9844 10.6131 36.2969C14.7381 39.6094 20.6131 41.2656 28.2381 41.2656H33.3944C42.6444 41.2656 47.2694 44.0312 47.2694 49.5625C47.2694 52.0625 45.8475 54.125 43.0038 55.75C40.1913 57.3438 35.9569 58.1406 30.3006 58.1406C26.3319 58.1406 22.6444 57.6875 19.2381 56.7812C15.8319 55.8438 13.0194 54.5156 10.8006 52.7969L13.4725 50.7344C17.3788 53.4219 22.9881 54.7656 30.3006 54.7656C34.9881 54.7656 38.4256 54.2812 40.6131 53.3125C42.8006 52.3438 43.8944 51.0938 43.8944 49.5625C43.8944 47.7812 43.1288 46.5156 41.5975 45.7656C40.0663 45.0156 37.3944 44.6406 33.5819 44.6406ZM33.5819 31.1406H28.2381C19.1131 31.1406 14.5506 28.375 14.5506 22.8438C14.5506 20.3438 15.9569 18.2969 18.7694 16.7031C21.6131 15.0781 25.8631 14.2656 31.5194 14.2656C35.4881 14.2656 39.1756 14.7344 42.5819 15.6719C45.9881 16.5781 48.8006 17.8906 51.0194 19.6094L48.3475 21.6719C44.4413 18.9844 38.8319 17.6406 31.5194 17.6406C26.8319 17.6406 23.3944 18.125 21.2069 19.0938C19.0194 20.0625 17.9256 21.3125 17.9256 22.8438C17.9256 24.625 18.6913 25.8906 20.2225 26.6406C21.7538 27.3906 24.4256 27.7656 28.2381 27.7656H33.5819C42.2694 27.7656 48.9725 29.75 53.6913 33.7188C58.41 37.6562 60.7694 42.9375 60.7694 49.5625C60.7694 52.5938 60.0975 55.4375 58.7538 58.0938C57.41 60.75 55.4725 63.0938 52.9413 65.125C50.4413 67.125 47.2381 68.7188 43.3319 69.9062C39.4256 71.0625 35.0819 71.6406 30.3006 71.6406C24.2694 71.6406 18.6288 70.7344 13.3788 68.9219C8.12875 67.0781 3.75375 64.5156 0.253754 61.2344L2.9725 59.2188C6.16 62.0938 10.1444 64.3281 14.9256 65.9219C19.7069 67.4844 24.8319 68.2656 30.3006 68.2656C38.7381 68.2656 45.3631 66.4844 50.1756 62.9219C54.9881 59.3594 57.3944 54.9062 57.3944 49.5625C57.3944 43.9062 55.3319 39.4219 51.2069 36.1094C47.0819 32.7969 41.2069 31.1406 33.5819 31.1406ZM82.0488 21.2031H85.4238V70H82.0488V21.2031ZM68.5488 5.875V2.5H119.174V5.875H68.5488ZM68.5488 12.625V9.25H119.174V12.625H68.5488ZM68.5488 19.375V16H119.174V19.375H68.5488ZM102.299 21.2031H105.674V70H102.299V21.2031ZM95.5488 21.2031H98.9238V70H95.5488V21.2031ZM88.7988 21.2031H92.1738V70H88.7988V21.2031ZM172.844 40.0938V2.5H176.219V40.0938C176.219 43.6562 174.844 46.7188 172.094 49.2812C169.375 51.8438 166.094 53.125 162.25 53.125C158.406 53.125 155.109 51.8438 152.359 49.2812C149.641 46.7188 148.281 43.6562 148.281 40.0938V2.5H151.656V40.0938C151.656 42.75 152.688 45.0312 154.75 46.9375C156.844 48.8125 159.344 49.75 162.25 49.75C165.156 49.75 167.641 48.8125 169.703 46.9375C171.797 45.0312 172.844 42.75 172.844 40.0938ZM179.594 40.0938V2.5H182.969V40.0938C182.969 45.5625 180.938 50.2344 176.875 54.1094C172.812 57.9531 167.938 59.875 162.25 59.875C156.562 59.875 151.688 57.9531 147.625 54.1094C143.562 50.2344 141.531 45.5625 141.531 40.0938V2.5H144.906V40.0938C144.906 44.625 146.594 48.5 149.969 51.7188C153.375 54.9062 157.469 56.5 162.25 56.5C167 56.5 171.078 54.9062 174.484 51.7188C177.891 48.5 179.594 44.625 179.594 40.0938ZM186.344 40.0938V2.5H189.719V40.0938C189.719 44.875 188.484 49.3125 186.016 53.4062C183.547 57.4688 180.203 60.6875 175.984 63.0625C171.766 65.4375 167.188 66.625 162.25 66.625C157.312 66.625 152.734 65.4375 148.516 63.0625C144.297 60.6875 140.953 57.4688 138.484 53.4062C136.016 49.3125 134.781 44.875 134.781 40.0938V2.5H138.156V40.0938C138.156 44.25 139.234 48.1094 141.391 51.6719C143.547 55.2344 146.469 58.0625 150.156 60.1562C153.875 62.2188 157.906 63.25 162.25 63.25C166.594 63.25 170.609 62.2188 174.297 60.1562C178.016 58.0625 180.953 55.2344 183.109 51.6719C185.266 48.1094 186.344 44.25 186.344 40.0938ZM193.094 40.0938V2.5H196.469V40.0938C196.469 44.5938 195.562 48.9062 193.75 53.0312C191.938 57.125 189.5 60.6562 186.438 63.625C183.375 66.5938 179.734 68.9531 175.516 70.7031C171.297 72.4844 166.875 73.375 162.25 73.375C157.625 73.375 153.203 72.4844 148.984 70.7031C144.766 68.9531 141.125 66.5938 138.062 63.625C135 60.6562 132.562 57.125 130.75 53.0312C128.938 48.9062 128.031 44.5938 128.031 40.0938V2.5H131.406V40.0938C131.406 45.4688 132.781 50.4531 135.531 55.0469C138.312 59.6406 142.062 63.2812 146.781 65.9688C151.531 68.6562 156.688 70 162.25 70C167.812 70 172.953 68.6562 177.672 65.9688C182.422 63.2812 186.172 59.6406 188.922 55.0469C191.703 50.4531 193.094 45.4688 193.094 40.0938ZM227.123 49.75V22.75C227.123 22.75 233.357 22.75 245.826 22.75C249.295 22.75 252.264 24.0625 254.732 26.6875C257.232 29.3125 258.482 32.4688 258.482 36.1562C258.482 39.9688 257.248 43.1875 254.779 45.8125C252.311 48.4375 249.326 49.75 245.826 49.75H227.123ZM230.498 46.375H245.826C248.357 46.375 250.514 45.3906 252.295 43.4219C254.107 41.4531 255.014 39.0312 255.014 36.1562C255.014 33.4062 254.107 31.0469 252.295 29.0781C250.514 27.1094 248.357 26.125 245.826 26.125H230.498V46.375ZM223.748 53.125H245.826C250.264 53.125 254.061 51.4844 257.217 48.2031C260.373 44.8906 261.951 40.875 261.951 36.1562C261.951 31.5312 260.357 27.5781 257.17 24.2969C254.014 21.0156 250.232 19.375 245.826 19.375H223.748V53.125ZM220.373 56.5V16H245.826C251.17 16 255.764 17.9844 259.607 21.9531C263.482 25.8906 265.42 30.625 265.42 36.1562C265.42 41.8125 263.498 46.625 259.654 50.5938C255.811 54.5312 251.201 56.5 245.826 56.5H220.373ZM216.998 59.875H245.826C249.951 59.875 253.779 58.8281 257.311 56.7344C260.842 54.6406 263.654 51.7656 265.748 48.1094C267.842 44.4531 268.889 40.4688 268.889 36.1562C268.889 31.9375 267.842 28.0156 265.748 24.3906C263.654 20.7656 260.826 17.9062 257.264 15.8125C253.732 13.6875 249.92 12.625 245.826 12.625H216.998V59.875ZM213.623 63.25V9.25H245.826C250.545 9.25 254.936 10.4531 258.998 12.8594C263.092 15.2656 266.342 18.5469 268.748 22.7031C271.154 26.8281 272.357 31.3125 272.357 36.1562C272.357 41.0625 271.154 45.6094 268.748 49.7969C266.342 53.9531 263.092 57.2344 258.998 59.6406C254.936 62.0469 250.545 63.25 245.826 63.25H213.623ZM210.248 66.625H245.826C251.17 66.625 256.139 65.2812 260.732 62.5938C265.326 59.875 268.982 56.1719 271.701 51.4844C274.451 46.7969 275.826 41.6875 275.826 36.1562C275.826 30.7188 274.451 25.6719 271.701 21.0156C268.982 16.3281 265.311 12.6406 260.686 9.95312C256.092 7.23438 251.139 5.875 245.826 5.875H210.248V66.625ZM245.826 70H206.873V2.5H245.826C251.764 2.5 257.295 4.01562 262.42 7.04688C267.576 10.0469 271.67 14.1406 274.701 19.3281C277.764 24.4844 279.295 30.0938 279.295 36.1562C279.295 40.75 278.389 45.1406 276.576 49.3281C274.795 53.5156 272.389 57.125 269.357 60.1562C266.357 63.1562 262.795 65.5469 258.67 67.3281C254.545 69.1094 250.264 70 245.826 70ZM350.027 2.5H353.402L332.168 47.2188V70H328.793V47.2188L350.027 2.5ZM343.277 2.5H346.652L325.418 47.2188V70H322.043V47.2188L343.277 2.5ZM336.527 2.5H339.902L318.668 47.2188V70H315.293V47.2188L336.527 2.5ZM329.777 2.5H333.152L311.918 47.2188V70H308.543V47.2188L285.902 2.5H289.277L310.184 43.7969L329.777 2.5ZM292.699 2.5H296.074L312.809 34.3281L311.121 38.0312L292.699 2.5ZM299.449 2.5H302.871L316.184 26.9219L314.449 30.625L299.449 2.5ZM306.293 2.5H309.668L319.559 19.5625L317.871 23.2656L306.293 2.5Z" fill="#70D6FF"/>
</svg>
