<svg width="423" height="72" viewBox="0 0 423 72" fill="none" xmlns="http://www.w3.org/2000/svg">
<path opacity="0.3" d="M13.8094 21.2031H17.1844V70H13.8094V21.2031ZM0.309372 5.875V2.5H50.9344V5.875H0.309372ZM0.309372 12.625V9.25H50.9344V12.625H0.309372ZM0.309372 19.375V16H50.9344V19.375H0.309372ZM34.0594 21.2031H37.4344V70H34.0594V21.2031ZM27.3094 21.2031H30.6844V70H27.3094V21.2031ZM20.5594 21.2031H23.9344V70H20.5594V21.2031ZM85.8075 37.75H106.151C108.839 37.75 111.12 36.9062 112.995 35.2188C114.87 33.5312 115.807 31.1562 115.807 28.0938C115.807 25.8438 114.823 23.8281 112.854 22.0469C110.917 20.2656 108.682 19.375 106.151 19.375H77.1825V70H73.8075V16H106.151C109.62 16 112.651 17.2188 115.245 19.6562C117.87 22.0938 119.182 24.9062 119.182 28.0938C119.182 32.0625 117.917 35.2344 115.386 37.6094C112.854 39.9531 109.776 41.125 106.151 41.125H85.8075V37.75ZM85.8075 44.5H106.151C110.651 44.5 114.511 42.9688 117.729 39.9062C120.948 36.8438 122.557 32.9062 122.557 28.0938C122.557 24 120.917 20.4062 117.636 17.3125C114.354 14.1875 110.526 12.625 106.151 12.625H70.4325V70H67.0575V9.25H106.151C111.464 9.25 116.089 11.1406 120.026 14.9219C123.964 18.6719 125.932 23.0625 125.932 28.0938C125.932 33.7188 123.979 38.4219 120.073 42.2031C116.198 45.9844 111.557 47.875 106.151 47.875H85.8075V44.5ZM85.8075 51.25H106.151C110.307 51.25 114.151 50.25 117.682 48.25C121.214 46.25 124.026 43.4688 126.12 39.9062C128.245 36.3438 129.307 32.4062 129.307 28.0938C129.307 24.1875 128.261 20.5312 126.167 17.125C124.073 13.6875 121.229 10.9531 117.636 8.92188C114.073 6.89062 110.245 5.875 106.151 5.875H63.6825V70H60.3075V2.5H106.151C109.682 2.5 113.073 3.20312 116.323 4.60938C119.604 5.98438 122.432 7.82812 124.807 10.1406C127.182 12.4219 129.089 15.1406 130.526 18.2969C131.964 21.4531 132.682 24.7188 132.682 28.0938C132.682 33.5625 131.432 38.3438 128.932 42.4375C126.432 46.5 123.073 49.5938 118.854 51.7188L125.932 70H122.323L115.62 53.0781C114.776 53.3594 113.792 53.6406 112.667 53.9219L118.995 70H115.386L109.198 54.4844C108.229 54.5781 107.214 54.625 106.151 54.625L112.104 70H108.542L102.636 54.625H99.5887L105.261 70H101.698L95.9794 54.625H85.8075V51.25ZM83.9325 70H80.5575V22.75H106.151C107.901 22.75 109.386 23.2812 110.604 24.3438C111.823 25.375 112.432 26.625 112.432 28.0938C112.432 32.2812 110.339 34.375 106.151 34.375H85.8075V31H106.151C108.089 31 109.057 30.0312 109.057 28.0938C109.057 27.5625 108.761 27.1094 108.167 26.7344C107.604 26.3281 106.932 26.125 106.151 26.125H83.9325V70ZM190.009 36.7188C190.009 32.7188 188.774 29.625 186.306 27.4375C183.837 25.25 180.571 24.1562 176.509 24.1562C173.071 24.1562 170.118 25.3438 167.649 27.7188C165.181 30.0938 163.946 32.9375 163.946 36.25C163.946 38.125 164.196 39.8125 164.696 41.3125C165.196 42.7812 165.868 44.0156 166.712 45.0156C167.587 45.9844 168.618 46.7969 169.806 47.4531C170.993 48.0781 172.227 48.5312 173.509 48.8125C174.821 49.0938 176.212 49.2344 177.681 49.2344C181.243 49.2344 184.493 48.3594 187.431 46.6094V49.9844C184.399 51.5781 181.134 52.375 177.634 52.375C175.384 52.375 173.259 52.0781 171.259 51.4844C169.29 50.8594 167.493 49.9375 165.868 48.7188C164.243 47.4688 162.946 45.7812 161.977 43.6562C161.04 41.5 160.571 39.0312 160.571 36.25C160.571 31.9375 162.087 28.2812 165.118 25.2812C168.149 22.2812 171.946 20.7812 176.509 20.7812C181.54 20.7812 185.602 22.2031 188.696 25.0469C191.821 27.8594 193.384 31.75 193.384 36.7188V70H190.009V36.7188ZM200.134 36.7188V70H196.759V36.7188C196.759 30.8125 194.868 26.125 191.087 22.6562C187.306 19.1562 182.446 17.4062 176.509 17.4062C171.009 17.4062 166.415 19.2344 162.727 22.8906C159.04 26.5469 157.196 31 157.196 36.25C157.196 39.4375 157.743 42.2969 158.837 44.8281C159.962 47.3594 161.477 49.3906 163.384 50.9219C165.29 52.4531 167.415 53.625 169.759 54.4375C172.134 55.2188 174.634 55.6094 177.259 55.6094C180.821 55.6094 184.212 54.7812 187.431 53.125V56.6875C184.056 58.0938 180.649 58.7969 177.212 58.7969C174.118 58.7969 171.181 58.3281 168.399 57.3906C165.618 56.4219 163.134 55.0312 160.946 53.2188C158.759 51.375 157.024 49 155.743 46.0938C154.462 43.1562 153.821 39.875 153.821 36.25C153.821 30.0938 155.993 24.8594 160.337 20.5469C164.712 16.2031 170.102 14.0312 176.509 14.0312C181.009 14.0312 185.04 14.9531 188.602 16.7969C192.165 18.6094 194.977 21.25 197.04 24.7188C199.102 28.1875 200.134 32.1875 200.134 36.7188ZM206.884 36.7188V70H203.509V36.7188C203.509 31.5625 202.321 27 199.946 23.0312C197.602 19.0312 194.384 15.9688 190.29 13.8438C186.196 11.7188 181.602 10.6562 176.509 10.6562C171.665 10.6562 167.243 11.8125 163.243 14.125C159.243 16.4062 156.102 19.5 153.821 23.4062C151.571 27.3125 150.446 31.5938 150.446 36.25C150.446 40.25 151.181 43.9062 152.649 47.2188C154.118 50.5 156.087 53.2031 158.556 55.3281C161.056 57.4531 163.884 59.1094 167.04 60.2969C170.227 61.4531 173.556 62.0312 177.024 62.0312C180.556 62.0312 184.024 61.2969 187.431 59.8281V63.25C183.868 64.5938 180.368 65.2656 176.931 65.2656C171.524 65.2656 166.556 64.0469 162.024 61.6094C157.493 59.1719 153.868 55.7188 151.149 51.25C148.431 46.7812 147.071 41.7812 147.071 36.25C147.071 32.3125 147.821 28.5625 149.321 25C150.852 21.4375 152.915 18.3594 155.509 15.7656C158.102 13.1719 161.227 11.1094 164.884 9.57812C168.54 8.04688 172.415 7.28125 176.509 7.28125C182.227 7.28125 187.384 8.5 191.977 10.9375C196.602 13.375 200.243 16.8438 202.899 21.3438C205.556 25.8438 206.884 30.9688 206.884 36.7188ZM213.634 36.7188V70H210.259V36.7188C210.259 30.3438 208.774 24.6562 205.806 19.6562C202.837 14.625 198.79 10.75 193.665 8.03125C188.54 5.28125 182.821 3.90625 176.509 3.90625C170.446 3.90625 164.899 5.35938 159.868 8.26562C154.837 11.1719 150.884 15.1094 148.009 20.0781C145.134 25.0156 143.696 30.4062 143.696 36.25C143.696 40.0938 144.306 43.75 145.524 47.2188C146.774 50.6562 148.462 53.6719 150.587 56.2656C152.743 58.8281 155.212 61.0469 157.993 62.9219C160.806 64.7969 163.821 66.2188 167.04 67.1875C170.29 68.1562 173.587 68.6406 176.931 68.6406C180.618 68.6406 184.118 67.9375 187.431 66.5312V70C183.962 71.2188 180.399 71.8281 176.743 71.8281C172.962 71.8281 169.274 71.2969 165.681 70.2344C162.118 69.1719 158.806 67.6094 155.743 65.5469C152.712 63.4531 150.04 61 147.727 58.1875C145.415 55.3438 143.602 52.0312 142.29 48.25C140.977 44.4688 140.321 40.4688 140.321 36.25C140.321 31.4062 141.227 26.7969 143.04 22.4219C144.884 18.0156 147.384 14.2188 150.54 11.0312C153.727 7.8125 157.571 5.26562 162.071 3.39062C166.602 1.48438 171.415 0.53125 176.509 0.53125C181.696 0.53125 186.571 1.40625 191.134 3.15625C195.696 4.90625 199.634 7.34375 202.946 10.4688C206.259 13.5625 208.868 17.375 210.774 21.9062C212.681 26.4375 213.634 31.375 213.634 36.7188ZM221.226 2.5H224.882L249.772 65.4531L274.663 2.5H278.272L251.601 70H247.944L221.226 2.5ZM228.491 2.5H232.101L252.116 53.125L250.194 57.4375L228.491 2.5ZM235.757 2.5H239.413L255.726 43.8906L253.944 48.5312L235.757 2.5ZM243.022 2.5H246.632L259.288 34.5156L257.507 39.25L243.022 2.5ZM296.413 2.5H300.069L273.351 70H269.741L296.413 2.5ZM289.194 2.5H292.804L266.085 70H262.476L289.194 2.5ZM281.882 2.5H285.538L258.819 70H255.21L281.882 2.5ZM324.818 70H321.443V2.5H324.818V70ZM318.068 70H314.693V2.5H318.068V70ZM311.318 70H307.943V2.5H311.318V70ZM331.568 53.125H363.864V56.5H331.568V59.875H363.864V63.25H331.568V66.625H363.864V70H328.193V2.5H363.864V5.875H331.568V9.25H363.864V12.625H331.568V16H363.864V19.375H331.568V27.7656H361.989V31.1406H331.568V34.5156H361.989V37.8906H331.568V41.2656H361.989V44.6406H331.568V53.125ZM373.894 2.5H377.269V70H373.894V2.5ZM394.144 2.5H397.519V53.125H422.409V56.5H397.519V59.875H422.409V63.25H397.519V66.625H422.409V70H394.144V2.5ZM387.394 2.5H390.769V70H387.394V2.5ZM380.644 2.5H384.019V70H380.644V2.5Z" fill="#70D6FF"/>
</svg>
