<svg width="346" height="75" viewBox="0 0 346 75" fill="none" xmlns="http://www.w3.org/2000/svg">
<path opacity="0.3" d="M67.3544 49.2969C68.0106 49.3281 68.8075 49.3438 69.745 49.3438C70.6825 49.3438 71.4637 49.3281 72.0887 49.2969C72.745 49.2344 73.4169 49.1094 74.1044 48.9219C74.7919 48.7031 75.3387 48.4219 75.745 48.0781C76.1512 47.7344 76.4794 47.25 76.7294 46.625C77.0106 45.9688 77.1512 45.1875 77.1512 44.2812V3.5H80.5262V44.2812C80.5262 49.9062 76.9325 52.7188 69.745 52.7188C66.12 52.7188 63.4325 52.0312 61.6825 50.6562C61.4325 51.875 61.1356 52.9531 60.7919 53.8906C63.1669 55.3594 66.1512 56.0938 69.745 56.0938C73.9325 56.0938 77.3387 55.125 79.9637 53.1875C82.5887 51.2188 83.9012 48.25 83.9012 44.2812V3.5H87.2762V44.2812C87.2762 49.1875 85.62 52.9531 82.3075 55.5781C79.0262 58.1719 74.8387 59.4688 69.745 59.4688C65.7762 59.4688 62.37 58.6562 59.5262 57.0312C59.0575 58.0312 58.5106 58.9844 57.8856 59.8906C61.2919 61.8594 65.245 62.8438 69.745 62.8438C72.6512 62.8438 75.3544 62.4375 77.8544 61.625C80.3856 60.8125 82.6044 59.6406 84.5106 58.1094C86.4169 56.5781 87.9169 54.625 89.0106 52.25C90.1044 49.875 90.6512 47.2188 90.6512 44.2812V3.5H94.0262V44.2812C94.0262 48.7812 92.9169 52.7188 90.6981 56.0938C88.5106 59.4688 85.5887 62 81.9325 63.6875C78.3075 65.375 74.245 66.2188 69.745 66.2188C64.495 66.2188 59.87 65.0156 55.87 62.6094C54.995 63.6094 54.1981 64.4219 53.4794 65.0469C58.1356 68.0781 63.5575 69.5938 69.745 69.5938C74.8387 69.5938 79.4637 68.5938 83.62 66.5938C87.7762 64.5938 91.1044 61.6562 93.6044 57.7812C96.1356 53.875 97.4012 49.375 97.4012 44.2812V3.5H100.776V44.2812C100.776 48.5938 99.9481 52.5625 98.2919 56.1875C96.6669 59.8125 94.4481 62.8438 91.6356 65.2812C88.8544 67.7188 85.5731 69.6094 81.7919 70.9531C78.0106 72.2969 73.995 72.9688 69.745 72.9688C62.3075 72.9688 55.9481 71.0625 50.6669 67.25C45.1981 71.0625 38.745 72.9688 31.3075 72.9688C27.0575 72.9688 23.0419 72.2969 19.2606 70.9531C15.4794 69.6094 12.1825 67.7188 9.37 65.2812C6.58875 62.8438 4.37 59.8125 2.71375 56.1875C1.08875 52.5625 0.276245 48.5938 0.276245 44.2812V3.5H3.65125V44.2812C3.65125 48.125 4.37 51.6562 5.8075 54.875C7.27625 58.0938 9.26062 60.7656 11.7606 62.8906C14.2606 65.0156 17.1825 66.6719 20.5262 67.8594C23.9012 69.0156 27.495 69.5938 31.3075 69.5938C36.2762 69.5938 40.8856 68.4688 45.1356 66.2188C49.3856 63.9375 52.745 60.8594 55.2137 56.9844C57.7137 53.0781 58.9637 48.8438 58.9637 44.2812V3.5H62.3387V44.2812C62.3387 45.1875 62.4637 45.9688 62.7137 46.625C62.995 47.25 63.3387 47.7344 63.745 48.0781C64.1512 48.4219 64.6981 48.7031 65.3856 48.9219C66.0731 49.1094 66.7294 49.2344 67.3544 49.2969ZM42.0887 3.5V44.2812C42.0887 49.9062 38.495 52.7188 31.3075 52.7188C24.12 52.7188 20.5262 49.9062 20.5262 44.2812V3.5H23.9012V44.2812C23.9012 45.1875 24.0262 45.9688 24.2762 46.625C24.5575 47.25 24.9012 47.7344 25.3075 48.0781C25.7137 48.4219 26.2606 48.7031 26.9481 48.9219C27.6356 49.1094 28.2919 49.2344 28.9169 49.2969C29.5731 49.3281 30.37 49.3438 31.3075 49.3438C32.245 49.3438 33.0262 49.3281 33.6512 49.2969C34.3075 49.2344 34.9794 49.1094 35.6669 48.9219C36.3544 48.7031 36.9012 48.4219 37.3075 48.0781C37.7137 47.7344 38.0419 47.25 38.2919 46.625C38.5731 45.9688 38.7137 45.1875 38.7137 44.2812V3.5H42.0887ZM48.8387 3.5V44.2812C48.8387 49.1875 47.1825 52.9531 43.87 55.5781C40.5887 58.1719 36.4012 59.4688 31.3075 59.4688C26.2137 59.4688 22.0106 58.1719 18.6981 55.5781C15.4169 52.9531 13.7762 49.1875 13.7762 44.2812V3.5H17.1512V44.2812C17.1512 48.25 18.4637 51.2188 21.0887 53.1875C23.7137 55.125 27.12 56.0938 31.3075 56.0938C35.495 56.0938 38.9012 55.125 41.5262 53.1875C44.1512 51.2188 45.4637 48.25 45.4637 44.2812V3.5H48.8387ZM55.5887 3.5V44.2812C55.5887 48.7812 54.4794 52.7188 52.2606 56.0938C50.0731 59.4688 47.1512 62 43.495 63.6875C39.87 65.375 35.8075 66.2188 31.3075 66.2188C26.8075 66.2188 22.7294 65.375 19.0731 63.6875C15.4481 62 12.5262 59.4688 10.3075 56.0938C8.12 52.7188 7.02625 48.7812 7.02625 44.2812V3.5H10.4012V44.2812C10.4012 47.2188 10.9481 49.875 12.0419 52.25C13.1356 54.625 14.6356 56.5781 16.5419 58.1094C18.4481 59.6406 20.6512 60.8125 23.1512 61.625C25.6825 62.4375 28.4012 62.8438 31.3075 62.8438C34.2137 62.8438 36.9169 62.4375 39.4169 61.625C41.9481 60.8125 44.1669 59.6406 46.0731 58.1094C47.9794 56.5781 49.4794 54.625 50.5731 52.25C51.6669 49.875 52.2137 47.2188 52.2137 44.2812V3.5H55.5887ZM136.962 27.7344C134.337 30.3594 133.024 33.5312 133.024 37.25C133.024 40.9688 134.337 44.1562 136.962 46.8125C139.618 49.4375 142.806 50.75 146.524 50.75C150.243 50.75 153.415 49.4375 156.04 46.8125C158.696 44.1562 160.024 40.9688 160.024 37.25C160.024 33.5312 158.696 30.3594 156.04 27.7344C153.415 25.0781 150.243 23.75 146.524 23.75C142.806 23.75 139.618 25.0781 136.962 27.7344ZM134.571 49.2031C131.29 45.8906 129.649 41.9062 129.649 37.25C129.649 32.5938 131.29 28.625 134.571 25.3438C137.884 22.0312 141.868 20.375 146.524 20.375C151.181 20.375 155.149 22.0312 158.431 25.3438C161.743 28.625 163.399 32.5938 163.399 37.25C163.399 41.9062 161.743 45.8906 158.431 49.2031C155.149 52.4844 151.181 54.125 146.524 54.125C141.868 54.125 137.884 52.4844 134.571 49.2031ZM132.181 22.9531C128.243 26.9219 126.274 31.6875 126.274 37.25C126.274 42.8125 128.243 47.5781 132.181 51.5469C136.149 55.5156 140.931 57.5 146.524 57.5C152.118 57.5 156.884 55.5156 160.821 51.5469C164.79 47.5781 166.774 42.8125 166.774 37.25C166.774 31.6875 164.79 26.9219 160.821 22.9531C156.884 18.9844 152.118 17 146.524 17C140.931 17 136.149 18.9844 132.181 22.9531ZM126.04 49.1094C123.946 45.4844 122.899 41.5312 122.899 37.25C122.899 32.9688 123.946 29.0156 126.04 25.3906C128.165 21.7656 131.04 18.9062 134.665 16.8125C138.29 14.6875 142.243 13.625 146.524 13.625C150.806 13.625 154.759 14.6875 158.384 16.8125C162.009 18.9062 164.868 21.7656 166.962 25.3906C169.087 29.0156 170.149 32.9688 170.149 37.25C170.149 41.5312 169.087 45.4844 166.962 49.1094C164.868 52.7344 162.009 55.6094 158.384 57.7344C154.759 59.8281 150.806 60.875 146.524 60.875C142.243 60.875 138.29 59.8281 134.665 57.7344C131.04 55.6094 128.165 52.7344 126.04 49.1094ZM121.634 26.7969C120.227 30.1094 119.524 33.5938 119.524 37.25C119.524 40.9062 120.227 44.4062 121.634 47.75C123.071 51.0625 124.993 53.9375 127.399 56.375C129.837 58.7812 132.712 60.7031 136.024 62.1406C139.368 63.5469 142.868 64.25 146.524 64.25C150.181 64.25 153.665 63.5469 156.977 62.1406C160.321 60.7031 163.196 58.7812 165.602 56.375C168.04 53.9375 169.962 51.0625 171.368 47.75C172.806 44.4062 173.524 40.9062 173.524 37.25C173.524 33.5938 172.806 30.1094 171.368 26.7969C169.962 23.4531 168.04 20.5781 165.602 18.1719C163.196 15.7344 160.321 13.8125 156.977 12.4062C153.665 10.9688 150.181 10.25 146.524 10.25C142.868 10.25 139.368 10.9688 136.024 12.4062C132.712 13.8125 129.837 15.7344 127.399 18.1719C124.993 20.5781 123.071 23.4531 121.634 26.7969ZM118.54 49.0625C116.946 45.3125 116.149 41.375 116.149 37.25C116.149 33.125 116.946 29.1875 118.54 25.4375C120.165 21.6875 122.321 18.4688 125.009 15.7812C127.727 13.0625 130.962 10.9062 134.712 9.3125C138.462 7.6875 142.399 6.875 146.524 6.875C150.649 6.875 154.587 7.6875 158.337 9.3125C162.087 10.9062 165.306 13.0625 167.993 15.7812C170.712 18.4688 172.868 21.6875 174.462 25.4375C176.087 29.1875 176.899 33.125 176.899 37.25C176.899 41.375 176.087 45.3125 174.462 49.0625C172.868 52.8125 170.712 56.0469 167.993 58.7656C165.306 61.4531 162.087 63.6094 158.337 65.2344C154.587 66.8281 150.649 67.625 146.524 67.625C142.399 67.625 138.462 66.8281 134.712 65.2344C130.962 63.6094 127.727 61.4531 125.009 58.7656C122.321 56.0469 120.165 52.8125 118.54 49.0625ZM115.446 24.1719C113.665 28.3281 112.774 32.6875 112.774 37.25C112.774 41.8125 113.665 46.1875 115.446 50.375C117.227 54.5312 119.618 58.125 122.618 61.1562C125.649 64.1562 129.243 66.5469 133.399 68.3281C137.587 70.1094 141.962 71 146.524 71C151.087 71 155.446 70.1094 159.602 68.3281C163.79 66.5469 167.384 64.1562 170.384 61.1562C173.415 58.125 175.821 54.5312 177.602 50.375C179.384 46.1875 180.274 41.8125 180.274 37.25C180.274 32.6875 179.384 28.3281 177.602 24.1719C175.821 19.9844 173.415 16.3906 170.384 13.3906C167.384 10.3594 163.79 7.95312 159.602 6.17188C155.446 4.39062 151.087 3.5 146.524 3.5C141.962 3.5 137.587 4.39062 133.399 6.17188C129.243 7.95312 125.649 10.3594 122.618 13.3906C119.618 16.3906 117.227 19.9844 115.446 24.1719ZM112.352 51.6875C110.384 47.0938 109.399 42.2812 109.399 37.25C109.399 32.2188 110.384 27.4219 112.352 22.8594C114.321 18.2656 116.962 14.3125 120.274 11C123.587 7.6875 127.524 5.04688 132.087 3.07812C136.681 1.10938 141.493 0.125 146.524 0.125C151.556 0.125 156.352 1.10938 160.915 3.07812C165.509 5.04688 169.462 7.6875 172.774 11C176.087 14.3125 178.727 18.2656 180.696 22.8594C182.665 27.4219 183.649 32.2188 183.649 37.25C183.649 42.2812 182.665 47.0938 180.696 51.6875C178.727 56.25 176.087 60.1875 172.774 63.5C169.462 66.8125 165.509 69.4531 160.915 71.4219C156.352 73.3906 151.556 74.375 146.524 74.375C141.493 74.375 136.681 73.3906 132.087 71.4219C127.524 69.4531 123.587 66.8125 120.274 63.5C116.962 60.1875 114.321 56.25 112.352 51.6875ZM218.663 38.75H239.007C241.694 38.75 243.976 37.9062 245.851 36.2188C247.726 34.5312 248.663 32.1562 248.663 29.0938C248.663 26.8438 247.679 24.8281 245.71 23.0469C243.772 21.2656 241.538 20.375 239.007 20.375H210.038V71H206.663V17H239.007C242.476 17 245.507 18.2188 248.101 20.6562C250.726 23.0938 252.038 25.9062 252.038 29.0938C252.038 33.0625 250.772 36.2344 248.241 38.6094C245.71 40.9531 242.632 42.125 239.007 42.125H218.663V38.75ZM218.663 45.5H239.007C243.507 45.5 247.366 43.9688 250.585 40.9062C253.804 37.8438 255.413 33.9062 255.413 29.0938C255.413 25 253.772 21.4062 250.491 18.3125C247.21 15.1875 243.382 13.625 239.007 13.625H203.288V71H199.913V10.25H239.007C244.319 10.25 248.944 12.1406 252.882 15.9219C256.819 19.6719 258.788 24.0625 258.788 29.0938C258.788 34.7188 256.835 39.4219 252.929 43.2031C249.054 46.9844 244.413 48.875 239.007 48.875H218.663V45.5ZM218.663 52.25H239.007C243.163 52.25 247.007 51.25 250.538 49.25C254.069 47.25 256.882 44.4688 258.976 40.9062C261.101 37.3438 262.163 33.4062 262.163 29.0938C262.163 25.1875 261.116 21.5312 259.022 18.125C256.929 14.6875 254.085 11.9531 250.491 9.92188C246.929 7.89062 243.101 6.875 239.007 6.875H196.538V71H193.163V3.5H239.007C242.538 3.5 245.929 4.20312 249.179 5.60938C252.46 6.98438 255.288 8.82812 257.663 11.1406C260.038 13.4219 261.944 16.1406 263.382 19.2969C264.819 22.4531 265.538 25.7188 265.538 29.0938C265.538 34.5625 264.288 39.3438 261.788 43.4375C259.288 47.5 255.929 50.5938 251.71 52.7188L258.788 71H255.179L248.476 54.0781C247.632 54.3594 246.647 54.6406 245.522 54.9219L251.851 71H248.241L242.054 55.4844C241.085 55.5781 240.069 55.625 239.007 55.625L244.96 71H241.397L235.491 55.625H232.444L238.116 71H234.554L228.835 55.625H218.663V52.25ZM216.788 71H213.413V23.75H239.007C240.757 23.75 242.241 24.2812 243.46 25.3438C244.679 26.375 245.288 27.625 245.288 29.0938C245.288 33.2812 243.194 35.375 239.007 35.375H218.663V32H239.007C240.944 32 241.913 31.0312 241.913 29.0938C241.913 28.5625 241.616 28.1094 241.022 27.7344C240.46 27.3281 239.788 27.125 239.007 27.125H216.788V71ZM345.88 3.5H342.13L323.333 37.5312L341.849 71H345.599L327.083 37.5312L345.88 3.5ZM338.333 3.5H334.583L315.786 37.5312L334.302 71H338.052L319.536 37.5312L338.333 3.5ZM330.786 3.5H327.036L308.239 37.5312L326.755 71H330.505L311.989 37.5312L330.786 3.5ZM323.239 3.5H319.489L300.646 37.5312L319.208 71H322.958L304.396 37.5312L323.239 3.5ZM295.208 3.5H298.583V71H295.208V3.5ZM288.458 3.5H291.833V71H288.458V3.5ZM281.708 3.5H285.083V71H281.708V3.5ZM274.958 3.5H278.333V71H274.958V3.5Z" fill="#70D6FF"/>
</svg>
